<svg width="973" height="490" viewBox="0 0 973 490" fill="none" xmlns="http://www.w3.org/2000/svg">
<path d="M163.516 462.738H177.418V476.64H163.516V462.738ZM177.418 462.738H190.658V476.64H177.418V462.738ZM190.658 462.738H204.56V476.64H190.658V462.738ZM204.56 462.738H217.8V476.64H204.56V462.738ZM217.8 462.738H231.702V476.64H217.8V462.738ZM231.702 462.738H244.942V476.64H231.702V462.738ZM244.942 462.738H258.844V476.64H244.942V462.738ZM258.844 462.738H272.746V476.64H258.844V462.738ZM217.8 462.738H204.56V449.498H217.8V462.738ZM204.56 462.738H190.658V449.498H204.56V462.738ZM231.702 462.738H217.8V449.498H231.702V462.738ZM244.942 462.738H231.702V449.498H244.942V462.738ZM258.844 462.738H244.942V449.498H258.844V462.738ZM217.8 449.498H204.56V435.596H217.8V449.498ZM217.8 435.596H204.56V422.356H217.8V435.596ZM231.702 449.498H217.8V435.596H231.702V449.498ZM244.942 449.498H231.702V435.596H244.942V449.498ZM231.702 435.596H217.8V422.356H231.702V435.596ZM244.942 435.596H231.702V422.356H244.942V435.596ZM272.746 462.738H258.844V449.498H272.746V462.738ZM258.844 449.498H244.942V435.596H258.844V449.498ZM258.844 435.596H244.942V422.356H258.844V435.596ZM217.8 422.356H204.56V408.454H217.8V422.356ZM231.702 422.356H217.8V408.454H231.702V422.356ZM244.942 422.356H231.702V408.454H244.942V422.356ZM258.844 422.356H244.942V408.454H258.844V422.356ZM217.8 408.454H204.56V395.214H217.8V408.454ZM231.702 408.454H217.8V395.214H231.702V408.454ZM244.942 408.454H231.702V395.214H244.942V408.454ZM258.844 408.454H244.942V395.214H258.844V408.454ZM217.8 395.214H204.56V381.312H217.8V395.214ZM231.702 395.214H217.8V381.312H231.702V395.214ZM244.942 395.214H231.702V381.312H244.942V395.214ZM258.844 395.214H244.942V381.312H258.844V395.214ZM217.8 381.312H204.56V367.41H217.8V381.312ZM231.702 381.312H217.8V367.41H231.702V381.312ZM244.942 381.312H231.702V367.41H244.942V381.312ZM258.844 381.312H244.942V367.41H258.844V381.312ZM217.8 367.41H204.56V354.17H217.8V367.41ZM231.702 367.41H217.8V354.17H231.702V367.41ZM244.942 367.41H231.702V354.17H244.942V367.41ZM258.844 367.41H244.942V354.17H258.844V367.41ZM217.8 354.17H204.56V340.268H217.8V354.17ZM231.702 354.17H217.8V340.268H231.702V354.17ZM244.942 354.17H231.702V340.268H244.942V354.17ZM258.844 354.17H244.942V340.268H258.844V354.17ZM217.8 340.268H204.56V327.028H217.8V340.268ZM231.702 340.268H217.8V327.028H231.702V340.268ZM244.942 340.268H231.702V327.028H244.942V340.268ZM258.844 340.268H244.942V327.028H258.844V340.268ZM217.8 327.028H204.56V313.126H217.8V327.028ZM231.702 327.028H217.8V313.126H231.702V327.028ZM244.942 327.028H231.702V313.126H244.942V327.028ZM258.844 327.028H244.942V313.126H258.844V327.028ZM217.8 313.126H204.56V299.886H217.8V313.126ZM231.702 313.126H217.8V299.886H231.702V313.126ZM244.942 313.126H231.702V299.886H244.942V313.126ZM258.844 313.126H244.942V299.886H258.844V313.126ZM217.8 299.886H204.56V285.984H217.8V299.886ZM231.702 299.886H217.8V285.984H231.702V299.886ZM244.942 299.886H231.702V285.984H244.942V299.886ZM258.844 299.886H244.942V285.984H258.844V299.886ZM217.8 285.984H204.56V272.082H217.8V285.984ZM231.702 285.984H217.8V272.082H231.702V285.984ZM244.942 285.984H231.702V272.082H244.942V285.984ZM258.844 285.984H244.942V272.082H258.844V285.984ZM217.8 272.082H204.56V258.842H217.8V272.082ZM231.702 272.082H217.8V258.842H231.702V272.082ZM244.942 272.082H231.702V258.842H244.942V272.082ZM258.844 272.082H244.942V258.842H258.844V272.082ZM217.8 258.842H204.56V244.94H217.8V258.842ZM231.702 258.842H217.8V244.94H231.702V258.842ZM244.942 258.842H231.702V244.94H244.942V258.842ZM258.844 258.842H244.942V244.94H258.844V258.842ZM217.8 244.94H204.56V231.7H217.8V244.94ZM231.702 244.94H217.8V231.7H231.702V244.94ZM244.942 244.94H231.702V231.7H244.942V244.94ZM258.844 244.94H244.942V231.7H258.844V244.94ZM217.8 231.7H204.56V217.798H217.8V231.7ZM231.702 231.7H217.8V217.798H231.702V231.7ZM244.942 231.7H231.702V217.798H244.942V231.7ZM258.844 231.7H244.942V217.798H258.844V231.7ZM217.8 217.798H204.56V204.558H217.8V217.798ZM231.702 217.798H217.8V204.558H231.702V217.798ZM244.942 217.798H231.702V204.558H244.942V217.798ZM258.844 217.798H244.942V204.558H258.844V217.798ZM217.8 204.558H204.56V190.656H217.8V204.558ZM231.702 204.558H217.8V190.656H231.702V204.558ZM244.942 204.558H231.702V190.656H244.942V204.558ZM258.844 204.558H244.942V190.656H258.844V204.558ZM217.8 190.656H204.56V176.754H217.8V190.656ZM231.702 190.656H217.8V176.754H231.702V190.656ZM244.942 190.656H231.702V176.754H244.942V190.656ZM258.844 190.656H244.942V176.754H258.844V190.656ZM217.8 176.754H204.56V163.514H217.8V176.754ZM231.702 176.754H217.8V163.514H231.702V176.754ZM244.942 176.754H231.702V163.514H244.942V176.754ZM258.844 176.754H244.942V163.514H258.844V176.754ZM217.8 163.514H204.56V149.612H217.8V163.514ZM231.702 163.514H217.8V149.612H231.702V163.514ZM244.942 163.514H231.702V149.612H244.942V163.514ZM258.844 163.514H244.942V149.612H258.844V163.514ZM217.8 149.612H204.56V136.372H217.8V149.612ZM231.702 149.612H217.8V136.372H231.702V149.612ZM244.942 149.612H231.702V136.372H244.942V149.612ZM258.844 149.612H244.942V136.372H258.844V149.612ZM217.8 136.372H204.56V122.47H217.8V136.372ZM231.702 136.372H217.8V122.47H231.702V136.372ZM244.942 136.372H231.702V122.47H244.942V136.372ZM258.844 136.372H244.942V122.47H258.844V136.372ZM217.8 122.47H204.56V109.23H217.8V122.47ZM231.702 122.47H217.8V109.23H231.702V122.47ZM244.942 122.47H231.702V109.23H244.942V122.47ZM258.844 122.47H244.942V109.23H258.844V122.47ZM217.8 109.23H204.56V95.3281H217.8V109.23ZM231.702 109.23H217.8V95.3281H231.702V109.23ZM244.942 109.23H231.702V95.3281H244.942V109.23ZM258.844 109.23H244.942V95.3281H258.844V109.23ZM217.8 95.3281H204.56V81.4261H217.8V95.3281ZM231.702 95.3281H217.8V81.4261H231.702V95.3281ZM244.942 95.3281H231.702V81.4261H244.942V95.3281ZM258.844 95.3281H244.942V81.4261H258.844V95.3281ZM217.8 81.4261H204.56V68.1861H217.8V81.4261ZM231.702 81.4261H217.8V68.1861H231.702V81.4261ZM244.942 81.4261H231.702V68.1861H244.942V81.4261ZM258.844 81.4261H244.942V68.1861H258.844V81.4261ZM217.8 68.1861H204.56V54.2841H217.8V68.1861ZM231.702 68.1861H217.8V54.2841H231.702V68.1861ZM244.942 68.1861H231.702V54.2841H244.942V68.1861ZM258.844 68.1861H244.942V54.2841H258.844V68.1861ZM190.658 109.23H177.418V95.3281H190.658V109.23ZM231.702 54.2841H217.8V41.0441H231.702V54.2841ZM244.942 54.2841H231.702V41.0441H244.942V54.2841ZM258.844 54.2841H244.942V41.0441H258.844V54.2841ZM204.56 81.4261H190.658V68.1861H204.56V81.4261ZM190.658 95.3281H177.418V81.4261H190.658V95.3281ZM204.56 95.3281H190.658V81.4261H204.56V95.3281ZM177.418 109.23H163.516V95.3281H177.418V109.23ZM177.418 122.47H163.516V109.23H177.418V122.47ZM163.516 136.372H149.614V122.47H163.516V136.372ZM163.516 122.47H149.614V109.23H163.516V122.47ZM149.614 136.372H136.374V122.47H149.614V136.372ZM163.516 149.612H149.614V136.372H163.516V149.612ZM149.614 149.612H136.374V136.372H149.614V149.612ZM149.614 163.514H136.374V149.612H149.614V163.514ZM136.374 163.514H122.472V149.612H136.374V163.514ZM136.374 176.754H122.472V163.514H136.374V176.754ZM122.472 176.754H109.232V163.514H122.472V176.754ZM190.658 299.886H177.418V285.984H190.658V299.886ZM109.232 299.886H95.3297V285.984H109.232V299.886ZM122.472 299.886H109.232V285.984H122.472V299.886ZM136.374 299.886H122.472V285.984H136.374V299.886ZM177.418 299.886H163.516V285.984H177.418V299.886ZM204.56 299.886H190.658V285.984H204.56V299.886ZM95.3297 299.886H82.0897V285.984H95.3297V299.886ZM163.516 299.886H149.614V285.984H163.516V299.886ZM82.0897 299.886H68.1877V285.984H82.0897V299.886ZM68.1877 285.984H54.2857V272.082H68.1877V285.984ZM68.1877 299.886H54.2857V285.984H68.1877V299.886ZM54.2857 272.082H41.0457V258.842H54.2857V272.082ZM54.2857 285.984H41.0457V272.082H54.2857V285.984ZM41.0457 285.984H27.1437V272.082H41.0457V285.984ZM54.2857 299.886H41.0457V285.984H54.2857V299.886ZM41.0457 299.886H27.1437V285.984H41.0457V299.886ZM68.1877 462.738H82.0897V476.64H68.1877V462.738ZM54.2857 462.738H41.0457V449.498H54.2857V462.738ZM41.0457 462.738H54.2857V476.64H41.0457V462.738ZM13.9037 462.738H27.1437V476.64H13.9037V462.738ZM54.2857 462.738H68.1877V476.64H54.2857V462.738ZM27.1437 462.738H41.0457V476.64H27.1437V462.738ZM68.1877 313.126H54.2857V299.886H68.1877V313.126ZM54.2857 313.126H41.0457V299.886H54.2857V313.126ZM54.2857 327.028H41.0457V313.126H54.2857V327.028ZM54.2857 340.268H41.0457V327.028H54.2857V340.268ZM68.1877 327.028H54.2857V313.126H68.1877V327.028ZM68.1877 340.268H54.2857V327.028H68.1877V340.268ZM95.3297 313.126H82.0897V299.886H95.3297V313.126ZM82.0897 313.126H68.1877V299.886H82.0897V313.126ZM82.0897 327.028H68.1877V313.126H82.0897V327.028ZM82.0897 340.268H68.1877V327.028H82.0897V340.268ZM95.3297 327.028H82.0897V313.126H95.3297V327.028ZM82.0897 462.738H95.3297V476.64H82.0897V462.738ZM122.472 313.126H109.232V299.886H122.472V313.126ZM109.232 313.126H95.3297V299.886H109.232V313.126ZM109.232 327.028H95.3297V313.126H109.232V327.028ZM95.3297 462.738H109.232V476.64H95.3297V462.738ZM122.472 327.028H109.232V313.126H122.472V327.028ZM109.232 462.738H122.472V476.64H109.232V462.738ZM149.614 313.126H136.374V299.886H149.614V313.126ZM136.374 313.126H122.472V299.886H136.374V313.126ZM136.374 327.028H122.472V313.126H136.374V327.028ZM122.472 462.738H136.374V476.64H122.472V462.738ZM149.614 327.028H136.374V313.126H149.614V327.028ZM149.614 462.738H136.374V449.498H149.614V462.738ZM177.418 313.126H163.516V299.886H177.418V313.126ZM163.516 313.126H149.614V299.886H163.516V313.126ZM163.516 449.498H149.614V435.596H163.516V449.498ZM163.516 462.738H149.614V449.498H163.516V462.738ZM177.418 449.498H163.516V435.596H177.418V449.498ZM177.418 462.738H163.516V449.498H177.418V462.738ZM204.56 313.126H190.658V299.886H204.56V313.126ZM190.658 313.126H177.418V299.886H190.658V313.126ZM190.658 449.498H177.418V435.596H190.658V449.498ZM190.658 462.738H177.418V449.498H190.658V462.738ZM204.56 435.596H190.658V422.356H204.56V435.596ZM204.56 449.498H190.658V435.596H204.56V449.498ZM285.986 313.126H272.746V299.886H285.986V313.126ZM272.746 313.126H258.844V299.886H272.746V313.126ZM272.746 327.028H258.844V313.126H272.746V327.028ZM272.746 340.268H258.844V327.028H272.746V340.268ZM285.986 449.498H272.746V435.596H285.986V449.498ZM285.986 462.738H272.746V449.498H285.986V462.738ZM313.128 313.126H299.888V299.886H313.128V313.126ZM299.888 313.126H285.986V299.886H299.888V313.126ZM299.888 449.498H285.986V435.596H299.888V449.498ZM299.888 462.738H285.986V449.498H299.888V462.738ZM285.986 435.596H272.746V422.356H285.986V435.596ZM313.128 462.738H327.03V476.64H313.128V462.738ZM313.128 299.886H327.03V313.126H313.128V299.886ZM313.128 462.738H299.888V449.498H313.128V462.738ZM0.00171969 462.738H13.9037V476.64H0.00171969V462.738ZM41.0457 462.738H27.1437V449.498H41.0457V462.738ZM122.472 190.656H109.232V176.754H122.472V190.656ZM109.232 190.656H95.3297V176.754H109.232V190.656ZM231.702 41.0441H217.8V27.1421H231.702V41.0441ZM244.942 41.0441H231.702V27.1421H244.942V41.0441ZM258.844 41.0441H244.942V27.1421H258.844V41.0441ZM244.942 27.1421H231.702V13.9021H244.942V27.1421ZM258.844 27.1421H244.942V13.9021H258.844V27.1421ZM244.942 0.000117779H258.844V13.9021H244.942V0.000117779ZM299.888 462.738H313.128V476.64H299.888V462.738ZM149.614 462.738H163.516V476.64H149.614V462.738ZM136.374 462.738H149.614V476.64H136.374V462.738ZM272.746 462.738H285.986V476.64H272.746V462.738ZM285.986 462.738H299.888V476.64H285.986V462.738ZM446.309 26.4801H459.549V39.7201H446.309V26.4801ZM433.069 26.4801H446.309V39.7201H433.069V26.4801ZM419.829 26.4801H433.069V39.7201H419.829V26.4801ZM433.069 39.7201H446.309V52.9601H433.069V39.7201ZM419.829 39.7201H433.069V52.9601H419.829V39.7201ZM353.629 119.16H366.869V132.4H353.629V119.16ZM353.629 132.4H366.869V145.64H353.629V132.4ZM380.109 105.92H393.349V119.16H380.109V105.92ZM380.109 119.16H393.349V132.4H380.109V119.16ZM393.349 52.9601H406.589V66.2001H393.349V52.9601ZM446.309 383.96H459.549V397.2H446.309V383.96ZM393.349 105.92H406.589V119.16H393.349V105.92ZM380.109 66.2001H393.349V79.4401H380.109V66.2001ZM393.349 66.2001H406.589V79.4401H393.349V66.2001ZM406.589 79.4401H419.829V92.6801H406.589V79.4401ZM366.869 119.16H380.109V132.4H366.869V119.16ZM340.389 198.6H353.629V211.84H340.389V198.6ZM340.389 211.84H353.629V225.08H340.389V211.84ZM393.349 119.16H406.589V132.4H393.349V119.16ZM366.869 92.6801H380.109V105.92H366.869V92.6801ZM366.869 105.92H380.109V119.16H366.869V105.92ZM393.349 92.6801H406.589V105.92H393.349V92.6801ZM353.629 145.64H366.869V158.88H353.629V145.64ZM419.829 344.24H433.069V357.48H419.829V344.24ZM446.309 397.2H459.549V410.44H446.309V397.2ZM446.309 410.44H459.549V423.68H446.309V410.44ZM406.589 66.2001H419.829V79.4401H406.589V66.2001ZM525.749 26.4801H538.989V39.7201H525.749V26.4801ZM512.509 26.4801H525.749V39.7201H512.509V26.4801ZM499.269 26.4801H512.509V39.7201H499.269V26.4801ZM512.509 13.2401H525.749V26.4801H512.509V13.2401ZM499.269 13.2401H512.509V26.4801H499.269V13.2401ZM486.029 26.4801H499.269V39.7201H486.029V26.4801ZM472.789 26.4801H486.029V39.7201H472.789V26.4801ZM459.549 26.4801H472.789V39.7201H459.549V26.4801ZM446.309 13.2401H459.549V26.4801H446.309V13.2401ZM486.029 13.2401H499.269V26.4801H486.029V13.2401ZM472.789 13.2401H486.029V26.4801H472.789V13.2401ZM459.549 13.2401H472.789V26.4801H459.549V13.2401ZM406.589 39.7201H419.829V52.9601H406.589V39.7201ZM406.589 52.9601H419.829V66.2001H406.589V52.9601ZM525.749 39.7201H538.989V52.9601H525.749V39.7201ZM353.629 158.88H366.869V172.12H353.629V158.88ZM393.349 79.4401H406.589V92.6801H393.349V79.4401ZM459.549 450.16H472.789V463.4H459.549V450.16ZM353.629 172.12H366.869V185.36H353.629V172.12ZM446.309 423.68H459.549V436.92H446.309V423.68ZM419.829 357.48H433.069V370.72H419.829V357.48ZM353.629 185.36H366.869V198.6H353.629V185.36ZM340.389 185.36H353.629V198.6H340.389V185.36ZM340.389 172.12H353.629V185.36H340.389V172.12ZM446.309 436.92H459.549V450.16H446.309V436.92ZM419.829 370.72H433.069V383.96H419.829V370.72ZM353.629 198.6H366.869V211.84H353.629V198.6ZM433.069 397.2H446.309V410.44H433.069V397.2ZM433.069 383.96H446.309V397.2H433.069V383.96ZM353.629 251.56H366.869V264.8H353.629V251.56ZM419.829 383.96H433.069V397.2H419.829V383.96ZM419.829 397.2H433.069V410.44H419.829V397.2ZM433.069 410.44H446.309V423.68H433.069V410.44ZM419.829 410.44H433.069V423.68H419.829V410.44ZM380.109 251.56H393.349V264.8H380.109V251.56ZM433.069 423.68H446.309V436.92H433.069V423.68ZM366.869 251.56H380.109V264.8H366.869V251.56ZM353.629 211.84H366.869V225.08H353.629V211.84ZM353.629 225.08H366.869V238.32H353.629V225.08ZM353.629 238.32H366.869V251.56H353.629V238.32ZM472.789 450.16H486.029V463.4H472.789V450.16ZM340.389 238.32H353.629V251.56H340.389V238.32ZM459.549 436.92H472.789V450.16H459.549V436.92ZM340.389 251.56H353.629V264.8H340.389V251.56ZM340.389 225.08H353.629V238.32H340.389V225.08ZM565.469 79.4401H578.709V92.6801H565.469V79.4401ZM578.709 79.4401H591.949V92.6801H578.709V79.4401ZM552.229 79.4401H565.469V92.6801H552.229V79.4401ZM578.709 66.2001H591.949V79.4401H578.709V66.2001ZM512.509 39.7201H525.749V52.9601H512.509V39.7201ZM552.229 52.9601H565.469V66.2001H552.229V52.9601ZM538.989 52.9601H552.229V66.2001H538.989V52.9601ZM525.749 52.9601H538.989V66.2001H525.749V52.9601ZM538.989 26.4801H552.229V39.7201H538.989V26.4801ZM578.709 92.6801H591.949V105.92H578.709V92.6801ZM591.949 92.6801H605.189V105.92H591.949V92.6801ZM591.949 79.4401H605.189V92.6801H591.949V79.4401ZM565.469 92.6801H578.709V105.92H565.469V92.6801ZM552.229 92.6801H565.469V105.92H552.229V92.6801ZM578.709 105.92H591.949V119.16H578.709V105.92ZM591.949 105.92H605.189V119.16H591.949V105.92ZM605.189 105.92H618.429V119.16H605.189V105.92ZM565.469 105.92H578.709V119.16H565.469V105.92ZM578.709 119.16H591.949V132.4H578.709V119.16ZM591.949 119.16H605.189V132.4H591.949V119.16ZM565.469 119.16H578.709V132.4H565.469V119.16ZM605.189 119.16H618.429V132.4H605.189V119.16ZM591.949 132.4H605.189V145.64H591.949V132.4ZM605.189 132.4H618.429V145.64H605.189V132.4ZM578.709 132.4H591.949V145.64H578.709V132.4ZM565.469 132.4H578.709V145.64H565.469V132.4ZM605.189 198.6H618.429V211.84H605.189V198.6ZM618.429 198.6H631.669V211.84H618.429V198.6ZM591.949 198.6H605.189V211.84H591.949V198.6ZM578.709 198.6H591.949V211.84H578.709V198.6ZM605.189 211.84H618.429V225.08H605.189V211.84ZM618.429 211.84H631.669V225.08H618.429V211.84ZM591.949 211.84H605.189V225.08H591.949V211.84ZM578.709 211.84H591.949V225.08H578.709V211.84ZM605.189 225.08H618.429V238.32H605.189V225.08ZM618.429 225.08H631.669V238.32H618.429V225.08ZM591.949 225.08H605.189V238.32H591.949V225.08ZM578.709 225.08H591.949V238.32H578.709V225.08ZM605.189 238.32H618.429V251.56H605.189V238.32ZM618.429 238.32H631.669V251.56H618.429V238.32ZM538.989 423.68H552.229V436.92H538.989V423.68ZM512.509 410.44H525.749V423.68H512.509V410.44ZM605.189 145.64H618.429V158.88H605.189V145.64ZM591.949 145.64H605.189V158.88H591.949V145.64ZM578.709 145.64H591.949V158.88H578.709V145.64ZM605.189 158.88H618.429V172.12H605.189V158.88ZM618.429 158.88H631.669V172.12H618.429V158.88ZM591.949 158.88H605.189V172.12H591.949V158.88ZM578.709 158.88H591.949V172.12H578.709V158.88ZM605.189 172.12H618.429V185.36H605.189V172.12ZM618.429 172.12H631.669V185.36H618.429V172.12ZM591.949 172.12H605.189V185.36H591.949V172.12ZM578.709 172.12H591.949V185.36H578.709V172.12ZM605.189 185.36H618.429V198.6H605.189V185.36ZM618.429 185.36H631.669V198.6H618.429V185.36ZM591.949 185.36H605.189V198.6H591.949V185.36ZM578.709 185.36H591.949V198.6H578.709V185.36ZM605.189 251.56H618.429V264.8H605.189V251.56ZM618.429 251.56H631.669V264.8H618.429V251.56ZM525.749 410.44H538.989V423.68H525.749V410.44ZM512.509 423.68H525.749V436.92H512.509V423.68ZM605.189 264.8H618.429V278.04H605.189V264.8ZM618.429 264.8H631.669V278.04H618.429V264.8ZM525.749 423.68H538.989V436.92H525.749V423.68ZM512.509 436.92H525.749V450.16H512.509V436.92ZM552.229 66.2001H565.469V79.4401H552.229V66.2001ZM565.469 66.2001H578.709V79.4401H565.469V66.2001ZM565.469 52.9601H578.709V66.2001H565.469V52.9601ZM538.989 66.2001H552.229V79.4401H538.989V66.2001ZM552.229 39.7201H565.469V52.9601H552.229V39.7201ZM538.989 39.7201H552.229V52.9601H538.989V39.7201ZM419.829 52.9601H433.069V66.2001H419.829V52.9601ZM380.109 79.4401H393.349V92.6801H380.109V79.4401ZM380.109 92.6801H393.349V105.92H380.109V92.6801ZM512.509 476.64H499.269V463.4H512.509V476.64ZM525.749 476.64H512.509V463.4H525.749V476.64ZM538.989 476.64H525.749V463.4H538.989V476.64ZM538.989 463.4H525.749V450.16H538.989V463.4ZM605.189 383.96H591.949V370.72H605.189V383.96ZM605.189 370.72H591.949V357.48H605.189V370.72ZM605.189 397.2H591.949V383.96H605.189V397.2ZM565.469 450.16H552.229V436.92H565.469V450.16ZM591.949 370.72H578.709V357.48H591.949V370.72ZM618.429 370.72H605.189V357.48H618.429V370.72ZM591.949 423.68H578.709V410.44H591.949V423.68ZM578.709 436.92H565.469V423.68H578.709V436.92ZM565.469 436.92H552.229V423.68H565.469V436.92ZM578.709 383.96H565.469V370.72H578.709V383.96ZM591.949 383.96H578.709V370.72H591.949V383.96ZM605.189 410.44H591.949V397.2H605.189V410.44ZM578.709 397.2H565.469V383.96H578.709V397.2ZM591.949 410.44H578.709V397.2H591.949V410.44ZM591.949 397.2H578.709V383.96H591.949V397.2ZM618.429 357.48H605.189V344.24H618.429V357.48ZM565.469 410.44H552.229V397.2H565.469V410.44ZM552.229 383.96H538.989V370.72H552.229V383.96ZM552.229 410.44H538.989V397.2H552.229V410.44ZM552.229 397.2H538.989V383.96H552.229V397.2ZM565.469 423.68H552.229V410.44H565.469V423.68ZM446.309 476.64H433.069V463.4H446.309V476.64ZM459.549 476.64H446.309V463.4H459.549V476.64ZM459.549 463.4H446.309V450.16H459.549V463.4ZM472.789 476.64H459.549V463.4H472.789V476.64ZM486.029 476.64H472.789V463.4H486.029V476.64ZM499.269 476.64H486.029V463.4H499.269V476.64ZM499.269 476.64H512.509V489.88H499.269V476.64ZM459.549 476.64H472.789V489.88H459.549V476.64ZM472.789 476.64H486.029V489.88H472.789V476.64ZM486.029 476.64H499.269V489.88H486.029V476.64ZM552.229 463.4H538.989V450.16H552.229V463.4ZM552.229 450.16H538.989V436.92H552.229V450.16ZM433.069 463.4H419.829V450.16H433.069V463.4ZM565.469 397.2H552.229V383.96H565.469V397.2ZM618.429 344.24H605.189V331H618.429V344.24ZM565.469 383.96H552.229V370.72H565.469V383.96ZM618.429 331H605.189V317.76H618.429V331ZM552.229 370.72H538.989V357.48H552.229V370.72ZM565.469 370.72H552.229V357.48H565.469V370.72ZM618.429 317.76H605.189V304.52H618.429V317.76ZM618.429 304.52H631.669V317.76H618.429V304.52ZM618.429 317.76H631.669V331H618.429V317.76ZM552.229 423.68H538.989V410.44H552.229V423.68ZM565.469 357.48H552.229V344.24H565.469V357.48ZM618.429 304.52H605.189V291.28H618.429V304.52ZM618.429 278.04H631.669V291.28H618.429V278.04ZM618.429 291.28H631.669V304.52H618.429V291.28ZM525.749 463.4H512.509V450.16H525.749V463.4ZM538.989 450.16H525.749V436.92H538.989V450.16ZM618.429 291.28H605.189V278.04H618.429V291.28ZM393.349 423.68H380.109V410.44H393.349V423.68ZM406.589 423.68H393.349V410.44H406.589V423.68ZM406.589 370.72H393.349V357.48H406.589V370.72ZM406.589 357.48H393.349V344.24H406.589V357.48ZM446.309 463.4H433.069V450.16H446.309V463.4ZM406.589 450.16H393.349V436.92H406.589V450.16ZM419.829 450.16H406.589V436.92H419.829V450.16ZM433.069 450.16H419.829V436.92H433.069V450.16ZM446.309 450.16H433.069V436.92H446.309V450.16ZM433.069 436.92H419.829V423.68H433.069V436.92ZM419.829 423.68H406.589V410.44H419.829V423.68ZM380.109 410.44H366.869V397.2H380.109V410.44ZM366.869 278.04H353.629V264.8H366.869V278.04ZM393.349 410.44H380.109V397.2H393.349V410.44ZM406.589 410.44H393.349V397.2H406.589V410.44ZM380.109 397.2H366.869V383.96H380.109V397.2ZM380.109 278.04H366.869V264.8H380.109V278.04ZM393.349 397.2H380.109V383.96H393.349V397.2ZM406.589 397.2H393.349V383.96H406.589V397.2ZM380.109 383.96H366.869V370.72H380.109V383.96ZM366.869 383.96H353.629V370.72H366.869V383.96ZM393.349 383.96H380.109V370.72H393.349V383.96ZM406.589 383.96H393.349V370.72H406.589V383.96ZM366.869 370.72H353.629V357.48H366.869V370.72ZM340.389 264.8H353.629V278.04H340.389V264.8ZM380.109 370.72H366.869V357.48H380.109V370.72ZM393.349 370.72H380.109V357.48H393.349V370.72ZM366.869 357.48H353.629V344.24H366.869V357.48ZM393.349 278.04H380.109V264.8H393.349V278.04ZM380.109 357.48H366.869V344.24H380.109V357.48ZM393.349 357.48H380.109V344.24H393.349V357.48ZM366.869 344.24H353.629V331H366.869V344.24ZM380.109 344.24H366.869V331H380.109V344.24ZM393.349 344.24H380.109V331H393.349V344.24ZM366.869 331H353.629V317.76H366.869V331ZM340.389 317.76H353.629V331H340.389V317.76ZM380.109 331H366.869V317.76H380.109V331ZM393.349 331H380.109V317.76H393.349V331ZM366.869 317.76H353.629V304.52H366.869V317.76ZM340.389 304.52H353.629V317.76H340.389V304.52ZM380.109 317.76H366.869V304.52H380.109V317.76ZM393.349 317.76H380.109V304.52H393.349V317.76ZM366.869 304.52H353.629V291.28H366.869V304.52ZM340.389 291.28H353.629V304.52H340.389V291.28ZM380.109 304.52H366.869V291.28H380.109V304.52ZM393.349 304.52H380.109V291.28H393.349V304.52ZM366.869 291.28H353.629V278.04H366.869V291.28ZM340.389 278.04H353.629V291.28H340.389V278.04ZM380.109 291.28H366.869V278.04H380.109V291.28ZM393.349 291.28H380.109V278.04H393.349V291.28ZM406.589 436.92H393.349V423.68H406.589V436.92ZM393.349 436.92H380.109V423.68H393.349V436.92ZM419.829 397.2H406.589V383.96H419.829V397.2ZM419.829 436.92H406.589V423.68H419.829V436.92ZM419.829 410.44H406.589V397.2H419.829V410.44ZM419.829 463.4H406.589V450.16H419.829V463.4ZM578.709 423.68H565.469V410.44H578.709V423.68ZM578.709 410.44H565.469V397.2H578.709V410.44ZM808.733 462.738H822.635V476.64H808.733V462.738ZM822.635 462.738H835.875V476.64H822.635V462.738ZM835.875 462.738H849.777V476.64H835.875V462.738ZM849.777 462.738H863.017V476.64H849.777V462.738ZM863.017 462.738H876.919V476.64H863.017V462.738ZM876.919 462.738H890.159V476.64H876.919V462.738ZM890.159 462.738H904.061V476.64H890.159V462.738ZM904.061 462.738H917.963V476.64H904.061V462.738ZM863.017 462.738H849.777V449.498H863.017V462.738ZM849.777 462.738H835.875V449.498H849.777V462.738ZM876.919 462.738H863.017V449.498H876.919V462.738ZM890.159 462.738H876.919V449.498H890.159V462.738ZM904.061 462.738H890.159V449.498H904.061V462.738ZM863.017 449.498H849.777V435.596H863.017V449.498ZM863.017 435.596H849.777V422.356H863.017V435.596ZM876.919 449.498H863.017V435.596H876.919V449.498ZM890.159 449.498H876.919V435.596H890.159V449.498ZM876.919 435.596H863.017V422.356H876.919V435.596ZM890.159 435.596H876.919V422.356H890.159V435.596ZM917.963 462.738H904.061V449.498H917.963V462.738ZM904.061 449.498H890.159V435.596H904.061V449.498ZM904.061 435.596H890.159V422.356H904.061V435.596ZM863.017 422.356H849.777V408.454H863.017V422.356ZM876.919 422.356H863.017V408.454H876.919V422.356ZM890.159 422.356H876.919V408.454H890.159V422.356ZM904.061 422.356H890.159V408.454H904.061V422.356ZM863.017 408.454H849.777V395.214H863.017V408.454ZM876.919 408.454H863.017V395.214H876.919V408.454ZM890.159 408.454H876.919V395.214H890.159V408.454ZM904.061 408.454H890.159V395.214H904.061V408.454ZM863.017 395.214H849.777V381.312H863.017V395.214ZM876.919 395.214H863.017V381.312H876.919V395.214ZM890.159 395.214H876.919V381.312H890.159V395.214ZM904.061 395.214H890.159V381.312H904.061V395.214ZM863.017 381.312H849.777V367.41H863.017V381.312ZM876.919 381.312H863.017V367.41H876.919V381.312ZM890.159 381.312H876.919V367.41H890.159V381.312ZM904.061 381.312H890.159V367.41H904.061V381.312ZM863.017 367.41H849.777V354.17H863.017V367.41ZM876.919 367.41H863.017V354.17H876.919V367.41ZM890.159 367.41H876.919V354.17H890.159V367.41ZM904.061 367.41H890.159V354.17H904.061V367.41ZM863.017 354.17H849.777V340.268H863.017V354.17ZM876.919 354.17H863.017V340.268H876.919V354.17ZM890.159 354.17H876.919V340.268H890.159V354.17ZM904.061 354.17H890.159V340.268H904.061V354.17ZM863.017 340.268H849.777V327.028H863.017V340.268ZM876.919 340.268H863.017V327.028H876.919V340.268ZM890.159 340.268H876.919V327.028H890.159V340.268ZM904.061 340.268H890.159V327.028H904.061V340.268ZM863.017 327.028H849.777V313.126H863.017V327.028ZM876.919 327.028H863.017V313.126H876.919V327.028ZM890.159 327.028H876.919V313.126H890.159V327.028ZM904.061 327.028H890.159V313.126H904.061V327.028ZM863.017 313.126H849.777V299.886H863.017V313.126ZM876.919 313.126H863.017V299.886H876.919V313.126ZM890.159 313.126H876.919V299.886H890.159V313.126ZM904.061 313.126H890.159V299.886H904.061V313.126ZM863.017 299.886H849.777V285.984H863.017V299.886ZM876.919 299.886H863.017V285.984H876.919V299.886ZM890.159 299.886H876.919V285.984H890.159V299.886ZM904.061 299.886H890.159V285.984H904.061V299.886ZM863.017 285.984H849.777V272.082H863.017V285.984ZM876.919 285.984H863.017V272.082H876.919V285.984ZM890.159 285.984H876.919V272.082H890.159V285.984ZM904.061 285.984H890.159V272.082H904.061V285.984ZM863.017 272.082H849.777V258.842H863.017V272.082ZM876.919 272.082H863.017V258.842H876.919V272.082ZM890.159 272.082H876.919V258.842H890.159V272.082ZM904.061 272.082H890.159V258.842H904.061V272.082ZM863.017 258.842H849.777V244.94H863.017V258.842ZM876.919 258.842H863.017V244.94H876.919V258.842ZM890.159 258.842H876.919V244.94H890.159V258.842ZM904.061 258.842H890.159V244.94H904.061V258.842ZM863.017 244.94H849.777V231.7H863.017V244.94ZM876.919 244.94H863.017V231.7H876.919V244.94ZM890.159 244.94H876.919V231.7H890.159V244.94ZM904.061 244.94H890.159V231.7H904.061V244.94ZM863.017 231.7H849.777V217.798H863.017V231.7ZM876.919 231.7H863.017V217.798H876.919V231.7ZM890.159 231.7H876.919V217.798H890.159V231.7ZM904.061 231.7H890.159V217.798H904.061V231.7ZM863.017 217.798H849.777V204.558H863.017V217.798ZM876.919 217.798H863.017V204.558H876.919V217.798ZM890.159 217.798H876.919V204.558H890.159V217.798ZM904.061 217.798H890.159V204.558H904.061V217.798ZM863.017 204.558H849.777V190.656H863.017V204.558ZM876.919 204.558H863.017V190.656H876.919V204.558ZM890.159 204.558H876.919V190.656H890.159V204.558ZM904.061 204.558H890.159V190.656H904.061V204.558ZM863.017 190.656H849.777V176.754H863.017V190.656ZM876.919 190.656H863.017V176.754H876.919V190.656ZM890.159 190.656H876.919V176.754H890.159V190.656ZM904.061 190.656H890.159V176.754H904.061V190.656ZM863.017 176.754H849.777V163.514H863.017V176.754ZM876.919 176.754H863.017V163.514H876.919V176.754ZM890.159 176.754H876.919V163.514H890.159V176.754ZM904.061 176.754H890.159V163.514H904.061V176.754ZM863.017 163.514H849.777V149.612H863.017V163.514ZM876.919 163.514H863.017V149.612H876.919V163.514ZM890.159 163.514H876.919V149.612H890.159V163.514ZM904.061 163.514H890.159V149.612H904.061V163.514ZM863.017 149.612H849.777V136.372H863.017V149.612ZM876.919 149.612H863.017V136.372H876.919V149.612ZM890.159 149.612H876.919V136.372H890.159V149.612ZM904.061 149.612H890.159V136.372H904.061V149.612ZM863.017 136.372H849.777V122.47H863.017V136.372ZM876.919 136.372H863.017V122.47H876.919V136.372ZM890.159 136.372H876.919V122.47H890.159V136.372ZM904.061 136.372H890.159V122.47H904.061V136.372ZM863.017 122.47H849.777V109.23H863.017V122.47ZM876.919 122.47H863.017V109.23H876.919V122.47ZM890.159 122.47H876.919V109.23H890.159V122.47ZM904.061 122.47H890.159V109.23H904.061V122.47ZM863.017 109.23H849.777V95.3281H863.017V109.23ZM876.919 109.23H863.017V95.3281H876.919V109.23ZM890.159 109.23H876.919V95.3281H890.159V109.23ZM904.061 109.23H890.159V95.3281H904.061V109.23ZM863.017 95.3281H849.777V81.4261H863.017V95.3281ZM876.919 95.3281H863.017V81.4261H876.919V95.3281ZM890.159 95.3281H876.919V81.4261H890.159V95.3281ZM904.061 95.3281H890.159V81.4261H904.061V95.3281ZM863.017 81.4261H849.777V68.1861H863.017V81.4261ZM876.919 81.4261H863.017V68.1861H876.919V81.4261ZM890.159 81.4261H876.919V68.1861H890.159V81.4261ZM904.061 81.4261H890.159V68.1861H904.061V81.4261ZM863.017 68.1861H849.777V54.2841H863.017V68.1861ZM876.919 68.1861H863.017V54.2841H876.919V68.1861ZM890.159 68.1861H876.919V54.2841H890.159V68.1861ZM904.061 68.1861H890.159V54.2841H904.061V68.1861ZM835.875 109.23H822.635V95.3281H835.875V109.23ZM876.919 54.2841H863.017V41.0441H876.919V54.2841ZM890.159 54.2841H876.919V41.0441H890.159V54.2841ZM904.061 54.2841H890.159V41.0441H904.061V54.2841ZM849.777 81.4261H835.875V68.1861H849.777V81.4261ZM835.875 95.3281H822.635V81.4261H835.875V95.3281ZM849.777 95.3281H835.875V81.4261H849.777V95.3281ZM822.635 109.23H808.733V95.3281H822.635V109.23ZM822.635 122.47H808.733V109.23H822.635V122.47ZM808.733 136.372H794.831V122.47H808.733V136.372ZM808.733 122.47H794.831V109.23H808.733V122.47ZM794.831 136.372H781.591V122.47H794.831V136.372ZM808.733 149.612H794.831V136.372H808.733V149.612ZM794.831 149.612H781.591V136.372H794.831V149.612ZM794.831 163.514H781.591V149.612H794.831V163.514ZM781.591 163.514H767.689V149.612H781.591V163.514ZM781.591 176.754H767.689V163.514H781.591V176.754ZM767.689 176.754H754.449V163.514H767.689V176.754ZM835.875 299.886H822.635V285.984H835.875V299.886ZM754.449 299.886H740.547V285.984H754.449V299.886ZM767.689 299.886H754.449V285.984H767.689V299.886ZM781.591 299.886H767.689V285.984H781.591V299.886ZM822.635 299.886H808.733V285.984H822.635V299.886ZM849.777 299.886H835.875V285.984H849.777V299.886ZM740.547 299.886H727.307V285.984H740.547V299.886ZM808.733 299.886H794.831V285.984H808.733V299.886ZM727.307 299.886H713.405V285.984H727.307V299.886ZM713.405 285.984H699.503V272.082H713.405V285.984ZM713.405 299.886H699.503V285.984H713.405V299.886ZM699.503 272.082H686.263V258.842H699.503V272.082ZM699.503 285.984H686.263V272.082H699.503V285.984ZM686.263 285.984H672.361V272.082H686.263V285.984ZM699.503 299.886H686.263V285.984H699.503V299.886ZM686.263 299.886H672.361V285.984H686.263V299.886ZM713.405 462.738H727.307V476.64H713.405V462.738ZM699.503 462.738H686.263V449.498H699.503V462.738ZM686.263 462.738H699.503V476.64H686.263V462.738ZM659.121 462.738H672.361V476.64H659.121V462.738ZM699.503 462.738H713.405V476.64H699.503V462.738ZM672.361 462.738H686.263V476.64H672.361V462.738ZM713.405 313.126H699.503V299.886H713.405V313.126ZM699.503 313.126H686.263V299.886H699.503V313.126ZM699.503 327.028H686.263V313.126H699.503V327.028ZM699.503 340.268H686.263V327.028H699.503V340.268ZM713.405 327.028H699.503V313.126H713.405V327.028ZM713.405 340.268H699.503V327.028H713.405V340.268ZM740.547 313.126H727.307V299.886H740.547V313.126ZM727.307 313.126H713.405V299.886H727.307V313.126ZM727.307 327.028H713.405V313.126H727.307V327.028ZM727.307 340.268H713.405V327.028H727.307V340.268ZM740.547 327.028H727.307V313.126H740.547V327.028ZM727.307 462.738H740.547V476.64H727.307V462.738ZM767.689 313.126H754.449V299.886H767.689V313.126ZM754.449 313.126H740.547V299.886H754.449V313.126ZM754.449 327.028H740.547V313.126H754.449V327.028ZM740.547 462.738H754.449V476.64H740.547V462.738ZM767.689 327.028H754.449V313.126H767.689V327.028ZM754.449 462.738H767.689V476.64H754.449V462.738ZM794.831 313.126H781.591V299.886H794.831V313.126ZM781.591 313.126H767.689V299.886H781.591V313.126ZM781.591 327.028H767.689V313.126H781.591V327.028ZM767.689 462.738H781.591V476.64H767.689V462.738ZM794.831 327.028H781.591V313.126H794.831V327.028ZM794.831 462.738H781.591V449.498H794.831V462.738ZM822.635 313.126H808.733V299.886H822.635V313.126ZM808.733 313.126H794.831V299.886H808.733V313.126ZM808.733 449.498H794.831V435.596H808.733V449.498ZM808.733 462.738H794.831V449.498H808.733V462.738ZM822.635 449.498H808.733V435.596H822.635V449.498ZM822.635 462.738H808.733V449.498H822.635V462.738ZM849.777 313.126H835.875V299.886H849.777V313.126ZM835.875 313.126H822.635V299.886H835.875V313.126ZM835.875 449.498H822.635V435.596H835.875V449.498ZM835.875 462.738H822.635V449.498H835.875V462.738ZM849.777 435.596H835.875V422.356H849.777V435.596ZM849.777 449.498H835.875V435.596H849.777V449.498ZM931.203 313.126H917.963V299.886H931.203V313.126ZM917.963 313.126H904.061V299.886H917.963V313.126ZM917.963 327.028H904.061V313.126H917.963V327.028ZM917.963 340.268H904.061V327.028H917.963V340.268ZM931.203 449.498H917.963V435.596H931.203V449.498ZM931.203 462.738H917.963V449.498H931.203V462.738ZM958.345 313.126H945.105V299.886H958.345V313.126ZM945.105 313.126H931.203V299.886H945.105V313.126ZM945.105 449.498H931.203V435.596H945.105V449.498ZM945.105 462.738H931.203V449.498H945.105V462.738ZM931.203 435.596H917.963V422.356H931.203V435.596ZM958.345 462.738H972.247V476.64H958.345V462.738ZM958.345 299.886H972.247V313.126H958.345V299.886ZM958.345 462.738H945.105V449.498H958.345V462.738ZM645.219 462.738H659.121V476.64H645.219V462.738ZM686.263 462.738H672.361V449.498H686.263V462.738ZM767.689 190.656H754.449V176.754H767.689V190.656ZM754.449 190.656H740.547V176.754H754.449V190.656ZM876.919 41.0441H863.017V27.1421H876.919V41.0441ZM890.159 41.0441H876.919V27.1421H890.159V41.0441ZM904.061 41.0441H890.159V27.1421H904.061V41.0441ZM890.159 27.1421H876.919V13.9021H890.159V27.1421ZM904.061 27.1421H890.159V13.9021H904.061V27.1421ZM890.159 0.000117779H904.061V13.9021H890.159V0.000117779ZM945.105 462.738H958.345V476.64H945.105V462.738ZM794.831 462.738H808.733V476.64H794.831V462.738ZM781.591 462.738H794.831V476.64H781.591V462.738ZM917.963 462.738H931.203V476.64H917.963V462.738ZM931.203 462.738H945.105V476.64H931.203V462.738Z" fill="#D7E8F6"/>
</svg>
