<svg width="487" height="279" viewBox="0 0 487 279" fill="none" xmlns="http://www.w3.org/2000/svg">
<g clip-path="url(#clip0_594_16126)">
<path d="M243.575 266.023V259.535H235.176V266.023H243.575Z" fill="#D7E8F6"/>
<path d="M243.573 227.093V233.581H226.775V240.07H218.376V246.558H209.977V253.047H201.578V246.558H209.977V240.07H218.376V233.581H226.775V227.093H243.573Z" fill="#D7E8F6"/>
<path d="M243.575 188.163V181.674H235.176V188.163H243.575Z" fill="#D7E8F6"/>
<path d="M243.575 129.767V123.279H235.176V129.767H243.575Z" fill="#D7E8F6"/>
<path d="M243.575 84.3488V77.8604H235.176V84.3488H243.575Z" fill="#D7E8F6"/>
<path d="M235.174 253.047V246.558H226.775V253.047H235.174Z" fill="#D7E8F6"/>
<path d="M235.174 116.791V110.302H226.775V116.791H235.174Z" fill="#D7E8F6"/>
<path d="M235.175 71.3721V64.8838H218.377V71.3721H235.175Z" fill="#D7E8F6"/>
<path d="M226.776 207.628V201.14H218.377V207.628H226.776Z" fill="#D7E8F6"/>
<path d="M226.776 58.3956V51.9072H218.377V58.3956H226.776Z" fill="#D7E8F6"/>
<path d="M226.776 32.4415V25.9531H218.377V32.4415H226.776Z" fill="#D7E8F6"/>
<path d="M218.378 279V272.512H209.979V279H218.378Z" fill="#D7E8F6"/>
<path d="M218.378 97.3252V90.8369H209.979V97.3252H218.378Z" fill="#D7E8F6"/>
<path d="M209.977 64.8839V58.3955H201.578V64.8839H209.977Z" fill="#D7E8F6"/>
<path d="M209.977 51.9073V45.4189H201.578V51.9073H209.977Z" fill="#D7E8F6"/>
<path d="M201.579 220.605V214.116H193.18V220.605H201.579Z" fill="#D7E8F6"/>
<path d="M201.579 84.3488V77.8604H193.18V84.3488H201.579Z" fill="#D7E8F6"/>
<path d="M201.579 19.4649V12.9766H193.18V19.4649H201.579Z" fill="#D7E8F6"/>
<path d="M193.18 259.535V253.047H184.781V259.535H193.18Z" fill="#D7E8F6"/>
<path d="M193.18 246.558V240.07H184.781V246.558H193.18Z" fill="#D7E8F6"/>
<path d="M193.18 51.9073V58.3957H184.781V51.9073H167.982V45.4189H184.781V51.9073H193.18Z" fill="#D7E8F6"/>
<path d="M184.781 279V272.512H176.381V279H184.781Z" fill="#D7E8F6"/>
<path d="M176.38 246.558V253.047H167.981V259.535H159.582V253.047H167.981V246.558H176.38Z" fill="#D7E8F6"/>
<path d="M176.381 77.8605V71.3721H167.982V77.8605H176.381Z" fill="#D7E8F6"/>
<path d="M176.381 38.9308V32.4424H167.982V38.9308H176.381Z" fill="#D7E8F6"/>
<path d="M176.381 12.9767V6.48828H167.982V12.9767H176.381Z" fill="#D7E8F6"/>
<path d="M167.981 233.581V227.093H159.582V233.581H167.981Z" fill="#D7E8F6"/>
<path d="M159.583 45.419V38.9307H151.184V45.419H159.583Z" fill="#D7E8F6"/>
<path d="M159.583 32.4415V25.9531H151.184V32.4415H159.583Z" fill="#D7E8F6"/>
<path d="M151.184 279V272.512H142.785V279H151.184Z" fill="#D7E8F6"/>
<path d="M151.183 253.047V259.535H142.784V253.047H134.385V259.535H125.986V253.047H134.385V246.558H125.986V240.07H134.385V246.558H142.784V253.047H151.183Z" fill="#D7E8F6"/>
<path d="M151.184 71.3721V64.8838H142.785V71.3721H151.184Z" fill="#D7E8F6"/>
<path d="M142.786 45.419V38.9307H134.387V45.419H142.786Z" fill="#D7E8F6"/>
<path d="M142.786 32.4415V25.9531H134.387V32.4415H142.786Z" fill="#D7E8F6"/>
<path d="M142.786 6.4884V0H134.387V6.4884H142.786Z" fill="#D7E8F6"/>
<path d="M125.987 220.605V214.116H117.588V220.605H125.987Z" fill="#D7E8F6"/>
<path d="M125.987 90.837V84.3486H117.588V90.837H125.987Z" fill="#D7E8F6"/>
<path d="M125.986 32.4424V38.9308H117.587V45.4191H109.188V38.9308H117.587V32.4424H125.986Z" fill="#D7E8F6"/>
<path d="M117.587 272.512V266.023H109.188V272.512H117.587Z" fill="#D7E8F6"/>
<path d="M117.588 246.558V253.047H109.188V246.558H100.789V240.07H109.188V246.558H117.588Z" fill="#D7E8F6"/>
<path d="M117.587 58.3956V51.9072H109.188V58.3956H117.587Z" fill="#D7E8F6"/>
<path d="M117.587 19.4649V12.9766H109.188V19.4649H117.587Z" fill="#D7E8F6"/>
<path d="M100.789 84.3488V77.8604H92.3906V84.3488H100.789Z" fill="#D7E8F6"/>
<path d="M100.789 64.8839V58.3955H92.3906V64.8839H100.789Z" fill="#D7E8F6"/>
<path d="M100.789 51.9073V45.4189H92.3906V51.9073H100.789Z" fill="#D7E8F6"/>
<path d="M92.3893 259.535V253.047H83.9902V259.535H92.3893Z" fill="#D7E8F6"/>
<path d="M92.3893 246.558V240.07H83.9902V246.558H92.3893Z" fill="#D7E8F6"/>
<path d="M92.3893 233.581V227.093H83.9902V233.581H92.3893Z" fill="#D7E8F6"/>
<path d="M92.3893 207.628V201.14H83.9902V207.628H92.3893Z" fill="#D7E8F6"/>
<path d="M92.3893 110.302V103.814H83.9902V110.302H92.3893Z" fill="#D7E8F6"/>
<path d="M92.3893 32.4415V25.9531H83.9902V32.4415H92.3893Z" fill="#D7E8F6"/>
<path d="M83.9911 71.3721V64.8838H75.5918V71.3721H83.9911Z" fill="#D7E8F6"/>
<path d="M75.5925 240.07V233.581H67.1934V240.07H75.5925Z" fill="#D7E8F6"/>
<path d="M75.5925 227.093V220.605H67.1934V227.093H75.5925Z" fill="#D7E8F6"/>
<path d="M75.5925 181.674V175.186H67.1934V181.674H75.5925Z" fill="#D7E8F6"/>
<path d="M75.5911 77.8605V84.3489H67.192V77.8605H58.793V71.3721H67.192V77.8605H75.5911Z" fill="#D7E8F6"/>
<path d="M75.5925 58.3956V51.9072H67.1934V58.3956H75.5925Z" fill="#D7E8F6"/>
<path d="M67.192 201.14V194.651H58.793V201.14H67.192Z" fill="#D7E8F6"/>
<path d="M67.192 168.698V162.209H58.793V168.698H67.192Z" fill="#D7E8F6"/>
<path d="M58.7937 259.535V253.047H50.3945V259.535H58.7937Z" fill="#D7E8F6"/>
<path d="M58.7937 227.093V220.605H50.3945V227.093H58.7937Z" fill="#D7E8F6"/>
<path d="M58.7937 155.721V149.233H50.3945V155.721H58.7937Z" fill="#D7E8F6"/>
<path d="M58.7937 136.256V129.767H50.3945V136.256H58.7937Z" fill="#D7E8F6"/>
<path d="M58.793 84.3488V90.8372H50.3938V97.3255H33.5957V90.8372H50.3938V84.3488H41.9948V77.8604H50.3938V84.3488H58.793Z" fill="#D7E8F6"/>
<path d="M50.3946 207.628V214.116H33.5965V220.605H25.1973V214.116H33.5965V207.628H25.1973V201.14H33.5965V194.651H41.9956V201.14H33.5965V207.628H50.3946Z" fill="#D7E8F6"/>
<path d="M50.3951 123.279V116.791H41.9961V123.279H50.3951Z" fill="#D7E8F6"/>
<path d="M50.3951 45.419V38.9307H41.9961V45.419H50.3951Z" fill="#D7E8F6"/>
<path d="M41.9948 175.186V168.698H33.5957V175.186H41.9948Z" fill="#D7E8F6"/>
<path d="M41.9948 110.302V103.814H33.5957V110.302H41.9948Z" fill="#D7E8F6"/>
<path d="M33.5965 188.163V181.674H25.1973V188.163H33.5965Z" fill="#D7E8F6"/>
<path d="M33.5959 142.744V149.233H25.1967V155.721H8.39844V149.233H25.1967V142.744H33.5959Z" fill="#D7E8F6"/>
<path d="M25.1978 168.698V162.209H16.7988V168.698H25.1978Z" fill="#D7E8F6"/>
<path d="M25.1967 129.767V136.256H16.7977V142.744H8.39844V136.256H16.7977V129.767H25.1967Z" fill="#D7E8F6"/>
<path d="M25.1978 123.279V116.791H16.7988V123.279H25.1978Z" fill="#D7E8F6"/>
<path d="M25.1978 110.302V103.814H16.7988V110.302H25.1978Z" fill="#D7E8F6"/>
<path d="M25.1978 97.3252V90.8369H16.7988V97.3252H25.1978Z" fill="#D7E8F6"/>
<path d="M25.1978 84.3488V77.8604H16.7988V84.3488H25.1978Z" fill="#D7E8F6"/>
<path d="M16.7983 194.651V201.14H8.39907V194.651H0V188.163H8.39907V194.651H16.7983Z" fill="#D7E8F6"/>
<path d="M16.7977 181.674V175.186H8.39844V181.674H16.7977Z" fill="#D7E8F6"/>
<path d="M8.39907 129.767V123.279H0V129.767H8.39907Z" fill="#D7E8F6"/>
<path d="M8.39907 110.302V116.791H0V110.302V103.814V97.3252H8.39907V103.814H0V110.302H8.39907Z" fill="#D7E8F6"/>
<path d="M243.426 266.023V259.535H251.825V266.023H243.426Z" fill="#D7E8F6"/>
<path d="M243.426 227.093V233.581H260.224V240.07H268.623V246.558H277.022V253.047H285.421V246.558H277.022V240.07H268.623V233.581H260.224V227.093H243.426Z" fill="#D7E8F6"/>
<path d="M243.426 188.163V181.674H251.825V188.163H243.426Z" fill="#D7E8F6"/>
<path d="M243.426 129.767V123.279H251.825V129.767H243.426Z" fill="#D7E8F6"/>
<path d="M243.426 84.3488V77.8604H251.825V84.3488H243.426Z" fill="#D7E8F6"/>
<path d="M251.824 253.047V246.558H260.223V253.047H251.824Z" fill="#D7E8F6"/>
<path d="M251.824 116.791V110.302H260.223V116.791H251.824Z" fill="#D7E8F6"/>
<path d="M251.824 71.3721V64.8838H268.622V71.3721H251.824Z" fill="#D7E8F6"/>
<path d="M260.225 207.628V201.14H268.624V207.628H260.225Z" fill="#D7E8F6"/>
<path d="M260.225 58.3956V51.9072H268.624V58.3956H260.225Z" fill="#D7E8F6"/>
<path d="M260.225 32.4415V25.9531H268.624V32.4415H260.225Z" fill="#D7E8F6"/>
<path d="M268.623 279V272.512H277.022V279H268.623Z" fill="#D7E8F6"/>
<path d="M268.623 97.3252V90.8369H277.022V97.3252H268.623Z" fill="#D7E8F6"/>
<path d="M277.021 64.8839V58.3955H285.42V64.8839H277.021Z" fill="#D7E8F6"/>
<path d="M277.021 51.9073V45.4189H285.42V51.9073H277.021Z" fill="#D7E8F6"/>
<path d="M285.422 220.605V214.116H293.821V220.605H285.422Z" fill="#D7E8F6"/>
<path d="M285.422 84.3488V77.8604H293.821V84.3488H285.422Z" fill="#D7E8F6"/>
<path d="M285.422 19.4649V12.9766H293.821V19.4649H285.422Z" fill="#D7E8F6"/>
<path d="M293.82 259.535V253.047H302.219V259.535H293.82Z" fill="#D7E8F6"/>
<path d="M293.82 246.558V240.07H302.219V246.558H293.82Z" fill="#D7E8F6"/>
<path d="M293.82 51.9073V58.3957H302.219V51.9073H319.018V45.4189H302.219V51.9073H293.82Z" fill="#D7E8F6"/>
<path d="M302.219 279V272.512H310.619V279H302.219Z" fill="#D7E8F6"/>
<path d="M310.619 246.558V253.047H319.018V259.535H327.417V253.047H319.018V246.558H310.619Z" fill="#D7E8F6"/>
<path d="M310.619 77.8605V71.3721H319.018V77.8605H310.619Z" fill="#D7E8F6"/>
<path d="M310.619 38.9308V32.4424H319.018V38.9308H310.619Z" fill="#D7E8F6"/>
<path d="M310.619 12.9767V6.48828H319.018V12.9767H310.619Z" fill="#D7E8F6"/>
<path d="M319.018 233.581V227.093H327.417V233.581H319.018Z" fill="#D7E8F6"/>
<path d="M327.418 45.419V38.9307H335.817V45.419H327.418Z" fill="#D7E8F6"/>
<path d="M327.418 32.4415V25.9531H335.817V32.4415H327.418Z" fill="#D7E8F6"/>
<path d="M335.816 279V272.512H344.215V279H335.816Z" fill="#D7E8F6"/>
<path d="M335.816 253.047V259.535H344.215V253.047H352.614V259.535H361.013V253.047H352.614V246.558H361.013V240.07H352.614V246.558H344.215V253.047H335.816Z" fill="#D7E8F6"/>
<path d="M335.816 71.3721V64.8838H344.215V71.3721H335.816Z" fill="#D7E8F6"/>
<path d="M344.215 45.419V38.9307H352.614V45.419H344.215Z" fill="#D7E8F6"/>
<path d="M344.215 32.4415V25.9531H352.614V32.4415H344.215Z" fill="#D7E8F6"/>
<path d="M344.215 6.4884V0H352.614V6.4884H344.215Z" fill="#D7E8F6"/>
<path d="M361.014 220.605V214.116H369.413V220.605H361.014Z" fill="#D7E8F6"/>
<path d="M361.014 90.837V84.3486H369.413V90.837H361.014Z" fill="#D7E8F6"/>
<path d="M361.014 32.4424V38.9308H369.413V45.4191H377.813V38.9308H369.413V32.4424H361.014Z" fill="#D7E8F6"/>
<path d="M369.412 272.512V266.023H377.812V272.512H369.412Z" fill="#D7E8F6"/>
<path d="M369.412 246.558V253.047H377.812V246.558H386.211V240.07H377.812V246.558H369.412Z" fill="#D7E8F6"/>
<path d="M369.412 58.3956V51.9072H377.812V58.3956H369.412Z" fill="#D7E8F6"/>
<path d="M369.412 19.4649V12.9766H377.812V19.4649H369.412Z" fill="#D7E8F6"/>
<path d="M386.211 84.3488V77.8604H394.61V84.3488H386.211Z" fill="#D7E8F6"/>
<path d="M386.211 64.8839V58.3955H394.61V64.8839H386.211Z" fill="#D7E8F6"/>
<path d="M386.211 51.9073V45.4189H394.61V51.9073H386.211Z" fill="#D7E8F6"/>
<path d="M394.609 259.535V253.047H403.008V259.535H394.609Z" fill="#D7E8F6"/>
<path d="M394.609 246.558V240.07H403.008V246.558H394.609Z" fill="#D7E8F6"/>
<path d="M394.609 233.581V227.093H403.008V233.581H394.609Z" fill="#D7E8F6"/>
<path d="M394.609 207.628V201.14H403.008V207.628H394.609Z" fill="#D7E8F6"/>
<path d="M394.609 110.302V103.814H403.008V110.302H394.609Z" fill="#D7E8F6"/>
<path d="M394.609 32.4415V25.9531H403.008V32.4415H394.609Z" fill="#D7E8F6"/>
<path d="M403.01 71.3721V64.8838H411.409V71.3721H403.01Z" fill="#D7E8F6"/>
<path d="M411.408 240.07V233.581H419.807V240.07H411.408Z" fill="#D7E8F6"/>
<path d="M411.408 227.093V220.605H419.807V227.093H411.408Z" fill="#D7E8F6"/>
<path d="M411.408 181.674V175.186H419.807V181.674H411.408Z" fill="#D7E8F6"/>
<path d="M411.408 77.8605V84.3489H419.807V77.8605H428.206V71.3721H419.807V77.8605H411.408Z" fill="#D7E8F6"/>
<path d="M411.408 58.3956V51.9072H419.807V58.3956H411.408Z" fill="#D7E8F6"/>
<path d="M419.807 201.14V194.651H428.206V201.14H419.807Z" fill="#D7E8F6"/>
<path d="M419.807 168.698V162.209H428.206V168.698H419.807Z" fill="#D7E8F6"/>
<path d="M428.205 259.535V253.047H436.604V259.535H428.205Z" fill="#D7E8F6"/>
<path d="M428.205 227.093V220.605H436.604V227.093H428.205Z" fill="#D7E8F6"/>
<path d="M428.205 155.721V149.233H436.604V155.721H428.205Z" fill="#D7E8F6"/>
<path d="M428.205 136.256V129.767H436.604V136.256H428.205Z" fill="#D7E8F6"/>
<path d="M428.205 84.3488V90.8372H436.604V97.3255H453.402V90.8372H436.604V84.3488H445.003V77.8604H436.604V84.3488H428.205Z" fill="#D7E8F6"/>
<path d="M436.605 207.628V214.116H453.403V220.605H461.803V214.116H453.403V207.628H461.803V201.14H453.403V194.651H445.004V201.14H453.403V207.628H436.605Z" fill="#D7E8F6"/>
<path d="M436.605 123.279V116.791H445.004V123.279H436.605Z" fill="#D7E8F6"/>
<path d="M436.605 45.419V38.9307H445.004V45.419H436.605Z" fill="#D7E8F6"/>
<path d="M445.004 175.186V168.698H453.403V175.186H445.004Z" fill="#D7E8F6"/>
<path d="M445.004 110.302V103.814H453.403V110.302H445.004Z" fill="#D7E8F6"/>
<path d="M453.402 188.163V181.674H461.802V188.163H453.402Z" fill="#D7E8F6"/>
<path d="M453.402 142.744V149.233H461.802V155.721H478.6V149.233H461.802V142.744H453.402Z" fill="#D7E8F6"/>
<path d="M461.803 168.698V162.209H470.202V168.698H461.803Z" fill="#D7E8F6"/>
<path d="M461.803 129.767V136.256H470.202V142.744H478.601V136.256H470.202V129.767H461.803Z" fill="#D7E8F6"/>
<path d="M461.803 123.279V116.791H470.202V123.279H461.803Z" fill="#D7E8F6"/>
<path d="M461.803 110.302V103.814H470.202V110.302H461.803Z" fill="#D7E8F6"/>
<path d="M461.803 97.3252V90.8369H470.202V97.3252H461.803Z" fill="#D7E8F6"/>
<path d="M461.803 84.3488V77.8604H470.202V84.3488H461.803Z" fill="#D7E8F6"/>
<path d="M470.201 194.651V201.14H478.6V194.651H486.999V188.163H478.6V194.651H470.201Z" fill="#D7E8F6"/>
<path d="M470.201 181.674V175.186H478.6V181.674H470.201Z" fill="#D7E8F6"/>
<path d="M478.602 129.767V123.279H487.001V129.767H478.602Z" fill="#D7E8F6"/>
<path d="M478.602 110.302V116.791H487.001V110.302V103.814V97.3252H478.602V103.814H487.001V110.302H478.602Z" fill="#D7E8F6"/>
</g>
<defs>
<clipPath id="clip0_594_16126">
<rect width="487" height="279" fill="white"/>
</clipPath>
</defs>
</svg>
