<svg width="360" height="212" viewBox="0 0 360 212" fill="none" xmlns="http://www.w3.org/2000/svg">
<g clip-path="url(#clip0_576_16109)">
<mask id="mask0_576_16109" style="mask-type:luminance" maskUnits="userSpaceOnUse" x="0" y="0" width="360" height="212">
<path d="M360 0H0V212H360V0Z" fill="white"/>
</mask>
<g mask="url(#mask0_576_16109)">
<path d="M360 153H636.354V192H639.104V200.209H629.304V204.744H624.376V200.209H619.477V197.442H614.604V200.209H611.881V204.744H606.953V203.837H602.053V201.116H597.181V204.744H587.897V201.116H583.025V203.837H578.125V204.744H573.197V200.209H570.475V197.442H565.602V200.209H560.702V204.744H555.775V200.209H545.974V197.442H516.601V200.209H512.246V203.837H509.524V212H504.596V209.279H499.696V203.837H497.518V200.209H493.162V197.488H488.262V197.442H473.589V204.744H468.662V201.116H463.789V203.837H458.889V209.279H453.961V200.209H451.239V197.442H446.367V200.209H441.467V204.744H436.539V200.209H426.739V197.442H421.866V200.209H416.966V204.744H412.038V200.209H407.166V204.744H402.238V200.209H397.91V203.837H393.01V204.744H388.082V201.116H383.21V204.744H378.282V200.209H373.41V203.837H368.482V200.209H363.61V203.837H358.709V208.372H353.782V203.837H348.882V197.442H336.387V200.209H326.587V204.744H321.659V200.209H316.759V197.442H311.886V200.209H309.164V204.744H304.236V203.837H299.336V201.116H294.464V204.744H285.18V201.116H280.308V203.837H275.408V204.744H270.48V200.209H267.758V197.442H262.885V200.209H257.985V204.744H253.057V200.209H243.257V197.442H202.995V200.209H193.195V204.744H188.267V200.209H183.367V197.442H178.495V200.209H175.773V204.744H170.845V203.837H165.945V201.116H161.072V204.744H151.789V201.116H146.916V203.837H142.016V204.744H137.089V200.209H134.366V197.442H129.494V200.209H124.594V204.744H119.666V200.209H109.866V197.442H85.3936V197.488H80.4932V200.209H76.1377V203.837H61.4092V200.209H52.7217V203.837H50V212H45.0723V209.279H40.1719V203.837H37.9941V200.209H33.6387V197.488H28.7383V197.442H12.4336V201.116H7.53418V203.837H2.60645V200.209H-2.29199V197.442H-18.0527V200.209H-22.9531V204.744H-27.8818V201.116H-32.7539V203.837H-37.6543V209.279H-42.582V200.209H-45.3037V197.442H-50.1768V200.209H-55.0762V204.744H-60.0039V200.209H-69.8047V197.442H-74.6768V200.209H-79.5771V204.744H-84.5049V200.209H-89.4043V197.442H-114.967V200.209H-124.767V204.744H-129.694V200.209H-134.595V197.442H-139.467V200.209H-142.189V204.744H-147.117V203.837H-152.017V201.116H-156.89V204.744H-166.173V201.116H-171.045V203.837H-175.946V204.744H-180.873V200.209H-183.596V197.442H-188.468V200.209H-193.368V204.744H-198.296V200.209H-208.096V197.442H-237.469V200.209H-241.825V203.837H-244.547V212H-249.475V209.279H-254.375V203.837H-256.553V200.209H-260.908V197.488H-265.808V197.442H-280.481V204.744H-285.409V201.116H-290.281V203.837H-295.181V209.279H-300.109V200.209H-302.831V197.442H-307.704V200.209H-312.604V204.744H-317.532V200.209H-327.332V197.442H-332.204V200.209H-337.104V204.744H-342.032V200.209H-346.904V204.744H-351.832V200.209H-356.16V203.837H-361.06V204.744H-365.988V201.116H-370.86V204.744H-375.788V200.209H-380.661V203.837H-385.588V200.209H-390.461V203.837H-395.361V208.372H-400.289V203.837H-405.189V197.442H-409V153H0V0H360V153Z" fill="#D9D9D9"/>
</g>
</g>
<defs>
<clipPath id="clip0_576_16109">
<rect width="360" height="212" fill="white"/>
</clipPath>
</defs>
</svg>
