<svg width="152" height="133" viewBox="0 0 152 133" fill="none" xmlns="http://www.w3.org/2000/svg">
<path d="M0 0H46.5137L62.1393 12.7186H151.169V128.639H0V0Z" fill="#BABABA"/>
<rect y="22.5303" width="151.169" height="106.109" fill="#D7E8F6"/>
<path d="M72.4375 26.0938H74.2914V27.9476H72.4375V26.0938Z" fill="#7E7E7E"/>
<path d="M79.2383 26.0938H81.0921V27.9476H79.2383V26.0938Z" fill="#7E7E7E"/>
<path d="M66.8789 27.9478H68.7328V29.8016H66.8789V27.9478Z" fill="#7E7E7E"/>
<path d="M74.293 27.9478H75.5289V29.8016H74.293V27.9478Z" fill="#7E7E7E"/>
<path d="M77.3828 27.9478H79.2367V29.8016H77.3828V27.9478Z" fill="#7E7E7E"/>
<path d="M65.0234 29.8018H66.8773V31.6556H65.0234V29.8018Z" fill="#7E7E7E"/>
<path d="M68.7305 29.8018H70.5843V31.6556H68.7305V29.8018Z" fill="#7E7E7E"/>
<path d="M70.5859 29.8018H72.4398V31.6556H70.5859V29.8018Z" fill="#7E7E7E"/>
<path d="M72.4375 29.8018H74.2914V31.6556H72.4375V29.8018Z" fill="#7E7E7E"/>
<path d="M74.293 29.8018H75.5289V31.6556H74.293V29.8018Z" fill="#7E7E7E"/>
<path d="M77.3828 29.8018H79.2367V31.6556H77.3828V29.8018Z" fill="#7E7E7E"/>
<path d="M81.0898 29.8018H82.9437V31.6556H81.0898V29.8018Z" fill="#7E7E7E"/>
<path d="M84.7969 29.8018H86.6507V31.6556H84.7969V29.8018Z" fill="#7E7E7E"/>
<path d="M63.168 31.6553H65.0218V33.5091H63.168V31.6553Z" fill="#7E7E7E"/>
<path d="M66.8789 31.6553H68.7328V33.5091H66.8789V31.6553Z" fill="#7E7E7E"/>
<path d="M70.5859 31.6553H72.4398V33.5091H70.5859V31.6553Z" fill="#7E7E7E"/>
<path d="M72.4375 31.6553H74.2914V33.5091H72.4375V31.6553Z" fill="#7E7E7E"/>
<path d="M74.293 31.6553H75.5289V33.5091H74.293V31.6553Z" fill="#7E7E7E"/>
<path d="M75.5273 31.6553H77.3812V33.5091H75.5273V31.6553Z" fill="#7E7E7E"/>
<path d="M77.3828 31.6553H79.2367V33.5091H77.3828V31.6553Z" fill="#7E7E7E"/>
<path d="M79.2383 31.6553H81.0921V33.5091H79.2383V31.6553Z" fill="#7E7E7E"/>
<path d="M81.0898 31.6553H82.9437V33.5091H81.0898V31.6553Z" fill="#7E7E7E"/>
<path d="M59.4609 33.5093H61.3148V35.3631H59.4609V33.5093Z" fill="#7E7E7E"/>
<path d="M63.168 33.5093H65.0218V35.3631H63.168V33.5093Z" fill="#7E7E7E"/>
<path d="M65.0234 33.5093H66.8773V35.3631H65.0234V33.5093Z" fill="#7E7E7E"/>
<path d="M66.8789 33.5093H68.7328V35.3631H66.8789V33.5093Z" fill="#7E7E7E"/>
<path d="M68.7305 33.5093H70.5843V35.3631H68.7305V33.5093Z" fill="#7E7E7E"/>
<path d="M70.5859 33.5093H72.4398V35.3631H70.5859V33.5093Z" fill="#7E7E7E"/>
<path d="M74.293 33.5093H75.5289V35.3631H74.293V33.5093Z" fill="#7E7E7E"/>
<path d="M77.3828 33.5093H79.2367V35.3631H77.3828V33.5093Z" fill="#7E7E7E"/>
<path d="M81.0898 33.5093H82.9437V35.3631H81.0898V33.5093Z" fill="#7E7E7E"/>
<path d="M82.9453 33.5093H84.7992V35.3631H82.9453V33.5093Z" fill="#7E7E7E"/>
<path d="M84.7969 33.5093H86.6507V35.3631H84.7969V33.5093Z" fill="#7E7E7E"/>
<path d="M88.5039 33.5093H90.3578V35.3631H88.5039V33.5093Z" fill="#7E7E7E"/>
<path d="M63.168 35.3633H65.0218V37.2171H63.168V35.3633Z" fill="#7E7E7E"/>
<path d="M66.8789 35.3633H68.7328V37.2171H66.8789V35.3633Z" fill="#7E7E7E"/>
<path d="M70.5859 35.3633H72.4398V37.2171H70.5859V35.3633Z" fill="#7E7E7E"/>
<path d="M72.4375 35.3633H74.2914V37.2171H72.4375V35.3633Z" fill="#7E7E7E"/>
<path d="M74.293 35.3633H75.5289V37.2171H74.293V35.3633Z" fill="#7E7E7E"/>
<path d="M75.5273 35.3633H77.3812V37.2171H75.5273V35.3633Z" fill="#7E7E7E"/>
<path d="M77.3828 35.3633H79.2367V37.2171H77.3828V35.3633Z" fill="#7E7E7E"/>
<path d="M79.2383 35.3633H81.0921V37.2171H79.2383V35.3633Z" fill="#7E7E7E"/>
<path d="M81.0898 35.3633H82.9437V37.2171H81.0898V35.3633Z" fill="#7E7E7E"/>
<path d="M84.7969 35.3633H86.6507V37.2171H84.7969V35.3633Z" fill="#7E7E7E"/>
<path d="M86.6523 35.3633H88.5062V37.2171H86.6523V35.3633Z" fill="#7E7E7E"/>
<path d="M59.4609 37.2168H61.3148V39.0707H59.4609V37.2168Z" fill="#7E7E7E"/>
<path d="M61.3164 37.2168H63.1703V39.0707H61.3164V37.2168Z" fill="#7E7E7E"/>
<path d="M63.168 37.2168H65.0218V39.0707H63.168V37.2168Z" fill="#7E7E7E"/>
<path d="M66.8789 37.2168H68.7328V39.0707H66.8789V37.2168Z" fill="#7E7E7E"/>
<path d="M68.7305 37.2168H70.5843V39.0707H68.7305V37.2168Z" fill="#7E7E7E"/>
<path d="M70.5859 37.2168H72.4398V39.0707H70.5859V37.2168Z" fill="#7E7E7E"/>
<path d="M74.293 37.2168H75.5289V39.0707H74.293V37.2168Z" fill="#7E7E7E"/>
<path d="M75.5273 37.2168H77.3812V39.0707H75.5273V37.2168Z" fill="#7E7E7E"/>
<path d="M79.2383 37.2168H81.0921V39.0707H79.2383V37.2168Z" fill="#7E7E7E"/>
<path d="M81.0898 37.2168H82.9437V39.0707H81.0898V37.2168Z" fill="#7E7E7E"/>
<path d="M82.9453 37.2168H84.7992V39.0707H82.9453V37.2168Z" fill="#7E7E7E"/>
<path d="M84.7969 37.2168H86.6507V39.0707H84.7969V37.2168Z" fill="#7E7E7E"/>
<path d="M90.3594 37.2168H92.2132V39.0707H90.3594V37.2168Z" fill="#7E7E7E"/>
<path d="M39.0703 39.0708H40.9242V40.9247H39.0703V39.0708Z" fill="#7E7E7E"/>
<path d="M42.7773 39.0708H44.6312V40.9247H42.7773V39.0708Z" fill="#7E7E7E"/>
<path d="M57.6094 39.0708H59.4632V40.9247H57.6094V39.0708Z" fill="#7E7E7E"/>
<path d="M63.168 39.0708H65.0218V40.9247H63.168V39.0708Z" fill="#7E7E7E"/>
<path d="M65.0234 39.0708H66.8773V40.9247H65.0234V39.0708Z" fill="#7E7E7E"/>
<path d="M66.8789 39.0708H68.7328V40.9247H66.8789V39.0708Z" fill="#7E7E7E"/>
<path d="M68.7305 39.0708H70.5843V40.9247H68.7305V39.0708Z" fill="#7E7E7E"/>
<path d="M70.5859 39.0708H72.4398V40.9247H70.5859V39.0708Z" fill="#7E7E7E"/>
<path d="M72.4375 39.0708H74.2914V40.9247H72.4375V39.0708Z" fill="#7E7E7E"/>
<path d="M75.5273 39.0708H77.3812V40.9247H75.5273V39.0708Z" fill="#7E7E7E"/>
<path d="M77.3828 39.0708H79.2367V40.9247H77.3828V39.0708Z" fill="#7E7E7E"/>
<path d="M81.0898 39.0708H82.9437V40.9247H81.0898V39.0708Z" fill="#7E7E7E"/>
<path d="M82.9453 39.0708H84.7992V40.9247H82.9453V39.0708Z" fill="#7E7E7E"/>
<path d="M86.6523 39.0708H88.5062V40.9247H86.6523V39.0708Z" fill="#7E7E7E"/>
<path d="M103.336 39.0708H105.19V40.9247H103.336V39.0708Z" fill="#7E7E7E"/>
<path d="M107.043 39.0708H108.897V40.9247H107.043V39.0708Z" fill="#7E7E7E"/>
<path d="M40.9219 40.9248H42.7757V42.7787H40.9219V40.9248Z" fill="#7E7E7E"/>
<path d="M44.6328 40.9248H46.4867V42.7787H44.6328V40.9248Z" fill="#7E7E7E"/>
<path d="M48.3398 40.9248H50.1937V42.7787H48.3398V40.9248Z" fill="#7E7E7E"/>
<path d="M59.4609 40.9248H61.3148V42.7787H59.4609V40.9248Z" fill="#7E7E7E"/>
<path d="M61.3164 40.9248H63.1703V42.7787H61.3164V40.9248Z" fill="#7E7E7E"/>
<path d="M63.168 40.9248H65.0218V42.7787H63.168V40.9248Z" fill="#7E7E7E"/>
<path d="M65.0234 40.9248H66.8773V42.7787H65.0234V40.9248Z" fill="#7E7E7E"/>
<path d="M68.7305 40.9248H70.5843V42.7787H68.7305V40.9248Z" fill="#7E7E7E"/>
<path d="M72.4375 40.9248H74.2914V42.7787H72.4375V40.9248Z" fill="#7E7E7E"/>
<path d="M74.293 40.9248H75.5289V42.7787H74.293V40.9248Z" fill="#7E7E7E"/>
<path d="M75.5273 40.9248H77.3812V42.7787H75.5273V40.9248Z" fill="#7E7E7E"/>
<path d="M77.3828 40.9248H79.2367V42.7787H77.3828V40.9248Z" fill="#7E7E7E"/>
<path d="M79.2383 40.9248H81.0921V42.7787H79.2383V40.9248Z" fill="#7E7E7E"/>
<path d="M81.0898 40.9248H82.9437V42.7787H81.0898V40.9248Z" fill="#7E7E7E"/>
<path d="M82.9453 40.9248H84.7992V42.7787H82.9453V40.9248Z" fill="#7E7E7E"/>
<path d="M86.6523 40.9248H88.5062V42.7787H86.6523V40.9248Z" fill="#7E7E7E"/>
<path d="M90.3594 40.9248H92.2132V42.7787H90.3594V40.9248Z" fill="#7E7E7E"/>
<path d="M99.6289 40.9248H101.483V42.7787H99.6289V40.9248Z" fill="#7E7E7E"/>
<path d="M107.043 40.9248H108.897V42.7787H107.043V40.9248Z" fill="#7E7E7E"/>
<path d="M110.75 40.9248H112.604V42.7787H110.75V40.9248Z" fill="#7E7E7E"/>
<path d="M35.3633 42.7783H37.2171V44.6322H35.3633V42.7783Z" fill="#7E7E7E"/>
<path d="M37.2148 42.7783H39.0687V44.6322H37.2148V42.7783Z" fill="#7E7E7E"/>
<path d="M39.0703 42.7783H40.9242V44.6322H39.0703V42.7783Z" fill="#7E7E7E"/>
<path d="M40.9219 42.7783H42.7757V44.6322H40.9219V42.7783Z" fill="#7E7E7E"/>
<path d="M42.7773 42.7783H44.6312V44.6322H42.7773V42.7783Z" fill="#7E7E7E"/>
<path d="M44.6328 42.7783H46.4867V44.6322H44.6328V42.7783Z" fill="#7E7E7E"/>
<path d="M50.1914 42.7783H52.0453V44.6322H50.1914V42.7783Z" fill="#7E7E7E"/>
<path d="M61.3164 42.7783H63.1703V44.6322H61.3164V42.7783Z" fill="#7E7E7E"/>
<path d="M65.0234 42.7783H66.8773V44.6322H65.0234V42.7783Z" fill="#7E7E7E"/>
<path d="M66.8789 42.7783H68.7328V44.6322H66.8789V42.7783Z" fill="#7E7E7E"/>
<path d="M68.7305 42.7783H70.5843V44.6322H68.7305V42.7783Z" fill="#7E7E7E"/>
<path d="M70.5859 42.7783H72.4398V44.6322H70.5859V42.7783Z" fill="#7E7E7E"/>
<path d="M72.4375 42.7783H74.2914V44.6322H72.4375V42.7783Z" fill="#7E7E7E"/>
<path d="M75.5273 42.7783H77.3812V44.6322H75.5273V42.7783Z" fill="#7E7E7E"/>
<path d="M79.2383 42.7783H81.0921V44.6322H79.2383V42.7783Z" fill="#7E7E7E"/>
<path d="M82.9453 42.7783H84.7992V44.6322H82.9453V42.7783Z" fill="#7E7E7E"/>
<path d="M84.7969 42.7783H86.6507V44.6322H84.7969V42.7783Z" fill="#7E7E7E"/>
<path d="M86.6523 42.7783H88.5062V44.6322H86.6523V42.7783Z" fill="#7E7E7E"/>
<path d="M97.7734 42.7783H99.6273V44.6322H97.7734V42.7783Z" fill="#7E7E7E"/>
<path d="M101.484 42.7783H103.338V44.6322H101.484V42.7783Z" fill="#7E7E7E"/>
<path d="M103.336 42.7783H105.19V44.6322H103.336V42.7783Z" fill="#7E7E7E"/>
<path d="M107.043 42.7783H108.897V44.6322H107.043V42.7783Z" fill="#7E7E7E"/>
<path d="M108.898 42.7783H110.752V44.6322H108.898V42.7783Z" fill="#7E7E7E"/>
<path d="M110.75 42.7783H112.604V44.6322H110.75V42.7783Z" fill="#7E7E7E"/>
<path d="M114.461 42.7783H116.315V44.6322H114.461V42.7783Z" fill="#7E7E7E"/>
<path d="M33.5078 44.6323H35.3617V46.4862H33.5078V44.6323Z" fill="#7E7E7E"/>
<path d="M37.2148 44.6323H39.0687V46.4862H37.2148V44.6323Z" fill="#7E7E7E"/>
<path d="M40.9219 44.6323H42.7757V46.4862H40.9219V44.6323Z" fill="#7E7E7E"/>
<path d="M44.6328 44.6323H46.4867V46.4862H44.6328V44.6323Z" fill="#7E7E7E"/>
<path d="M46.4844 44.6323H48.3382V46.4862H46.4844V44.6323Z" fill="#7E7E7E"/>
<path d="M61.3164 44.6323H63.1703V46.4862H61.3164V44.6323Z" fill="#7E7E7E"/>
<path d="M63.168 44.6323H65.0218V46.4862H63.168V44.6323Z" fill="#7E7E7E"/>
<path d="M66.8789 44.6323H68.7328V46.4862H66.8789V44.6323Z" fill="#7E7E7E"/>
<path d="M68.7305 44.6323H70.5843V46.4862H68.7305V44.6323Z" fill="#7E7E7E"/>
<path d="M72.4375 44.6323H74.2914V46.4862H72.4375V44.6323Z" fill="#7E7E7E"/>
<path d="M74.293 44.6323H75.5289V46.4862H74.293V44.6323Z" fill="#7E7E7E"/>
<path d="M75.5273 44.6323H77.3812V46.4862H75.5273V44.6323Z" fill="#7E7E7E"/>
<path d="M79.2383 44.6323H81.0921V46.4862H79.2383V44.6323Z" fill="#7E7E7E"/>
<path d="M81.0898 44.6323H82.9437V46.4862H81.0898V44.6323Z" fill="#7E7E7E"/>
<path d="M84.7969 44.6323H86.6507V46.4862H84.7969V44.6323Z" fill="#7E7E7E"/>
<path d="M86.6523 44.6323H88.5062V46.4862H86.6523V44.6323Z" fill="#7E7E7E"/>
<path d="M90.3594 44.6323H92.2132V46.4862H90.3594V44.6323Z" fill="#7E7E7E"/>
<path d="M99.6289 44.6323H101.483V46.4862H99.6289V44.6323Z" fill="#7E7E7E"/>
<path d="M103.336 44.6323H105.19V46.4862H103.336V44.6323Z" fill="#7E7E7E"/>
<path d="M105.191 44.6323H107.045V46.4862H105.191V44.6323Z" fill="#7E7E7E"/>
<path d="M107.043 44.6323H108.897V46.4862H107.043V44.6323Z" fill="#7E7E7E"/>
<path d="M110.75 44.6323H112.604V46.4862H110.75V44.6323Z" fill="#7E7E7E"/>
<path d="M112.605 44.6323H114.459V46.4862H112.605V44.6323Z" fill="#7E7E7E"/>
<path d="M35.3633 46.4863H37.2171V48.3402H35.3633V46.4863Z" fill="#7E7E7E"/>
<path d="M37.2148 46.4863H39.0687V48.3402H37.2148V46.4863Z" fill="#7E7E7E"/>
<path d="M39.0703 46.4863H40.9242V48.3402H39.0703V46.4863Z" fill="#7E7E7E"/>
<path d="M40.9219 46.4863H42.7757V48.3402H40.9219V46.4863Z" fill="#7E7E7E"/>
<path d="M42.7773 46.4863H44.6312V48.3402H42.7773V46.4863Z" fill="#7E7E7E"/>
<path d="M46.4844 46.4863H48.3382V48.3402H46.4844V46.4863Z" fill="#7E7E7E"/>
<path d="M48.3398 46.4863H50.1937V48.3402H48.3398V46.4863Z" fill="#7E7E7E"/>
<path d="M50.1914 46.4863H52.0453V48.3402H50.1914V46.4863Z" fill="#7E7E7E"/>
<path d="M52.0469 46.4863H53.9007V48.3402H52.0469V46.4863Z" fill="#7E7E7E"/>
<path d="M61.3164 46.4863H63.1703V48.3402H61.3164V46.4863Z" fill="#7E7E7E"/>
<path d="M63.168 46.4863H65.0218V48.3402H63.168V46.4863Z" fill="#7E7E7E"/>
<path d="M65.0234 46.4863H66.8773V48.3402H65.0234V46.4863Z" fill="#7E7E7E"/>
<path d="M68.7305 46.4863H70.5843V48.3402H68.7305V46.4863Z" fill="#7E7E7E"/>
<path d="M70.5859 46.4863H72.4398V48.3402H70.5859V46.4863Z" fill="#7E7E7E"/>
<path d="M74.293 46.4863H75.5289V48.3402H74.293V46.4863Z" fill="#7E7E7E"/>
<path d="M75.5273 46.4863H77.3812V48.3402H75.5273V46.4863Z" fill="#7E7E7E"/>
<path d="M77.3828 46.4863H79.2367V48.3402H77.3828V46.4863Z" fill="#7E7E7E"/>
<path d="M79.2383 46.4863H81.0921V48.3402H79.2383V46.4863Z" fill="#7E7E7E"/>
<path d="M81.0898 46.4863H82.9437V48.3402H81.0898V46.4863Z" fill="#7E7E7E"/>
<path d="M82.9453 46.4863H84.7992V48.3402H82.9453V46.4863Z" fill="#7E7E7E"/>
<path d="M84.7969 46.4863H86.6507V48.3402H84.7969V46.4863Z" fill="#7E7E7E"/>
<path d="M88.5039 46.4863H90.3578V48.3402H88.5039V46.4863Z" fill="#7E7E7E"/>
<path d="M97.7734 46.4863H99.6273V48.3402H97.7734V46.4863Z" fill="#7E7E7E"/>
<path d="M101.484 46.4863H103.338V48.3402H101.484V46.4863Z" fill="#7E7E7E"/>
<path d="M103.336 46.4863H105.19V48.3402H103.336V46.4863Z" fill="#7E7E7E"/>
<path d="M105.191 46.4863H107.045V48.3402H105.191V46.4863Z" fill="#7E7E7E"/>
<path d="M108.898 46.4863H110.752V48.3402H108.898V46.4863Z" fill="#7E7E7E"/>
<path d="M110.75 46.4863H112.604V48.3402H110.75V46.4863Z" fill="#7E7E7E"/>
<path d="M112.605 46.4863H114.459V48.3402H112.605V46.4863Z" fill="#7E7E7E"/>
<path d="M116.312 46.4863H118.166V48.3402H116.312V46.4863Z" fill="#7E7E7E"/>
<path d="M31.6523 48.3403H33.5062V50.1942H31.6523V48.3403Z" fill="#7E7E7E"/>
<path d="M35.3633 48.3403H37.2171V50.1942H35.3633V48.3403Z" fill="#7E7E7E"/>
<path d="M37.2148 48.3403H39.0687V50.1942H37.2148V48.3403Z" fill="#7E7E7E"/>
<path d="M40.9219 48.3403H42.7757V50.1942H40.9219V48.3403Z" fill="#7E7E7E"/>
<path d="M42.7773 48.3403H44.6312V50.1942H42.7773V48.3403Z" fill="#7E7E7E"/>
<path d="M44.6328 48.3403H46.4867V50.1942H44.6328V48.3403Z" fill="#7E7E7E"/>
<path d="M46.4844 48.3403H48.3382V50.1942H46.4844V48.3403Z" fill="#7E7E7E"/>
<path d="M48.3398 48.3403H50.1937V50.1942H48.3398V48.3403Z" fill="#7E7E7E"/>
<path d="M50.1914 48.3403H52.0453V50.1942H50.1914V48.3403Z" fill="#7E7E7E"/>
<path d="M53.8984 48.3403H55.7523V50.1942H53.8984V48.3403Z" fill="#7E7E7E"/>
<path d="M61.3164 48.3403H63.1703V50.1942H61.3164V48.3403Z" fill="#7E7E7E"/>
<path d="M65.0234 48.3403H66.8773V50.1942H65.0234V48.3403Z" fill="#7E7E7E"/>
<path d="M66.8789 48.3403H68.7328V50.1942H66.8789V48.3403Z" fill="#7E7E7E"/>
<path d="M68.7305 48.3403H70.5843V50.1942H68.7305V48.3403Z" fill="#7E7E7E"/>
<path d="M72.4375 48.3403H74.2914V50.1942H72.4375V48.3403Z" fill="#7E7E7E"/>
<path d="M74.293 48.3403H75.5289V50.1942H74.293V48.3403Z" fill="#7E7E7E"/>
<path d="M77.3828 48.3403H79.2367V50.1942H77.3828V48.3403Z" fill="#7E7E7E"/>
<path d="M81.0898 48.3403H82.9437V50.1942H81.0898V48.3403Z" fill="#7E7E7E"/>
<path d="M84.7969 48.3403H86.6507V50.1942H84.7969V48.3403Z" fill="#7E7E7E"/>
<path d="M86.6523 48.3403H88.5062V50.1942H86.6523V48.3403Z" fill="#7E7E7E"/>
<path d="M97.7734 48.3403H99.6273V50.1942H97.7734V48.3403Z" fill="#7E7E7E"/>
<path d="M99.6289 48.3403H101.483V50.1942H99.6289V48.3403Z" fill="#7E7E7E"/>
<path d="M101.484 48.3403H103.338V50.1942H101.484V48.3403Z" fill="#7E7E7E"/>
<path d="M103.336 48.3403H105.19V50.1942H103.336V48.3403Z" fill="#7E7E7E"/>
<path d="M107.043 48.3403H108.897V50.1942H107.043V48.3403Z" fill="#7E7E7E"/>
<path d="M108.898 48.3403H110.752V50.1942H108.898V48.3403Z" fill="#7E7E7E"/>
<path d="M112.605 48.3403H114.459V50.1942H112.605V48.3403Z" fill="#7E7E7E"/>
<path d="M37.2148 50.1938H39.0687V52.0477H37.2148V50.1938Z" fill="#7E7E7E"/>
<path d="M39.0703 50.1938H40.9242V52.0477H39.0703V50.1938Z" fill="#7E7E7E"/>
<path d="M42.7773 50.1938H44.6312V52.0477H42.7773V50.1938Z" fill="#7E7E7E"/>
<path d="M44.6328 50.1938H46.4867V52.0477H44.6328V50.1938Z" fill="#7E7E7E"/>
<path d="M46.4844 50.1938H48.3382V52.0477H46.4844V50.1938Z" fill="#7E7E7E"/>
<path d="M50.1914 50.1938H52.0453V52.0477H50.1914V50.1938Z" fill="#7E7E7E"/>
<path d="M53.8984 50.1938H55.7523V52.0477H53.8984V50.1938Z" fill="#7E7E7E"/>
<path d="M63.168 50.1938H65.0218V52.0477H63.168V50.1938Z" fill="#7E7E7E"/>
<path d="M66.8789 50.1938H68.7328V52.0477H66.8789V50.1938Z" fill="#7E7E7E"/>
<path d="M68.7305 50.1938H70.5843V52.0477H68.7305V50.1938Z" fill="#7E7E7E"/>
<path d="M72.4375 50.1938H74.2914V52.0477H72.4375V50.1938Z" fill="#7E7E7E"/>
<path d="M74.293 50.1938H75.5289V52.0477H74.293V50.1938Z" fill="#7E7E7E"/>
<path d="M75.5273 50.1938H77.3812V52.0477H75.5273V50.1938Z" fill="#7E7E7E"/>
<path d="M77.3828 50.1938H79.2367V52.0477H77.3828V50.1938Z" fill="#7E7E7E"/>
<path d="M79.2383 50.1938H81.0921V52.0477H79.2383V50.1938Z" fill="#7E7E7E"/>
<path d="M81.0898 50.1938H82.9437V52.0477H81.0898V50.1938Z" fill="#7E7E7E"/>
<path d="M82.9453 50.1938H84.7992V52.0477H82.9453V50.1938Z" fill="#7E7E7E"/>
<path d="M95.9219 50.1938H97.7757V52.0477H95.9219V50.1938Z" fill="#7E7E7E"/>
<path d="M97.7734 50.1938H99.6273V52.0477H97.7734V50.1938Z" fill="#7E7E7E"/>
<path d="M99.6289 50.1938H101.483V52.0477H99.6289V50.1938Z" fill="#7E7E7E"/>
<path d="M101.484 50.1938H103.338V52.0477H101.484V50.1938Z" fill="#7E7E7E"/>
<path d="M103.336 50.1938H105.19V52.0477H103.336V50.1938Z" fill="#7E7E7E"/>
<path d="M105.191 50.1938H107.045V52.0477H105.191V50.1938Z" fill="#7E7E7E"/>
<path d="M107.043 50.1938H108.897V52.0477H107.043V50.1938Z" fill="#7E7E7E"/>
<path d="M110.75 50.1938H112.604V52.0477H110.75V50.1938Z" fill="#7E7E7E"/>
<path d="M112.605 50.1938H114.459V52.0477H112.605V50.1938Z" fill="#7E7E7E"/>
<path d="M118.168 50.1938H120.022V52.0477H118.168V50.1938Z" fill="#7E7E7E"/>
<path d="M33.5078 52.0479H35.3617V53.9017H33.5078V52.0479Z" fill="#7E7E7E"/>
<path d="M37.2148 52.0479H39.0687V53.9017H37.2148V52.0479Z" fill="#7E7E7E"/>
<path d="M39.0703 52.0479H40.9242V53.9017H39.0703V52.0479Z" fill="#7E7E7E"/>
<path d="M40.9219 52.0479H42.7757V53.9017H40.9219V52.0479Z" fill="#7E7E7E"/>
<path d="M42.7773 52.0479H44.6312V53.9017H42.7773V52.0479Z" fill="#7E7E7E"/>
<path d="M46.4844 52.0479H48.3382V53.9017H46.4844V52.0479Z" fill="#7E7E7E"/>
<path d="M48.3398 52.0479H50.1937V53.9017H48.3398V52.0479Z" fill="#7E7E7E"/>
<path d="M52.0469 52.0479H53.9007V53.9017H52.0469V52.0479Z" fill="#7E7E7E"/>
<path d="M53.8984 52.0479H55.7523V53.9017H53.8984V52.0479Z" fill="#7E7E7E"/>
<path d="M65.0234 52.0479H66.8773V53.9017H65.0234V52.0479Z" fill="#7E7E7E"/>
<path d="M66.8789 52.0479H68.7328V53.9017H66.8789V52.0479Z" fill="#7E7E7E"/>
<path d="M70.5859 52.0479H72.4398V53.9017H70.5859V52.0479Z" fill="#7E7E7E"/>
<path d="M72.4375 52.0479H74.2914V53.9017H72.4375V52.0479Z" fill="#7E7E7E"/>
<path d="M75.5273 52.0479H77.3812V53.9017H75.5273V52.0479Z" fill="#7E7E7E"/>
<path d="M79.2383 52.0479H81.0921V53.9017H79.2383V52.0479Z" fill="#7E7E7E"/>
<path d="M81.0898 52.0479H82.9437V53.9017H81.0898V52.0479Z" fill="#7E7E7E"/>
<path d="M84.7969 52.0479H86.6507V53.9017H84.7969V52.0479Z" fill="#7E7E7E"/>
<path d="M94.0664 52.0479H95.9203V53.9017H94.0664V52.0479Z" fill="#7E7E7E"/>
<path d="M95.9219 52.0479H97.7757V53.9017H95.9219V52.0479Z" fill="#7E7E7E"/>
<path d="M97.7734 52.0479H99.6273V53.9017H97.7734V52.0479Z" fill="#7E7E7E"/>
<path d="M101.484 52.0479H103.338V53.9017H101.484V52.0479Z" fill="#7E7E7E"/>
<path d="M105.191 52.0479H107.045V53.9017H105.191V52.0479Z" fill="#7E7E7E"/>
<path d="M108.898 52.0479H110.752V53.9017H108.898V52.0479Z" fill="#7E7E7E"/>
<path d="M110.75 52.0479H112.604V53.9017H110.75V52.0479Z" fill="#7E7E7E"/>
<path d="M39.0703 53.9019H40.9242V55.7557H39.0703V53.9019Z" fill="#7E7E7E"/>
<path d="M40.9219 53.9019H42.7757V55.7557H40.9219V53.9019Z" fill="#7E7E7E"/>
<path d="M42.7773 53.9019H44.6312V55.7557H42.7773V53.9019Z" fill="#7E7E7E"/>
<path d="M44.6328 53.9019H46.4867V55.7557H44.6328V53.9019Z" fill="#7E7E7E"/>
<path d="M48.3398 53.9019H50.1937V55.7557H48.3398V53.9019Z" fill="#7E7E7E"/>
<path d="M50.1914 53.9019H52.0453V55.7557H50.1914V53.9019Z" fill="#7E7E7E"/>
<path d="M52.0469 53.9019H53.9007V55.7557H52.0469V53.9019Z" fill="#7E7E7E"/>
<path d="M55.7539 53.9019H57.6078V55.7557H55.7539V53.9019Z" fill="#7E7E7E"/>
<path d="M66.8789 53.9019H68.7328V55.7557H66.8789V53.9019Z" fill="#7E7E7E"/>
<path d="M68.7305 53.9019H70.5843V55.7557H68.7305V53.9019Z" fill="#7E7E7E"/>
<path d="M72.4375 53.9019H74.2914V55.7557H72.4375V53.9019Z" fill="#7E7E7E"/>
<path d="M74.293 53.9019H75.5289V55.7557H74.293V53.9019Z" fill="#7E7E7E"/>
<path d="M75.5273 53.9019H77.3812V55.7557H75.5273V53.9019Z" fill="#7E7E7E"/>
<path d="M77.3828 53.9019H79.2367V55.7557H77.3828V53.9019Z" fill="#7E7E7E"/>
<path d="M81.0898 53.9019H82.9437V55.7557H81.0898V53.9019Z" fill="#7E7E7E"/>
<path d="M90.3594 53.9019H92.2132V55.7557H90.3594V53.9019Z" fill="#7E7E7E"/>
<path d="M92.2148 53.9019H94.0687V55.7557H92.2148V53.9019Z" fill="#7E7E7E"/>
<path d="M94.0664 53.9019H95.9203V55.7557H94.0664V53.9019Z" fill="#7E7E7E"/>
<path d="M97.7734 53.9019H99.6273V55.7557H97.7734V53.9019Z" fill="#7E7E7E"/>
<path d="M99.6289 53.9019H101.483V55.7557H99.6289V53.9019Z" fill="#7E7E7E"/>
<path d="M101.484 53.9019H103.338V55.7557H101.484V53.9019Z" fill="#7E7E7E"/>
<path d="M103.336 53.9019H105.19V55.7557H103.336V53.9019Z" fill="#7E7E7E"/>
<path d="M105.191 53.9019H107.045V55.7557H105.191V53.9019Z" fill="#7E7E7E"/>
<path d="M107.043 53.9019H108.897V55.7557H107.043V53.9019Z" fill="#7E7E7E"/>
<path d="M110.75 53.9019H112.604V55.7557H110.75V53.9019Z" fill="#7E7E7E"/>
<path d="M35.3633 55.7554H37.2171V57.6092H35.3633V55.7554Z" fill="#7E7E7E"/>
<path d="M44.6328 55.7554H46.4867V57.6092H44.6328V55.7554Z" fill="#7E7E7E"/>
<path d="M46.4844 55.7554H48.3382V57.6092H46.4844V55.7554Z" fill="#7E7E7E"/>
<path d="M50.1914 55.7554H52.0453V57.6092H50.1914V55.7554Z" fill="#7E7E7E"/>
<path d="M52.0469 55.7554H53.9007V57.6092H52.0469V55.7554Z" fill="#7E7E7E"/>
<path d="M53.8984 55.7554H55.7523V57.6092H53.8984V55.7554Z" fill="#7E7E7E"/>
<path d="M55.7539 55.7554H57.6078V57.6092H55.7539V55.7554Z" fill="#7E7E7E"/>
<path d="M57.6094 55.7554H59.4632V57.6092H57.6094V55.7554Z" fill="#7E7E7E"/>
<path d="M68.7305 55.7554H70.5843V57.6092H68.7305V55.7554Z" fill="#7E7E7E"/>
<path d="M72.4375 55.7554H74.2914V57.6092H72.4375V55.7554Z" fill="#7E7E7E"/>
<path d="M75.5273 55.7554H77.3812V57.6092H75.5273V55.7554Z" fill="#7E7E7E"/>
<path d="M81.0898 55.7554H82.9437V57.6092H81.0898V55.7554Z" fill="#7E7E7E"/>
<path d="M86.6523 55.7554H88.5062V57.6092H86.6523V55.7554Z" fill="#7E7E7E"/>
<path d="M90.3594 55.7554H92.2132V57.6092H90.3594V55.7554Z" fill="#7E7E7E"/>
<path d="M92.2148 55.7554H94.0687V57.6092H92.2148V55.7554Z" fill="#7E7E7E"/>
<path d="M95.9219 55.7554H97.7757V57.6092H95.9219V55.7554Z" fill="#7E7E7E"/>
<path d="M97.7734 55.7554H99.6273V57.6092H97.7734V55.7554Z" fill="#7E7E7E"/>
<path d="M101.484 55.7554H103.338V57.6092H101.484V55.7554Z" fill="#7E7E7E"/>
<path d="M105.191 55.7554H107.045V57.6092H105.191V55.7554Z" fill="#7E7E7E"/>
<path d="M108.898 55.7554H110.752V57.6092H108.898V55.7554Z" fill="#7E7E7E"/>
<path d="M39.0703 57.6094H40.9242V59.4632H39.0703V57.6094Z" fill="#7E7E7E"/>
<path d="M42.7773 57.6094H44.6312V59.4632H42.7773V57.6094Z" fill="#7E7E7E"/>
<path d="M44.6328 57.6094H46.4867V59.4632H44.6328V57.6094Z" fill="#7E7E7E"/>
<path d="M46.4844 57.6094H48.3382V59.4632H46.4844V57.6094Z" fill="#7E7E7E"/>
<path d="M50.1914 57.6094H52.0453V59.4632H50.1914V57.6094Z" fill="#7E7E7E"/>
<path d="M52.0469 57.6094H53.9007V59.4632H52.0469V57.6094Z" fill="#7E7E7E"/>
<path d="M55.7539 57.6094H57.6078V59.4632H55.7539V57.6094Z" fill="#7E7E7E"/>
<path d="M57.6094 57.6094H59.4632V59.4632H57.6094V57.6094Z" fill="#7E7E7E"/>
<path d="M59.4609 57.6094H61.3148V59.4632H59.4609V57.6094Z" fill="#7E7E7E"/>
<path d="M63.168 57.6094H65.0218V59.4632H63.168V57.6094Z" fill="#7E7E7E"/>
<path d="M66.8789 57.6094H68.7328V59.4632H66.8789V57.6094Z" fill="#7E7E7E"/>
<path d="M70.5859 57.6094H72.4398V59.4632H70.5859V57.6094Z" fill="#7E7E7E"/>
<path d="M74.293 57.6094H75.5289V59.4632H74.293V57.6094Z" fill="#7E7E7E"/>
<path d="M79.2383 57.6094H81.0921V59.4632H79.2383V57.6094Z" fill="#7E7E7E"/>
<path d="M82.9453 57.6094H84.7992V59.4632H82.9453V57.6094Z" fill="#7E7E7E"/>
<path d="M86.6523 57.6094H88.5062V59.4632H86.6523V57.6094Z" fill="#7E7E7E"/>
<path d="M90.3594 57.6094H92.2132V59.4632H90.3594V57.6094Z" fill="#7E7E7E"/>
<path d="M92.2148 57.6094H94.0687V59.4632H92.2148V57.6094Z" fill="#7E7E7E"/>
<path d="M94.0664 57.6094H95.9203V59.4632H94.0664V57.6094Z" fill="#7E7E7E"/>
<path d="M95.9219 57.6094H97.7757V59.4632H95.9219V57.6094Z" fill="#7E7E7E"/>
<path d="M97.7734 57.6094H99.6273V59.4632H97.7734V57.6094Z" fill="#7E7E7E"/>
<path d="M99.6289 57.6094H101.483V59.4632H99.6289V57.6094Z" fill="#7E7E7E"/>
<path d="M101.484 57.6094H103.338V59.4632H101.484V57.6094Z" fill="#7E7E7E"/>
<path d="M103.336 57.6094H105.19V59.4632H103.336V57.6094Z" fill="#7E7E7E"/>
<path d="M105.191 57.6094H107.045V59.4632H105.191V57.6094Z" fill="#7E7E7E"/>
<path d="M110.75 57.6094H112.604V59.4632H110.75V57.6094Z" fill="#7E7E7E"/>
<path d="M42.7773 59.4634H44.6312V61.3172H42.7773V59.4634Z" fill="#7E7E7E"/>
<path d="M46.4844 59.4634H48.3382V61.3172H46.4844V59.4634Z" fill="#7E7E7E"/>
<path d="M48.3398 59.4634H50.1937V61.3172H48.3398V59.4634Z" fill="#7E7E7E"/>
<path d="M50.1914 59.4634H52.0453V61.3172H50.1914V59.4634Z" fill="#7E7E7E"/>
<path d="M53.8984 59.4634H55.7523V61.3172H53.8984V59.4634Z" fill="#7E7E7E"/>
<path d="M57.6094 59.4634H59.4632V61.3172H57.6094V59.4634Z" fill="#7E7E7E"/>
<path d="M59.4609 59.4634H61.3148V61.3172H59.4609V59.4634Z" fill="#7E7E7E"/>
<path d="M63.168 59.4634H65.0218V61.3172H63.168V59.4634Z" fill="#7E7E7E"/>
<path d="M66.8789 59.4634H68.7328V61.3172H66.8789V59.4634Z" fill="#7E7E7E"/>
<path d="M70.5859 59.4634H72.4398V61.3172H70.5859V59.4634Z" fill="#7E7E7E"/>
<path d="M75.5273 59.4634H77.3812V61.3172H75.5273V59.4634Z" fill="#7E7E7E"/>
<path d="M81.0898 59.4634H82.9437V61.3172H81.0898V59.4634Z" fill="#7E7E7E"/>
<path d="M84.7969 59.4634H86.6507V61.3172H84.7969V59.4634Z" fill="#7E7E7E"/>
<path d="M86.6523 59.4634H88.5062V61.3172H86.6523V59.4634Z" fill="#7E7E7E"/>
<path d="M88.5039 59.4634H90.3578V61.3172H88.5039V59.4634Z" fill="#7E7E7E"/>
<path d="M90.3594 59.4634H92.2132V61.3172H90.3594V59.4634Z" fill="#7E7E7E"/>
<path d="M94.0664 59.4634H95.9203V61.3172H94.0664V59.4634Z" fill="#7E7E7E"/>
<path d="M97.7734 59.4634H99.6273V61.3172H97.7734V59.4634Z" fill="#7E7E7E"/>
<path d="M101.484 59.4634H103.338V61.3172H101.484V59.4634Z" fill="#7E7E7E"/>
<path d="M105.191 59.4634H107.045V61.3172H105.191V59.4634Z" fill="#7E7E7E"/>
<path d="M44.6328 61.3169H46.4867V63.1708H44.6328V61.3169Z" fill="#7E7E7E"/>
<path d="M48.3398 61.3169H50.1937V63.1708H48.3398V61.3169Z" fill="#7E7E7E"/>
<path d="M50.1914 61.3169H52.0453V63.1708H50.1914V61.3169Z" fill="#7E7E7E"/>
<path d="M52.0469 61.3169H53.9007V63.1708H52.0469V61.3169Z" fill="#7E7E7E"/>
<path d="M53.8984 61.3169H55.7523V63.1708H53.8984V61.3169Z" fill="#7E7E7E"/>
<path d="M55.7539 61.3169H57.6078V63.1708H55.7539V61.3169Z" fill="#7E7E7E"/>
<path d="M57.6094 61.3169H59.4632V63.1708H57.6094V61.3169Z" fill="#7E7E7E"/>
<path d="M61.3164 61.3169H63.1703V63.1708H61.3164V61.3169Z" fill="#7E7E7E"/>
<path d="M63.168 61.3169H65.0218V63.1708H63.168V61.3169Z" fill="#7E7E7E"/>
<path d="M65.0234 61.3169H66.8773V63.1708H65.0234V61.3169Z" fill="#7E7E7E"/>
<path d="M66.8789 61.3169H68.7328V63.1708H66.8789V61.3169Z" fill="#7E7E7E"/>
<path d="M70.5859 61.3169H72.4398V63.1708H70.5859V61.3169Z" fill="#7E7E7E"/>
<path d="M72.4375 61.3169H74.2914V63.1708H72.4375V61.3169Z" fill="#7E7E7E"/>
<path d="M74.293 61.3169H75.5289V63.1708H74.293V61.3169Z" fill="#7E7E7E"/>
<path d="M75.5273 61.3169H77.3812V63.1708H75.5273V61.3169Z" fill="#7E7E7E"/>
<path d="M77.3828 61.3169H79.2367V63.1708H77.3828V61.3169Z" fill="#7E7E7E"/>
<path d="M79.2383 61.3169H81.0921V63.1708H79.2383V61.3169Z" fill="#7E7E7E"/>
<path d="M81.0898 61.3169H82.9437V63.1708H81.0898V61.3169Z" fill="#7E7E7E"/>
<path d="M82.9453 61.3169H84.7992V63.1708H82.9453V61.3169Z" fill="#7E7E7E"/>
<path d="M86.6523 61.3169H88.5062V63.1708H86.6523V61.3169Z" fill="#7E7E7E"/>
<path d="M90.3594 61.3169H92.2132V63.1708H90.3594V61.3169Z" fill="#7E7E7E"/>
<path d="M92.2148 61.3169H94.0687V63.1708H92.2148V61.3169Z" fill="#7E7E7E"/>
<path d="M94.0664 61.3169H95.9203V63.1708H94.0664V61.3169Z" fill="#7E7E7E"/>
<path d="M95.9219 61.3169H97.7757V63.1708H95.9219V61.3169Z" fill="#7E7E7E"/>
<path d="M97.7734 61.3169H99.6273V63.1708H97.7734V61.3169Z" fill="#7E7E7E"/>
<path d="M99.6289 61.3169H101.483V63.1708H99.6289V61.3169Z" fill="#7E7E7E"/>
<path d="M103.336 61.3169H105.19V63.1708H103.336V61.3169Z" fill="#7E7E7E"/>
<path d="M46.4844 63.1709H48.3382V65.0248H46.4844V63.1709Z" fill="#7E7E7E"/>
<path d="M50.1914 63.1709H52.0453V65.0248H50.1914V63.1709Z" fill="#7E7E7E"/>
<path d="M53.8984 63.1709H55.7523V65.0248H53.8984V63.1709Z" fill="#7E7E7E"/>
<path d="M57.6094 63.1709H59.4632V65.0248H57.6094V63.1709Z" fill="#7E7E7E"/>
<path d="M59.4609 63.1709H61.3148V65.0248H59.4609V63.1709Z" fill="#7E7E7E"/>
<path d="M61.3164 63.1709H63.1703V65.0248H61.3164V63.1709Z" fill="#7E7E7E"/>
<path d="M65.0234 63.1709H66.8773V65.0248H65.0234V63.1709Z" fill="#7E7E7E"/>
<path d="M66.8789 63.1709H68.7328V65.0248H66.8789V63.1709Z" fill="#7E7E7E"/>
<path d="M68.7305 63.1709H70.5843V65.0248H68.7305V63.1709Z" fill="#7E7E7E"/>
<path d="M72.4375 63.1709H74.2914V65.0248H72.4375V63.1709Z" fill="#7E7E7E"/>
<path d="M74.293 63.1709H75.5289V65.0248H74.293V63.1709Z" fill="#7E7E7E"/>
<path d="M77.3828 63.1709H79.2367V65.0248H77.3828V63.1709Z" fill="#7E7E7E"/>
<path d="M81.0898 63.1709H82.9437V65.0248H81.0898V63.1709Z" fill="#7E7E7E"/>
<path d="M84.7969 63.1709H86.6507V65.0248H84.7969V63.1709Z" fill="#7E7E7E"/>
<path d="M86.6523 63.1709H88.5062V65.0248H86.6523V63.1709Z" fill="#7E7E7E"/>
<path d="M88.5039 63.1709H90.3578V65.0248H88.5039V63.1709Z" fill="#7E7E7E"/>
<path d="M92.2148 63.1709H94.0687V65.0248H92.2148V63.1709Z" fill="#7E7E7E"/>
<path d="M95.9219 63.1709H97.7757V65.0248H95.9219V63.1709Z" fill="#7E7E7E"/>
<path d="M97.7734 63.1709H99.6273V65.0248H97.7734V63.1709Z" fill="#7E7E7E"/>
<path d="M101.484 63.1709H103.338V65.0248H101.484V63.1709Z" fill="#7E7E7E"/>
<path d="M42.7773 65.0249H44.6312V66.8788H42.7773V65.0249Z" fill="#7E7E7E"/>
<path d="M50.1914 65.0249H52.0453V66.8788H50.1914V65.0249Z" fill="#7E7E7E"/>
<path d="M52.0469 65.0249H53.9007V66.8788H52.0469V65.0249Z" fill="#7E7E7E"/>
<path d="M53.8984 65.0249H55.7523V66.8788H53.8984V65.0249Z" fill="#7E7E7E"/>
<path d="M55.7539 65.0249H57.6078V66.8788H55.7539V65.0249Z" fill="#7E7E7E"/>
<path d="M57.6094 65.0249H59.4632V66.8788H57.6094V65.0249Z" fill="#7E7E7E"/>
<path d="M61.3164 65.0249H63.1703V66.8788H61.3164V65.0249Z" fill="#7E7E7E"/>
<path d="M65.0234 65.0249H66.8773V66.8788H65.0234V65.0249Z" fill="#7E7E7E"/>
<path d="M68.7305 65.0249H70.5843V66.8788H68.7305V65.0249Z" fill="#7E7E7E"/>
<path d="M70.5859 65.0249H72.4398V66.8788H70.5859V65.0249Z" fill="#7E7E7E"/>
<path d="M74.293 65.0249H75.5289V66.8788H74.293V65.0249Z" fill="#7E7E7E"/>
<path d="M75.5273 65.0249H77.3812V66.8788H75.5273V65.0249Z" fill="#7E7E7E"/>
<path d="M77.3828 65.0249H79.2367V66.8788H77.3828V65.0249Z" fill="#7E7E7E"/>
<path d="M79.2383 65.0249H81.0921V66.8788H79.2383V65.0249Z" fill="#7E7E7E"/>
<path d="M82.9453 65.0249H84.7992V66.8788H82.9453V65.0249Z" fill="#7E7E7E"/>
<path d="M84.7969 65.0249H86.6507V66.8788H84.7969V65.0249Z" fill="#7E7E7E"/>
<path d="M88.5039 65.0249H90.3578V66.8788H88.5039V65.0249Z" fill="#7E7E7E"/>
<path d="M90.3594 65.0249H92.2132V66.8788H90.3594V65.0249Z" fill="#7E7E7E"/>
<path d="M92.2148 65.0249H94.0687V66.8788H92.2148V65.0249Z" fill="#7E7E7E"/>
<path d="M94.0664 65.0249H95.9203V66.8788H94.0664V65.0249Z" fill="#7E7E7E"/>
<path d="M97.7734 65.0249H99.6273V66.8788H97.7734V65.0249Z" fill="#7E7E7E"/>
<path d="M48.3398 66.8784H50.1937V68.7323H48.3398V66.8784Z" fill="#7E7E7E"/>
<path d="M53.8984 66.8784H55.7523V68.7323H53.8984V66.8784Z" fill="#7E7E7E"/>
<path d="M55.7539 66.8784H57.6078V68.7323H55.7539V66.8784Z" fill="#7E7E7E"/>
<path d="M57.6094 66.8784H59.4632V68.7323H57.6094V66.8784Z" fill="#7E7E7E"/>
<path d="M59.4609 66.8784H61.3148V68.7323H59.4609V66.8784Z" fill="#7E7E7E"/>
<path d="M61.3164 66.8784H63.1703V68.7323H61.3164V66.8784Z" fill="#7E7E7E"/>
<path d="M63.168 66.8784H65.0218V68.7323H63.168V66.8784Z" fill="#7E7E7E"/>
<path d="M65.0234 66.8784H66.8773V68.7323H65.0234V66.8784Z" fill="#7E7E7E"/>
<path d="M66.8789 66.8784H68.7328V68.7323H66.8789V66.8784Z" fill="#7E7E7E"/>
<path d="M68.7305 66.8784H70.5843V68.7323H68.7305V66.8784Z" fill="#7E7E7E"/>
<path d="M70.5859 66.8784H72.4398V68.7323H70.5859V66.8784Z" fill="#7E7E7E"/>
<path d="M72.4375 66.8784H74.2914V68.7323H72.4375V66.8784Z" fill="#7E7E7E"/>
<path d="M74.293 66.8784H75.5289V68.7323H74.293V66.8784Z" fill="#7E7E7E"/>
<path d="M75.5273 66.8784H77.3812V68.7323H75.5273V66.8784Z" fill="#7E7E7E"/>
<path d="M79.2383 66.8784H81.0921V68.7323H79.2383V66.8784Z" fill="#7E7E7E"/>
<path d="M81.0898 66.8784H82.9437V68.7323H81.0898V66.8784Z" fill="#7E7E7E"/>
<path d="M84.7969 66.8784H86.6507V68.7323H84.7969V66.8784Z" fill="#7E7E7E"/>
<path d="M86.6523 66.8784H88.5062V68.7323H86.6523V66.8784Z" fill="#7E7E7E"/>
<path d="M88.5039 66.8784H90.3578V68.7323H88.5039V66.8784Z" fill="#7E7E7E"/>
<path d="M90.3594 66.8784H92.2132V68.7323H90.3594V66.8784Z" fill="#7E7E7E"/>
<path d="M94.0664 66.8784H95.9203V68.7323H94.0664V66.8784Z" fill="#7E7E7E"/>
<path d="M95.9219 66.8784H97.7757V68.7323H95.9219V66.8784Z" fill="#7E7E7E"/>
<path d="M99.6289 66.8784H101.483V68.7323H99.6289V66.8784Z" fill="#7E7E7E"/>
<path d="M105.191 66.8784H107.045V68.7323H105.191V66.8784Z" fill="#7E7E7E"/>
<path d="M50.1914 68.7324H52.0453V70.5863H50.1914V68.7324Z" fill="#7E7E7E"/>
<path d="M53.8984 68.7324H55.7523V70.5863H53.8984V68.7324Z" fill="#7E7E7E"/>
<path d="M57.6094 68.7324H59.4632V70.5863H57.6094V68.7324Z" fill="#7E7E7E"/>
<path d="M61.3164 68.7324H63.1703V70.5863H61.3164V68.7324Z" fill="#7E7E7E"/>
<path d="M63.168 68.7324H65.0218V70.5863H63.168V68.7324Z" fill="#7E7E7E"/>
<path d="M66.8789 68.7324H68.7328V70.5863H66.8789V68.7324Z" fill="#7E7E7E"/>
<path d="M68.7305 68.7324H70.5843V70.5863H68.7305V68.7324Z" fill="#7E7E7E"/>
<path d="M72.4375 68.7324H74.2914V70.5863H72.4375V68.7324Z" fill="#7E7E7E"/>
<path d="M75.5273 68.7324H77.3812V70.5863H75.5273V68.7324Z" fill="#7E7E7E"/>
<path d="M77.3828 68.7324H79.2367V70.5863H77.3828V68.7324Z" fill="#7E7E7E"/>
<path d="M79.2383 68.7324H81.0921V70.5863H79.2383V68.7324Z" fill="#7E7E7E"/>
<path d="M81.0898 68.7324H82.9437V70.5863H81.0898V68.7324Z" fill="#7E7E7E"/>
<path d="M82.9453 68.7324H84.7992V70.5863H82.9453V68.7324Z" fill="#7E7E7E"/>
<path d="M84.7969 68.7324H86.6507V70.5863H84.7969V68.7324Z" fill="#7E7E7E"/>
<path d="M86.6523 68.7324H88.5062V70.5863H86.6523V68.7324Z" fill="#7E7E7E"/>
<path d="M90.3594 68.7324H92.2132V70.5863H90.3594V68.7324Z" fill="#7E7E7E"/>
<path d="M92.2148 68.7324H94.0687V70.5863H92.2148V68.7324Z" fill="#7E7E7E"/>
<path d="M94.0664 68.7324H95.9203V70.5863H94.0664V68.7324Z" fill="#7E7E7E"/>
<path d="M97.7734 68.7324H99.6273V70.5863H97.7734V68.7324Z" fill="#7E7E7E"/>
<path d="M52.0469 70.5864H53.9007V72.4403H52.0469V70.5864Z" fill="#7E7E7E"/>
<path d="M53.8984 70.5864H55.7523V72.4403H53.8984V70.5864Z" fill="#7E7E7E"/>
<path d="M55.7539 70.5864H57.6078V72.4403H55.7539V70.5864Z" fill="#7E7E7E"/>
<path d="M57.6094 70.5864H59.4632V72.4403H57.6094V70.5864Z" fill="#7E7E7E"/>
<path d="M59.4609 70.5864H61.3148V72.4403H59.4609V70.5864Z" fill="#7E7E7E"/>
<path d="M61.3164 70.5864H63.1703V72.4403H61.3164V70.5864Z" fill="#7E7E7E"/>
<path d="M65.0234 70.5864H66.8773V72.4403H65.0234V70.5864Z" fill="#7E7E7E"/>
<path d="M66.8789 70.5864H68.7328V72.4403H66.8789V70.5864Z" fill="#7E7E7E"/>
<path d="M70.5859 70.5864H72.4398V72.4403H70.5859V70.5864Z" fill="#7E7E7E"/>
<path d="M72.4375 70.5864H74.2914V72.4403H72.4375V70.5864Z" fill="#7E7E7E"/>
<path d="M74.293 70.5864H75.5289V72.4403H74.293V70.5864Z" fill="#7E7E7E"/>
<path d="M75.5273 70.5864H77.3812V72.4403H75.5273V70.5864Z" fill="#7E7E7E"/>
<path d="M79.2383 70.5864H81.0921V72.4403H79.2383V70.5864Z" fill="#7E7E7E"/>
<path d="M81.0898 70.5864H82.9437V72.4403H81.0898V70.5864Z" fill="#7E7E7E"/>
<path d="M84.7969 70.5864H86.6507V72.4403H84.7969V70.5864Z" fill="#7E7E7E"/>
<path d="M88.5039 70.5864H90.3578V72.4403H88.5039V70.5864Z" fill="#7E7E7E"/>
<path d="M90.3594 70.5864H92.2132V72.4403H90.3594V70.5864Z" fill="#7E7E7E"/>
<path d="M94.0664 70.5864H95.9203V72.4403H94.0664V70.5864Z" fill="#7E7E7E"/>
<path d="M48.3398 72.4399H50.1937V74.2938H48.3398V72.4399Z" fill="#7E7E7E"/>
<path d="M53.8984 72.4399H55.7523V74.2938H53.8984V72.4399Z" fill="#7E7E7E"/>
<path d="M59.4609 72.4399H61.3148V74.2938H59.4609V72.4399Z" fill="#7E7E7E"/>
<path d="M63.168 72.4399H65.0218V74.2938H63.168V72.4399Z" fill="#7E7E7E"/>
<path d="M65.0234 72.4399H66.8773V74.2938H65.0234V72.4399Z" fill="#7E7E7E"/>
<path d="M68.7305 72.4399H70.5843V74.2938H68.7305V72.4399Z" fill="#7E7E7E"/>
<path d="M70.5859 72.4399H72.4398V74.2938H70.5859V72.4399Z" fill="#7E7E7E"/>
<path d="M75.5273 72.4399H77.3812V74.2938H75.5273V72.4399Z" fill="#7E7E7E"/>
<path d="M79.2383 72.4399H81.0921V74.2938H79.2383V72.4399Z" fill="#7E7E7E"/>
<path d="M81.0898 72.4399H82.9437V74.2938H81.0898V72.4399Z" fill="#7E7E7E"/>
<path d="M82.9453 72.4399H84.7992V74.2938H82.9453V72.4399Z" fill="#7E7E7E"/>
<path d="M86.6523 72.4399H88.5062V74.2938H86.6523V72.4399Z" fill="#7E7E7E"/>
<path d="M90.3594 72.4399H92.2132V74.2938H90.3594V72.4399Z" fill="#7E7E7E"/>
<path d="M92.2148 72.4399H94.0687V74.2938H92.2148V72.4399Z" fill="#7E7E7E"/>
<path d="M94.0664 72.4399H95.9203V74.2938H94.0664V72.4399Z" fill="#7E7E7E"/>
<path d="M97.7734 72.4399H99.6273V74.2938H97.7734V72.4399Z" fill="#7E7E7E"/>
<path d="M52.0469 74.2939H53.9007V75.5299H52.0469V74.2939Z" fill="#7E7E7E"/>
<path d="M55.7539 74.2939H57.6078V75.5299H55.7539V74.2939Z" fill="#7E7E7E"/>
<path d="M57.6094 74.2939H59.4632V75.5299H57.6094V74.2939Z" fill="#7E7E7E"/>
<path d="M59.4609 74.2939H61.3148V75.5299H59.4609V74.2939Z" fill="#7E7E7E"/>
<path d="M61.3164 74.2939H63.1703V75.5299H61.3164V74.2939Z" fill="#7E7E7E"/>
<path d="M65.0234 74.2939H66.8773V75.5299H65.0234V74.2939Z" fill="#7E7E7E"/>
<path d="M66.8789 74.2939H68.7328V75.5299H66.8789V74.2939Z" fill="#7E7E7E"/>
<path d="M68.7305 74.2939H70.5843V75.5299H68.7305V74.2939Z" fill="#7E7E7E"/>
<path d="M70.5859 74.2939H72.4398V75.5299H70.5859V74.2939Z" fill="#7E7E7E"/>
<path d="M72.4375 74.2939H74.2914V75.5299H72.4375V74.2939Z" fill="#7E7E7E"/>
<path d="M74.293 74.2939H75.5289V75.5299H74.293V74.2939Z" fill="#7E7E7E"/>
<path d="M77.3828 74.2939H79.2367V75.5299H77.3828V74.2939Z" fill="#7E7E7E"/>
<path d="M79.2383 74.2939H81.0921V75.5299H79.2383V74.2939Z" fill="#7E7E7E"/>
<path d="M81.0898 74.2939H82.9437V75.5299H81.0898V74.2939Z" fill="#7E7E7E"/>
<path d="M84.7969 74.2939H86.6507V75.5299H84.7969V74.2939Z" fill="#7E7E7E"/>
<path d="M86.6523 74.2939H88.5062V75.5299H86.6523V74.2939Z" fill="#7E7E7E"/>
<path d="M88.5039 74.2939H90.3578V75.5299H88.5039V74.2939Z" fill="#7E7E7E"/>
<path d="M90.3594 74.2939H92.2132V75.5299H90.3594V74.2939Z" fill="#7E7E7E"/>
<path d="M92.2148 74.2939H94.0687V75.5299H92.2148V74.2939Z" fill="#7E7E7E"/>
<path d="M94.0664 74.2939H95.9203V75.5299H94.0664V74.2939Z" fill="#7E7E7E"/>
<path d="M50.1914 75.5317H52.0453V77.3856H50.1914V75.5317Z" fill="#7E7E7E"/>
<path d="M53.8984 75.5317H55.7523V77.3856H53.8984V75.5317Z" fill="#7E7E7E"/>
<path d="M55.7539 75.5317H57.6078V77.3856H55.7539V75.5317Z" fill="#7E7E7E"/>
<path d="M59.4609 75.5317H61.3148V77.3856H59.4609V75.5317Z" fill="#7E7E7E"/>
<path d="M61.3164 75.5317H63.1703V77.3856H61.3164V75.5317Z" fill="#7E7E7E"/>
<path d="M63.168 75.5317H65.0218V77.3856H63.168V75.5317Z" fill="#7E7E7E"/>
<path d="M65.0234 75.5317H66.8773V77.3856H65.0234V75.5317Z" fill="#7E7E7E"/>
<path d="M68.7305 75.5317H70.5843V77.3856H68.7305V75.5317Z" fill="#7E7E7E"/>
<path d="M72.4375 75.5317H74.2914V77.3856H72.4375V75.5317Z" fill="#7E7E7E"/>
<path d="M74.293 75.5317H75.5289V77.3856H74.293V75.5317Z" fill="#7E7E7E"/>
<path d="M77.3828 75.5317H79.2367V77.3856H77.3828V75.5317Z" fill="#7E7E7E"/>
<path d="M79.2383 75.5317H81.0921V77.3856H79.2383V75.5317Z" fill="#7E7E7E"/>
<path d="M82.9453 75.5317H84.7992V77.3856H82.9453V75.5317Z" fill="#7E7E7E"/>
<path d="M84.7969 75.5317H86.6507V77.3856H84.7969V75.5317Z" fill="#7E7E7E"/>
<path d="M88.5039 75.5317H90.3578V77.3856H88.5039V75.5317Z" fill="#7E7E7E"/>
<path d="M90.3594 75.5317H92.2132V77.3856H90.3594V75.5317Z" fill="#7E7E7E"/>
<path d="M94.0664 75.5317H95.9203V77.3856H94.0664V75.5317Z" fill="#7E7E7E"/>
<path d="M97.7734 75.5317H99.6273V77.3856H97.7734V75.5317Z" fill="#7E7E7E"/>
<path d="M53.8984 77.3857H55.7523V79.2396H53.8984V77.3857Z" fill="#7E7E7E"/>
<path d="M55.7539 77.3857H57.6078V79.2396H55.7539V77.3857Z" fill="#7E7E7E"/>
<path d="M57.6094 77.3857H59.4632V79.2396H57.6094V77.3857Z" fill="#7E7E7E"/>
<path d="M61.3164 77.3857H63.1703V79.2396H61.3164V77.3857Z" fill="#7E7E7E"/>
<path d="M65.0234 77.3857H66.8773V79.2396H65.0234V77.3857Z" fill="#7E7E7E"/>
<path d="M66.8789 77.3857H68.7328V79.2396H66.8789V77.3857Z" fill="#7E7E7E"/>
<path d="M68.7305 77.3857H70.5843V79.2396H68.7305V77.3857Z" fill="#7E7E7E"/>
<path d="M70.5859 77.3857H72.4398V79.2396H70.5859V77.3857Z" fill="#7E7E7E"/>
<path d="M74.293 77.3857H75.5289V79.2396H74.293V77.3857Z" fill="#7E7E7E"/>
<path d="M75.5273 77.3857H77.3812V79.2396H75.5273V77.3857Z" fill="#7E7E7E"/>
<path d="M77.3828 77.3857H79.2367V79.2396H77.3828V77.3857Z" fill="#7E7E7E"/>
<path d="M79.2383 77.3857H81.0921V79.2396H79.2383V77.3857Z" fill="#7E7E7E"/>
<path d="M81.0898 77.3857H82.9437V79.2396H81.0898V77.3857Z" fill="#7E7E7E"/>
<path d="M82.9453 77.3857H84.7992V79.2396H82.9453V77.3857Z" fill="#7E7E7E"/>
<path d="M84.7969 77.3857H86.6507V79.2396H84.7969V77.3857Z" fill="#7E7E7E"/>
<path d="M86.6523 77.3857H88.5062V79.2396H86.6523V77.3857Z" fill="#7E7E7E"/>
<path d="M88.5039 77.3857H90.3578V79.2396H88.5039V77.3857Z" fill="#7E7E7E"/>
<path d="M90.3594 77.3857H92.2132V79.2396H90.3594V77.3857Z" fill="#7E7E7E"/>
<path d="M92.2148 77.3857H94.0687V79.2396H92.2148V77.3857Z" fill="#7E7E7E"/>
<path d="M101.484 77.3857H103.338V79.2396H101.484V77.3857Z" fill="#7E7E7E"/>
<path d="M48.3398 79.2393H50.1937V81.0931H48.3398V79.2393Z" fill="#7E7E7E"/>
<path d="M52.0469 79.2393H53.9007V81.0931H52.0469V79.2393Z" fill="#7E7E7E"/>
<path d="M55.7539 79.2393H57.6078V81.0931H55.7539V79.2393Z" fill="#7E7E7E"/>
<path d="M59.4609 79.2393H61.3148V81.0931H59.4609V79.2393Z" fill="#7E7E7E"/>
<path d="M61.3164 79.2393H63.1703V81.0931H61.3164V79.2393Z" fill="#7E7E7E"/>
<path d="M63.168 79.2393H65.0218V81.0931H63.168V79.2393Z" fill="#7E7E7E"/>
<path d="M65.0234 79.2393H66.8773V81.0931H65.0234V79.2393Z" fill="#7E7E7E"/>
<path d="M66.8789 79.2393H68.7328V81.0931H66.8789V79.2393Z" fill="#7E7E7E"/>
<path d="M70.5859 79.2393H72.4398V81.0931H70.5859V79.2393Z" fill="#7E7E7E"/>
<path d="M72.4375 79.2393H74.2914V81.0931H72.4375V79.2393Z" fill="#7E7E7E"/>
<path d="M74.293 79.2393H75.5289V81.0931H74.293V79.2393Z" fill="#7E7E7E"/>
<path d="M77.3828 79.2393H79.2367V81.0931H77.3828V79.2393Z" fill="#7E7E7E"/>
<path d="M79.2383 79.2393H81.0921V81.0931H79.2383V79.2393Z" fill="#7E7E7E"/>
<path d="M82.9453 79.2393H84.7992V81.0931H82.9453V79.2393Z" fill="#7E7E7E"/>
<path d="M86.6523 79.2393H88.5062V81.0931H86.6523V79.2393Z" fill="#7E7E7E"/>
<path d="M90.3594 79.2393H92.2132V81.0931H90.3594V79.2393Z" fill="#7E7E7E"/>
<path d="M92.2148 79.2393H94.0687V81.0931H92.2148V79.2393Z" fill="#7E7E7E"/>
<path d="M94.0664 79.2393H95.9203V81.0931H94.0664V79.2393Z" fill="#7E7E7E"/>
<path d="M95.9219 79.2393H97.7757V81.0931H95.9219V79.2393Z" fill="#7E7E7E"/>
<path d="M53.8984 81.0933H55.7523V82.9471H53.8984V81.0933Z" fill="#7E7E7E"/>
<path d="M55.7539 81.0933H57.6078V82.9471H55.7539V81.0933Z" fill="#7E7E7E"/>
<path d="M57.6094 81.0933H59.4632V82.9471H57.6094V81.0933Z" fill="#7E7E7E"/>
<path d="M59.4609 81.0933H61.3148V82.9471H59.4609V81.0933Z" fill="#7E7E7E"/>
<path d="M63.168 81.0933H65.0218V82.9471H63.168V81.0933Z" fill="#7E7E7E"/>
<path d="M65.0234 81.0933H66.8773V82.9471H65.0234V81.0933Z" fill="#7E7E7E"/>
<path d="M68.7305 81.0933H70.5843V82.9471H68.7305V81.0933Z" fill="#7E7E7E"/>
<path d="M70.5859 81.0933H72.4398V82.9471H70.5859V81.0933Z" fill="#7E7E7E"/>
<path d="M74.293 81.0933H75.5289V82.9471H74.293V81.0933Z" fill="#7E7E7E"/>
<path d="M75.5273 81.0933H77.3812V82.9471H75.5273V81.0933Z" fill="#7E7E7E"/>
<path d="M79.2383 81.0933H81.0921V82.9471H79.2383V81.0933Z" fill="#7E7E7E"/>
<path d="M81.0898 81.0933H82.9437V82.9471H81.0898V81.0933Z" fill="#7E7E7E"/>
<path d="M82.9453 81.0933H84.7992V82.9471H82.9453V81.0933Z" fill="#7E7E7E"/>
<path d="M84.7969 81.0933H86.6507V82.9471H84.7969V81.0933Z" fill="#7E7E7E"/>
<path d="M86.6523 81.0933H88.5062V82.9471H86.6523V81.0933Z" fill="#7E7E7E"/>
<path d="M88.5039 81.0933H90.3578V82.9471H88.5039V81.0933Z" fill="#7E7E7E"/>
<path d="M90.3594 81.0933H92.2132V82.9471H90.3594V81.0933Z" fill="#7E7E7E"/>
<path d="M92.2148 81.0933H94.0687V82.9471H92.2148V81.0933Z" fill="#7E7E7E"/>
<path d="M97.7734 81.0933H99.6273V82.9471H97.7734V81.0933Z" fill="#7E7E7E"/>
<path d="M50.1914 82.9473H52.0453V84.8011H50.1914V82.9473Z" fill="#7E7E7E"/>
<path d="M53.8984 82.9473H55.7523V84.8011H53.8984V82.9473Z" fill="#7E7E7E"/>
<path d="M57.6094 82.9473H59.4632V84.8011H57.6094V82.9473Z" fill="#7E7E7E"/>
<path d="M61.3164 82.9473H63.1703V84.8011H61.3164V82.9473Z" fill="#7E7E7E"/>
<path d="M63.168 82.9473H65.0218V84.8011H63.168V82.9473Z" fill="#7E7E7E"/>
<path d="M66.8789 82.9473H68.7328V84.8011H66.8789V82.9473Z" fill="#7E7E7E"/>
<path d="M68.7305 82.9473H70.5843V84.8011H68.7305V82.9473Z" fill="#7E7E7E"/>
<path d="M70.5859 82.9473H72.4398V84.8011H70.5859V82.9473Z" fill="#7E7E7E"/>
<path d="M72.4375 82.9473H74.2914V84.8011H72.4375V82.9473Z" fill="#7E7E7E"/>
<path d="M74.293 82.9473H75.5289V84.8011H74.293V82.9473Z" fill="#7E7E7E"/>
<path d="M75.5273 82.9473H77.3812V84.8011H75.5273V82.9473Z" fill="#7E7E7E"/>
<path d="M77.3828 82.9473H79.2367V84.8011H77.3828V82.9473Z" fill="#7E7E7E"/>
<path d="M79.2383 82.9473H81.0921V84.8011H79.2383V82.9473Z" fill="#7E7E7E"/>
<path d="M82.9453 82.9473H84.7992V84.8011H82.9453V82.9473Z" fill="#7E7E7E"/>
<path d="M84.7969 82.9473H86.6507V84.8011H84.7969V82.9473Z" fill="#7E7E7E"/>
<path d="M88.5039 82.9473H90.3578V84.8011H88.5039V82.9473Z" fill="#7E7E7E"/>
<path d="M92.2148 82.9473H94.0687V84.8011H92.2148V82.9473Z" fill="#7E7E7E"/>
<path d="M94.0664 82.9473H95.9203V84.8011H94.0664V82.9473Z" fill="#7E7E7E"/>
<path d="M52.0469 84.8008H53.9007V86.6546H52.0469V84.8008Z" fill="#7E7E7E"/>
<path d="M55.7539 84.8008H57.6078V86.6546H55.7539V84.8008Z" fill="#7E7E7E"/>
<path d="M57.6094 84.8008H59.4632V86.6546H57.6094V84.8008Z" fill="#7E7E7E"/>
<path d="M59.4609 84.8008H61.3148V86.6546H59.4609V84.8008Z" fill="#7E7E7E"/>
<path d="M63.168 84.8008H65.0218V86.6546H63.168V84.8008Z" fill="#7E7E7E"/>
<path d="M65.0234 84.8008H66.8773V86.6546H65.0234V84.8008Z" fill="#7E7E7E"/>
<path d="M66.8789 84.8008H68.7328V86.6546H66.8789V84.8008Z" fill="#7E7E7E"/>
<path d="M68.7305 84.8008H70.5843V86.6546H68.7305V84.8008Z" fill="#7E7E7E"/>
<path d="M72.4375 84.8008H74.2914V86.6546H72.4375V84.8008Z" fill="#7E7E7E"/>
<path d="M74.293 84.8008H75.5289V86.6546H74.293V84.8008Z" fill="#7E7E7E"/>
<path d="M77.3828 84.8008H79.2367V86.6546H77.3828V84.8008Z" fill="#7E7E7E"/>
<path d="M79.2383 84.8008H81.0921V86.6546H79.2383V84.8008Z" fill="#7E7E7E"/>
<path d="M81.0898 84.8008H82.9437V86.6546H81.0898V84.8008Z" fill="#7E7E7E"/>
<path d="M84.7969 84.8008H86.6507V86.6546H84.7969V84.8008Z" fill="#7E7E7E"/>
<path d="M86.6523 84.8008H88.5062V86.6546H86.6523V84.8008Z" fill="#7E7E7E"/>
<path d="M88.5039 84.8008H90.3578V86.6546H88.5039V84.8008Z" fill="#7E7E7E"/>
<path d="M90.3594 84.8008H92.2132V86.6546H90.3594V84.8008Z" fill="#7E7E7E"/>
<path d="M94.0664 84.8008H95.9203V86.6546H94.0664V84.8008Z" fill="#7E7E7E"/>
<path d="M97.7734 84.8008H99.6273V86.6546H97.7734V84.8008Z" fill="#7E7E7E"/>
<path d="M48.3398 86.6548H50.1937V88.5086H48.3398V86.6548Z" fill="#7E7E7E"/>
<path d="M53.8984 86.6548H55.7523V88.5086H53.8984V86.6548Z" fill="#7E7E7E"/>
<path d="M55.7539 86.6548H57.6078V88.5086H55.7539V86.6548Z" fill="#7E7E7E"/>
<path d="M59.4609 86.6548H61.3148V88.5086H59.4609V86.6548Z" fill="#7E7E7E"/>
<path d="M61.3164 86.6548H63.1703V88.5086H61.3164V86.6548Z" fill="#7E7E7E"/>
<path d="M63.168 86.6548H65.0218V88.5086H63.168V86.6548Z" fill="#7E7E7E"/>
<path d="M65.0234 86.6548H66.8773V88.5086H65.0234V86.6548Z" fill="#7E7E7E"/>
<path d="M68.7305 86.6548H70.5843V88.5086H68.7305V86.6548Z" fill="#7E7E7E"/>
<path d="M70.5859 86.6548H72.4398V88.5086H70.5859V86.6548Z" fill="#7E7E7E"/>
<path d="M74.293 86.6548H75.5289V88.5086H74.293V86.6548Z" fill="#7E7E7E"/>
<path d="M69.043 93.0283H70.8968V94.8822H69.043V93.0283Z" fill="#7E7E7E"/>
<path d="M81.0898 86.6548H82.9437V88.5086H81.0898V86.6548Z" fill="#7E7E7E"/>
<path d="M82.9453 86.6548H84.7992V88.5086H82.9453V86.6548Z" fill="#7E7E7E"/>
<path d="M84.7969 86.6548H86.6507V88.5086H84.7969V86.6548Z" fill="#7E7E7E"/>
<path d="M88.5039 86.6548H90.3578V88.5086H88.5039V86.6548Z" fill="#7E7E7E"/>
<path d="M90.3594 86.6548H92.2132V88.5086H90.3594V86.6548Z" fill="#7E7E7E"/>
<path d="M92.2148 86.6548H94.0687V88.5086H92.2148V86.6548Z" fill="#7E7E7E"/>
<path d="M94.0664 86.6548H95.9203V88.5086H94.0664V86.6548Z" fill="#7E7E7E"/>
<path d="M52.0469 88.5088H53.9007V90.3627H52.0469V88.5088Z" fill="#7E7E7E"/>
<path d="M55.7539 88.5088H57.6078V90.3627H55.7539V88.5088Z" fill="#7E7E7E"/>
<path d="M57.6094 88.5088H59.4632V90.3627H57.6094V88.5088Z" fill="#7E7E7E"/>
<path d="M59.4609 88.5088H61.3148V90.3627H59.4609V88.5088Z" fill="#7E7E7E"/>
<path d="M61.3164 88.5088H63.1703V90.3627H61.3164V88.5088Z" fill="#7E7E7E"/>
<path d="M65.0234 88.5088H66.8773V90.3627H65.0234V88.5088Z" fill="#7E7E7E"/>
<path d="M66.8789 88.5088H68.7328V90.3627H66.8789V88.5088Z" fill="#7E7E7E"/>
<path d="M68.7305 88.5088H70.5843V90.3627H68.7305V88.5088Z" fill="#7E7E7E"/>
<path d="M70.5859 88.5088H72.4398V90.3627H70.5859V88.5088Z" fill="#7E7E7E"/>
<path d="M72.4375 88.5088H74.2914V90.3627H72.4375V88.5088Z" fill="#7E7E7E"/>
<path d="M75.5273 88.5088H77.3812V90.3627H75.5273V88.5088Z" fill="#7E7E7E"/>
<path d="M77.3828 88.5088H79.2367V90.3627H77.3828V88.5088Z" fill="#7E7E7E"/>
<path d="M79.2383 88.5088H81.0921V90.3627H79.2383V88.5088Z" fill="#7E7E7E"/>
<path d="M81.0898 88.5088H82.9437V90.3627H81.0898V88.5088Z" fill="#7E7E7E"/>
<path d="M84.7969 88.5088H86.6507V90.3627H84.7969V88.5088Z" fill="#7E7E7E"/>
<path d="M86.6523 88.5088H88.5062V90.3627H86.6523V88.5088Z" fill="#7E7E7E"/>
<path d="M90.3594 88.5088H92.2132V90.3627H90.3594V88.5088Z" fill="#7E7E7E"/>
<path d="M92.2148 88.5088H94.0687V90.3627H92.2148V88.5088Z" fill="#7E7E7E"/>
<path d="M95.9219 88.5088H97.7757V90.3627H95.9219V88.5088Z" fill="#7E7E7E"/>
<path d="M52.0469 90.3623H53.9007V92.2162H52.0469V90.3623Z" fill="#7E7E7E"/>
<path d="M55.7539 90.3623H57.6078V92.2162H55.7539V90.3623Z" fill="#7E7E7E"/>
<path d="M59.4609 90.3623H61.3148V92.2162H59.4609V90.3623Z" fill="#7E7E7E"/>
<path d="M61.3164 90.3623H63.1703V92.2162H61.3164V90.3623Z" fill="#7E7E7E"/>
<path d="M63.168 90.3623H65.0218V92.2162H63.168V90.3623Z" fill="#7E7E7E"/>
<path d="M66.8789 90.3623H68.7328V92.2162H66.8789V90.3623Z" fill="#7E7E7E"/>
<path d="M70.5859 90.3623H72.4398V92.2162H70.5859V90.3623Z" fill="#7E7E7E"/>
<path d="M72.4375 90.3623H74.2914V92.2162H72.4375V90.3623Z" fill="#7E7E7E"/>
<path d="M74.293 90.3623H75.5289V92.2162H74.293V90.3623Z" fill="#7E7E7E"/>
<path d="M75.5273 90.3623H77.3812V92.2162H75.5273V90.3623Z" fill="#7E7E7E"/>
<path d="M79.2383 90.3623H81.0921V92.2162H79.2383V90.3623Z" fill="#7E7E7E"/>
<path d="M81.0898 90.3623H82.9437V92.2162H81.0898V90.3623Z" fill="#7E7E7E"/>
<path d="M82.9453 90.3623H84.7992V92.2162H82.9453V90.3623Z" fill="#7E7E7E"/>
<path d="M86.6523 90.3623H88.5062V92.2162H86.6523V90.3623Z" fill="#7E7E7E"/>
<path d="M88.5039 90.3623H90.3578V92.2162H88.5039V90.3623Z" fill="#7E7E7E"/>
<path d="M92.2148 90.3623H94.0687V92.2162H92.2148V90.3623Z" fill="#7E7E7E"/>
<path d="M94.0664 90.3623H95.9203V92.2162H94.0664V90.3623Z" fill="#7E7E7E"/>
<path d="M99.6289 90.3623H101.483V92.2162H99.6289V90.3623Z" fill="#7E7E7E"/>
<path d="M52.0469 92.2163H53.9007V94.0702H52.0469V92.2163Z" fill="#7E7E7E"/>
<path d="M55.7539 92.2163H57.6078V94.0702H55.7539V92.2163Z" fill="#7E7E7E"/>
<path d="M57.6094 92.2163H59.4632V94.0702H57.6094V92.2163Z" fill="#7E7E7E"/>
<path d="M59.4609 92.2163H61.3148V94.0702H59.4609V92.2163Z" fill="#7E7E7E"/>
<path d="M61.3164 92.2163H63.1703V94.0702H61.3164V92.2163Z" fill="#7E7E7E"/>
<path d="M63.168 92.2163H65.0218V94.0702H63.168V92.2163Z" fill="#7E7E7E"/>
<path d="M65.0234 92.2163H66.8773V94.0702H65.0234V92.2163Z" fill="#7E7E7E"/>
<path d="M66.8789 92.2163H68.7328V94.0702H66.8789V92.2163Z" fill="#7E7E7E"/>
<path d="M70.5859 92.2163H72.4398V94.0702H70.5859V92.2163Z" fill="#7E7E7E"/>
<path d="M74.293 92.2163H75.5289V94.0702H74.293V92.2163Z" fill="#7E7E7E"/>
<path d="M77.3828 92.2163H79.2367V94.0702H77.3828V92.2163Z" fill="#7E7E7E"/>
<path d="M79.2383 92.2163H81.0921V94.0702H79.2383V92.2163Z" fill="#7E7E7E"/>
<path d="M81.0898 92.2163H82.9437V94.0702H81.0898V92.2163Z" fill="#7E7E7E"/>
<path d="M84.7969 92.2163H86.6507V94.0702H84.7969V92.2163Z" fill="#7E7E7E"/>
<path d="M86.6523 92.2163H88.5062V94.0702H86.6523V92.2163Z" fill="#7E7E7E"/>
<path d="M88.5039 92.2163H90.3578V94.0702H88.5039V92.2163Z" fill="#7E7E7E"/>
<path d="M90.3594 92.2163H92.2132V94.0702H90.3594V92.2163Z" fill="#7E7E7E"/>
<path d="M92.2148 92.2163H94.0687V94.0702H92.2148V92.2163Z" fill="#7E7E7E"/>
<path d="M95.9219 92.2163H97.7757V94.0702H95.9219V92.2163Z" fill="#7E7E7E"/>
<path d="M48.3398 94.0703H50.1937V95.9242H48.3398V94.0703Z" fill="#7E7E7E"/>
<path d="M53.8984 94.0703H55.7523V95.9242H53.8984V94.0703Z" fill="#7E7E7E"/>
<path d="M55.7539 94.0703H57.6078V95.9242H55.7539V94.0703Z" fill="#7E7E7E"/>
<path d="M57.6094 94.0703H59.4632V95.9242H57.6094V94.0703Z" fill="#7E7E7E"/>
<path d="M61.3164 94.0703H63.1703V95.9242H61.3164V94.0703Z" fill="#7E7E7E"/>
<path d="M63.168 94.0703H65.0218V95.9242H63.168V94.0703Z" fill="#7E7E7E"/>
<path d="M66.8789 94.0703H68.7328V95.9242H66.8789V94.0703Z" fill="#7E7E7E"/>
<path d="M68.7305 94.0703H70.5843V95.9242H68.7305V94.0703Z" fill="#7E7E7E"/>
<path d="M70.5859 94.0703H72.4398V95.9242H70.5859V94.0703Z" fill="#7E7E7E"/>
<path d="M72.4375 94.0703H74.2914V95.9242H72.4375V94.0703Z" fill="#7E7E7E"/>
<path d="M75.5273 94.0703H77.3812V95.9242H75.5273V94.0703Z" fill="#7E7E7E"/>
<path d="M77.3828 94.0703H79.2367V95.9242H77.3828V94.0703Z" fill="#7E7E7E"/>
<path d="M79.2383 94.0703H81.0921V95.9242H79.2383V94.0703Z" fill="#7E7E7E"/>
<path d="M81.0898 94.0703H82.9437V95.9242H81.0898V94.0703Z" fill="#7E7E7E"/>
<path d="M82.9453 94.0703H84.7992V95.9242H82.9453V94.0703Z" fill="#7E7E7E"/>
<path d="M84.7969 94.0703H86.6507V95.9242H84.7969V94.0703Z" fill="#7E7E7E"/>
<path d="M88.5039 94.0703H90.3578V95.9242H88.5039V94.0703Z" fill="#7E7E7E"/>
<path d="M92.2148 94.0703H94.0687V95.9242H92.2148V94.0703Z" fill="#7E7E7E"/>
<path d="M94.0664 94.0703H95.9203V95.9242H94.0664V94.0703Z" fill="#7E7E7E"/>
<path d="M52.0469 95.9238H53.9007V97.7777H52.0469V95.9238Z" fill="#7E7E7E"/>
<path d="M55.7539 95.9238H57.6078V97.7777H55.7539V95.9238Z" fill="#7E7E7E"/>
<path d="M59.4609 95.9238H61.3148V97.7777H59.4609V95.9238Z" fill="#7E7E7E"/>
<path d="M61.3164 95.9238H63.1703V97.7777H61.3164V95.9238Z" fill="#7E7E7E"/>
<path d="M63.168 95.9238H65.0218V97.7777H63.168V95.9238Z" fill="#7E7E7E"/>
<path d="M66.8789 95.9238H68.7328V97.7777H66.8789V95.9238Z" fill="#7E7E7E"/>
<path d="M70.5859 95.9238H72.4398V97.7777H70.5859V95.9238Z" fill="#7E7E7E"/>
<path d="M72.4375 95.9238H74.2914V97.7777H72.4375V95.9238Z" fill="#7E7E7E"/>
<path d="M74.293 95.9238H75.5289V97.7777H74.293V95.9238Z" fill="#7E7E7E"/>
<path d="M75.5273 95.9238H77.3812V97.7777H75.5273V95.9238Z" fill="#7E7E7E"/>
<path d="M79.2383 95.9238H81.0921V97.7777H79.2383V95.9238Z" fill="#7E7E7E"/>
<path d="M82.9453 95.9238H84.7992V97.7777H82.9453V95.9238Z" fill="#7E7E7E"/>
<path d="M84.7969 95.9238H86.6507V97.7777H84.7969V95.9238Z" fill="#7E7E7E"/>
<path d="M86.6523 95.9238H88.5062V97.7777H86.6523V95.9238Z" fill="#7E7E7E"/>
<path d="M88.5039 95.9238H90.3578V97.7777H88.5039V95.9238Z" fill="#7E7E7E"/>
<path d="M90.3594 95.9238H92.2132V97.7777H90.3594V95.9238Z" fill="#7E7E7E"/>
<path d="M92.2148 95.9238H94.0687V97.7777H92.2148V95.9238Z" fill="#7E7E7E"/>
<path d="M94.0664 95.9238H95.9203V97.7777H94.0664V95.9238Z" fill="#7E7E7E"/>
<path d="M97.7734 95.9238H99.6273V97.7777H97.7734V95.9238Z" fill="#7E7E7E"/>
<path d="M50.1914 97.7778H52.0453V99.6317H50.1914V97.7778Z" fill="#7E7E7E"/>
<path d="M53.8984 97.7778H55.7523V99.6317H53.8984V97.7778Z" fill="#7E7E7E"/>
<path d="M55.7539 97.7778H57.6078V99.6317H55.7539V97.7778Z" fill="#7E7E7E"/>
<path d="M57.6094 97.7778H59.4632V99.6317H57.6094V97.7778Z" fill="#7E7E7E"/>
<path d="M59.4609 97.7778H61.3148V99.6317H59.4609V97.7778Z" fill="#7E7E7E"/>
<path d="M61.3164 97.7778H63.1703V99.6317H61.3164V97.7778Z" fill="#7E7E7E"/>
<path d="M63.168 97.7778H65.0218V99.6317H63.168V97.7778Z" fill="#7E7E7E"/>
<path d="M66.8789 97.7778H68.7328V99.6317H66.8789V97.7778Z" fill="#7E7E7E"/>
<path d="M68.7305 97.7778H70.5843V99.6317H68.7305V97.7778Z" fill="#7E7E7E"/>
<path d="M70.5859 97.7778H72.4398V99.6317H70.5859V97.7778Z" fill="#7E7E7E"/>
<path d="M72.4375 97.7778H74.2914V99.6317H72.4375V97.7778Z" fill="#7E7E7E"/>
<path d="M75.5273 97.7778H77.3812V99.6317H75.5273V97.7778Z" fill="#7E7E7E"/>
<path d="M77.3828 97.7778H79.2367V99.6317H77.3828V97.7778Z" fill="#7E7E7E"/>
<path d="M79.2383 97.7778H81.0921V99.6317H79.2383V97.7778Z" fill="#7E7E7E"/>
<path d="M81.0898 97.7778H82.9437V99.6317H81.0898V97.7778Z" fill="#7E7E7E"/>
<path d="M84.7969 97.7778H86.6507V99.6317H84.7969V97.7778Z" fill="#7E7E7E"/>
<path d="M86.6523 97.7778H88.5062V99.6317H86.6523V97.7778Z" fill="#7E7E7E"/>
<path d="M90.3594 97.7778H92.2132V99.6317H90.3594V97.7778Z" fill="#7E7E7E"/>
<path d="M94.0664 97.7778H95.9203V99.6317H94.0664V97.7778Z" fill="#7E7E7E"/>
<path d="M53.8984 99.6318H55.7523V101.486H53.8984V99.6318Z" fill="#7E7E7E"/>
<path d="M57.6094 99.6318H59.4632V101.486H57.6094V99.6318Z" fill="#7E7E7E"/>
<path d="M61.3164 99.6318H63.1703V101.486H61.3164V99.6318Z" fill="#7E7E7E"/>
<path d="M65.0234 99.6318H66.8773V101.486H65.0234V99.6318Z" fill="#7E7E7E"/>
<path d="M66.8789 99.6318H68.7328V101.486H66.8789V99.6318Z" fill="#7E7E7E"/>
<path d="M68.7305 99.6318H70.5843V101.486H68.7305V99.6318Z" fill="#7E7E7E"/>
<path d="M72.4375 99.6318H74.2914V101.486H72.4375V99.6318Z" fill="#7E7E7E"/>
<path d="M75.5273 99.6318H77.3812V101.486H75.5273V99.6318Z" fill="#7E7E7E"/>
<path d="M79.2383 99.6318H81.0921V101.486H79.2383V99.6318Z" fill="#7E7E7E"/>
<path d="M82.9453 99.6318H84.7992V101.486H82.9453V99.6318Z" fill="#7E7E7E"/>
<path d="M84.7969 99.6318H86.6507V101.486H84.7969V99.6318Z" fill="#7E7E7E"/>
<path d="M86.6523 99.6318H88.5062V101.486H86.6523V99.6318Z" fill="#7E7E7E"/>
<path d="M88.5039 99.6318H90.3578V101.486H88.5039V99.6318Z" fill="#7E7E7E"/>
<path d="M90.3594 99.6318H92.2132V101.486H90.3594V99.6318Z" fill="#7E7E7E"/>
<path d="M92.2148 99.6318H94.0687V101.486H92.2148V99.6318Z" fill="#7E7E7E"/>
<path d="M94.0664 99.6318H95.9203V101.486H94.0664V99.6318Z" fill="#7E7E7E"/>
<path d="M97.7734 99.6318H99.6273V101.486H97.7734V99.6318Z" fill="#7E7E7E"/>
<path d="M50.1914 101.485H52.0453V103.339H50.1914V101.485Z" fill="#7E7E7E"/>
<path d="M53.8984 101.485H55.7523V103.339H53.8984V101.485Z" fill="#7E7E7E"/>
<path d="M55.7539 101.485H57.6078V103.339H55.7539V101.485Z" fill="#7E7E7E"/>
<path d="M57.6094 101.485H59.4632V103.339H57.6094V101.485Z" fill="#7E7E7E"/>
<path d="M59.4609 101.485H61.3148V103.339H59.4609V101.485Z" fill="#7E7E7E"/>
<path d="M61.3164 101.485H63.1703V103.339H61.3164V101.485Z" fill="#7E7E7E"/>
<path d="M63.168 101.485H65.0218V103.339H63.168V101.485Z" fill="#7E7E7E"/>
<path d="M65.0234 101.485H66.8773V103.339H65.0234V101.485Z" fill="#7E7E7E"/>
<path d="M66.8789 101.485H68.7328V103.339H66.8789V101.485Z" fill="#7E7E7E"/>
<path d="M68.7305 101.485H70.5843V103.339H68.7305V101.485Z" fill="#7E7E7E"/>
<path d="M72.4375 101.485H74.2914V103.339H72.4375V101.485Z" fill="#7E7E7E"/>
<path d="M74.293 101.485H75.5289V103.339H74.293V101.485Z" fill="#7E7E7E"/>
<path d="M75.5273 101.485H77.3812V103.339H75.5273V101.485Z" fill="#7E7E7E"/>
<path d="M77.3828 101.485H79.2367V103.339H77.3828V101.485Z" fill="#7E7E7E"/>
<path d="M79.2383 101.485H81.0921V103.339H79.2383V101.485Z" fill="#7E7E7E"/>
<path d="M81.0898 101.485H82.9437V103.339H81.0898V101.485Z" fill="#7E7E7E"/>
<path d="M82.9453 101.485H84.7992V103.339H82.9453V101.485Z" fill="#7E7E7E"/>
<path d="M86.6523 101.485H88.5062V103.339H86.6523V101.485Z" fill="#7E7E7E"/>
<path d="M90.3594 101.485H92.2132V103.339H90.3594V101.485Z" fill="#7E7E7E"/>
<path d="M92.2148 101.485H94.0687V103.339H92.2148V101.485Z" fill="#7E7E7E"/>
<path d="M95.9219 101.485H97.7757V103.339H95.9219V101.485Z" fill="#7E7E7E"/>
<path d="M52.0469 103.339H53.9007V105.193H52.0469V103.339Z" fill="#7E7E7E"/>
<path d="M55.7539 103.339H57.6078V105.193H55.7539V103.339Z" fill="#7E7E7E"/>
<path d="M57.6094 103.339H59.4632V105.193H57.6094V103.339Z" fill="#7E7E7E"/>
<path d="M61.3164 103.339H63.1703V105.193H61.3164V103.339Z" fill="#7E7E7E"/>
<path d="M65.0234 103.339H66.8773V105.193H65.0234V103.339Z" fill="#7E7E7E"/>
<path d="M66.8789 103.339H68.7328V105.193H66.8789V103.339Z" fill="#7E7E7E"/>
<path d="M68.7305 103.339H70.5843V105.193H68.7305V103.339Z" fill="#7E7E7E"/>
<path d="M70.5859 103.339H72.4398V105.193H70.5859V103.339Z" fill="#7E7E7E"/>
<path d="M74.293 103.339H75.5289V105.193H74.293V103.339Z" fill="#7E7E7E"/>
<path d="M75.5273 103.339H77.3812V105.193H75.5273V103.339Z" fill="#7E7E7E"/>
<path d="M79.2383 103.339H81.0921V105.193H79.2383V103.339Z" fill="#7E7E7E"/>
<path d="M82.9453 103.339H84.7992V105.193H82.9453V103.339Z" fill="#7E7E7E"/>
<path d="M84.7969 103.339H86.6507V105.193H84.7969V103.339Z" fill="#7E7E7E"/>
<path d="M88.5039 103.339H90.3578V105.193H88.5039V103.339Z" fill="#7E7E7E"/>
<path d="M90.3594 103.339H92.2132V105.193H90.3594V103.339Z" fill="#7E7E7E"/>
<path d="M92.2148 103.339H94.0687V105.193H92.2148V103.339Z" fill="#7E7E7E"/>
<path d="M101.484 103.339H103.338V105.193H101.484V103.339Z" fill="#7E7E7E"/>
<path d="M48.3398 105.193H50.1937V107.047H48.3398V105.193Z" fill="#7E7E7E"/>
<path d="M53.8984 105.193H55.7523V107.047H53.8984V105.193Z" fill="#7E7E7E"/>
<path d="M55.7539 105.193H57.6078V107.047H55.7539V105.193Z" fill="#7E7E7E"/>
<path d="M57.6094 105.193H59.4632V107.047H57.6094V105.193Z" fill="#7E7E7E"/>
<path d="M59.4609 105.193H61.3148V107.047H59.4609V105.193Z" fill="#7E7E7E"/>
<path d="M63.168 105.193H65.0218V107.047H63.168V105.193Z" fill="#7E7E7E"/>
<path d="M65.0234 105.193H66.8773V107.047H65.0234V105.193Z" fill="#7E7E7E"/>
<path d="M68.7305 105.193H70.5843V107.047H68.7305V105.193Z" fill="#7E7E7E"/>
<path d="M70.5859 105.193H72.4398V107.047H70.5859V105.193Z" fill="#7E7E7E"/>
<path d="M72.4375 105.193H74.2914V107.047H72.4375V105.193Z" fill="#7E7E7E"/>
<path d="M75.5273 105.193H77.3812V107.047H75.5273V105.193Z" fill="#7E7E7E"/>
<path d="M77.3828 105.193H79.2367V107.047H77.3828V105.193Z" fill="#7E7E7E"/>
<path d="M79.2383 105.193H81.0921V107.047H79.2383V105.193Z" fill="#7E7E7E"/>
<path d="M81.0898 105.193H82.9437V107.047H81.0898V105.193Z" fill="#7E7E7E"/>
<path d="M82.9453 105.193H84.7992V107.047H82.9453V105.193Z" fill="#7E7E7E"/>
<path d="M84.7969 105.193H86.6507V107.047H84.7969V105.193Z" fill="#7E7E7E"/>
<path d="M86.6523 105.193H88.5062V107.047H86.6523V105.193Z" fill="#7E7E7E"/>
<path d="M88.5039 105.193H90.3578V107.047H88.5039V105.193Z" fill="#7E7E7E"/>
<path d="M92.2148 105.193H94.0687V107.047H92.2148V105.193Z" fill="#7E7E7E"/>
<path d="M94.0664 105.193H95.9203V107.047H94.0664V105.193Z" fill="#7E7E7E"/>
<path d="M97.7734 105.193H99.6273V107.047H97.7734V105.193Z" fill="#7E7E7E"/>
<path d="M52.0469 107.047H53.9007V108.901H52.0469V107.047Z" fill="#7E7E7E"/>
<path d="M55.7539 107.047H57.6078V108.901H55.7539V107.047Z" fill="#7E7E7E"/>
<path d="M59.4609 107.047H61.3148V108.901H59.4609V107.047Z" fill="#7E7E7E"/>
<path d="M61.3164 107.047H63.1703V108.901H61.3164V107.047Z" fill="#7E7E7E"/>
<path d="M63.168 107.047H65.0218V108.901H63.168V107.047Z" fill="#7E7E7E"/>
<path d="M65.0234 107.047H66.8773V108.901H65.0234V107.047Z" fill="#7E7E7E"/>
<path d="M66.8789 107.047H68.7328V108.901H66.8789V107.047Z" fill="#7E7E7E"/>
<path d="M70.5859 107.047H72.4398V108.901H70.5859V107.047Z" fill="#7E7E7E"/>
<path d="M77.3828 107.047H79.2367V108.901H77.3828V107.047Z" fill="#7E7E7E"/>
<path d="M81.0898 107.047H82.9437V108.901H81.0898V107.047Z" fill="#7E7E7E"/>
<path d="M84.7969 107.047H86.6507V108.901H84.7969V107.047Z" fill="#7E7E7E"/>
<path d="M88.5039 107.047H90.3578V108.901H88.5039V107.047Z" fill="#7E7E7E"/>
<path d="M90.3594 107.047H92.2132V108.901H90.3594V107.047Z" fill="#7E7E7E"/>
<path d="M92.2148 107.047H94.0687V108.901H92.2148V107.047Z" fill="#7E7E7E"/>
<path d="M95.9219 107.047H97.7757V108.901H95.9219V107.047Z" fill="#7E7E7E"/>
<path d="M50.1914 108.901H52.0453V110.755H50.1914V108.901Z" fill="#7E7E7E"/>
<path d="M53.8984 108.901H55.7523V110.755H53.8984V108.901Z" fill="#7E7E7E"/>
<path d="M55.7539 108.901H57.6078V110.755H55.7539V108.901Z" fill="#7E7E7E"/>
<path d="M57.6094 108.901H59.4632V110.755H57.6094V108.901Z" fill="#7E7E7E"/>
<path d="M59.4609 108.901H61.3148V110.755H59.4609V108.901Z" fill="#7E7E7E"/>
<path d="M61.3164 108.901H63.1703V110.755H61.3164V108.901Z" fill="#7E7E7E"/>
<path d="M65.0234 108.901H66.8773V110.755H65.0234V108.901Z" fill="#7E7E7E"/>
<path d="M68.7305 108.901H70.5843V110.755H68.7305V108.901Z" fill="#7E7E7E"/>
<path d="M70.5859 108.901H72.4398V110.755H70.5859V108.901Z" fill="#7E7E7E"/>
<path d="M77.3828 108.901H79.2367V110.755H77.3828V108.901Z" fill="#7E7E7E"/>
<path d="M79.2383 108.901H81.0921V110.755H79.2383V108.901Z" fill="#7E7E7E"/>
<path d="M81.0898 108.901H82.9437V110.755H81.0898V108.901Z" fill="#7E7E7E"/>
<path d="M82.9453 108.901H84.7992V110.755H82.9453V108.901Z" fill="#7E7E7E"/>
<path d="M84.7969 108.901H86.6507V110.755H84.7969V108.901Z" fill="#7E7E7E"/>
<path d="M86.6523 108.901H88.5062V110.755H86.6523V108.901Z" fill="#7E7E7E"/>
<path d="M88.5039 108.901H90.3578V110.755H88.5039V108.901Z" fill="#7E7E7E"/>
<path d="M90.3594 108.901H92.2132V110.755H90.3594V108.901Z" fill="#7E7E7E"/>
<path d="M94.0664 108.901H95.9203V110.755H94.0664V108.901Z" fill="#7E7E7E"/>
<path d="M52.0469 110.755H53.9007V112.609H52.0469V110.755Z" fill="#7E7E7E"/>
<path d="M55.7539 110.755H57.6078V112.609H55.7539V110.755Z" fill="#7E7E7E"/>
<path d="M59.4609 110.755H61.3148V112.609H59.4609V110.755Z" fill="#7E7E7E"/>
<path d="M61.3164 110.755H63.1703V112.609H61.3164V110.755Z" fill="#7E7E7E"/>
<path d="M65.0234 110.755H66.8773V112.609H65.0234V110.755Z" fill="#7E7E7E"/>
<path d="M66.8789 110.755H68.7328V112.609H66.8789V110.755Z" fill="#7E7E7E"/>
<path d="M68.7305 110.755H70.5843V112.609H68.7305V110.755Z" fill="#7E7E7E"/>
<path d="M70.5859 110.755H72.4398V112.609H70.5859V110.755Z" fill="#7E7E7E"/>
<path d="M77.3828 110.755H79.2367V112.609H77.3828V110.755Z" fill="#7E7E7E"/>
<path d="M81.0898 110.755H82.9437V112.609H81.0898V110.755Z" fill="#7E7E7E"/>
<path d="M84.7969 110.755H86.6507V112.609H84.7969V110.755Z" fill="#7E7E7E"/>
<path d="M88.5039 110.755H90.3578V112.609H88.5039V110.755Z" fill="#7E7E7E"/>
<path d="M90.3594 110.755H92.2132V112.609H90.3594V110.755Z" fill="#7E7E7E"/>
<path d="M94.0664 110.755H95.9203V112.609H94.0664V110.755Z" fill="#7E7E7E"/>
<path d="M97.7734 110.755H99.6273V112.609H97.7734V110.755Z" fill="#7E7E7E"/>
<path d="M53.8984 112.609H55.7523V114.463H53.8984V112.609Z" fill="#7E7E7E"/>
<path d="M55.7539 112.609H57.6078V114.463H55.7539V112.609Z" fill="#7E7E7E"/>
<path d="M57.6094 112.609H59.4632V114.463H57.6094V112.609Z" fill="#7E7E7E"/>
<path d="M61.3164 112.609H63.1703V114.463H61.3164V112.609Z" fill="#7E7E7E"/>
<path d="M63.168 112.609H65.0218V114.463H63.168V112.609Z" fill="#7E7E7E"/>
<path d="M65.0234 112.609H66.8773V114.463H65.0234V112.609Z" fill="#7E7E7E"/>
<path d="M66.8789 112.609H68.7328V114.463H66.8789V112.609Z" fill="#7E7E7E"/>
<path d="M70.5859 112.609H72.4398V114.463H70.5859V112.609Z" fill="#7E7E7E"/>
<path d="M77.3828 112.609H79.2367V114.463H77.3828V112.609Z" fill="#7E7E7E"/>
<path d="M79.2383 112.609H81.0921V114.463H79.2383V112.609Z" fill="#7E7E7E"/>
<path d="M81.0898 112.609H82.9437V114.463H81.0898V112.609Z" fill="#7E7E7E"/>
<path d="M82.9453 112.609H84.7992V114.463H82.9453V112.609Z" fill="#7E7E7E"/>
<path d="M84.7969 112.609H86.6507V114.463H84.7969V112.609Z" fill="#7E7E7E"/>
<path d="M86.6523 112.609H88.5062V114.463H86.6523V112.609Z" fill="#7E7E7E"/>
<path d="M88.5039 112.609H90.3578V114.463H88.5039V112.609Z" fill="#7E7E7E"/>
<path d="M90.3594 112.609H92.2132V114.463H90.3594V112.609Z" fill="#7E7E7E"/>
<path d="M92.2148 112.609H94.0687V114.463H92.2148V112.609Z" fill="#7E7E7E"/>
<path d="M95.9219 112.609H97.7757V114.463H95.9219V112.609Z" fill="#7E7E7E"/>
<path d="M48.3398 114.462H50.1937V116.316H48.3398V114.462Z" fill="#7E7E7E"/>
<path d="M53.8984 114.462H55.7523V116.316H53.8984V114.462Z" fill="#7E7E7E"/>
<path d="M57.6094 114.462H59.4632V116.316H57.6094V114.462Z" fill="#7E7E7E"/>
<path d="M59.4609 114.462H61.3148V116.316H59.4609V114.462Z" fill="#7E7E7E"/>
<path d="M61.3164 114.462H63.1703V116.316H61.3164V114.462Z" fill="#7E7E7E"/>
<path d="M65.0234 114.462H66.8773V116.316H65.0234V114.462Z" fill="#7E7E7E"/>
<path d="M66.8789 114.462H68.7328V116.316H66.8789V114.462Z" fill="#7E7E7E"/>
<path d="M68.7305 114.462H70.5843V116.316H68.7305V114.462Z" fill="#7E7E7E"/>
<path d="M77.3828 114.462H79.2367V116.316H77.3828V114.462Z" fill="#7E7E7E"/>
<path d="M81.0898 114.462H82.9437V116.316H81.0898V114.462Z" fill="#7E7E7E"/>
<path d="M82.9453 114.462H84.7992V116.316H82.9453V114.462Z" fill="#7E7E7E"/>
<path d="M84.7969 114.462H86.6507V116.316H84.7969V114.462Z" fill="#7E7E7E"/>
<path d="M88.5039 114.462H90.3578V116.316H88.5039V114.462Z" fill="#7E7E7E"/>
<path d="M90.3594 114.462H92.2132V116.316H90.3594V114.462Z" fill="#7E7E7E"/>
<path d="M92.2148 114.462H94.0687V116.316H92.2148V114.462Z" fill="#7E7E7E"/>
<path d="M94.0664 114.462H95.9203V116.316H94.0664V114.462Z" fill="#7E7E7E"/>
<path d="M52.0469 116.316H53.9007V118.17H52.0469V116.316Z" fill="#7E7E7E"/>
<path d="M55.7539 116.316H57.6078V118.17H55.7539V116.316Z" fill="#7E7E7E"/>
<path d="M57.6094 116.316H59.4632V118.17H57.6094V116.316Z" fill="#7E7E7E"/>
<path d="M59.4609 116.316H61.3148V118.17H59.4609V116.316Z" fill="#7E7E7E"/>
<path d="M63.168 116.316H65.0218V118.17H63.168V116.316Z" fill="#7E7E7E"/>
<path d="M65.0234 116.316H66.8773V118.17H65.0234V116.316Z" fill="#7E7E7E"/>
<path d="M68.7305 116.316H70.5843V118.17H68.7305V116.316Z" fill="#7E7E7E"/>
<path d="M70.5859 116.316H72.4398V118.17H70.5859V116.316Z" fill="#7E7E7E"/>
<path d="M77.3828 116.316H79.2367V118.17H77.3828V116.316Z" fill="#7E7E7E"/>
<path d="M79.2383 116.316H81.0921V118.17H79.2383V116.316Z" fill="#7E7E7E"/>
<path d="M82.9453 116.316H84.7992V118.17H82.9453V116.316Z" fill="#7E7E7E"/>
<path d="M84.7969 116.316H86.6507V118.17H84.7969V116.316Z" fill="#7E7E7E"/>
<path d="M86.6523 116.316H88.5062V118.17H86.6523V116.316Z" fill="#7E7E7E"/>
<path d="M90.3594 116.316H92.2132V118.17H90.3594V116.316Z" fill="#7E7E7E"/>
<path d="M92.2148 116.316H94.0687V118.17H92.2148V116.316Z" fill="#7E7E7E"/>
<path d="M95.9219 116.316H97.7757V118.17H95.9219V116.316Z" fill="#7E7E7E"/>
<path d="M101.484 116.316H103.338V118.17H101.484V116.316Z" fill="#7E7E7E"/>
<path d="M53.8984 118.17H55.7523V120.024H53.8984V118.17Z" fill="#7E7E7E"/>
<path d="M57.6094 118.17H59.4632V120.024H57.6094V118.17Z" fill="#7E7E7E"/>
<path d="M59.4609 118.17H61.3148V120.024H59.4609V118.17Z" fill="#7E7E7E"/>
<path d="M61.3164 118.17H63.1703V120.024H61.3164V118.17Z" fill="#7E7E7E"/>
<path d="M63.168 118.17H65.0218V120.024H63.168V118.17Z" fill="#7E7E7E"/>
<path d="M65.0234 118.17H66.8773V120.024H65.0234V118.17Z" fill="#7E7E7E"/>
<path d="M66.8789 118.17H68.7328V120.024H66.8789V118.17Z" fill="#7E7E7E"/>
<path d="M68.7305 118.17H70.5843V120.024H68.7305V118.17Z" fill="#7E7E7E"/>
<path d="M79.2383 118.17H81.0921V120.024H79.2383V118.17Z" fill="#7E7E7E"/>
<path d="M81.0898 118.17H82.9437V120.024H81.0898V118.17Z" fill="#7E7E7E"/>
<path d="M82.9453 118.17H84.7992V120.024H82.9453V118.17Z" fill="#7E7E7E"/>
<path d="M86.6523 118.17H88.5062V120.024H86.6523V118.17Z" fill="#7E7E7E"/>
<path d="M88.5039 118.17H90.3578V120.024H88.5039V118.17Z" fill="#7E7E7E"/>
<path d="M90.3594 118.17H92.2132V120.024H90.3594V118.17Z" fill="#7E7E7E"/>
<path d="M92.2148 118.17H94.0687V120.024H92.2148V118.17Z" fill="#7E7E7E"/>
<path d="M55.7539 120.024H57.6078V121.878H55.7539V120.024Z" fill="#7E7E7E"/>
<path d="M81.0898 120.024H82.9437V121.878H81.0898V120.024Z" fill="#7E7E7E"/>
<path d="M84.7969 120.024H86.6507V121.878H84.7969V120.024Z" fill="#7E7E7E"/>
<path d="M61.3164 121.878H63.1703V123.732H61.3164V121.878Z" fill="#7E7E7E"/>
<path d="M65.0234 121.878H66.8773V123.732H65.0234V121.878Z" fill="#7E7E7E"/>
<path d="M68.7305 121.878H70.5843V123.732H68.7305V121.878Z" fill="#7E7E7E"/>
<path d="M88.5039 121.878H90.3578V123.732H88.5039V121.878Z" fill="#7E7E7E"/>
<path d="M92.2148 121.878H94.0687V123.732H92.2148V121.878Z" fill="#7E7E7E"/>
<path d="M57.6094 123.732H59.4632V125.586H57.6094V123.732Z" fill="#7E7E7E"/>
<path d="M79.2383 123.732H81.0921V125.586H79.2383V123.732Z" fill="#7E7E7E"/>
<path d="M61.168 62.9126H63.0218V64.7665H61.168V62.9126Z" fill="#7E7E7E"/>
<path d="M59.4609 43.707H61.3148V45.5609H59.4609V43.707Z" fill="#7E7E7E"/>
<path d="M58.5352 47.4146H60.389V49.2684H58.5352V47.4146Z" fill="#7E7E7E"/>
</svg>
