<svg width="152" height="129" viewBox="0 0 152 129" fill="none" xmlns="http://www.w3.org/2000/svg">
<path d="M0 0H46.5137L62.1393 12.7186H151.169V128.639H0V0Z" fill="#BABABA"/>
<rect y="22.5303" width="151.169" height="106.109" fill="#D7E8F6"/>
<path d="M36 47H37.5413V48.5486H36V47Z" fill="#6C6C6C"/>
<path d="M17 81H18.5413V82.5486H17V81Z" fill="#6C6C6C"/>
<path d="M18 74H19.5413V75.5486H18V74Z" fill="#6C6C6C"/>
<path d="M18 88H19.5413V89.5486H18V88Z" fill="#6C6C6C"/>
<path d="M48 47H49.5413V48.5486H48V47Z" fill="#6C6C6C"/>
<path d="M133 70H134.541V71.5486H133V70Z" fill="#6C6C6C"/>
<path d="M132 79H133.541V80.5486H132V79Z" fill="#6C6C6C"/>
<path d="M135 76H136.541V77.5486H135V76Z" fill="#6C6C6C"/>
<path d="M133 74H134.541V75.5486H133V74Z" fill="#6C6C6C"/>
<path d="M135 72H136.541V73.5486H135V72Z" fill="#6C6C6C"/>
<path d="M133 88H134.541V89.5486H133V88Z" fill="#6C6C6C"/>
<path d="M132 92H133.541V93.5486H132V92Z" fill="#6C6C6C"/>
<path d="M133 83H134.541V84.5486H133V83Z" fill="#6C6C6C"/>
<path d="M42 45H43.5413V46.5486H42V45Z" fill="#6C6C6C"/>
<path d="M17 65H18.5413V66.5486H17V65Z" fill="#6C6C6C"/>
<path d="M15 85H16.5413V86.5486H15V85Z" fill="#6C6C6C"/>
<path d="M105.797 49.3359H107.338V50.8845H105.797V49.3359Z" fill="#6C6C6C"/>
<path d="M41.0664 50.8862H42.6077V52.4348H41.0664V50.8862Z" fill="#6C6C6C"/>
<path d="M45.6875 50.8862H47.2288V52.4348H45.6875V50.8862Z" fill="#6C6C6C"/>
<path d="M50.3125 50.8862H51.8538V52.4348H50.3125V50.8862Z" fill="#6C6C6C"/>
<path d="M56.4766 50.8862H58.0178V52.4348H56.4766V50.8862Z" fill="#6C6C6C"/>
<path d="M98.0938 50.8862H99.635V52.4348H98.0938V50.8862Z" fill="#6C6C6C"/>
<path d="M102.715 50.8862H104.256V52.4348H102.715V50.8862Z" fill="#6C6C6C"/>
<path d="M111.965 50.8862H113.506V52.4348H111.965V50.8862Z" fill="#6C6C6C"/>
<path d="M36.4414 52.4336H37.9827V53.9822H36.4414V52.4336Z" fill="#6C6C6C"/>
<path d="M47.2305 52.4336H48.7718V53.9822H47.2305V52.4336Z" fill="#6C6C6C"/>
<path d="M53.3945 52.4336H54.9358V53.9822H53.3945V52.4336Z" fill="#6C6C6C"/>
<path d="M91.9258 52.4336H93.4671V53.9822H91.9258V52.4336Z" fill="#6C6C6C"/>
<path d="M101.176 52.4336H102.717V53.9822H101.176V52.4336Z" fill="#6C6C6C"/>
<path d="M108.879 52.4336H110.42V53.9822H108.879V52.4336Z" fill="#6C6C6C"/>
<path d="M116.586 52.4336H118.127V53.9822H116.586V52.4336Z" fill="#6C6C6C"/>
<path d="M31.8164 53.9844H33.3577V55.533H31.8164V53.9844Z" fill="#6C6C6C"/>
<path d="M34.8984 53.9844H36.4397V55.533H34.8984V53.9844Z" fill="#6C6C6C"/>
<path d="M39.5234 53.9844H41.0647V55.533H39.5234V53.9844Z" fill="#6C6C6C"/>
<path d="M41.0664 53.9844H42.6077V55.533H41.0664V53.9844Z" fill="#6C6C6C"/>
<path d="M42.6055 53.9844H44.1468V55.533H42.6055V53.9844Z" fill="#6C6C6C"/>
<path d="M45.6875 53.9844H47.2288V55.533H45.6875V53.9844Z" fill="#6C6C6C"/>
<path d="M48.7695 53.9844H50.3108V55.533H48.7695V53.9844Z" fill="#6C6C6C"/>
<path d="M51.8516 53.9844H53.3928V55.533H51.8516V53.9844Z" fill="#6C6C6C"/>
<path d="M54.9336 53.9844H56.4749V55.533H54.9336V53.9844Z" fill="#6C6C6C"/>
<path d="M58.0195 53.9844H59.5608V55.533H58.0195V53.9844Z" fill="#6C6C6C"/>
<path d="M61.1016 53.9844H62.6428V55.533H61.1016V53.9844Z" fill="#6C6C6C"/>
<path d="M88.8438 53.9844H90.385V55.533H88.8438V53.9844Z" fill="#6C6C6C"/>
<path d="M93.4688 53.9844H95.01V55.533H93.4688V53.9844Z" fill="#6C6C6C"/>
<path d="M96.5508 53.9844H98.0921V55.533H96.5508V53.9844Z" fill="#6C6C6C"/>
<path d="M98.0938 53.9844H99.635V55.533H98.0938V53.9844Z" fill="#6C6C6C"/>
<path d="M99.6328 53.9844H101.174V55.533H99.6328V53.9844Z" fill="#6C6C6C"/>
<path d="M102.715 53.9844H104.256V55.533H102.715V53.9844Z" fill="#6C6C6C"/>
<path d="M105.797 53.9844H107.338V55.533H105.797V53.9844Z" fill="#6C6C6C"/>
<path d="M110.422 53.9844H111.963V55.533H110.422V53.9844Z" fill="#6C6C6C"/>
<path d="M113.504 53.9844H115.045V55.533H113.504V53.9844Z" fill="#6C6C6C"/>
<path d="M33.3594 55.5312H34.9007V57.0799H33.3594V55.5312Z" fill="#6C6C6C"/>
<path d="M36.4414 55.5312H37.9827V57.0799H36.4414V55.5312Z" fill="#6C6C6C"/>
<path d="M44.1484 55.5312H45.6897V57.0799H44.1484V55.5312Z" fill="#6C6C6C"/>
<path d="M47.2305 55.5312H48.7718V57.0799H47.2305V55.5312Z" fill="#6C6C6C"/>
<path d="M51.8516 55.5312H53.3928V57.0799H51.8516V55.5312Z" fill="#6C6C6C"/>
<path d="M54.9336 55.5312H56.4749V57.0799H54.9336V55.5312Z" fill="#6C6C6C"/>
<path d="M59.5586 55.5312H61.0999V57.0799H59.5586V55.5312Z" fill="#6C6C6C"/>
<path d="M64.1836 55.5312H65.7249V57.0799H64.1836V55.5312Z" fill="#6C6C6C"/>
<path d="M85.7617 55.5312H87.303V57.0799H85.7617V55.5312Z" fill="#6C6C6C"/>
<path d="M91.9258 55.5312H93.4671V57.0799H91.9258V55.5312Z" fill="#6C6C6C"/>
<path d="M96.5508 55.5312H98.0921V57.0799H96.5508V55.5312Z" fill="#6C6C6C"/>
<path d="M101.176 55.5312H102.717V57.0799H101.176V55.5312Z" fill="#6C6C6C"/>
<path d="M104.258 55.5312H105.799V57.0799H104.258V55.5312Z" fill="#6C6C6C"/>
<path d="M108.879 55.5312H110.42V57.0799H108.879V55.5312Z" fill="#6C6C6C"/>
<path d="M113.504 55.5312H115.045V57.0799H113.504V55.5312Z" fill="#6C6C6C"/>
<path d="M116.586 55.5312H118.127V57.0799H116.586V55.5312Z" fill="#6C6C6C"/>
<path d="M119.668 55.5312H121.209V57.0799H119.668V55.5312Z" fill="#6C6C6C"/>
<path d="M28.7344 57.082H30.2757V58.6306H28.7344V57.082Z" fill="#6C6C6C"/>
<path d="M33.3594 57.082H34.9007V58.6306H33.3594V57.082Z" fill="#6C6C6C"/>
<path d="M39.5234 57.082H41.0647V58.6306H39.5234V57.082Z" fill="#6C6C6C"/>
<path d="M41.0664 57.082H42.6077V58.6306H41.0664V57.082Z" fill="#6C6C6C"/>
<path d="M44.1484 57.082H45.6897V58.6306H44.1484V57.082Z" fill="#6C6C6C"/>
<path d="M45.6875 57.082H47.2288V58.6306H45.6875V57.082Z" fill="#6C6C6C"/>
<path d="M50.3125 57.082H51.8538V58.6306H50.3125V57.082Z" fill="#6C6C6C"/>
<path d="M53.3945 57.082H54.9358V58.6306H53.3945V57.082Z" fill="#6C6C6C"/>
<path d="M56.4766 57.082H58.0178V58.6306H56.4766V57.082Z" fill="#6C6C6C"/>
<path d="M58.0195 57.082H59.5608V58.6306H58.0195V57.082Z" fill="#6C6C6C"/>
<path d="M61.1016 57.082H62.6428V58.6306H61.1016V57.082Z" fill="#6C6C6C"/>
<path d="M64.1836 57.082H65.7249V58.6306H64.1836V57.082Z" fill="#6C6C6C"/>
<path d="M67.2656 57.082H68.8069V58.6306H67.2656V57.082Z" fill="#6C6C6C"/>
<path d="M85.7617 57.082H87.303V58.6306H85.7617V57.082Z" fill="#6C6C6C"/>
<path d="M88.8438 57.082H90.385V58.6306H88.8438V57.082Z" fill="#6C6C6C"/>
<path d="M93.4688 57.082H95.01V58.6306H93.4688V57.082Z" fill="#6C6C6C"/>
<path d="M96.5508 57.082H98.0921V58.6306H96.5508V57.082Z" fill="#6C6C6C"/>
<path d="M101.176 57.082H102.717V58.6306H101.176V57.082Z" fill="#6C6C6C"/>
<path d="M105.797 57.082H107.338V58.6306H105.797V57.082Z" fill="#6C6C6C"/>
<path d="M108.879 57.082H110.42V58.6306H108.879V57.082Z" fill="#6C6C6C"/>
<path d="M110.422 57.082H111.963V58.6306H110.422V57.082Z" fill="#6C6C6C"/>
<path d="M115.047 57.082H116.588V58.6306H115.047V57.082Z" fill="#6C6C6C"/>
<path d="M118.129 57.082H119.67V58.6306H118.129V57.082Z" fill="#6C6C6C"/>
<path d="M122.754 57.082H124.295V58.6306H122.754V57.082Z" fill="#6C6C6C"/>
<path d="M125.836 57.082H127.377V58.6306H125.836V57.082Z" fill="#6C6C6C"/>
<path d="M28.7344 58.6294H30.2757V60.178H28.7344V58.6294Z" fill="#6C6C6C"/>
<path d="M34.8984 58.6294H36.4397V60.178H34.8984V58.6294Z" fill="#6C6C6C"/>
<path d="M37.9805 58.6294H39.5218V60.178H37.9805V58.6294Z" fill="#6C6C6C"/>
<path d="M42.6055 58.6294H44.1468V60.178H42.6055V58.6294Z" fill="#6C6C6C"/>
<path d="M48.7695 58.6294H50.3108V60.178H48.7695V58.6294Z" fill="#6C6C6C"/>
<path d="M53.3945 58.6294H54.9358V60.178H53.3945V58.6294Z" fill="#6C6C6C"/>
<path d="M58.0195 58.6294H59.5608V60.178H58.0195V58.6294Z" fill="#6C6C6C"/>
<path d="M61.1016 58.6294H62.6428V60.178H61.1016V58.6294Z" fill="#6C6C6C"/>
<path d="M62.6406 58.6294H64.1819V60.178H62.6406V58.6294Z" fill="#6C6C6C"/>
<path d="M81.1367 58.6294H82.678V60.178H81.1367V58.6294Z" fill="#6C6C6C"/>
<path d="M84.2188 58.6294H85.76V60.178H84.2188V58.6294Z" fill="#6C6C6C"/>
<path d="M88.8438 58.6294H90.385V60.178H88.8438V58.6294Z" fill="#6C6C6C"/>
<path d="M91.9258 58.6294H93.4671V60.178H91.9258V58.6294Z" fill="#6C6C6C"/>
<path d="M96.5508 58.6294H98.0921V60.178H96.5508V58.6294Z" fill="#6C6C6C"/>
<path d="M98.0938 58.6294H99.635V60.178H98.0938V58.6294Z" fill="#6C6C6C"/>
<path d="M102.715 58.6294H104.256V60.178H102.715V58.6294Z" fill="#6C6C6C"/>
<path d="M105.797 58.6294H107.338V60.178H105.797V58.6294Z" fill="#6C6C6C"/>
<path d="M107.34 58.6294H108.881V60.178H107.34V58.6294Z" fill="#6C6C6C"/>
<path d="M110.422 58.6294H111.963V60.178H110.422V58.6294Z" fill="#6C6C6C"/>
<path d="M111.965 58.6294H113.506V60.178H111.965V58.6294Z" fill="#6C6C6C"/>
<path d="M113.504 58.6294H115.045V60.178H113.504V58.6294Z" fill="#6C6C6C"/>
<path d="M116.586 58.6294H118.127V60.178H116.586V58.6294Z" fill="#6C6C6C"/>
<path d="M119.668 58.6294H121.209V60.178H119.668V58.6294Z" fill="#6C6C6C"/>
<path d="M24.1094 60.1763H25.6507V61.7249H24.1094V60.1763Z" fill="#6C6C6C"/>
<path d="M27.1914 60.1763H28.7327V61.7249H27.1914V60.1763Z" fill="#6C6C6C"/>
<path d="M30.2734 60.1763H31.8147V61.7249H30.2734V60.1763Z" fill="#6C6C6C"/>
<path d="M33.3594 60.1763H34.9007V61.7249H33.3594V60.1763Z" fill="#6C6C6C"/>
<path d="M36.4414 60.1763H37.9827V61.7249H36.4414V60.1763Z" fill="#6C6C6C"/>
<path d="M39.5234 60.1763H41.0647V61.7249H39.5234V60.1763Z" fill="#6C6C6C"/>
<path d="M44.1484 60.1763H45.6897V61.7249H44.1484V60.1763Z" fill="#6C6C6C"/>
<path d="M51.8516 60.1763H53.3928V61.7249H51.8516V60.1763Z" fill="#6C6C6C"/>
<path d="M54.9336 60.1763H56.4749V61.7249H54.9336V60.1763Z" fill="#6C6C6C"/>
<path d="M56.4766 60.1763H58.0178V61.7249H56.4766V60.1763Z" fill="#6C6C6C"/>
<path d="M59.5586 60.1763H61.0999V61.7249H59.5586V60.1763Z" fill="#6C6C6C"/>
<path d="M64.1836 60.1763H65.7249V61.7249H64.1836V60.1763Z" fill="#6C6C6C"/>
<path d="M67.2656 60.1763H68.8069V61.7249H67.2656V60.1763Z" fill="#6C6C6C"/>
<path d="M70.3477 60.1763H71.8889V61.7249H70.3477V60.1763Z" fill="#6C6C6C"/>
<path d="M76.5156 60.1763H78.0569V61.7249H76.5156V60.1763Z" fill="#6C6C6C"/>
<path d="M81.1367 60.1763H82.678V61.7249H81.1367V60.1763Z" fill="#6C6C6C"/>
<path d="M85.7617 60.1763H87.303V61.7249H85.7617V60.1763Z" fill="#6C6C6C"/>
<path d="M88.8438 60.1763H90.385V61.7249H88.8438V60.1763Z" fill="#6C6C6C"/>
<path d="M93.4688 60.1763H95.01V61.7249H93.4688V60.1763Z" fill="#6C6C6C"/>
<path d="M101.176 60.1763H102.717V61.7249H101.176V60.1763Z" fill="#6C6C6C"/>
<path d="M102.715 60.1763H104.256V61.7249H102.715V60.1763Z" fill="#6C6C6C"/>
<path d="M105.797 60.1763H107.338V61.7249H105.797V60.1763Z" fill="#6C6C6C"/>
<path d="M110.422 60.1763H111.963V61.7249H110.422V60.1763Z" fill="#6C6C6C"/>
<path d="M118.129 60.1763H119.67V61.7249H118.129V60.1763Z" fill="#6C6C6C"/>
<path d="M121.211 60.1763H122.752V61.7249H121.211V60.1763Z" fill="#6C6C6C"/>
<path d="M124.293 60.1763H125.834V61.7249H124.293V60.1763Z" fill="#6C6C6C"/>
<path d="M25.6523 61.7271H27.1936V63.2757H25.6523V61.7271Z" fill="#6C6C6C"/>
<path d="M31.8164 61.7271H33.3577V63.2757H31.8164V61.7271Z" fill="#6C6C6C"/>
<path d="M34.8984 61.7271H36.4397V63.2757H34.8984V61.7271Z" fill="#6C6C6C"/>
<path d="M36.4414 61.7271H37.9827V63.2757H36.4414V61.7271Z" fill="#6C6C6C"/>
<path d="M41.0664 61.7271H42.6077V63.2757H41.0664V61.7271Z" fill="#6C6C6C"/>
<path d="M44.1484 61.7271H45.6897V63.2757H44.1484V61.7271Z" fill="#6C6C6C"/>
<path d="M45.6875 61.7271H47.2288V63.2757H45.6875V61.7271Z" fill="#6C6C6C"/>
<path d="M47.2305 61.7271H48.7718V63.2757H47.2305V61.7271Z" fill="#6C6C6C"/>
<path d="M51.8516 61.7271H53.3928V63.2757H51.8516V61.7271Z" fill="#6C6C6C"/>
<path d="M54.9336 61.7271H56.4749V63.2757H54.9336V61.7271Z" fill="#6C6C6C"/>
<path d="M67.2656 61.7271H68.8069V63.2757H67.2656V61.7271Z" fill="#6C6C6C"/>
<path d="M82.6797 61.7271H84.221V63.2757H82.6797V61.7271Z" fill="#6C6C6C"/>
<path d="M85.7617 61.7271H87.303V63.2757H85.7617V61.7271Z" fill="#6C6C6C"/>
<path d="M90.3867 61.7271H91.928V63.2757H90.3867V61.7271Z" fill="#6C6C6C"/>
<path d="M93.4688 61.7271H95.01V63.2757H93.4688V61.7271Z" fill="#6C6C6C"/>
<path d="M96.5508 61.7271H98.0921V63.2757H96.5508V61.7271Z" fill="#6C6C6C"/>
<path d="M98.0938 61.7271H99.635V63.2757H98.0938V61.7271Z" fill="#6C6C6C"/>
<path d="M101.176 61.7271H102.717V63.2757H101.176V61.7271Z" fill="#6C6C6C"/>
<path d="M104.258 61.7271H105.799V63.2757H104.258V61.7271Z" fill="#6C6C6C"/>
<path d="M107.34 61.7271H108.881V63.2757H107.34V61.7271Z" fill="#6C6C6C"/>
<path d="M111.965 61.7271H113.506V63.2757H111.965V61.7271Z" fill="#6C6C6C"/>
<path d="M115.047 61.7271H116.588V63.2757H115.047V61.7271Z" fill="#6C6C6C"/>
<path d="M118.129 61.7271H119.67V63.2757H118.129V61.7271Z" fill="#6C6C6C"/>
<path d="M121.211 61.7271H122.752V63.2757H121.211V61.7271Z" fill="#6C6C6C"/>
<path d="M125.836 61.7271H127.377V63.2757H125.836V61.7271Z" fill="#6C6C6C"/>
<path d="M22.5703 63.2739H24.1116V64.8225H22.5703V63.2739Z" fill="#6C6C6C"/>
<path d="M25.6523 63.2739H27.1936V64.8225H25.6523V63.2739Z" fill="#6C6C6C"/>
<path d="M28.7344 63.2739H30.2757V64.8225H28.7344V63.2739Z" fill="#6C6C6C"/>
<path d="M31.8164 63.2739H33.3577V64.8225H31.8164V63.2739Z" fill="#6C6C6C"/>
<path d="M36.4414 63.2739H37.9827V64.8225H36.4414V63.2739Z" fill="#6C6C6C"/>
<path d="M39.5234 63.2739H41.0647V64.8225H39.5234V63.2739Z" fill="#6C6C6C"/>
<path d="M51.8516 63.2739H53.3928V64.8225H51.8516V63.2739Z" fill="#6C6C6C"/>
<path d="M56.4766 63.2739H58.0178V64.8225H56.4766V63.2739Z" fill="#6C6C6C"/>
<path d="M58.0195 63.2739H59.5608V64.8225H58.0195V63.2739Z" fill="#6C6C6C"/>
<path d="M59.5586 63.2739H61.0999V64.8225H59.5586V63.2739Z" fill="#6C6C6C"/>
<path d="M61.1016 63.2739H62.6428V64.8225H61.1016V63.2739Z" fill="#6C6C6C"/>
<path d="M64.1836 63.2739H65.7249V64.8225H64.1836V63.2739Z" fill="#6C6C6C"/>
<path d="M68.8086 63.2739H70.3499V64.8225H68.8086V63.2739Z" fill="#6C6C6C"/>
<path d="M71.8906 63.2739H73.4319V64.8225H71.8906V63.2739Z" fill="#6C6C6C"/>
<path d="M76.5156 63.2739H78.0569V64.8225H76.5156V63.2739Z" fill="#6C6C6C"/>
<path d="M81.1367 63.2739H82.678V64.8225H81.1367V63.2739Z" fill="#6C6C6C"/>
<path d="M84.2188 63.2739H85.76V64.8225H84.2188V63.2739Z" fill="#6C6C6C"/>
<path d="M87.3008 63.2739H88.8421V64.8225H87.3008V63.2739Z" fill="#6C6C6C"/>
<path d="M91.9258 63.2739H93.4671V64.8225H91.9258V63.2739Z" fill="#6C6C6C"/>
<path d="M95.0078 63.2739H96.5491V64.8225H95.0078V63.2739Z" fill="#6C6C6C"/>
<path d="M98.0938 63.2739H99.635V64.8225H98.0938V63.2739Z" fill="#6C6C6C"/>
<path d="M101.176 63.2739H102.717V64.8225H101.176V63.2739Z" fill="#6C6C6C"/>
<path d="M105.797 63.2739H107.338V64.8225H105.797V63.2739Z" fill="#6C6C6C"/>
<path d="M110.422 63.2739H111.963V64.8225H110.422V63.2739Z" fill="#6C6C6C"/>
<path d="M113.504 63.2739H115.045V64.8225H113.504V63.2739Z" fill="#6C6C6C"/>
<path d="M116.586 63.2739H118.127V64.8225H116.586V63.2739Z" fill="#6C6C6C"/>
<path d="M119.668 63.2739H121.209V64.8225H119.668V63.2739Z" fill="#6C6C6C"/>
<path d="M122.754 63.2739H124.295V64.8225H122.754V63.2739Z" fill="#6C6C6C"/>
<path d="M127.375 63.2739H128.916V64.8225H127.375V63.2739Z" fill="#6C6C6C"/>
<path d="M22.5703 64.8247H24.1116V66.3733H22.5703V64.8247Z" fill="#6C6C6C"/>
<path d="M25.6523 64.8247H27.1936V66.3733H25.6523V64.8247Z" fill="#6C6C6C"/>
<path d="M27.1914 64.8247H28.7327V66.3733H27.1914V64.8247Z" fill="#6C6C6C"/>
<path d="M30.2734 64.8247H31.8147V66.3733H30.2734V64.8247Z" fill="#6C6C6C"/>
<path d="M33.3594 64.8247H34.9007V66.3733H33.3594V64.8247Z" fill="#6C6C6C"/>
<path d="M36.4414 64.8247H37.9827V66.3733H36.4414V64.8247Z" fill="#6C6C6C"/>
<path d="M39.5234 64.8247H41.0647V66.3733H39.5234V64.8247Z" fill="#6C6C6C"/>
<path d="M41.0664 64.8247H42.6077V66.3733H41.0664V64.8247Z" fill="#6C6C6C"/>
<path d="M44.1484 64.8247H45.6897V66.3733H44.1484V64.8247Z" fill="#6C6C6C"/>
<path d="M45.6875 64.8247H47.2288V66.3733H45.6875V64.8247Z" fill="#6C6C6C"/>
<path d="M47.2305 64.8247H48.7718V66.3733H47.2305V64.8247Z" fill="#6C6C6C"/>
<path d="M50.3125 64.8247H51.8538V66.3733H50.3125V64.8247Z" fill="#6C6C6C"/>
<path d="M53.3945 64.8247H54.9358V66.3733H53.3945V64.8247Z" fill="#6C6C6C"/>
<path d="M56.4766 64.8247H58.0178V66.3733H56.4766V64.8247Z" fill="#6C6C6C"/>
<path d="M59.5586 64.8247H61.0999V66.3733H59.5586V64.8247Z" fill="#6C6C6C"/>
<path d="M62.6406 64.8247H64.1819V66.3733H62.6406V64.8247Z" fill="#6C6C6C"/>
<path d="M65.7266 64.8247H67.2678V66.3733H65.7266V64.8247Z" fill="#6C6C6C"/>
<path d="M67.2656 64.8247H68.8069V66.3733H67.2656V64.8247Z" fill="#6C6C6C"/>
<path d="M70.3477 64.8247H71.8889V66.3733H70.3477V64.8247Z" fill="#6C6C6C"/>
<path d="M78.0547 64.8247H79.596V66.3733H78.0547V64.8247Z" fill="#6C6C6C"/>
<path d="M79.5977 64.8247H81.1389V66.3733H79.5977V64.8247Z" fill="#6C6C6C"/>
<path d="M84.2188 64.8247H85.76V66.3733H84.2188V64.8247Z" fill="#6C6C6C"/>
<path d="M88.8438 64.8247H90.385V66.3733H88.8438V64.8247Z" fill="#6C6C6C"/>
<path d="M91.9258 64.8247H93.4671V66.3733H91.9258V64.8247Z" fill="#6C6C6C"/>
<path d="M93.4688 64.8247H95.01V66.3733H93.4688V64.8247Z" fill="#6C6C6C"/>
<path d="M96.5508 64.8247H98.0921V66.3733H96.5508V64.8247Z" fill="#6C6C6C"/>
<path d="M104.258 64.8247H105.799V66.3733H104.258V64.8247Z" fill="#6C6C6C"/>
<path d="M107.34 64.8247H108.881V66.3733H107.34V64.8247Z" fill="#6C6C6C"/>
<path d="M111.965 64.8247H113.506V66.3733H111.965V64.8247Z" fill="#6C6C6C"/>
<path d="M118.129 64.8247H119.67V66.3733H118.129V64.8247Z" fill="#6C6C6C"/>
<path d="M119.668 64.8247H121.209V66.3733H119.668V64.8247Z" fill="#6C6C6C"/>
<path d="M122.754 64.8247H124.295V66.3733H122.754V64.8247Z" fill="#6C6C6C"/>
<path d="M124.293 64.8247H125.834V66.3733H124.293V64.8247Z" fill="#6C6C6C"/>
<path d="M125.836 64.8247H127.377V66.3733H125.836V64.8247Z" fill="#6C6C6C"/>
<path d="M24.1094 66.3721H25.6507V67.9207H24.1094V66.3721Z" fill="#6C6C6C"/>
<path d="M31.8164 66.3721H33.3577V67.9207H31.8164V66.3721Z" fill="#6C6C6C"/>
<path d="M33.3594 66.3721H34.9007V67.9207H33.3594V66.3721Z" fill="#6C6C6C"/>
<path d="M37.9805 66.3721H39.5218V67.9207H37.9805V66.3721Z" fill="#6C6C6C"/>
<path d="M44.1484 66.3721H45.6897V67.9207H44.1484V66.3721Z" fill="#6C6C6C"/>
<path d="M48.7695 66.3721H50.3108V67.9207H48.7695V66.3721Z" fill="#6C6C6C"/>
<path d="M51.8516 66.3721H53.3928V67.9207H51.8516V66.3721Z" fill="#6C6C6C"/>
<path d="M53.3945 66.3721H54.9358V67.9207H53.3945V66.3721Z" fill="#6C6C6C"/>
<path d="M58.0195 66.3721H59.5608V67.9207H58.0195V66.3721Z" fill="#6C6C6C"/>
<path d="M61.1016 66.3721H62.6428V67.9207H61.1016V66.3721Z" fill="#6C6C6C"/>
<path d="M64.1836 66.3721H65.7249V67.9207H64.1836V66.3721Z" fill="#6C6C6C"/>
<path d="M68.8086 66.3721H70.3499V67.9207H68.8086V66.3721Z" fill="#6C6C6C"/>
<path d="M71.8906 66.3721H73.4319V67.9207H71.8906V66.3721Z" fill="#6C6C6C"/>
<path d="M74.9727 66.3721H76.5139V67.9207H74.9727V66.3721Z" fill="#6C6C6C"/>
<path d="M81.1367 66.3721H82.678V67.9207H81.1367V66.3721Z" fill="#6C6C6C"/>
<path d="M82.6797 66.3721H84.221V67.9207H82.6797V66.3721Z" fill="#6C6C6C"/>
<path d="M87.3008 66.3721H88.8421V67.9207H87.3008V66.3721Z" fill="#6C6C6C"/>
<path d="M90.3867 66.3721H91.928V67.9207H90.3867V66.3721Z" fill="#6C6C6C"/>
<path d="M95.0078 66.3721H96.5491V67.9207H95.0078V66.3721Z" fill="#6C6C6C"/>
<path d="M98.0938 66.3721H99.635V67.9207H98.0938V66.3721Z" fill="#6C6C6C"/>
<path d="M101.176 66.3721H102.717V67.9207H101.176V66.3721Z" fill="#6C6C6C"/>
<path d="M105.797 66.3721H107.338V67.9207H105.797V66.3721Z" fill="#6C6C6C"/>
<path d="M110.422 66.3721H111.963V67.9207H110.422V66.3721Z" fill="#6C6C6C"/>
<path d="M113.504 66.3721H115.045V67.9207H113.504V66.3721Z" fill="#6C6C6C"/>
<path d="M115.047 66.3721H116.588V67.9207H115.047V66.3721Z" fill="#6C6C6C"/>
<path d="M116.586 66.3721H118.127V67.9207H116.586V66.3721Z" fill="#6C6C6C"/>
<path d="M127.375 66.3721H128.916V67.9207H127.375V66.3721Z" fill="#6C6C6C"/>
<path d="M130.457 66.3721H131.998V67.9207H130.457V66.3721Z" fill="#6C6C6C"/>
<path d="M21.0273 67.9189H22.5686V69.4675H21.0273V67.9189Z" fill="#6C6C6C"/>
<path d="M25.6523 67.9189H27.1936V69.4675H25.6523V67.9189Z" fill="#6C6C6C"/>
<path d="M28.7344 67.9189H30.2757V69.4675H28.7344V67.9189Z" fill="#6C6C6C"/>
<path d="M31.8164 67.9189H33.3577V69.4675H31.8164V67.9189Z" fill="#6C6C6C"/>
<path d="M33.3594 67.9189H34.9007V69.4675H33.3594V67.9189Z" fill="#6C6C6C"/>
<path d="M36.4414 67.9189H37.9827V69.4675H36.4414V67.9189Z" fill="#6C6C6C"/>
<path d="M37.9805 67.9189H39.5218V69.4675H37.9805V67.9189Z" fill="#6C6C6C"/>
<path d="M41.0664 67.9189H42.6077V69.4675H41.0664V67.9189Z" fill="#6C6C6C"/>
<path d="M42.6055 67.9189H44.1468V69.4675H42.6055V67.9189Z" fill="#6C6C6C"/>
<path d="M44.1484 67.9189H45.6897V69.4675H44.1484V67.9189Z" fill="#6C6C6C"/>
<path d="M47.2305 67.9189H48.7718V69.4675H47.2305V67.9189Z" fill="#6C6C6C"/>
<path d="M50.3125 67.9189H51.8538V69.4675H50.3125V67.9189Z" fill="#6C6C6C"/>
<path d="M54.9336 67.9189H56.4749V69.4675H54.9336V67.9189Z" fill="#6C6C6C"/>
<path d="M58.0195 67.9189H59.5608V69.4675H58.0195V67.9189Z" fill="#6C6C6C"/>
<path d="M61.1016 67.9189H62.6428V69.4675H61.1016V67.9189Z" fill="#6C6C6C"/>
<path d="M62.6406 67.9189H64.1819V69.4675H62.6406V67.9189Z" fill="#6C6C6C"/>
<path d="M65.7266 67.9189H67.2678V69.4675H65.7266V67.9189Z" fill="#6C6C6C"/>
<path d="M73.4297 67.9189H74.971V69.4675H73.4297V67.9189Z" fill="#6C6C6C"/>
<path d="M84.2188 67.9189H85.76V69.4675H84.2188V67.9189Z" fill="#6C6C6C"/>
<path d="M85.7617 67.9189H87.303V69.4675H85.7617V67.9189Z" fill="#6C6C6C"/>
<path d="M88.8438 67.9189H90.385V69.4675H88.8438V67.9189Z" fill="#6C6C6C"/>
<path d="M91.9258 67.9189H93.4671V69.4675H91.9258V67.9189Z" fill="#6C6C6C"/>
<path d="M98.0938 67.9189H99.635V69.4675H98.0938V67.9189Z" fill="#6C6C6C"/>
<path d="M102.715 67.9189H104.256V69.4675H102.715V67.9189Z" fill="#6C6C6C"/>
<path d="M107.34 67.9189H108.881V69.4675H107.34V67.9189Z" fill="#6C6C6C"/>
<path d="M108.879 67.9189H110.42V69.4675H108.879V67.9189Z" fill="#6C6C6C"/>
<path d="M111.965 67.9189H113.506V69.4675H111.965V67.9189Z" fill="#6C6C6C"/>
<path d="M118.129 67.9189H119.67V69.4675H118.129V67.9189Z" fill="#6C6C6C"/>
<path d="M121.211 67.9189H122.752V69.4675H121.211V67.9189Z" fill="#6C6C6C"/>
<path d="M124.293 67.9189H125.834V69.4675H124.293V67.9189Z" fill="#6C6C6C"/>
<path d="M21.0273 69.4697H22.5686V71.0183H21.0273V69.4697Z" fill="#6C6C6C"/>
<path d="M24.1094 69.4697H25.6507V71.0183H24.1094V69.4697Z" fill="#6C6C6C"/>
<path d="M27.1914 69.4697H28.7327V71.0183H27.1914V69.4697Z" fill="#6C6C6C"/>
<path d="M30.2734 69.4697H31.8147V71.0183H30.2734V69.4697Z" fill="#6C6C6C"/>
<path d="M34.8984 69.4697H36.4397V71.0183H34.8984V69.4697Z" fill="#6C6C6C"/>
<path d="M39.5234 69.4697H41.0647V71.0183H39.5234V69.4697Z" fill="#6C6C6C"/>
<path d="M51.8516 69.4697H53.3928V71.0183H51.8516V69.4697Z" fill="#6C6C6C"/>
<path d="M54.9336 69.4697H56.4749V71.0183H54.9336V69.4697Z" fill="#6C6C6C"/>
<path d="M59.5586 69.4697H61.0999V71.0183H59.5586V69.4697Z" fill="#6C6C6C"/>
<path d="M65.7266 69.4697H67.2678V71.0183H65.7266V69.4697Z" fill="#6C6C6C"/>
<path d="M68.8086 69.4697H70.3499V71.0183H68.8086V69.4697Z" fill="#6C6C6C"/>
<path d="M71.8906 69.4697H73.4319V71.0183H71.8906V69.4697Z" fill="#6C6C6C"/>
<path d="M74.9727 69.4697H76.5139V71.0183H74.9727V69.4697Z" fill="#6C6C6C"/>
<path d="M78.0547 69.4697H79.596V71.0183H78.0547V69.4697Z" fill="#6C6C6C"/>
<path d="M81.1367 69.4697H82.678V71.0183H81.1367V69.4697Z" fill="#6C6C6C"/>
<path d="M87.3008 69.4697H88.8421V71.0183H87.3008V69.4697Z" fill="#6C6C6C"/>
<path d="M90.3867 69.4697H91.928V71.0183H90.3867V69.4697Z" fill="#6C6C6C"/>
<path d="M93.4688 69.4697H95.01V71.0183H93.4688V69.4697Z" fill="#6C6C6C"/>
<path d="M95.0078 69.4697H96.5491V71.0183H95.0078V69.4697Z" fill="#6C6C6C"/>
<path d="M98.0938 69.4697H99.635V71.0183H98.0938V69.4697Z" fill="#6C6C6C"/>
<path d="M101.176 69.4697H102.717V71.0183H101.176V69.4697Z" fill="#6C6C6C"/>
<path d="M113.504 69.4697H115.045V71.0183H113.504V69.4697Z" fill="#6C6C6C"/>
<path d="M116.586 69.4697H118.127V71.0183H116.586V69.4697Z" fill="#6C6C6C"/>
<path d="M119.668 69.4697H121.209V71.0183H119.668V69.4697Z" fill="#6C6C6C"/>
<path d="M121.211 69.4697H122.752V71.0183H121.211V69.4697Z" fill="#6C6C6C"/>
<path d="M124.293 69.4697H125.834V71.0183H124.293V69.4697Z" fill="#6C6C6C"/>
<path d="M125.836 69.4697H127.377V71.0183H125.836V69.4697Z" fill="#6C6C6C"/>
<path d="M128.918 69.4697H130.459V71.0183H128.918V69.4697Z" fill="#6C6C6C"/>
<path d="M20 71.0171H21.0275V72.5657H20V71.0171Z" fill="#6C6C6C"/>
<path d="M22.5703 71.0171H24.1116V72.5657H22.5703V71.0171Z" fill="#6C6C6C"/>
<path d="M25.6523 71.0171H27.1936V72.5657H25.6523V71.0171Z" fill="#6C6C6C"/>
<path d="M31.8164 71.0171H33.3577V72.5657H31.8164V71.0171Z" fill="#6C6C6C"/>
<path d="M36.4414 71.0171H37.9827V72.5657H36.4414V71.0171Z" fill="#6C6C6C"/>
<path d="M41.0664 71.0171H42.6077V72.5657H41.0664V71.0171Z" fill="#6C6C6C"/>
<path d="M45.6875 71.0171H47.2288V72.5657H45.6875V71.0171Z" fill="#6C6C6C"/>
<path d="M50.3125 71.0171H51.8538V72.5657H50.3125V71.0171Z" fill="#6C6C6C"/>
<path d="M56.4766 71.0171H58.0178V72.5657H56.4766V71.0171Z" fill="#6C6C6C"/>
<path d="M61.1016 71.0171H62.6428V72.5657H61.1016V71.0171Z" fill="#6C6C6C"/>
<path d="M62.6406 71.0171H64.1819V72.5657H62.6406V71.0171Z" fill="#6C6C6C"/>
<path d="M67.2656 71.0171H68.8069V72.5657H67.2656V71.0171Z" fill="#6C6C6C"/>
<path d="M70.3477 71.0171H71.8889V72.5657H70.3477V71.0171Z" fill="#6C6C6C"/>
<path d="M76.5156 71.0171H78.0569V72.5657H76.5156V71.0171Z" fill="#6C6C6C"/>
<path d="M78.0547 71.0171H79.596V72.5657H78.0547V71.0171Z" fill="#6C6C6C"/>
<path d="M81.1367 71.0171H82.678V72.5657H81.1367V71.0171Z" fill="#6C6C6C"/>
<path d="M82.6797 71.0171H84.221V72.5657H82.6797V71.0171Z" fill="#6C6C6C"/>
<path d="M85.7617 71.0171H87.303V72.5657H85.7617V71.0171Z" fill="#6C6C6C"/>
<path d="M91.9258 71.0171H93.4671V72.5657H91.9258V71.0171Z" fill="#6C6C6C"/>
<path d="M96.5508 71.0171H98.0921V72.5657H96.5508V71.0171Z" fill="#6C6C6C"/>
<path d="M104.258 71.0171H105.799V72.5657H104.258V71.0171Z" fill="#6C6C6C"/>
<path d="M108.879 71.0171H110.42V72.5657H108.879V71.0171Z" fill="#6C6C6C"/>
<path d="M111.965 71.0171H113.506V72.5657H111.965V71.0171Z" fill="#6C6C6C"/>
<path d="M115.047 71.0171H116.588V72.5657H115.047V71.0171Z" fill="#6C6C6C"/>
<path d="M118.129 71.0171H119.67V72.5657H118.129V71.0171Z" fill="#6C6C6C"/>
<path d="M122.754 71.0171H124.295V72.5657H122.754V71.0171Z" fill="#6C6C6C"/>
<path d="M127.375 71.0171H128.916V72.5657H127.375V71.0171Z" fill="#6C6C6C"/>
<path d="M24.1094 72.5674H25.6507V74.116H24.1094V72.5674Z" fill="#6C6C6C"/>
<path d="M27.1914 72.5674H28.7327V74.116H27.1914V72.5674Z" fill="#6C6C6C"/>
<path d="M28.7344 72.5674H30.2757V74.116H28.7344V72.5674Z" fill="#6C6C6C"/>
<path d="M30.2734 72.5674H31.8147V74.116H30.2734V72.5674Z" fill="#6C6C6C"/>
<path d="M33.3594 72.5674H34.9007V74.116H33.3594V72.5674Z" fill="#6C6C6C"/>
<path d="M36.4414 72.5674H37.9827V74.116H36.4414V72.5674Z" fill="#6C6C6C"/>
<path d="M42.6055 72.5674H44.1468V74.116H42.6055V72.5674Z" fill="#6C6C6C"/>
<path d="M53.3945 72.5674H54.9358V74.116H53.3945V72.5674Z" fill="#6C6C6C"/>
<path d="M56.4766 72.5674H58.0178V74.116H56.4766V72.5674Z" fill="#6C6C6C"/>
<path d="M59.5586 72.5674H61.0999V74.116H59.5586V72.5674Z" fill="#6C6C6C"/>
<path d="M64.1836 72.5674H65.7249V74.116H64.1836V72.5674Z" fill="#6C6C6C"/>
<path d="M68.8086 72.5674H70.3499V74.116H68.8086V72.5674Z" fill="#6C6C6C"/>
<path d="M73.4297 72.5674H74.971V74.116H73.4297V72.5674Z" fill="#6C6C6C"/>
<path d="M78.0547 72.5674H79.596V74.116H78.0547V72.5674Z" fill="#6C6C6C"/>
<path d="M85.7617 72.5674H87.303V74.116H85.7617V72.5674Z" fill="#6C6C6C"/>
<path d="M87.3008 72.5674H88.8421V74.116H87.3008V72.5674Z" fill="#6C6C6C"/>
<path d="M88.8438 72.5674H90.385V74.116H88.8438V72.5674Z" fill="#6C6C6C"/>
<path d="M90.3867 72.5674H91.928V74.116H90.3867V72.5674Z" fill="#6C6C6C"/>
<path d="M95.0078 72.5674H96.5491V74.116H95.0078V72.5674Z" fill="#6C6C6C"/>
<path d="M108.879 72.5674H110.42V74.116H108.879V72.5674Z" fill="#6C6C6C"/>
<path d="M119.668 72.5674H121.209V74.116H119.668V72.5674Z" fill="#6C6C6C"/>
<path d="M122.754 72.5674H124.295V74.116H122.754V72.5674Z" fill="#6C6C6C"/>
<path d="M130.457 72.5674H131.998V74.116H130.457V72.5674Z" fill="#6C6C6C"/>
<path d="M21.0273 74.1147H22.5686V75.6633H21.0273V74.1147Z" fill="#6C6C6C"/>
<path d="M22.5703 74.1147H24.1116V75.6633H22.5703V74.1147Z" fill="#6C6C6C"/>
<path d="M25.6523 74.1147H27.1936V75.6633H25.6523V74.1147Z" fill="#6C6C6C"/>
<path d="M31.8164 74.1147H33.3577V75.6633H31.8164V74.1147Z" fill="#6C6C6C"/>
<path d="M36.4414 74.1147H37.9827V75.6633H36.4414V74.1147Z" fill="#6C6C6C"/>
<path d="M37.9805 74.1147H39.5218V75.6633H37.9805V74.1147Z" fill="#6C6C6C"/>
<path d="M39.5234 74.1147H41.0647V75.6633H39.5234V74.1147Z" fill="#6C6C6C"/>
<path d="M47.2305 74.1147H48.7718V75.6633H47.2305V74.1147Z" fill="#6C6C6C"/>
<path d="M54.9336 74.1147H56.4749V75.6633H54.9336V74.1147Z" fill="#6C6C6C"/>
<path d="M61.1016 74.1147H62.6428V75.6633H61.1016V74.1147Z" fill="#6C6C6C"/>
<path d="M65.7266 74.1147H67.2678V75.6633H65.7266V74.1147Z" fill="#6C6C6C"/>
<path d="M70.3477 74.1147H71.8889V75.6633H70.3477V74.1147Z" fill="#6C6C6C"/>
<path d="M73.4297 74.1147H74.971V75.6633H73.4297V74.1147Z" fill="#6C6C6C"/>
<path d="M76.5156 74.1147H78.0569V75.6633H76.5156V74.1147Z" fill="#6C6C6C"/>
<path d="M79.5977 74.1147H81.1389V75.6633H79.5977V74.1147Z" fill="#6C6C6C"/>
<path d="M81.1367 74.1147H82.678V75.6633H81.1367V74.1147Z" fill="#6C6C6C"/>
<path d="M82.6797 74.1147H84.221V75.6633H82.6797V74.1147Z" fill="#6C6C6C"/>
<path d="M85.7617 74.1147H87.303V75.6633H85.7617V74.1147Z" fill="#6C6C6C"/>
<path d="M91.9258 74.1147H93.4671V75.6633H91.9258V74.1147Z" fill="#6C6C6C"/>
<path d="M101.176 74.1147H102.717V75.6633H101.176V74.1147Z" fill="#6C6C6C"/>
<path d="M110.422 74.1147H111.963V75.6633H110.422V74.1147Z" fill="#6C6C6C"/>
<path d="M115.047 74.1147H116.588V75.6633H115.047V74.1147Z" fill="#6C6C6C"/>
<path d="M116.586 74.1147H118.127V75.6633H116.586V74.1147Z" fill="#6C6C6C"/>
<path d="M121.211 74.1147H122.752V75.6633H121.211V74.1147Z" fill="#6C6C6C"/>
<path d="M124.293 74.1147H125.834V75.6633H124.293V74.1147Z" fill="#6C6C6C"/>
<path d="M127.375 74.1147H128.916V75.6633H127.375V74.1147Z" fill="#6C6C6C"/>
<path d="M21.0273 75.6621H22.5686V77.2107H21.0273V75.6621Z" fill="#6C6C6C"/>
<path d="M27.1914 75.6621H28.7327V77.2107H27.1914V75.6621Z" fill="#6C6C6C"/>
<path d="M28.7344 75.6621H30.2757V77.2107H28.7344V75.6621Z" fill="#6C6C6C"/>
<path d="M31.8164 75.6621H33.3577V77.2107H31.8164V75.6621Z" fill="#6C6C6C"/>
<path d="M34.8984 75.6621H36.4397V77.2107H34.8984V75.6621Z" fill="#6C6C6C"/>
<path d="M58.0195 75.6621H59.5608V77.2107H58.0195V75.6621Z" fill="#6C6C6C"/>
<path d="M62.6406 75.6621H64.1819V77.2107H62.6406V75.6621Z" fill="#6C6C6C"/>
<path d="M67.2656 75.6621H68.8069V77.2107H67.2656V75.6621Z" fill="#6C6C6C"/>
<path d="M71.8906 75.6621H73.4319V77.2107H71.8906V75.6621Z" fill="#6C6C6C"/>
<path d="M74.9727 75.6621H76.5139V77.2107H74.9727V75.6621Z" fill="#6C6C6C"/>
<path d="M82.6797 75.6621H84.221V77.2107H82.6797V75.6621Z" fill="#6C6C6C"/>
<path d="M87.3008 75.6621H88.8421V77.2107H87.3008V75.6621Z" fill="#6C6C6C"/>
<path d="M90.3867 75.6621H91.928V77.2107H90.3867V75.6621Z" fill="#6C6C6C"/>
<path d="M96.5508 75.6621H98.0921V77.2107H96.5508V75.6621Z" fill="#6C6C6C"/>
<path d="M105.797 75.6621H107.338V77.2107H105.797V75.6621Z" fill="#6C6C6C"/>
<path d="M113.504 75.6621H115.045V77.2107H113.504V75.6621Z" fill="#6C6C6C"/>
<path d="M118.129 75.6621H119.67V77.2107H118.129V75.6621Z" fill="#6C6C6C"/>
<path d="M119.668 75.6621H121.209V77.2107H119.668V75.6621Z" fill="#6C6C6C"/>
<path d="M122.754 75.6621H124.295V77.2107H122.754V75.6621Z" fill="#6C6C6C"/>
<path d="M124.293 75.6621H125.834V77.2107H124.293V75.6621Z" fill="#6C6C6C"/>
<path d="M127.375 75.6621H128.916V77.2107H127.375V75.6621Z" fill="#6C6C6C"/>
<path d="M130.457 75.6621H131.998V77.2107H130.457V75.6621Z" fill="#6C6C6C"/>
<path d="M20 77.2124H21.0275V78.761H20V77.2124Z" fill="#6C6C6C"/>
<path d="M24.1094 77.2124H25.6507V78.761H24.1094V77.2124Z" fill="#6C6C6C"/>
<path d="M27.1914 77.2124H28.7327V78.761H27.1914V77.2124Z" fill="#6C6C6C"/>
<path d="M30.2734 77.2124H31.8147V78.761H30.2734V77.2124Z" fill="#6C6C6C"/>
<path d="M33.3594 77.2124H34.9007V78.761H33.3594V77.2124Z" fill="#6C6C6C"/>
<path d="M39.5234 77.2124H41.0647V78.761H39.5234V77.2124Z" fill="#6C6C6C"/>
<path d="M59.5586 77.2124H61.0999V78.761H59.5586V77.2124Z" fill="#6C6C6C"/>
<path d="M64.1836 77.2124H65.7249V78.761H64.1836V77.2124Z" fill="#6C6C6C"/>
<path d="M67.2656 77.2124H68.8069V78.761H67.2656V77.2124Z" fill="#6C6C6C"/>
<path d="M68.8086 77.2124H70.3499V78.761H68.8086V77.2124Z" fill="#6C6C6C"/>
<path d="M71.8906 77.2124H73.4319V78.761H71.8906V77.2124Z" fill="#6C6C6C"/>
<path d="M74.9727 77.2124H76.5139V78.761H74.9727V77.2124Z" fill="#6C6C6C"/>
<path d="M78.0547 77.2124H79.596V78.761H78.0547V77.2124Z" fill="#6C6C6C"/>
<path d="M79.5977 77.2124H81.1389V78.761H79.5977V77.2124Z" fill="#6C6C6C"/>
<path d="M84.2188 77.2124H85.76V78.761H84.2188V77.2124Z" fill="#6C6C6C"/>
<path d="M87.3008 77.2124H88.8421V78.761H87.3008V77.2124Z" fill="#6C6C6C"/>
<path d="M93.4688 77.2124H95.01V78.761H93.4688V77.2124Z" fill="#6C6C6C"/>
<path d="M110.422 77.2124H111.963V78.761H110.422V77.2124Z" fill="#6C6C6C"/>
<path d="M115.047 77.2124H116.588V78.761H115.047V77.2124Z" fill="#6C6C6C"/>
<path d="M116.586 77.2124H118.127V78.761H116.586V77.2124Z" fill="#6C6C6C"/>
<path d="M122.754 77.2124H124.295V78.761H122.754V77.2124Z" fill="#6C6C6C"/>
<path d="M125.836 77.2124H127.377V78.761H125.836V77.2124Z" fill="#6C6C6C"/>
<path d="M130.457 77.2124H131.998V78.761H130.457V77.2124Z" fill="#6C6C6C"/>
<path d="M20 78.7598H21.0275V80.3084H20V78.7598Z" fill="#6C6C6C"/>
<path d="M22.5703 78.7598H24.1116V80.3084H22.5703V78.7598Z" fill="#6C6C6C"/>
<path d="M24.1094 78.7598H25.6507V80.3084H24.1094V78.7598Z" fill="#6C6C6C"/>
<path d="M28.7344 78.7598H30.2757V80.3084H28.7344V78.7598Z" fill="#6C6C6C"/>
<path d="M30.2734 78.7598H31.8147V80.3084H30.2734V78.7598Z" fill="#6C6C6C"/>
<path d="M37.9805 78.7598H39.5218V80.3084H37.9805V78.7598Z" fill="#6C6C6C"/>
<path d="M56.4766 78.7598H58.0178V80.3084H56.4766V78.7598Z" fill="#6C6C6C"/>
<path d="M61.1016 78.7598H62.6428V80.3084H61.1016V78.7598Z" fill="#6C6C6C"/>
<path d="M65.7266 78.7598H67.2678V80.3084H65.7266V78.7598Z" fill="#6C6C6C"/>
<path d="M70.3477 78.7598H71.8889V80.3084H70.3477V78.7598Z" fill="#6C6C6C"/>
<path d="M73.4297 78.7598H74.971V80.3084H73.4297V78.7598Z" fill="#6C6C6C"/>
<path d="M79.5977 78.7598H81.1389V80.3084H79.5977V78.7598Z" fill="#6C6C6C"/>
<path d="M82.6797 78.7598H84.221V80.3084H82.6797V78.7598Z" fill="#6C6C6C"/>
<path d="M85.7617 78.7598H87.303V80.3084H85.7617V78.7598Z" fill="#6C6C6C"/>
<path d="M88.8438 78.7598H90.385V80.3084H88.8438V78.7598Z" fill="#6C6C6C"/>
<path d="M91.9258 78.7598H93.4671V80.3084H91.9258V78.7598Z" fill="#6C6C6C"/>
<path d="M113.504 78.7598H115.045V80.3084H113.504V78.7598Z" fill="#6C6C6C"/>
<path d="M118.129 78.7598H119.67V80.3084H118.129V78.7598Z" fill="#6C6C6C"/>
<path d="M121.211 78.7598H122.752V80.3084H121.211V78.7598Z" fill="#6C6C6C"/>
<path d="M128.918 78.7598H130.459V80.3084H128.918V78.7598Z" fill="#6C6C6C"/>
<path d="M21.0273 80.3105H22.5686V81.8591H21.0273V80.3105Z" fill="#6C6C6C"/>
<path d="M27.1914 80.3105H28.7327V81.8591H27.1914V80.3105Z" fill="#6C6C6C"/>
<path d="M30.2734 80.3105H31.8147V81.8591H30.2734V80.3105Z" fill="#6C6C6C"/>
<path d="M34.8984 80.3105H36.4397V81.8591H34.8984V80.3105Z" fill="#6C6C6C"/>
<path d="M41.0664 80.3105H42.6077V81.8591H41.0664V80.3105Z" fill="#6C6C6C"/>
<path d="M47.2305 80.3105H48.7718V81.8591H47.2305V80.3105Z" fill="#6C6C6C"/>
<path d="M53.3945 80.3105H54.9358V81.8591H53.3945V80.3105Z" fill="#6C6C6C"/>
<path d="M62.6406 80.3105H64.1819V81.8591H62.6406V80.3105Z" fill="#6C6C6C"/>
<path d="M65.7266 80.3105H67.2678V81.8591H65.7266V80.3105Z" fill="#6C6C6C"/>
<path d="M67.2656 80.3105H68.8069V81.8591H67.2656V80.3105Z" fill="#6C6C6C"/>
<path d="M70.3477 80.3105H71.8889V81.8591H70.3477V80.3105Z" fill="#6C6C6C"/>
<path d="M73.4297 80.3105H74.971V81.8591H73.4297V80.3105Z" fill="#6C6C6C"/>
<path d="M76.5156 80.3105H78.0569V81.8591H76.5156V80.3105Z" fill="#6C6C6C"/>
<path d="M81.1367 80.3105H82.678V81.8591H81.1367V80.3105Z" fill="#6C6C6C"/>
<path d="M85.7617 80.3105H87.303V81.8591H85.7617V80.3105Z" fill="#6C6C6C"/>
<path d="M107.34 80.3105H108.881V81.8591H107.34V80.3105Z" fill="#6C6C6C"/>
<path d="M113.504 80.3105H115.045V81.8591H113.504V80.3105Z" fill="#6C6C6C"/>
<path d="M119.668 80.3105H121.209V81.8591H119.668V80.3105Z" fill="#6C6C6C"/>
<path d="M122.754 80.3105H124.295V81.8591H122.754V80.3105Z" fill="#6C6C6C"/>
<path d="M125.836 80.3105H127.377V81.8591H125.836V80.3105Z" fill="#6C6C6C"/>
<path d="M128.918 80.3105H130.459V81.8591H128.918V80.3105Z" fill="#6C6C6C"/>
<path d="M130.457 80.3105H131.998V81.8591H130.457V80.3105Z" fill="#6C6C6C"/>
<path d="M20 81.8574H21.0275V83.406H20V81.8574Z" fill="#6C6C6C"/>
<path d="M22.5703 81.8574H24.1116V83.406H22.5703V81.8574Z" fill="#6C6C6C"/>
<path d="M24.1094 81.8574H25.6507V83.406H24.1094V81.8574Z" fill="#6C6C6C"/>
<path d="M25.6523 81.8574H27.1936V83.406H25.6523V81.8574Z" fill="#6C6C6C"/>
<path d="M28.7344 81.8574H30.2757V83.406H28.7344V81.8574Z" fill="#6C6C6C"/>
<path d="M31.8164 81.8574H33.3577V83.406H31.8164V81.8574Z" fill="#6C6C6C"/>
<path d="M33.3594 81.8574H34.9007V83.406H33.3594V81.8574Z" fill="#6C6C6C"/>
<path d="M36.4414 81.8574H37.9827V83.406H36.4414V81.8574Z" fill="#6C6C6C"/>
<path d="M58.0195 81.8574H59.5608V83.406H58.0195V81.8574Z" fill="#6C6C6C"/>
<path d="M62.6406 81.8574H64.1819V83.406H62.6406V81.8574Z" fill="#6C6C6C"/>
<path d="M65.7266 81.8574H67.2678V83.406H65.7266V81.8574Z" fill="#6C6C6C"/>
<path d="M73.4297 81.8574H74.971V83.406H73.4297V81.8574Z" fill="#6C6C6C"/>
<path d="M76.5156 81.8574H78.0569V83.406H76.5156V81.8574Z" fill="#6C6C6C"/>
<path d="M79.5977 81.8574H81.1389V83.406H79.5977V81.8574Z" fill="#6C6C6C"/>
<path d="M84.2188 81.8574H85.76V83.406H84.2188V81.8574Z" fill="#6C6C6C"/>
<path d="M87.3008 81.8574H88.8421V83.406H87.3008V81.8574Z" fill="#6C6C6C"/>
<path d="M88.8438 81.8574H90.385V83.406H88.8438V81.8574Z" fill="#6C6C6C"/>
<path d="M91.9258 81.8574H93.4671V83.406H91.9258V81.8574Z" fill="#6C6C6C"/>
<path d="M98.0938 81.8574H99.635V83.406H98.0938V81.8574Z" fill="#6C6C6C"/>
<path d="M111.965 81.8574H113.506V83.406H111.965V81.8574Z" fill="#6C6C6C"/>
<path d="M115.047 81.8574H116.588V83.406H115.047V81.8574Z" fill="#6C6C6C"/>
<path d="M116.586 81.8574H118.127V83.406H116.586V81.8574Z" fill="#6C6C6C"/>
<path d="M119.668 81.8574H121.209V83.406H119.668V81.8574Z" fill="#6C6C6C"/>
<path d="M124.293 81.8574H125.834V83.406H124.293V81.8574Z" fill="#6C6C6C"/>
<path d="M128.918 81.8574H130.459V83.406H128.918V81.8574Z" fill="#6C6C6C"/>
<path d="M21.0273 83.4082H22.5686V84.9568H21.0273V83.4082Z" fill="#6C6C6C"/>
<path d="M27.1914 83.4082H28.7327V84.9568H27.1914V83.4082Z" fill="#6C6C6C"/>
<path d="M30.2734 83.4082H31.8147V84.9568H30.2734V83.4082Z" fill="#6C6C6C"/>
<path d="M34.8984 83.4082H36.4397V84.9568H34.8984V83.4082Z" fill="#6C6C6C"/>
<path d="M39.5234 83.4082H41.0647V84.9568H39.5234V83.4082Z" fill="#6C6C6C"/>
<path d="M59.5586 83.4082H61.0999V84.9568H59.5586V83.4082Z" fill="#6C6C6C"/>
<path d="M64.1836 83.4082H65.7249V84.9568H64.1836V83.4082Z" fill="#6C6C6C"/>
<path d="M67.2656 83.4082H68.8069V84.9568H67.2656V83.4082Z" fill="#6C6C6C"/>
<path d="M70.3477 83.4082H71.8889V84.9568H70.3477V83.4082Z" fill="#6C6C6C"/>
<path d="M74.9727 83.4082H76.5139V84.9568H74.9727V83.4082Z" fill="#6C6C6C"/>
<path d="M78.0547 83.4082H79.596V84.9568H78.0547V83.4082Z" fill="#6C6C6C"/>
<path d="M82.6797 83.4082H84.221V84.9568H82.6797V83.4082Z" fill="#6C6C6C"/>
<path d="M85.7617 83.4082H87.303V84.9568H85.7617V83.4082Z" fill="#6C6C6C"/>
<path d="M113.504 83.4082H115.045V84.9568H113.504V83.4082Z" fill="#6C6C6C"/>
<path d="M119.668 83.4082H121.209V84.9568H119.668V83.4082Z" fill="#6C6C6C"/>
<path d="M121.211 83.4082H122.752V84.9568H121.211V83.4082Z" fill="#6C6C6C"/>
<path d="M122.754 83.4082H124.295V84.9568H122.754V83.4082Z" fill="#6C6C6C"/>
<path d="M127.375 83.4082H128.916V84.9568H127.375V83.4082Z" fill="#6C6C6C"/>
<path d="M130.457 83.4082H131.998V84.9568H130.457V83.4082Z" fill="#6C6C6C"/>
<path d="M20 84.9551H21.0275V86.5037H20V84.9551Z" fill="#6C6C6C"/>
<path d="M22.5703 84.9551H24.1116V86.5037H22.5703V84.9551Z" fill="#6C6C6C"/>
<path d="M24.1094 84.9551H25.6507V86.5037H24.1094V84.9551Z" fill="#6C6C6C"/>
<path d="M30.2734 84.9551H31.8147V86.5037H30.2734V84.9551Z" fill="#6C6C6C"/>
<path d="M36.4414 84.9551H37.9827V86.5037H36.4414V84.9551Z" fill="#6C6C6C"/>
<path d="M42.6055 84.9551H44.1468V86.5037H42.6055V84.9551Z" fill="#6C6C6C"/>
<path d="M54.9336 84.9551H56.4749V86.5037H54.9336V84.9551Z" fill="#6C6C6C"/>
<path d="M58.0195 84.9551H59.5608V86.5037H58.0195V84.9551Z" fill="#6C6C6C"/>
<path d="M61.1016 84.9551H62.6428V86.5037H61.1016V84.9551Z" fill="#6C6C6C"/>
<path d="M62.6406 84.9551H64.1819V86.5037H62.6406V84.9551Z" fill="#6C6C6C"/>
<path d="M68.8086 84.9551H70.3499V86.5037H68.8086V84.9551Z" fill="#6C6C6C"/>
<path d="M71.8906 84.9551H73.4319V86.5037H71.8906V84.9551Z" fill="#6C6C6C"/>
<path d="M76.5156 84.9551H78.0569V86.5037H76.5156V84.9551Z" fill="#6C6C6C"/>
<path d="M79.5977 84.9551H81.1389V86.5037H79.5977V84.9551Z" fill="#6C6C6C"/>
<path d="M81.1367 84.9551H82.678V86.5037H81.1367V84.9551Z" fill="#6C6C6C"/>
<path d="M87.3008 84.9551H88.8421V86.5037H87.3008V84.9551Z" fill="#6C6C6C"/>
<path d="M90.3867 84.9551H91.928V86.5037H90.3867V84.9551Z" fill="#6C6C6C"/>
<path d="M107.34 84.9551H108.881V86.5037H107.34V84.9551Z" fill="#6C6C6C"/>
<path d="M111.965 84.9551H113.506V86.5037H111.965V84.9551Z" fill="#6C6C6C"/>
<path d="M115.047 84.9551H116.588V86.5037H115.047V84.9551Z" fill="#6C6C6C"/>
<path d="M118.129 84.9551H119.67V86.5037H118.129V84.9551Z" fill="#6C6C6C"/>
<path d="M122.754 84.9551H124.295V86.5037H122.754V84.9551Z" fill="#6C6C6C"/>
<path d="M125.836 84.9551H127.377V86.5037H125.836V84.9551Z" fill="#6C6C6C"/>
<path d="M128.918 84.9551H130.459V86.5037H128.918V84.9551Z" fill="#6C6C6C"/>
<path d="M21.0273 86.5024H22.5686V88.051H21.0273V86.5024Z" fill="#6C6C6C"/>
<path d="M27.1914 86.5024H28.7327V88.051H27.1914V86.5024Z" fill="#6C6C6C"/>
<path d="M31.8164 86.5024H33.3577V88.051H31.8164V86.5024Z" fill="#6C6C6C"/>
<path d="M33.3594 86.5024H34.9007V88.051H33.3594V86.5024Z" fill="#6C6C6C"/>
<path d="M37.9805 86.5024H39.5218V88.051H37.9805V86.5024Z" fill="#6C6C6C"/>
<path d="M45.6875 86.5024H47.2288V88.051H45.6875V86.5024Z" fill="#6C6C6C"/>
<path d="M50.3125 86.5024H51.8538V88.051H50.3125V86.5024Z" fill="#6C6C6C"/>
<path d="M56.4766 86.5024H58.0178V88.051H56.4766V86.5024Z" fill="#6C6C6C"/>
<path d="M64.1836 86.5024H65.7249V88.051H64.1836V86.5024Z" fill="#6C6C6C"/>
<path d="M65.7266 86.5024H67.2678V88.051H65.7266V86.5024Z" fill="#6C6C6C"/>
<path d="M70.3477 86.5024H71.8889V88.051H70.3477V86.5024Z" fill="#6C6C6C"/>
<path d="M76.5156 86.5024H78.0569V88.051H76.5156V86.5024Z" fill="#6C6C6C"/>
<path d="M82.6797 86.5024H84.221V88.051H82.6797V86.5024Z" fill="#6C6C6C"/>
<path d="M84.2188 86.5024H85.76V88.051H84.2188V86.5024Z" fill="#6C6C6C"/>
<path d="M90.3867 86.5024H91.928V88.051H90.3867V86.5024Z" fill="#6C6C6C"/>
<path d="M93.4688 86.5024H95.01V88.051H93.4688V86.5024Z" fill="#6C6C6C"/>
<path d="M96.5508 86.5024H98.0921V88.051H96.5508V86.5024Z" fill="#6C6C6C"/>
<path d="M102.715 86.5024H104.256V88.051H102.715V86.5024Z" fill="#6C6C6C"/>
<path d="M110.422 86.5024H111.963V88.051H110.422V86.5024Z" fill="#6C6C6C"/>
<path d="M116.586 86.5024H118.127V88.051H116.586V86.5024Z" fill="#6C6C6C"/>
<path d="M119.668 86.5024H121.209V88.051H119.668V86.5024Z" fill="#6C6C6C"/>
<path d="M122.754 86.5024H124.295V88.051H122.754V86.5024Z" fill="#6C6C6C"/>
<path d="M125.836 86.5024H127.377V88.051H125.836V86.5024Z" fill="#6C6C6C"/>
<path d="M22.5703 88.0532H24.1116V89.6018H22.5703V88.0532Z" fill="#6C6C6C"/>
<path d="M25.6523 88.0532H27.1936V89.6018H25.6523V88.0532Z" fill="#6C6C6C"/>
<path d="M27.1914 88.0532H28.7327V89.6018H27.1914V88.0532Z" fill="#6C6C6C"/>
<path d="M28.7344 88.0532H30.2757V89.6018H28.7344V88.0532Z" fill="#6C6C6C"/>
<path d="M33.3594 88.0532H34.9007V89.6018H33.3594V88.0532Z" fill="#6C6C6C"/>
<path d="M34.8984 88.0532H36.4397V89.6018H34.8984V88.0532Z" fill="#6C6C6C"/>
<path d="M39.5234 88.0532H41.0647V89.6018H39.5234V88.0532Z" fill="#6C6C6C"/>
<path d="M53.3945 88.0532H54.9358V89.6018H53.3945V88.0532Z" fill="#6C6C6C"/>
<path d="M58.0195 88.0532H59.5608V89.6018H58.0195V88.0532Z" fill="#6C6C6C"/>
<path d="M61.1016 88.0532H62.6428V89.6018H61.1016V88.0532Z" fill="#6C6C6C"/>
<path d="M67.2656 88.0532H68.8069V89.6018H67.2656V88.0532Z" fill="#6C6C6C"/>
<path d="M70.3477 88.0532H71.8889V89.6018H70.3477V88.0532Z" fill="#6C6C6C"/>
<path d="M73.4297 88.0532H74.971V89.6018H73.4297V88.0532Z" fill="#6C6C6C"/>
<path d="M76.5156 88.0532H78.0569V89.6018H76.5156V88.0532Z" fill="#6C6C6C"/>
<path d="M78.0547 88.0532H79.596V89.6018H78.0547V88.0532Z" fill="#6C6C6C"/>
<path d="M81.1367 88.0532H82.678V89.6018H81.1367V88.0532Z" fill="#6C6C6C"/>
<path d="M87.3008 88.0532H88.8421V89.6018H87.3008V88.0532Z" fill="#6C6C6C"/>
<path d="M90.3867 88.0532H91.928V89.6018H90.3867V88.0532Z" fill="#6C6C6C"/>
<path d="M95.0078 88.0532H96.5491V89.6018H95.0078V88.0532Z" fill="#6C6C6C"/>
<path d="M110.422 88.0532H111.963V89.6018H110.422V88.0532Z" fill="#6C6C6C"/>
<path d="M113.504 88.0532H115.045V89.6018H113.504V88.0532Z" fill="#6C6C6C"/>
<path d="M115.047 88.0532H116.588V89.6018H115.047V88.0532Z" fill="#6C6C6C"/>
<path d="M124.293 88.0532H125.834V89.6018H124.293V88.0532Z" fill="#6C6C6C"/>
<path d="M127.375 88.0532H128.916V89.6018H127.375V88.0532Z" fill="#6C6C6C"/>
<path d="M130.457 88.0532H131.998V89.6018H130.457V88.0532Z" fill="#6C6C6C"/>
<path d="M22.5703 89.6001H24.1116V91.1487H22.5703V89.6001Z" fill="#6C6C6C"/>
<path d="M25.6523 89.6001H27.1936V91.1487H25.6523V89.6001Z" fill="#6C6C6C"/>
<path d="M30.2734 89.6001H31.8147V91.1487H30.2734V89.6001Z" fill="#6C6C6C"/>
<path d="M36.4414 89.6001H37.9827V91.1487H36.4414V89.6001Z" fill="#6C6C6C"/>
<path d="M41.0664 89.6001H42.6077V91.1487H41.0664V89.6001Z" fill="#6C6C6C"/>
<path d="M44.1484 89.6001H45.6897V91.1487H44.1484V89.6001Z" fill="#6C6C6C"/>
<path d="M50.3125 89.6001H51.8538V91.1487H50.3125V89.6001Z" fill="#6C6C6C"/>
<path d="M54.9336 89.6001H56.4749V91.1487H54.9336V89.6001Z" fill="#6C6C6C"/>
<path d="M59.5586 89.6001H61.0999V91.1487H59.5586V89.6001Z" fill="#6C6C6C"/>
<path d="M62.6406 89.6001H64.1819V91.1487H62.6406V89.6001Z" fill="#6C6C6C"/>
<path d="M65.7266 89.6001H67.2678V91.1487H65.7266V89.6001Z" fill="#6C6C6C"/>
<path d="M67.2656 89.6001H68.8069V91.1487H67.2656V89.6001Z" fill="#6C6C6C"/>
<path d="M71.8906 89.6001H73.4319V91.1487H71.8906V89.6001Z" fill="#6C6C6C"/>
<path d="M82.6797 89.6001H84.221V91.1487H82.6797V89.6001Z" fill="#6C6C6C"/>
<path d="M88.8438 89.6001H90.385V91.1487H88.8438V89.6001Z" fill="#6C6C6C"/>
<path d="M91.9258 89.6001H93.4671V91.1487H91.9258V89.6001Z" fill="#6C6C6C"/>
<path d="M95.0078 89.6001H96.5491V91.1487H95.0078V89.6001Z" fill="#6C6C6C"/>
<path d="M99.6328 89.6001H101.174V91.1487H99.6328V89.6001Z" fill="#6C6C6C"/>
<path d="M102.715 89.6001H104.256V91.1487H102.715V89.6001Z" fill="#6C6C6C"/>
<path d="M105.797 89.6001H107.338V91.1487H105.797V89.6001Z" fill="#6C6C6C"/>
<path d="M111.965 89.6001H113.506V91.1487H111.965V89.6001Z" fill="#6C6C6C"/>
<path d="M116.586 89.6001H118.127V91.1487H116.586V89.6001Z" fill="#6C6C6C"/>
<path d="M118.129 89.6001H119.67V91.1487H118.129V89.6001Z" fill="#6C6C6C"/>
<path d="M119.668 89.6001H121.209V91.1487H119.668V89.6001Z" fill="#6C6C6C"/>
<path d="M122.754 89.6001H124.295V91.1487H122.754V89.6001Z" fill="#6C6C6C"/>
<path d="M125.836 89.6001H127.377V91.1487H125.836V89.6001Z" fill="#6C6C6C"/>
<path d="M128.918 89.6001H130.459V91.1487H128.918V89.6001Z" fill="#6C6C6C"/>
<path d="M20 91.1509H21.0275V92.6995H20V91.1509Z" fill="#6C6C6C"/>
<path d="M21.0273 91.1509H22.5686V92.6995H21.0273V91.1509Z" fill="#6C6C6C"/>
<path d="M24.1094 91.1509H25.6507V92.6995H24.1094V91.1509Z" fill="#6C6C6C"/>
<path d="M27.1914 91.1509H28.7327V92.6995H27.1914V91.1509Z" fill="#6C6C6C"/>
<path d="M28.7344 91.1509H30.2757V92.6995H28.7344V91.1509Z" fill="#6C6C6C"/>
<path d="M33.3594 91.1509H34.9007V92.6995H33.3594V91.1509Z" fill="#6C6C6C"/>
<path d="M36.4414 91.1509H37.9827V92.6995H36.4414V91.1509Z" fill="#6C6C6C"/>
<path d="M37.9805 91.1509H39.5218V92.6995H37.9805V91.1509Z" fill="#6C6C6C"/>
<path d="M39.5234 91.1509H41.0647V92.6995H39.5234V91.1509Z" fill="#6C6C6C"/>
<path d="M42.6055 91.1509H44.1468V92.6995H42.6055V91.1509Z" fill="#6C6C6C"/>
<path d="M47.2305 91.1509H48.7718V92.6995H47.2305V91.1509Z" fill="#6C6C6C"/>
<path d="M51.8516 91.1509H53.3928V92.6995H51.8516V91.1509Z" fill="#6C6C6C"/>
<path d="M56.4766 91.1509H58.0178V92.6995H56.4766V91.1509Z" fill="#6C6C6C"/>
<path d="M61.1016 91.1509H62.6428V92.6995H61.1016V91.1509Z" fill="#6C6C6C"/>
<path d="M64.1836 91.1509H65.7249V92.6995H64.1836V91.1509Z" fill="#6C6C6C"/>
<path d="M68.8086 91.1509H70.3499V92.6995H68.8086V91.1509Z" fill="#6C6C6C"/>
<path d="M70.3477 91.1509H71.8889V92.6995H70.3477V91.1509Z" fill="#6C6C6C"/>
<path d="M73.4297 91.1509H74.971V92.6995H73.4297V91.1509Z" fill="#6C6C6C"/>
<path d="M74.9727 91.1509H76.5139V92.6995H74.9727V91.1509Z" fill="#6C6C6C"/>
<path d="M78.0547 91.1509H79.596V92.6995H78.0547V91.1509Z" fill="#6C6C6C"/>
<path d="M82.6797 91.1509H84.221V92.6995H82.6797V91.1509Z" fill="#6C6C6C"/>
<path d="M85.7617 91.1509H87.303V92.6995H85.7617V91.1509Z" fill="#6C6C6C"/>
<path d="M90.3867 91.1509H91.928V92.6995H90.3867V91.1509Z" fill="#6C6C6C"/>
<path d="M95.0078 91.1509H96.5491V92.6995H95.0078V91.1509Z" fill="#6C6C6C"/>
<path d="M98.0938 91.1509H99.635V92.6995H98.0938V91.1509Z" fill="#6C6C6C"/>
<path d="M105.797 91.1509H107.338V92.6995H105.797V91.1509Z" fill="#6C6C6C"/>
<path d="M108.879 91.1509H110.42V92.6995H108.879V91.1509Z" fill="#6C6C6C"/>
<path d="M110.422 91.1509H111.963V92.6995H110.422V91.1509Z" fill="#6C6C6C"/>
<path d="M115.047 91.1509H116.588V92.6995H115.047V91.1509Z" fill="#6C6C6C"/>
<path d="M119.668 91.1509H121.209V92.6995H119.668V91.1509Z" fill="#6C6C6C"/>
<path d="M124.293 91.1509H125.834V92.6995H124.293V91.1509Z" fill="#6C6C6C"/>
<path d="M127.375 91.1509H128.916V92.6995H127.375V91.1509Z" fill="#6C6C6C"/>
<path d="M22.5703 92.6982H24.1116V94.2468H22.5703V92.6982Z" fill="#6C6C6C"/>
<path d="M27.1914 92.6982H28.7327V94.2468H27.1914V92.6982Z" fill="#6C6C6C"/>
<path d="M30.2734 92.6982H31.8147V94.2468H30.2734V92.6982Z" fill="#6C6C6C"/>
<path d="M33.3594 92.6982H34.9007V94.2468H33.3594V92.6982Z" fill="#6C6C6C"/>
<path d="M36.4414 92.6982H37.9827V94.2468H36.4414V92.6982Z" fill="#6C6C6C"/>
<path d="M41.0664 92.6982H42.6077V94.2468H41.0664V92.6982Z" fill="#6C6C6C"/>
<path d="M48.7695 92.6982H50.3108V94.2468H48.7695V92.6982Z" fill="#6C6C6C"/>
<path d="M51.8516 92.6982H53.3928V94.2468H51.8516V92.6982Z" fill="#6C6C6C"/>
<path d="M53.3945 92.6982H54.9358V94.2468H53.3945V92.6982Z" fill="#6C6C6C"/>
<path d="M58.0195 92.6982H59.5608V94.2468H58.0195V92.6982Z" fill="#6C6C6C"/>
<path d="M62.6406 92.6982H64.1819V94.2468H62.6406V92.6982Z" fill="#6C6C6C"/>
<path d="M65.7266 92.6982H67.2678V94.2468H65.7266V92.6982Z" fill="#6C6C6C"/>
<path d="M70.3477 92.6982H71.8889V94.2468H70.3477V92.6982Z" fill="#6C6C6C"/>
<path d="M76.5156 92.6982H78.0569V94.2468H76.5156V92.6982Z" fill="#6C6C6C"/>
<path d="M82.6797 92.6982H84.221V94.2468H82.6797V92.6982Z" fill="#6C6C6C"/>
<path d="M85.7617 92.6982H87.303V94.2468H85.7617V92.6982Z" fill="#6C6C6C"/>
<path d="M88.8438 92.6982H90.385V94.2468H88.8438V92.6982Z" fill="#6C6C6C"/>
<path d="M91.9258 92.6982H93.4671V94.2468H91.9258V92.6982Z" fill="#6C6C6C"/>
<path d="M95.0078 92.6982H96.5491V94.2468H95.0078V92.6982Z" fill="#6C6C6C"/>
<path d="M101.176 92.6982H102.717V94.2468H101.176V92.6982Z" fill="#6C6C6C"/>
<path d="M102.715 92.6982H104.256V94.2468H102.715V92.6982Z" fill="#6C6C6C"/>
<path d="M110.422 92.6982H111.963V94.2468H110.422V92.6982Z" fill="#6C6C6C"/>
<path d="M113.504 92.6982H115.045V94.2468H113.504V92.6982Z" fill="#6C6C6C"/>
<path d="M116.586 92.6982H118.127V94.2468H116.586V92.6982Z" fill="#6C6C6C"/>
<path d="M121.211 92.6982H122.752V94.2468H121.211V92.6982Z" fill="#6C6C6C"/>
<path d="M124.293 92.6982H125.834V94.2468H124.293V92.6982Z" fill="#6C6C6C"/>
<path d="M128.918 92.6982H130.459V94.2468H128.918V92.6982Z" fill="#6C6C6C"/>
<path d="M24.1094 94.2451H25.6507V95.7937H24.1094V94.2451Z" fill="#6C6C6C"/>
<path d="M27.1914 94.2451H28.7327V95.7937H27.1914V94.2451Z" fill="#6C6C6C"/>
<path d="M30.2734 94.2451H31.8147V95.7937H30.2734V94.2451Z" fill="#6C6C6C"/>
<path d="M33.3594 94.2451H34.9007V95.7937H33.3594V94.2451Z" fill="#6C6C6C"/>
<path d="M37.9805 94.2451H39.5218V95.7937H37.9805V94.2451Z" fill="#6C6C6C"/>
<path d="M41.0664 94.2451H42.6077V95.7937H41.0664V94.2451Z" fill="#6C6C6C"/>
<path d="M44.1484 94.2451H45.6897V95.7937H44.1484V94.2451Z" fill="#6C6C6C"/>
<path d="M47.2305 94.2451H48.7718V95.7937H47.2305V94.2451Z" fill="#6C6C6C"/>
<path d="M50.3125 94.2451H51.8538V95.7937H50.3125V94.2451Z" fill="#6C6C6C"/>
<path d="M54.9336 94.2451H56.4749V95.7937H54.9336V94.2451Z" fill="#6C6C6C"/>
<path d="M59.5586 94.2451H61.0999V95.7937H59.5586V94.2451Z" fill="#6C6C6C"/>
<path d="M64.1836 94.2451H65.7249V95.7937H64.1836V94.2451Z" fill="#6C6C6C"/>
<path d="M67.2656 94.2451H68.8069V95.7937H67.2656V94.2451Z" fill="#6C6C6C"/>
<path d="M71.8906 94.2451H73.4319V95.7937H71.8906V94.2451Z" fill="#6C6C6C"/>
<path d="M74.9727 94.2451H76.5139V95.7937H74.9727V94.2451Z" fill="#6C6C6C"/>
<path d="M81.1367 94.2451H82.678V95.7937H81.1367V94.2451Z" fill="#6C6C6C"/>
<path d="M82.6797 94.2451H84.221V95.7937H82.6797V94.2451Z" fill="#6C6C6C"/>
<path d="M87.3008 94.2451H88.8421V95.7937H87.3008V94.2451Z" fill="#6C6C6C"/>
<path d="M90.3867 94.2451H91.928V95.7937H90.3867V94.2451Z" fill="#6C6C6C"/>
<path d="M93.4688 94.2451H95.01V95.7937H93.4688V94.2451Z" fill="#6C6C6C"/>
<path d="M96.5508 94.2451H98.0921V95.7937H96.5508V94.2451Z" fill="#6C6C6C"/>
<path d="M98.0938 94.2451H99.635V95.7937H98.0938V94.2451Z" fill="#6C6C6C"/>
<path d="M101.176 94.2451H102.717V95.7937H101.176V94.2451Z" fill="#6C6C6C"/>
<path d="M104.258 94.2451H105.799V95.7937H104.258V94.2451Z" fill="#6C6C6C"/>
<path d="M105.797 94.2451H107.338V95.7937H105.797V94.2451Z" fill="#6C6C6C"/>
<path d="M108.879 94.2451H110.42V95.7937H108.879V94.2451Z" fill="#6C6C6C"/>
<path d="M111.965 94.2451H113.506V95.7937H111.965V94.2451Z" fill="#6C6C6C"/>
<path d="M115.047 94.2451H116.588V95.7937H115.047V94.2451Z" fill="#6C6C6C"/>
<path d="M121.211 94.2451H122.752V95.7937H121.211V94.2451Z" fill="#6C6C6C"/>
<path d="M124.293 94.2451H125.834V95.7937H124.293V94.2451Z" fill="#6C6C6C"/>
<path d="M127.375 94.2451H128.916V95.7937H127.375V94.2451Z" fill="#6C6C6C"/>
<path d="M22.5703 95.7959H24.1116V97.3445H22.5703V95.7959Z" fill="#6C6C6C"/>
<path d="M25.6523 95.7959H27.1936V97.3445H25.6523V95.7959Z" fill="#6C6C6C"/>
<path d="M30.2734 95.7959H31.8147V97.3445H30.2734V95.7959Z" fill="#6C6C6C"/>
<path d="M33.3594 95.7959H34.9007V97.3445H33.3594V95.7959Z" fill="#6C6C6C"/>
<path d="M36.4414 95.7959H37.9827V97.3445H36.4414V95.7959Z" fill="#6C6C6C"/>
<path d="M41.0664 95.7959H42.6077V97.3445H41.0664V95.7959Z" fill="#6C6C6C"/>
<path d="M45.6875 95.7959H47.2288V97.3445H45.6875V95.7959Z" fill="#6C6C6C"/>
<path d="M50.3125 95.7959H51.8538V97.3445H50.3125V95.7959Z" fill="#6C6C6C"/>
<path d="M53.3945 95.7959H54.9358V97.3445H53.3945V95.7959Z" fill="#6C6C6C"/>
<path d="M54.9336 95.7959H56.4749V97.3445H54.9336V95.7959Z" fill="#6C6C6C"/>
<path d="M59.5586 95.7959H61.0999V97.3445H59.5586V95.7959Z" fill="#6C6C6C"/>
<path d="M62.6406 95.7959H64.1819V97.3445H62.6406V95.7959Z" fill="#6C6C6C"/>
<path d="M65.7266 95.7959H67.2678V97.3445H65.7266V95.7959Z" fill="#6C6C6C"/>
<path d="M68.8086 95.7959H70.3499V97.3445H68.8086V95.7959Z" fill="#6C6C6C"/>
<path d="M70.3477 95.7959H71.8889V97.3445H70.3477V95.7959Z" fill="#6C6C6C"/>
<path d="M79.5977 95.7959H81.1389V97.3445H79.5977V95.7959Z" fill="#6C6C6C"/>
<path d="M84.2188 95.7959H85.76V97.3445H84.2188V95.7959Z" fill="#6C6C6C"/>
<path d="M91.9258 95.7959H93.4671V97.3445H91.9258V95.7959Z" fill="#6C6C6C"/>
<path d="M98.0938 95.7959H99.635V97.3445H98.0938V95.7959Z" fill="#6C6C6C"/>
<path d="M102.715 95.7959H104.256V97.3445H102.715V95.7959Z" fill="#6C6C6C"/>
<path d="M107.34 95.7959H108.881V97.3445H107.34V95.7959Z" fill="#6C6C6C"/>
<path d="M111.965 95.7959H113.506V97.3445H111.965V95.7959Z" fill="#6C6C6C"/>
<path d="M118.129 95.7959H119.67V97.3445H118.129V95.7959Z" fill="#6C6C6C"/>
<path d="M121.211 95.7959H122.752V97.3445H121.211V95.7959Z" fill="#6C6C6C"/>
<path d="M125.836 95.7959H127.377V97.3445H125.836V95.7959Z" fill="#6C6C6C"/>
<path d="M25.6523 97.3433H27.1936V98.8919H25.6523V97.3433Z" fill="#6C6C6C"/>
<path d="M30.2734 97.3433H31.8147V98.8919H30.2734V97.3433Z" fill="#6C6C6C"/>
<path d="M33.3594 97.3433H34.9007V98.8919H33.3594V97.3433Z" fill="#6C6C6C"/>
<path d="M37.9805 97.3433H39.5218V98.8919H37.9805V97.3433Z" fill="#6C6C6C"/>
<path d="M42.6055 97.3433H44.1468V98.8919H42.6055V97.3433Z" fill="#6C6C6C"/>
<path d="M45.6875 97.3433H47.2288V98.8919H45.6875V97.3433Z" fill="#6C6C6C"/>
<path d="M48.7695 97.3433H50.3108V98.8919H48.7695V97.3433Z" fill="#6C6C6C"/>
<path d="M51.8516 97.3433H53.3928V98.8919H51.8516V97.3433Z" fill="#6C6C6C"/>
<path d="M54.9336 97.3433H56.4749V98.8919H54.9336V97.3433Z" fill="#6C6C6C"/>
<path d="M56.4766 97.3433H58.0178V98.8919H56.4766V97.3433Z" fill="#6C6C6C"/>
<path d="M59.5586 97.3433H61.0999V98.8919H59.5586V97.3433Z" fill="#6C6C6C"/>
<path d="M65.7266 97.3433H67.2678V98.8919H65.7266V97.3433Z" fill="#6C6C6C"/>
<path d="M68.8086 97.3433H70.3499V98.8919H68.8086V97.3433Z" fill="#6C6C6C"/>
<path d="M73.4297 97.3433H74.971V98.8919H73.4297V97.3433Z" fill="#6C6C6C"/>
<path d="M82.6797 97.3433H84.221V98.8919H82.6797V97.3433Z" fill="#6C6C6C"/>
<path d="M85.7617 97.3433H87.303V98.8919H85.7617V97.3433Z" fill="#6C6C6C"/>
<path d="M88.8438 97.3433H90.385V98.8919H88.8438V97.3433Z" fill="#6C6C6C"/>
<path d="M93.4688 97.3433H95.01V98.8919H93.4688V97.3433Z" fill="#6C6C6C"/>
<path d="M95.0078 97.3433H96.5491V98.8919H95.0078V97.3433Z" fill="#6C6C6C"/>
<path d="M99.6328 97.3433H101.174V98.8919H99.6328V97.3433Z" fill="#6C6C6C"/>
<path d="M105.797 97.3433H107.338V98.8919H105.797V97.3433Z" fill="#6C6C6C"/>
<path d="M108.879 97.3433H110.42V98.8919H108.879V97.3433Z" fill="#6C6C6C"/>
<path d="M111.965 97.3433H113.506V98.8919H111.965V97.3433Z" fill="#6C6C6C"/>
<path d="M115.047 97.3433H116.588V98.8919H115.047V97.3433Z" fill="#6C6C6C"/>
<path d="M119.668 97.3433H121.209V98.8919H119.668V97.3433Z" fill="#6C6C6C"/>
<path d="M122.754 97.3433H124.295V98.8919H122.754V97.3433Z" fill="#6C6C6C"/>
<path d="M127.375 97.3433H128.916V98.8919H127.375V97.3433Z" fill="#6C6C6C"/>
<path d="M22.5703 98.8936H24.1116V100.442H22.5703V98.8936Z" fill="#6C6C6C"/>
<path d="M27.1914 98.8936H28.7327V100.442H27.1914V98.8936Z" fill="#6C6C6C"/>
<path d="M30.2734 98.8936H31.8147V100.442H30.2734V98.8936Z" fill="#6C6C6C"/>
<path d="M34.8984 98.8936H36.4397V100.442H34.8984V98.8936Z" fill="#6C6C6C"/>
<path d="M37.9805 98.8936H39.5218V100.442H37.9805V98.8936Z" fill="#6C6C6C"/>
<path d="M41.0664 98.8936H42.6077V100.442H41.0664V98.8936Z" fill="#6C6C6C"/>
<path d="M42.6055 98.8936H44.1468V100.442H42.6055V98.8936Z" fill="#6C6C6C"/>
<path d="M47.2305 98.8936H48.7718V100.442H47.2305V98.8936Z" fill="#6C6C6C"/>
<path d="M50.3125 98.8936H51.8538V100.442H50.3125V98.8936Z" fill="#6C6C6C"/>
<path d="M53.3945 98.8936H54.9358V100.442H53.3945V98.8936Z" fill="#6C6C6C"/>
<path d="M58.0195 98.8936H59.5608V100.442H58.0195V98.8936Z" fill="#6C6C6C"/>
<path d="M61.1016 98.8936H62.6428V100.442H61.1016V98.8936Z" fill="#6C6C6C"/>
<path d="M64.1836 98.8936H65.7249V100.442H64.1836V98.8936Z" fill="#6C6C6C"/>
<path d="M68.8086 98.8936H70.3499V100.442H68.8086V98.8936Z" fill="#6C6C6C"/>
<path d="M71.8906 98.8936H73.4319V100.442H71.8906V98.8936Z" fill="#6C6C6C"/>
<path d="M76.5156 98.8936H78.0569V100.442H76.5156V98.8936Z" fill="#6C6C6C"/>
<path d="M81.1367 98.8936H82.678V100.442H81.1367V98.8936Z" fill="#6C6C6C"/>
<path d="M87.3008 98.8936H88.8421V100.442H87.3008V98.8936Z" fill="#6C6C6C"/>
<path d="M88.8438 98.8936H90.385V100.442H88.8438V98.8936Z" fill="#6C6C6C"/>
<path d="M91.9258 98.8936H93.4671V100.442H91.9258V98.8936Z" fill="#6C6C6C"/>
<path d="M95.0078 98.8936H96.5491V100.442H95.0078V98.8936Z" fill="#6C6C6C"/>
<path d="M98.0938 98.8936H99.635V100.442H98.0938V98.8936Z" fill="#6C6C6C"/>
<path d="M101.176 98.8936H102.717V100.442H101.176V98.8936Z" fill="#6C6C6C"/>
<path d="M102.715 98.8936H104.256V100.442H102.715V98.8936Z" fill="#6C6C6C"/>
<path d="M104.258 98.8936H105.799V100.442H104.258V98.8936Z" fill="#6C6C6C"/>
<path d="M108.879 98.8936H110.42V100.442H108.879V98.8936Z" fill="#6C6C6C"/>
<path d="M115.047 98.8936H116.588V100.442H115.047V98.8936Z" fill="#6C6C6C"/>
<path d="M116.586 98.8936H118.127V100.442H116.586V98.8936Z" fill="#6C6C6C"/>
<path d="M119.668 98.8936H121.209V100.442H119.668V98.8936Z" fill="#6C6C6C"/>
<path d="M121.211 98.8936H122.752V100.442H121.211V98.8936Z" fill="#6C6C6C"/>
<path d="M124.293 98.8936H125.834V100.442H124.293V98.8936Z" fill="#6C6C6C"/>
<path d="M130.457 98.8936H131.998V100.442H130.457V98.8936Z" fill="#6C6C6C"/>
<path d="M25.6523 100.441H27.1936V101.99H25.6523V100.441Z" fill="#6C6C6C"/>
<path d="M28.7344 100.441H30.2757V101.99H28.7344V100.441Z" fill="#6C6C6C"/>
<path d="M30.2734 100.441H31.8147V101.99H30.2734V100.441Z" fill="#6C6C6C"/>
<path d="M33.3594 100.441H34.9007V101.99H33.3594V100.441Z" fill="#6C6C6C"/>
<path d="M36.4414 100.441H37.9827V101.99H36.4414V100.441Z" fill="#6C6C6C"/>
<path d="M39.5234 100.441H41.0647V101.99H39.5234V100.441Z" fill="#6C6C6C"/>
<path d="M42.6055 100.441H44.1468V101.99H42.6055V100.441Z" fill="#6C6C6C"/>
<path d="M45.6875 100.441H47.2288V101.99H45.6875V100.441Z" fill="#6C6C6C"/>
<path d="M48.7695 100.441H50.3108V101.99H48.7695V100.441Z" fill="#6C6C6C"/>
<path d="M54.9336 100.441H56.4749V101.99H54.9336V100.441Z" fill="#6C6C6C"/>
<path d="M56.4766 100.441H58.0178V101.99H56.4766V100.441Z" fill="#6C6C6C"/>
<path d="M59.5586 100.441H61.0999V101.99H59.5586V100.441Z" fill="#6C6C6C"/>
<path d="M62.6406 100.441H64.1819V101.99H62.6406V100.441Z" fill="#6C6C6C"/>
<path d="M65.7266 100.441H67.2678V101.99H65.7266V100.441Z" fill="#6C6C6C"/>
<path d="M67.2656 100.441H68.8069V101.99H67.2656V100.441Z" fill="#6C6C6C"/>
<path d="M79.5977 100.441H81.1389V101.99H79.5977V100.441Z" fill="#6C6C6C"/>
<path d="M84.2188 100.441H85.76V101.99H84.2188V100.441Z" fill="#6C6C6C"/>
<path d="M85.7617 100.441H87.303V101.99H85.7617V100.441Z" fill="#6C6C6C"/>
<path d="M90.3867 100.441H91.928V101.99H90.3867V100.441Z" fill="#6C6C6C"/>
<path d="M91.9258 100.441H93.4671V101.99H91.9258V100.441Z" fill="#6C6C6C"/>
<path d="M95.0078 100.441H96.5491V101.99H95.0078V100.441Z" fill="#6C6C6C"/>
<path d="M99.6328 100.441H101.174V101.99H99.6328V100.441Z" fill="#6C6C6C"/>
<path d="M105.797 100.441H107.338V101.99H105.797V100.441Z" fill="#6C6C6C"/>
<path d="M107.34 100.441H108.881V101.99H107.34V100.441Z" fill="#6C6C6C"/>
<path d="M110.422 100.441H111.963V101.99H110.422V100.441Z" fill="#6C6C6C"/>
<path d="M111.965 100.441H113.506V101.99H111.965V100.441Z" fill="#6C6C6C"/>
<path d="M113.504 100.441H115.045V101.99H113.504V100.441Z" fill="#6C6C6C"/>
<path d="M118.129 100.441H119.67V101.99H118.129V100.441Z" fill="#6C6C6C"/>
<path d="M122.754 100.441H124.295V101.99H122.754V100.441Z" fill="#6C6C6C"/>
<path d="M127.375 100.441H128.916V101.99H127.375V100.441Z" fill="#6C6C6C"/>
<path d="M22.5703 101.992H24.1116V103.54H22.5703V101.992Z" fill="#6C6C6C"/>
<path d="M28.7344 101.992H30.2757V103.54H28.7344V101.992Z" fill="#6C6C6C"/>
<path d="M31.8164 101.992H33.3577V103.54H31.8164V101.992Z" fill="#6C6C6C"/>
<path d="M33.3594 101.992H34.9007V103.54H33.3594V101.992Z" fill="#6C6C6C"/>
<path d="M34.8984 101.992H36.4397V103.54H34.8984V101.992Z" fill="#6C6C6C"/>
<path d="M39.5234 101.992H41.0647V103.54H39.5234V101.992Z" fill="#6C6C6C"/>
<path d="M42.6055 101.992H44.1468V103.54H42.6055V101.992Z" fill="#6C6C6C"/>
<path d="M45.6875 101.992H47.2288V103.54H45.6875V101.992Z" fill="#6C6C6C"/>
<path d="M51.8516 101.992H53.3928V103.54H51.8516V101.992Z" fill="#6C6C6C"/>
<path d="M56.4766 101.992H58.0178V103.54H56.4766V101.992Z" fill="#6C6C6C"/>
<path d="M59.5586 101.992H61.0999V103.54H59.5586V101.992Z" fill="#6C6C6C"/>
<path d="M61.1016 101.992H62.6428V103.54H61.1016V101.992Z" fill="#6C6C6C"/>
<path d="M64.1836 101.992H65.7249V103.54H64.1836V101.992Z" fill="#6C6C6C"/>
<path d="M82.6797 101.992H84.221V103.54H82.6797V101.992Z" fill="#6C6C6C"/>
<path d="M88.8438 101.992H90.385V103.54H88.8438V101.992Z" fill="#6C6C6C"/>
<path d="M93.4688 101.992H95.01V103.54H93.4688V101.992Z" fill="#6C6C6C"/>
<path d="M96.5508 101.992H98.0921V103.54H96.5508V101.992Z" fill="#6C6C6C"/>
<path d="M101.176 101.992H102.717V103.54H101.176V101.992Z" fill="#6C6C6C"/>
<path d="M102.715 101.992H104.256V103.54H102.715V101.992Z" fill="#6C6C6C"/>
<path d="M104.258 101.992H105.799V103.54H104.258V101.992Z" fill="#6C6C6C"/>
<path d="M116.586 101.992H118.127V103.54H116.586V101.992Z" fill="#6C6C6C"/>
<path d="M119.668 101.992H121.209V103.54H119.668V101.992Z" fill="#6C6C6C"/>
<path d="M27.1914 103.539H28.7327V105.087H27.1914V103.539Z" fill="#6C6C6C"/>
<path d="M30.2734 103.539H31.8147V105.087H30.2734V103.539Z" fill="#6C6C6C"/>
<path d="M37.9805 103.539H39.5218V105.087H37.9805V103.539Z" fill="#6C6C6C"/>
<path d="M41.0664 103.539H42.6077V105.087H41.0664V103.539Z" fill="#6C6C6C"/>
<path d="M47.2305 103.539H48.7718V105.087H47.2305V103.539Z" fill="#6C6C6C"/>
<path d="M48.7695 103.539H50.3108V105.087H48.7695V103.539Z" fill="#6C6C6C"/>
<path d="M51.8516 103.539H53.3928V105.087H51.8516V103.539Z" fill="#6C6C6C"/>
<path d="M53.3945 103.539H54.9358V105.087H53.3945V103.539Z" fill="#6C6C6C"/>
<path d="M56.4766 103.539H58.0178V105.087H56.4766V103.539Z" fill="#6C6C6C"/>
<path d="M59.5586 103.539H61.0999V105.087H59.5586V103.539Z" fill="#6C6C6C"/>
<path d="M64.1836 103.539H65.7249V105.087H64.1836V103.539Z" fill="#6C6C6C"/>
<path d="M73.4297 103.539H74.971V105.087H73.4297V103.539Z" fill="#6C6C6C"/>
<path d="M69 103H70.5413V104.549H69V103Z" fill="#6C6C6C"/>
<path d="M69 106H70.5413V107.549H69V106Z" fill="#6C6C6C"/>
<path d="M78 104H79.5413V105.549H78V104Z" fill="#6C6C6C"/>
<path d="M85.7617 103.539H87.303V105.087H85.7617V103.539Z" fill="#6C6C6C"/>
<path d="M90.3867 103.539H91.928V105.087H90.3867V103.539Z" fill="#6C6C6C"/>
<path d="M95.0078 103.539H96.5491V105.087H95.0078V103.539Z" fill="#6C6C6C"/>
<path d="M98.0938 103.539H99.635V105.087H98.0938V103.539Z" fill="#6C6C6C"/>
<path d="M105.797 103.539H107.338V105.087H105.797V103.539Z" fill="#6C6C6C"/>
<path d="M107.34 103.539H108.881V105.087H107.34V103.539Z" fill="#6C6C6C"/>
<path d="M110.422 103.539H111.963V105.087H110.422V103.539Z" fill="#6C6C6C"/>
<path d="M111.965 103.539H113.506V105.087H111.965V103.539Z" fill="#6C6C6C"/>
<path d="M115.047 103.539H116.588V105.087H115.047V103.539Z" fill="#6C6C6C"/>
<path d="M121.211 103.539H122.752V105.087H121.211V103.539Z" fill="#6C6C6C"/>
<path d="M33.3594 105.086H34.9007V106.635H33.3594V105.086Z" fill="#6C6C6C"/>
<path d="M34.8984 105.086H36.4397V106.635H34.8984V105.086Z" fill="#6C6C6C"/>
<path d="M36.4414 105.086H37.9827V106.635H36.4414V105.086Z" fill="#6C6C6C"/>
<path d="M41.0664 105.086H42.6077V106.635H41.0664V105.086Z" fill="#6C6C6C"/>
<path d="M44.1484 105.086H45.6897V106.635H44.1484V105.086Z" fill="#6C6C6C"/>
<path d="M48.7695 105.086H50.3108V106.635H48.7695V105.086Z" fill="#6C6C6C"/>
<path d="M54.9336 105.086H56.4749V106.635H54.9336V105.086Z" fill="#6C6C6C"/>
<path d="M59.5586 105.086H61.0999V106.635H59.5586V105.086Z" fill="#6C6C6C"/>
<path d="M62.6406 105.086H64.1819V106.635H62.6406V105.086Z" fill="#6C6C6C"/>
<path d="M82.6797 105.086H84.221V106.635H82.6797V105.086Z" fill="#6C6C6C"/>
<path d="M88.8438 105.086H90.385V106.635H88.8438V105.086Z" fill="#6C6C6C"/>
<path d="M95.0078 105.086H96.5491V106.635H95.0078V105.086Z" fill="#6C6C6C"/>
<path d="M98.0938 105.086H99.635V106.635H98.0938V105.086Z" fill="#6C6C6C"/>
<path d="M99.6328 105.086H101.174V106.635H99.6328V105.086Z" fill="#6C6C6C"/>
<path d="M102.715 105.086H104.256V106.635H102.715V105.086Z" fill="#6C6C6C"/>
<path d="M108.879 105.086H110.42V106.635H108.879V105.086Z" fill="#6C6C6C"/>
<path d="M113.504 105.086H115.045V106.635H113.504V105.086Z" fill="#6C6C6C"/>
<path d="M116.586 105.086H118.127V106.635H116.586V105.086Z" fill="#6C6C6C"/>
<path d="M28.7344 106.636H30.2757V108.185H28.7344V106.636Z" fill="#6C6C6C"/>
<path d="M37.9805 106.636H39.5218V108.185H37.9805V106.636Z" fill="#6C6C6C"/>
<path d="M41.0664 106.636H42.6077V108.185H41.0664V106.636Z" fill="#6C6C6C"/>
<path d="M45.6875 106.636H47.2288V108.185H45.6875V106.636Z" fill="#6C6C6C"/>
<path d="M50.3125 106.636H51.8538V108.185H50.3125V106.636Z" fill="#6C6C6C"/>
<path d="M53.3945 106.636H54.9358V108.185H53.3945V106.636Z" fill="#6C6C6C"/>
<path d="M56.4766 106.636H58.0178V108.185H56.4766V106.636Z" fill="#6C6C6C"/>
<path d="M91.9258 106.636H93.4671V108.185H91.9258V106.636Z" fill="#6C6C6C"/>
<path d="M95.0078 106.636H96.5491V108.185H95.0078V106.636Z" fill="#6C6C6C"/>
<path d="M101.176 106.636H102.717V108.185H101.176V106.636Z" fill="#6C6C6C"/>
<path d="M104.258 106.636H105.799V108.185H104.258V106.636Z" fill="#6C6C6C"/>
<path d="M105.797 106.636H107.338V108.185H105.797V106.636Z" fill="#6C6C6C"/>
<path d="M108.879 106.636H110.42V108.185H108.879V106.636Z" fill="#6C6C6C"/>
<path d="M111.965 106.636H113.506V108.185H111.965V106.636Z" fill="#6C6C6C"/>
<path d="M116.586 106.636H118.127V108.185H116.586V106.636Z" fill="#6C6C6C"/>
<path d="M121.211 106.636H122.752V108.185H121.211V106.636Z" fill="#6C6C6C"/>
<path d="M39.5234 108.184H41.0647V109.732H39.5234V108.184Z" fill="#6C6C6C"/>
<path d="M44.1484 108.184H45.6897V109.732H44.1484V108.184Z" fill="#6C6C6C"/>
<path d="M47.2305 108.184H48.7718V109.732H47.2305V108.184Z" fill="#6C6C6C"/>
<path d="M50.3125 108.184H51.8538V109.732H50.3125V108.184Z" fill="#6C6C6C"/>
<path d="M58.0195 108.184H59.5608V109.732H58.0195V108.184Z" fill="#6C6C6C"/>
<path d="M64.1836 108.184H65.7249V109.732H64.1836V108.184Z" fill="#6C6C6C"/>
<path d="M98.0938 108.184H99.635V109.732H98.0938V108.184Z" fill="#6C6C6C"/>
<path d="M101.176 108.184H102.717V109.732H101.176V108.184Z" fill="#6C6C6C"/>
<path d="M108.879 108.184H110.42V109.732H108.879V108.184Z" fill="#6C6C6C"/>
<path d="M33 110H34.5413V111.549H33V110Z" fill="#6C6C6C"/>
<path d="M31 52H32.5413V53.5486H31V52Z" fill="#6C6C6C"/>
<path d="M54.9336 109.734H56.4749V111.283H54.9336V109.734Z" fill="#6C6C6C"/>
<path d="M88.8438 109.734H90.385V111.283H88.8438V109.734Z" fill="#6C6C6C"/>
<path d="M95.0078 109.734H96.5491V111.283H95.0078V109.734Z" fill="#6C6C6C"/>
<path d="M102.715 109.734H104.256V111.283H102.715V109.734Z" fill="#6C6C6C"/>
<path d="M105.797 109.734H107.338V111.283H105.797V109.734Z" fill="#6C6C6C"/>
<path d="M113.504 109.734H115.045V111.283H113.504V109.734Z" fill="#6C6C6C"/>
<path d="M40.707 111.547H42.2483V113.095H40.707V111.547Z" fill="#6C6C6C"/>
<path d="M50.3125 112.829H51.8538V114.377H50.3125V112.829Z" fill="#6C6C6C"/>
<path d="M98.0938 112.829H99.635V114.377H98.0938V112.829Z" fill="#6C6C6C"/>
<path d="M25 55H26.5413V56.5486H25V55Z" fill="#6C6C6C"/>
<path d="M20 96H21.5413V97.5486H20V96Z" fill="#6C6C6C"/>
<path d="M43 49H44.5413V50.5486H43V49Z" fill="#6C6C6C"/>
<path d="M53 49H54.5413V50.5486H53V49Z" fill="#6C6C6C"/>
<path d="M87 51H88.5413V52.5486H87V51Z" fill="#6C6C6C"/>
<path d="M83 55H84.5413V56.5486H83V55Z" fill="#6C6C6C"/>
<path d="M74 58H75.5413V59.5486H74V58Z" fill="#6C6C6C"/>
<path d="M64 53H65.5413V54.5486H64V53Z" fill="#6C6C6C"/>
<path d="M94 50H95.5413V51.5486H94V50Z" fill="#6C6C6C"/>
<path d="M130 96H131.541V97.5486H130V96Z" fill="#6C6C6C"/>
<path d="M35 50H36.5413V51.5486H35V50Z" fill="#6C6C6C"/>
</svg>
