<svg width="152" height="129" viewBox="0 0 152 129" fill="none" xmlns="http://www.w3.org/2000/svg">
<path d="M0 0H46.5137L62.1393 12.7186H151.169V128.639H0V0Z" fill="#BABABA"/>
<rect y="22.5303" width="151.169" height="106.109" fill="#D7E8F6"/>
<path d="M61.3477 37.2148H63.0714V38.9386H61.3477V37.2148Z" fill="#757575"/>
<path d="M88.3516 37.2148H90.0753V38.9386H88.3516V37.2148Z" fill="#757575"/>
<path d="M33.7656 38.9375H35.4894V40.6613H33.7656V38.9375Z" fill="#757575"/>
<path d="M35.4922 38.9375H37.2159V40.6613H35.4922V38.9375Z" fill="#757575"/>
<path d="M38.9375 38.9375H40.6613V40.6613H38.9375V38.9375Z" fill="#757575"/>
<path d="M40.6641 38.9375H42.3878V40.6613H40.6641V38.9375Z" fill="#757575"/>
<path d="M44.1094 38.9375H45.8331V40.6613H44.1094V38.9375Z" fill="#757575"/>
<path d="M47.5586 38.9375H49.2824V40.6613H47.5586V38.9375Z" fill="#757575"/>
<path d="M51.0078 38.9375H52.7316V40.6613H51.0078V38.9375Z" fill="#757575"/>
<path d="M52.7305 38.9375H54.4542V40.6613H52.7305V38.9375Z" fill="#757575"/>
<path d="M56.1758 38.9375H57.8995V40.6613H56.1758V38.9375Z" fill="#757575"/>
<path d="M57.8984 38.9375H59.6222V40.6613H57.8984V38.9375Z" fill="#757575"/>
<path d="M64.7969 38.9375H66.5206V40.6613H64.7969V38.9375Z" fill="#757575"/>
<path d="M66.5195 38.9375H68.2433V40.6613H66.5195V38.9375Z" fill="#757575"/>
<path d="M69.9688 38.9375H71.6925V40.6613H69.9688V38.9375Z" fill="#757575"/>
<path d="M71.6914 38.9375H73.4152V40.6613H71.6914V38.9375Z" fill="#757575"/>
<path d="M75.1367 38.9375H76.2859V40.6613H75.1367V38.9375Z" fill="#757575"/>
<path d="M78.0117 38.9375H79.7355V40.6613H78.0117V38.9375Z" fill="#757575"/>
<path d="M81.4609 38.9375H83.1847V40.6613H81.4609V38.9375Z" fill="#757575"/>
<path d="M84.9062 38.9375H86.63V40.6613H84.9062V38.9375Z" fill="#757575"/>
<path d="M93.5234 38.9375H95.2472V40.6613H93.5234V38.9375Z" fill="#757575"/>
<path d="M96.9727 38.9375H98.6964V40.6613H96.9727V38.9375Z" fill="#757575"/>
<path d="M100.422 38.9375H102.146V40.6613H100.422V38.9375Z" fill="#757575"/>
<path d="M102.145 38.9375H103.868V40.6613H102.145V38.9375Z" fill="#757575"/>
<path d="M105.59 38.9375H107.314V40.6613H105.59V38.9375Z" fill="#757575"/>
<path d="M109.039 38.9375H110.763V40.6613H109.039V38.9375Z" fill="#757575"/>
<path d="M112.484 38.9375H114.208V40.6613H112.484V38.9375Z" fill="#757575"/>
<path d="M115.934 38.9375H117.657V40.6613H115.934V38.9375Z" fill="#757575"/>
<path d="M37.2148 40.6641H38.9386V42.3878H37.2148V40.6641Z" fill="#757575"/>
<path d="M42.3867 40.6641H44.1105V42.3878H42.3867V40.6641Z" fill="#757575"/>
<path d="M45.8359 40.6641H47.5597V42.3878H45.8359V40.6641Z" fill="#757575"/>
<path d="M54.4531 40.6641H56.1769V42.3878H54.4531V40.6641Z" fill="#757575"/>
<path d="M63.0703 40.6641H64.7941V42.3878H63.0703V40.6641Z" fill="#757575"/>
<path d="M66.5195 40.6641H68.2433V42.3878H66.5195V40.6641Z" fill="#757575"/>
<path d="M73.4141 40.6641H75.1378V42.3878H73.4141V40.6641Z" fill="#757575"/>
<path d="M76.2891 40.6641H78.0128V42.3878H76.2891V40.6641Z" fill="#757575"/>
<path d="M83.1836 40.6641H84.9074V42.3878H83.1836V40.6641Z" fill="#757575"/>
<path d="M86.6289 40.6641H88.3527V42.3878H86.6289V40.6641Z" fill="#757575"/>
<path d="M90.0781 40.6641H91.8019V42.3878H90.0781V40.6641Z" fill="#757575"/>
<path d="M91.8008 40.6641H93.5245V42.3878H91.8008V40.6641Z" fill="#757575"/>
<path d="M96.9727 40.6641H98.6964V42.3878H96.9727V40.6641Z" fill="#757575"/>
<path d="M107.312 40.6641H109.036V42.3878H107.312V40.6641Z" fill="#757575"/>
<path d="M114.211 40.6641H115.935V42.3878H114.211V40.6641Z" fill="#757575"/>
<path d="M117.656 40.6641H119.38V42.3878H117.656V40.6641Z" fill="#757575"/>
<path d="M32.043 42.3867H33.7667V44.1105H32.043V42.3867Z" fill="#757575"/>
<path d="M35.4922 42.3867H37.2159V44.1105H35.4922V42.3867Z" fill="#757575"/>
<path d="M38.9375 42.3867H40.6613V44.1105H38.9375V42.3867Z" fill="#757575"/>
<path d="M45.8359 42.3867H47.5597V44.1105H45.8359V42.3867Z" fill="#757575"/>
<path d="M49.2812 42.3867H51.005V44.1105H49.2812V42.3867Z" fill="#757575"/>
<path d="M52.7305 42.3867H54.4542V44.1105H52.7305V42.3867Z" fill="#757575"/>
<path d="M56.1758 42.3867H57.8995V44.1105H56.1758V42.3867Z" fill="#757575"/>
<path d="M59.625 42.3867H61.3488V44.1105H59.625V42.3867Z" fill="#757575"/>
<path d="M64.7969 42.3867H66.5206V44.1105H64.7969V42.3867Z" fill="#757575"/>
<path d="M68.2422 42.3867H69.9659V44.1105H68.2422V42.3867Z" fill="#757575"/>
<path d="M69.9688 42.3867H71.6925V44.1105H69.9688V42.3867Z" fill="#757575"/>
<path d="M73.4141 42.3867H75.1378V44.1105H73.4141V42.3867Z" fill="#757575"/>
<path d="M76.2891 42.3867H78.0128V44.1105H76.2891V42.3867Z" fill="#757575"/>
<path d="M79.7344 42.3867H81.4581V44.1105H79.7344V42.3867Z" fill="#757575"/>
<path d="M83.1836 42.3867H84.9074V44.1105H83.1836V42.3867Z" fill="#757575"/>
<path d="M93.5234 42.3867H95.2472V44.1105H93.5234V42.3867Z" fill="#757575"/>
<path d="M95.25 42.3867H96.9738V44.1105H95.25V42.3867Z" fill="#757575"/>
<path d="M98.6953 42.3867H100.419V44.1105H98.6953V42.3867Z" fill="#757575"/>
<path d="M102.145 42.3867H103.868V44.1105H102.145V42.3867Z" fill="#757575"/>
<path d="M105.59 42.3867H107.314V44.1105H105.59V42.3867Z" fill="#757575"/>
<path d="M110.762 42.3867H112.485V44.1105H110.762V42.3867Z" fill="#757575"/>
<path d="M115.934 42.3867H117.657V44.1105H115.934V42.3867Z" fill="#757575"/>
<path d="M37.2148 44.1094H38.9386V45.8331H37.2148V44.1094Z" fill="#757575"/>
<path d="M42.3867 44.1094H44.1105V45.8331H42.3867V44.1094Z" fill="#757575"/>
<path d="M49.2812 44.1094H51.005V45.8331H49.2812V44.1094Z" fill="#757575"/>
<path d="M54.4531 44.1094H56.1769V45.8331H54.4531V44.1094Z" fill="#757575"/>
<path d="M59.625 44.1094H61.3488V45.8331H59.625V44.1094Z" fill="#757575"/>
<path d="M61.3477 44.1094H63.0714V45.8331H61.3477V44.1094Z" fill="#757575"/>
<path d="M71.6914 44.1094H73.4152V45.8331H71.6914V44.1094Z" fill="#757575"/>
<path d="M78.0117 44.1094H79.7355V45.8331H78.0117V44.1094Z" fill="#757575"/>
<path d="M83.1836 44.1094H84.9074V45.8331H83.1836V44.1094Z" fill="#757575"/>
<path d="M86.6289 44.1094H88.3527V45.8331H86.6289V44.1094Z" fill="#757575"/>
<path d="M88.3516 44.1094H90.0753V45.8331H88.3516V44.1094Z" fill="#757575"/>
<path d="M90.0781 44.1094H91.8019V45.8331H90.0781V44.1094Z" fill="#757575"/>
<path d="M96.9727 44.1094H98.6964V45.8331H96.9727V44.1094Z" fill="#757575"/>
<path d="M100.422 44.1094H102.146V45.8331H100.422V44.1094Z" fill="#757575"/>
<path d="M112.484 44.1094H114.208V45.8331H112.484V44.1094Z" fill="#757575"/>
<path d="M115.934 44.1094H117.657V45.8331H115.934V44.1094Z" fill="#757575"/>
<path d="M32.043 45.8359H33.7667V47.5597H32.043V45.8359Z" fill="#757575"/>
<path d="M33.7656 45.8359H35.4894V47.5597H33.7656V45.8359Z" fill="#757575"/>
<path d="M38.9375 45.8359H40.6613V47.5597H38.9375V45.8359Z" fill="#757575"/>
<path d="M42.3867 45.8359H44.1105V47.5597H42.3867V45.8359Z" fill="#757575"/>
<path d="M52.7305 45.8359H54.4542V47.5597H52.7305V45.8359Z" fill="#757575"/>
<path d="M56.1758 45.8359H57.8995V47.5597H56.1758V45.8359Z" fill="#757575"/>
<path d="M71.6914 45.8359H73.4152V47.5597H71.6914V45.8359Z" fill="#757575"/>
<path d="M75.1367 45.8359H76.2859V47.5597H75.1367V45.8359Z" fill="#757575"/>
<path d="M78.0117 45.8359H79.7355V47.5597H78.0117V45.8359Z" fill="#757575"/>
<path d="M91.8008 45.8359H93.5245V47.5597H91.8008V45.8359Z" fill="#757575"/>
<path d="M95.25 45.8359H96.9738V47.5597H95.25V45.8359Z" fill="#757575"/>
<path d="M96.9727 45.8359H98.6964V47.5597H96.9727V45.8359Z" fill="#757575"/>
<path d="M107.312 45.8359H109.036V47.5597H107.312V45.8359Z" fill="#757575"/>
<path d="M110.762 45.8359H112.485V47.5597H110.762V45.8359Z" fill="#757575"/>
<path d="M115.934 45.8359H117.657V47.5597H115.934V45.8359Z" fill="#757575"/>
<path d="M119.383 45.8359H121.107V47.5597H119.383V45.8359Z" fill="#757575"/>
<path d="M35.4922 47.5586H37.2159V49.2824H35.4922V47.5586Z" fill="#757575"/>
<path d="M38.9375 47.5586H40.6613V49.2824H38.9375V47.5586Z" fill="#757575"/>
<path d="M54.4531 47.5586H56.1769V49.2824H54.4531V47.5586Z" fill="#757575"/>
<path d="M57.8984 47.5586H59.6222V49.2824H57.8984V47.5586Z" fill="#757575"/>
<path d="M59.625 47.5586H61.3488V49.2824H59.625V47.5586Z" fill="#757575"/>
<path d="M71.6914 47.5586H73.4152V49.2824H71.6914V47.5586Z" fill="#757575"/>
<path d="M93.5234 47.5586H95.2472V49.2824H93.5234V47.5586Z" fill="#757575"/>
<path d="M109.039 47.5586H110.763V49.2824H109.039V47.5586Z" fill="#757575"/>
<path d="M114.211 47.5586H115.935V49.2824H114.211V47.5586Z" fill="#757575"/>
<path d="M33.7656 49.2812H35.4894V51.005H33.7656V49.2812Z" fill="#757575"/>
<path d="M40.6641 49.2812H42.3878V51.005H40.6641V49.2812Z" fill="#757575"/>
<path d="M56.1758 49.2812H57.8995V51.005H56.1758V49.2812Z" fill="#757575"/>
<path d="M73.4141 49.2812H75.1378V51.005H73.4141V49.2812Z" fill="#757575"/>
<path d="M75.1367 49.2812H76.2859V51.005H75.1367V49.2812Z" fill="#757575"/>
<path d="M78.0117 49.2812H79.7355V51.005H78.0117V49.2812Z" fill="#757575"/>
<path d="M91.8008 49.2812H93.5245V51.005H91.8008V49.2812Z" fill="#757575"/>
<path d="M96.9727 49.2812H98.6964V51.005H96.9727V49.2812Z" fill="#757575"/>
<path d="M112.484 49.2812H114.208V51.005H112.484V49.2812Z" fill="#757575"/>
<path d="M117.656 49.2812H119.38V51.005H117.656V49.2812Z" fill="#757575"/>
<path d="M32.043 51.0039H33.7667V52.7277H32.043V51.0039Z" fill="#757575"/>
<path d="M35.4922 51.0039H37.2159V52.7277H35.4922V51.0039Z" fill="#757575"/>
<path d="M38.9375 51.0039H40.6613V52.7277H38.9375V51.0039Z" fill="#757575"/>
<path d="M54.4531 51.0039H56.1769V52.7277H54.4531V51.0039Z" fill="#757575"/>
<path d="M57.8984 51.0039H59.6222V52.7277H57.8984V51.0039Z" fill="#757575"/>
<path d="M75.1367 51.0039H76.2859V52.7277H75.1367V51.0039Z" fill="#757575"/>
<path d="M78.0117 51.0039H79.7355V52.7277H78.0117V51.0039Z" fill="#757575"/>
<path d="M91.8008 51.0039H93.5245V52.7277H91.8008V51.0039Z" fill="#757575"/>
<path d="M95.25 51.0039H96.9738V52.7277H95.25V51.0039Z" fill="#757575"/>
<path d="M109.039 51.0039H110.763V52.7277H109.039V51.0039Z" fill="#757575"/>
<path d="M114.211 51.0039H115.935V52.7277H114.211V51.0039Z" fill="#757575"/>
<path d="M117.656 51.0039H119.38V52.7277H117.656V51.0039Z" fill="#757575"/>
<path d="M37.2148 52.7305H38.9386V54.4542H37.2148V52.7305Z" fill="#757575"/>
<path d="M54.4531 52.7305H56.1769V54.4542H54.4531V52.7305Z" fill="#757575"/>
<path d="M57.8984 52.7305H59.6222V54.4542H57.8984V52.7305Z" fill="#757575"/>
<path d="M71.6914 52.7305H73.4152V54.4542H71.6914V52.7305Z" fill="#757575"/>
<path d="M75.1367 52.7305H76.2859V54.4542H75.1367V52.7305Z" fill="#757575"/>
<path d="M93.5234 52.7305H95.2472V54.4542H93.5234V52.7305Z" fill="#757575"/>
<path d="M110.762 52.7305H112.485V54.4542H110.762V52.7305Z" fill="#757575"/>
<path d="M114.211 52.7305H115.935V54.4542H114.211V52.7305Z" fill="#757575"/>
<path d="M117.656 52.7305H119.38V54.4542H117.656V52.7305Z" fill="#757575"/>
<path d="M32.043 54.4531H33.7667V56.1769H32.043V54.4531Z" fill="#757575"/>
<path d="M33.7656 54.4531H35.4894V56.1769H33.7656V54.4531Z" fill="#757575"/>
<path d="M37.2148 54.4531H38.9386V56.1769H37.2148V54.4531Z" fill="#757575"/>
<path d="M59.625 54.4531H61.3488V56.1769H59.625V54.4531Z" fill="#757575"/>
<path d="M76.2891 54.4531H78.0128V56.1769H76.2891V54.4531Z" fill="#757575"/>
<path d="M91.8008 54.4531H93.5245V56.1769H91.8008V54.4531Z" fill="#757575"/>
<path d="M33.7656 56.1758H35.4894V57.8995H33.7656V56.1758Z" fill="#757575"/>
<path d="M37.2148 56.1758H38.9386V57.8995H37.2148V56.1758Z" fill="#757575"/>
<path d="M38.9375 56.1758H40.6613V57.8995H38.9375V56.1758Z" fill="#757575"/>
<path d="M40.6641 56.1758H42.3878V57.8995H40.6641V56.1758Z" fill="#757575"/>
<path d="M54.4531 56.1758H56.1769V57.8995H54.4531V56.1758Z" fill="#757575"/>
<path d="M56.1758 56.1758H57.8995V57.8995H56.1758V56.1758Z" fill="#757575"/>
<path d="M71.6914 56.1758H73.4152V57.8995H71.6914V56.1758Z" fill="#757575"/>
<path d="M75.1367 56.1758H76.2859V57.8995H75.1367V56.1758Z" fill="#757575"/>
<path d="M78.0117 56.1758H79.7355V57.8995H78.0117V56.1758Z" fill="#757575"/>
<path d="M93.5234 56.1758H95.2472V57.8995H93.5234V56.1758Z" fill="#757575"/>
<path d="M96.9727 56.1758H98.6964V57.8995H96.9727V56.1758Z" fill="#757575"/>
<path d="M110.762 56.1758H112.485V57.8995H110.762V56.1758Z" fill="#757575"/>
<path d="M114.211 56.1758H115.935V57.8995H114.211V56.1758Z" fill="#757575"/>
<path d="M115.934 56.1758H117.657V57.8995H115.934V56.1758Z" fill="#757575"/>
<path d="M32.043 57.9023H33.7667V59.6261H32.043V57.9023Z" fill="#757575"/>
<path d="M56.1758 57.9023H57.8995V59.6261H56.1758V57.9023Z" fill="#757575"/>
<path d="M59.625 57.9023H61.3488V59.6261H59.625V57.9023Z" fill="#757575"/>
<path d="M91.8008 57.9023H93.5245V59.6261H91.8008V57.9023Z" fill="#757575"/>
<path d="M95.25 57.9023H96.9738V59.6261H95.25V57.9023Z" fill="#757575"/>
<path d="M109.039 57.9023H110.763V59.6261H109.039V57.9023Z" fill="#757575"/>
<path d="M117.656 57.9023H119.38V59.6261H117.656V57.9023Z" fill="#757575"/>
<path d="M35.4922 59.625H37.2159V61.3488H35.4922V59.625Z" fill="#757575"/>
<path d="M38.9375 59.625H40.6613V61.3488H38.9375V59.625Z" fill="#757575"/>
<path d="M76.2891 59.625H78.0128V61.3488H76.2891V59.625Z" fill="#757575"/>
<path d="M110.762 59.625H112.485V61.3488H110.762V59.625Z" fill="#757575"/>
<path d="M114.211 59.625H115.935V61.3488H114.211V59.625Z" fill="#757575"/>
<path d="M51.0078 63.0703H52.7316V64.7941H51.0078V63.0703Z" fill="#757575"/>
<path d="M56.1758 63.0703H57.8995V64.7941H56.1758V63.0703Z" fill="#757575"/>
<path d="M59.625 63.0703H61.3488V64.7941H59.625V63.0703Z" fill="#757575"/>
<path d="M64.7969 63.0703H66.5206V64.7941H64.7969V63.0703Z" fill="#757575"/>
<path d="M69.9688 63.0703H71.6925V64.7941H69.9688V63.0703Z" fill="#757575"/>
<path d="M73.4141 63.0703H75.1378V64.7941H73.4141V63.0703Z" fill="#757575"/>
<path d="M78.0117 63.0703H79.7355V64.7941H78.0117V63.0703Z" fill="#757575"/>
<path d="M86.6289 63.0703H88.3527V64.7941H86.6289V63.0703Z" fill="#757575"/>
<path d="M91.8008 63.0703H93.5245V64.7941H91.8008V63.0703Z" fill="#757575"/>
<path d="M95.25 63.0703H96.9738V64.7941H95.25V63.0703Z" fill="#757575"/>
<path d="M100.422 63.0703H102.146V64.7941H100.422V63.0703Z" fill="#757575"/>
<path d="M105.59 63.0703H107.314V64.7941H105.59V63.0703Z" fill="#757575"/>
<path d="M109.039 63.0703H110.763V64.7941H109.039V63.0703Z" fill="#757575"/>
<path d="M37.2148 64.7969H38.9386V66.5206H37.2148V64.7969Z" fill="#757575"/>
<path d="M40.6641 64.7969H42.3878V66.5206H40.6641V64.7969Z" fill="#757575"/>
<path d="M44.1094 64.7969H45.8331V66.5206H44.1094V64.7969Z" fill="#757575"/>
<path d="M47.5586 64.7969H49.2824V66.5206H47.5586V64.7969Z" fill="#757575"/>
<path d="M51.0078 64.7969H52.7316V66.5206H51.0078V64.7969Z" fill="#757575"/>
<path d="M61.3477 64.7969H63.0714V66.5206H61.3477V64.7969Z" fill="#757575"/>
<path d="M66.5195 64.7969H68.2433V66.5206H66.5195V64.7969Z" fill="#757575"/>
<path d="M71.6914 64.7969H73.4152V66.5206H71.6914V64.7969Z" fill="#757575"/>
<path d="M75.1367 64.7969H76.2859V66.5206H75.1367V64.7969Z" fill="#757575"/>
<path d="M78.0117 64.7969H79.7355V66.5206H78.0117V64.7969Z" fill="#757575"/>
<path d="M81.4609 64.7969H83.1847V66.5206H81.4609V64.7969Z" fill="#757575"/>
<path d="M84.9062 64.7969H86.63V66.5206H84.9062V64.7969Z" fill="#757575"/>
<path d="M90.0781 64.7969H91.8019V66.5206H90.0781V64.7969Z" fill="#757575"/>
<path d="M96.9727 64.7969H98.6964V66.5206H96.9727V64.7969Z" fill="#757575"/>
<path d="M103.867 64.7969H105.591V66.5206H103.867V64.7969Z" fill="#757575"/>
<path d="M112.484 64.7969H114.208V66.5206H112.484V64.7969Z" fill="#757575"/>
<path d="M38.9375 66.5195H40.6613V68.2433H38.9375V66.5195Z" fill="#757575"/>
<path d="M42.3867 66.5195H44.1105V68.2433H42.3867V66.5195Z" fill="#757575"/>
<path d="M45.8359 66.5195H47.5597V68.2433H45.8359V66.5195Z" fill="#757575"/>
<path d="M49.2812 66.5195H51.005V68.2433H49.2812V66.5195Z" fill="#757575"/>
<path d="M52.7305 66.5195H54.4542V68.2433H52.7305V66.5195Z" fill="#757575"/>
<path d="M54.4531 66.5195H56.1769V68.2433H54.4531V66.5195Z" fill="#757575"/>
<path d="M57.8984 66.5195H59.6222V68.2433H57.8984V66.5195Z" fill="#757575"/>
<path d="M63.0703 66.5195H64.7941V68.2433H63.0703V66.5195Z" fill="#757575"/>
<path d="M69.9688 66.5195H71.6925V68.2433H69.9688V66.5195Z" fill="#757575"/>
<path d="M73.4141 66.5195H75.1378V68.2433H73.4141V66.5195Z" fill="#757575"/>
<path d="M76.2891 66.5195H78.0128V68.2433H76.2891V66.5195Z" fill="#757575"/>
<path d="M81.4609 66.5195H83.1847V68.2433H81.4609V66.5195Z" fill="#757575"/>
<path d="M88.3516 66.5195H90.0753V68.2433H88.3516V66.5195Z" fill="#757575"/>
<path d="M93.5234 66.5195H95.2472V68.2433H93.5234V66.5195Z" fill="#757575"/>
<path d="M100.422 66.5195H102.146V68.2433H100.422V66.5195Z" fill="#757575"/>
<path d="M103.867 66.5195H105.591V68.2433H103.867V66.5195Z" fill="#757575"/>
<path d="M107.312 66.5195H109.036V68.2433H107.312V66.5195Z" fill="#757575"/>
<path d="M110.762 66.5195H112.485V68.2433H110.762V66.5195Z" fill="#757575"/>
<path d="M44.1094 68.2422H45.8331V69.9659H44.1094V68.2422Z" fill="#757575"/>
<path d="M51.0078 68.2422H52.7316V69.9659H51.0078V68.2422Z" fill="#757575"/>
<path d="M56.1758 68.2422H57.8995V69.9659H56.1758V68.2422Z" fill="#757575"/>
<path d="M59.625 68.2422H61.3488V69.9659H59.625V68.2422Z" fill="#757575"/>
<path d="M63.0703 68.2422H64.7941V69.9659H63.0703V68.2422Z" fill="#757575"/>
<path d="M66.5195 68.2422H68.2433V69.9659H66.5195V68.2422Z" fill="#757575"/>
<path d="M73.4141 68.2422H75.1378V69.9659H73.4141V68.2422Z" fill="#757575"/>
<path d="M78.0117 68.2422H79.7355V69.9659H78.0117V68.2422Z" fill="#757575"/>
<path d="M81.4609 68.2422H83.1847V69.9659H81.4609V68.2422Z" fill="#757575"/>
<path d="M84.9062 68.2422H86.63V69.9659H84.9062V68.2422Z" fill="#757575"/>
<path d="M86.6289 68.2422H88.3527V69.9659H86.6289V68.2422Z" fill="#757575"/>
<path d="M91.8008 68.2422H93.5245V69.9659H91.8008V68.2422Z" fill="#757575"/>
<path d="M96.9727 68.2422H98.6964V69.9659H96.9727V68.2422Z" fill="#757575"/>
<path d="M100.422 68.2422H102.146V69.9659H100.422V68.2422Z" fill="#757575"/>
<path d="M103.867 68.2422H105.591V69.9659H103.867V68.2422Z" fill="#757575"/>
<path d="M109.039 68.2422H110.763V69.9659H109.039V68.2422Z" fill="#757575"/>
<path d="M114.211 68.2422H115.935V69.9659H114.211V68.2422Z" fill="#757575"/>
<path d="M37.2148 69.9688H38.9386V71.6925H37.2148V69.9688Z" fill="#757575"/>
<path d="M40.6641 69.9688H42.3878V71.6925H40.6641V69.9688Z" fill="#757575"/>
<path d="M45.8359 69.9688H47.5597V71.6925H45.8359V69.9688Z" fill="#757575"/>
<path d="M52.7305 69.9688H54.4542V71.6925H52.7305V69.9688Z" fill="#757575"/>
<path d="M56.1758 69.9688H57.8995V71.6925H56.1758V69.9688Z" fill="#757575"/>
<path d="M61.3477 69.9688H63.0714V71.6925H61.3477V69.9688Z" fill="#757575"/>
<path d="M64.7969 69.9688H66.5206V71.6925H64.7969V69.9688Z" fill="#757575"/>
<path d="M68.2422 69.9688H69.9659V71.6925H68.2422V69.9688Z" fill="#757575"/>
<path d="M79.7344 69.9688H81.4581V71.6925H79.7344V69.9688Z" fill="#757575"/>
<path d="M86.6289 69.9688H88.3527V71.6925H86.6289V69.9688Z" fill="#757575"/>
<path d="M93.5234 69.9688H95.2472V71.6925H93.5234V69.9688Z" fill="#757575"/>
<path d="M96.9727 69.9688H98.6964V71.6925H96.9727V69.9688Z" fill="#757575"/>
<path d="M98.6953 69.9688H100.419V71.6925H98.6953V69.9688Z" fill="#757575"/>
<path d="M103.867 69.9688H105.591V71.6925H103.867V69.9688Z" fill="#757575"/>
<path d="M110.762 69.9688H112.485V71.6925H110.762V69.9688Z" fill="#757575"/>
<path d="M38.9375 71.6914H40.6613V73.4152H38.9375V71.6914Z" fill="#757575"/>
<path d="M42.3867 71.6914H44.1105V73.4152H42.3867V71.6914Z" fill="#757575"/>
<path d="M47.5586 71.6914H49.2824V73.4152H47.5586V71.6914Z" fill="#757575"/>
<path d="M59.625 71.6914H61.3488V73.4152H59.625V71.6914Z" fill="#757575"/>
<path d="M63.0703 71.6914H64.7941V73.4152H63.0703V71.6914Z" fill="#757575"/>
<path d="M66.5195 71.6914H68.2433V73.4152H66.5195V71.6914Z" fill="#757575"/>
<path d="M86.6289 71.6914H88.3527V73.4152H86.6289V71.6914Z" fill="#757575"/>
<path d="M88.3516 71.6914H90.0753V73.4152H88.3516V71.6914Z" fill="#757575"/>
<path d="M90.0781 71.6914H91.8019V73.4152H90.0781V71.6914Z" fill="#757575"/>
<path d="M93.5234 71.6914H95.2472V73.4152H93.5234V71.6914Z" fill="#757575"/>
<path d="M102.145 71.6914H103.868V73.4152H102.145V71.6914Z" fill="#757575"/>
<path d="M107.312 71.6914H109.036V73.4152H107.312V71.6914Z" fill="#757575"/>
<path d="M37.2148 73.4141H38.9386V75.1378H37.2148V73.4141Z" fill="#757575"/>
<path d="M45.8359 73.4141H47.5597V75.1378H45.8359V73.4141Z" fill="#757575"/>
<path d="M49.2812 73.4141H51.005V75.1378H49.2812V73.4141Z" fill="#757575"/>
<path d="M52.7305 73.4141H54.4542V75.1378H52.7305V73.4141Z" fill="#757575"/>
<path d="M54.4531 73.4141H56.1769V75.1378H54.4531V73.4141Z" fill="#757575"/>
<path d="M56.1758 73.4141H57.8995V75.1378H56.1758V73.4141Z" fill="#757575"/>
<path d="M61.3477 73.4141H63.0714V75.1378H61.3477V73.4141Z" fill="#757575"/>
<path d="M90.0781 73.4141H91.8019V75.1378H90.0781V73.4141Z" fill="#757575"/>
<path d="M93.5234 73.4141H95.2472V75.1378H93.5234V73.4141Z" fill="#757575"/>
<path d="M96.9727 73.4141H98.6964V75.1378H96.9727V73.4141Z" fill="#757575"/>
<path d="M98.6953 73.4141H100.419V75.1378H98.6953V73.4141Z" fill="#757575"/>
<path d="M103.867 73.4141H105.591V75.1378H103.867V73.4141Z" fill="#757575"/>
<path d="M109.039 73.4141H110.763V75.1378H109.039V73.4141Z" fill="#757575"/>
<path d="M110.762 73.4141H112.485V75.1378H110.762V73.4141Z" fill="#757575"/>
<path d="M114.211 73.4141H115.935V75.1378H114.211V73.4141Z" fill="#757575"/>
<path d="M38.9375 75.1367H40.6613V76.2859H38.9375V75.1367Z" fill="#757575"/>
<path d="M40.6641 75.1367H42.3878V76.2859H40.6641V75.1367Z" fill="#757575"/>
<path d="M42.3867 75.1367H44.1105V76.2859H42.3867V75.1367Z" fill="#757575"/>
<path d="M45.8359 75.1367H47.5597V76.2859H45.8359V75.1367Z" fill="#757575"/>
<path d="M51.0078 75.1367H52.7316V76.2859H51.0078V75.1367Z" fill="#757575"/>
<path d="M57.8984 75.1367H59.6222V76.2859H57.8984V75.1367Z" fill="#757575"/>
<path d="M59.625 75.1367H61.3488V76.2859H59.625V75.1367Z" fill="#757575"/>
<path d="M64.7969 75.1367H66.5206V76.2859H64.7969V75.1367Z" fill="#757575"/>
<path d="M86.6289 75.1367H88.3527V76.2859H86.6289V75.1367Z" fill="#757575"/>
<path d="M88.3516 75.1367H90.0753V76.2859H88.3516V75.1367Z" fill="#757575"/>
<path d="M100.422 75.1367H102.146V76.2859H100.422V75.1367Z" fill="#757575"/>
<path d="M105.59 75.1367H107.314V76.2859H105.59V75.1367Z" fill="#757575"/>
<path d="M110.762 75.1367H112.485V76.2859H110.762V75.1367Z" fill="#757575"/>
<path d="M44.1094 76.2891H45.8331V78.0128H44.1094V76.2891Z" fill="#757575"/>
<path d="M47.5586 76.2891H49.2824V78.0128H47.5586V76.2891Z" fill="#757575"/>
<path d="M52.7305 76.2891H54.4542V78.0128H52.7305V76.2891Z" fill="#757575"/>
<path d="M57.8984 76.2891H59.6222V78.0128H57.8984V76.2891Z" fill="#757575"/>
<path d="M61.3477 76.2891H63.0714V78.0128H61.3477V76.2891Z" fill="#757575"/>
<path d="M88.3516 76.2891H90.0753V78.0128H88.3516V76.2891Z" fill="#757575"/>
<path d="M91.8008 76.2891H93.5245V78.0128H91.8008V76.2891Z" fill="#757575"/>
<path d="M95.25 76.2891H96.9738V78.0128H95.25V76.2891Z" fill="#757575"/>
<path d="M96.9727 76.2891H98.6964V78.0128H96.9727V76.2891Z" fill="#757575"/>
<path d="M100.422 76.2891H102.146V78.0128H100.422V76.2891Z" fill="#757575"/>
<path d="M103.867 76.2891H105.591V78.0128H103.867V76.2891Z" fill="#757575"/>
<path d="M107.312 76.2891H109.036V78.0128H107.312V76.2891Z" fill="#757575"/>
<path d="M112.484 76.2891H114.208V78.0128H112.484V76.2891Z" fill="#757575"/>
<path d="M37.2148 78.0117H38.9386V79.7355H37.2148V78.0117Z" fill="#757575"/>
<path d="M40.6641 78.0117H42.3878V79.7355H40.6641V78.0117Z" fill="#757575"/>
<path d="M45.8359 78.0117H47.5597V79.7355H45.8359V78.0117Z" fill="#757575"/>
<path d="M51.0078 78.0117H52.7316V79.7355H51.0078V78.0117Z" fill="#757575"/>
<path d="M61.3477 78.0117H63.0714V79.7355H61.3477V78.0117Z" fill="#757575"/>
<path d="M88.3516 78.0117H90.0753V79.7355H88.3516V78.0117Z" fill="#757575"/>
<path d="M95.25 78.0117H96.9738V79.7355H95.25V78.0117Z" fill="#757575"/>
<path d="M98.6953 78.0117H100.419V79.7355H98.6953V78.0117Z" fill="#757575"/>
<path d="M102.145 78.0117H103.868V79.7355H102.145V78.0117Z" fill="#757575"/>
<path d="M107.312 78.0117H109.036V79.7355H107.312V78.0117Z" fill="#757575"/>
<path d="M110.762 78.0117H112.485V79.7355H110.762V78.0117Z" fill="#757575"/>
<path d="M38.9375 79.7344H40.6613V81.4581H38.9375V79.7344Z" fill="#757575"/>
<path d="M42.3867 79.7344H44.1105V81.4581H42.3867V79.7344Z" fill="#757575"/>
<path d="M47.5586 79.7344H49.2824V81.4581H47.5586V79.7344Z" fill="#757575"/>
<path d="M51.0078 79.7344H52.7316V81.4581H51.0078V79.7344Z" fill="#757575"/>
<path d="M56.1758 79.7344H57.8995V81.4581H56.1758V79.7344Z" fill="#757575"/>
<path d="M59.625 79.7344H61.3488V81.4581H59.625V79.7344Z" fill="#757575"/>
<path d="M63.0703 79.7344H64.7941V81.4581H63.0703V79.7344Z" fill="#757575"/>
<path d="M90.0781 79.7344H91.8019V81.4581H90.0781V79.7344Z" fill="#757575"/>
<path d="M93.5234 79.7344H95.2472V81.4581H93.5234V79.7344Z" fill="#757575"/>
<path d="M103.867 79.7344H105.591V81.4581H103.867V79.7344Z" fill="#757575"/>
<path d="M109.039 79.7344H110.763V81.4581H109.039V79.7344Z" fill="#757575"/>
<path d="M112.484 79.7344H114.208V81.4581H112.484V79.7344Z" fill="#757575"/>
<path d="M40.6641 81.457H42.3878V83.1808H40.6641V81.457Z" fill="#757575"/>
<path d="M44.1094 81.457H45.8331V83.1808H44.1094V81.457Z" fill="#757575"/>
<path d="M47.5586 81.457H49.2824V83.1808H47.5586V81.457Z" fill="#757575"/>
<path d="M54.4531 81.457H56.1769V83.1808H54.4531V81.457Z" fill="#757575"/>
<path d="M57.8984 81.457H59.6222V83.1808H57.8984V81.457Z" fill="#757575"/>
<path d="M88.3516 81.457H90.0753V83.1808H88.3516V81.457Z" fill="#757575"/>
<path d="M96.9727 81.457H98.6964V83.1808H96.9727V81.457Z" fill="#757575"/>
<path d="M100.422 81.457H102.146V83.1808H100.422V81.457Z" fill="#757575"/>
<path d="M105.59 81.457H107.314V83.1808H105.59V81.457Z" fill="#757575"/>
<path d="M109.039 81.457H110.763V83.1808H109.039V81.457Z" fill="#757575"/>
<path d="M37.2148 83.1836H38.9386V84.9074H37.2148V83.1836Z" fill="#757575"/>
<path d="M38.9375 83.1836H40.6613V84.9074H38.9375V83.1836Z" fill="#757575"/>
<path d="M44.1094 83.1836H45.8331V84.9074H44.1094V83.1836Z" fill="#757575"/>
<path d="M49.2812 83.1836H51.005V84.9074H49.2812V83.1836Z" fill="#757575"/>
<path d="M51.0078 83.1836H52.7316V84.9074H51.0078V83.1836Z" fill="#757575"/>
<path d="M54.4531 83.1836H56.1769V84.9074H54.4531V83.1836Z" fill="#757575"/>
<path d="M57.8984 83.1836H59.6222V84.9074H57.8984V83.1836Z" fill="#757575"/>
<path d="M61.3477 83.1836H63.0714V84.9074H61.3477V83.1836Z" fill="#757575"/>
<path d="M90.0781 83.1836H91.8019V84.9074H90.0781V83.1836Z" fill="#757575"/>
<path d="M91.8008 83.1836H93.5245V84.9074H91.8008V83.1836Z" fill="#757575"/>
<path d="M98.6953 83.1836H100.419V84.9074H98.6953V83.1836Z" fill="#757575"/>
<path d="M102.145 83.1836H103.868V84.9074H102.145V83.1836Z" fill="#757575"/>
<path d="M110.762 83.1836H112.485V84.9074H110.762V83.1836Z" fill="#757575"/>
<path d="M114.211 83.1836H115.935V84.9074H114.211V83.1836Z" fill="#757575"/>
<path d="M40.6641 84.9062H42.3878V86.63H40.6641V84.9062Z" fill="#757575"/>
<path d="M44.1094 84.9062H45.8331V86.63H44.1094V84.9062Z" fill="#757575"/>
<path d="M51.0078 84.9062H52.7316V86.63H51.0078V84.9062Z" fill="#757575"/>
<path d="M54.4531 84.9062H56.1769V86.63H54.4531V84.9062Z" fill="#757575"/>
<path d="M59.625 84.9062H61.3488V86.63H59.625V84.9062Z" fill="#757575"/>
<path d="M93.5234 84.9062H95.2472V86.63H93.5234V84.9062Z" fill="#757575"/>
<path d="M96.9727 84.9062H98.6964V86.63H96.9727V84.9062Z" fill="#757575"/>
<path d="M105.59 84.9062H107.314V86.63H105.59V84.9062Z" fill="#757575"/>
<path d="M107.312 84.9062H109.036V86.63H107.312V84.9062Z" fill="#757575"/>
<path d="M110.762 84.9062H112.485V86.63H110.762V84.9062Z" fill="#757575"/>
<path d="M112.484 84.9062H114.208V86.63H112.484V84.9062Z" fill="#757575"/>
<path d="M37.2148 86.6289H38.9386V88.3527H37.2148V86.6289Z" fill="#757575"/>
<path d="M45.8359 86.6289H47.5597V88.3527H45.8359V86.6289Z" fill="#757575"/>
<path d="M49.2812 86.6289H51.005V88.3527H49.2812V86.6289Z" fill="#757575"/>
<path d="M54.4531 86.6289H56.1769V88.3527H54.4531V86.6289Z" fill="#757575"/>
<path d="M57.8984 86.6289H59.6222V88.3527H57.8984V86.6289Z" fill="#757575"/>
<path d="M61.3477 86.6289H63.0714V88.3527H61.3477V86.6289Z" fill="#757575"/>
<path d="M88.3516 86.6289H90.0753V88.3527H88.3516V86.6289Z" fill="#757575"/>
<path d="M93.5234 86.6289H95.2472V88.3527H93.5234V86.6289Z" fill="#757575"/>
<path d="M98.6953 86.6289H100.419V88.3527H98.6953V86.6289Z" fill="#757575"/>
<path d="M100.422 86.6289H102.146V88.3527H100.422V86.6289Z" fill="#757575"/>
<path d="M103.867 86.6289H105.591V88.3527H103.867V86.6289Z" fill="#757575"/>
<path d="M40.6641 88.3555H42.3878V90.0792H40.6641V88.3555Z" fill="#757575"/>
<path d="M44.1094 88.3555H45.8331V90.0792H44.1094V88.3555Z" fill="#757575"/>
<path d="M47.5586 88.3555H49.2824V90.0792H47.5586V88.3555Z" fill="#757575"/>
<path d="M51.0078 88.3555H52.7316V90.0792H51.0078V88.3555Z" fill="#757575"/>
<path d="M56.1758 88.3555H57.8995V90.0792H56.1758V88.3555Z" fill="#757575"/>
<path d="M90.0781 88.3555H91.8019V90.0792H90.0781V88.3555Z" fill="#757575"/>
<path d="M93.5234 88.3555H95.2472V90.0792H93.5234V88.3555Z" fill="#757575"/>
<path d="M96.9727 88.3555H98.6964V90.0792H96.9727V88.3555Z" fill="#757575"/>
<path d="M102.145 88.3555H103.868V90.0792H102.145V88.3555Z" fill="#757575"/>
<path d="M107.312 88.3555H109.036V90.0792H107.312V88.3555Z" fill="#757575"/>
<path d="M110.762 88.3555H112.485V90.0792H110.762V88.3555Z" fill="#757575"/>
<path d="M112.484 88.3555H114.208V90.0792H112.484V88.3555Z" fill="#757575"/>
<path d="M37.2148 90.0781H38.9386V91.8019H37.2148V90.0781Z" fill="#757575"/>
<path d="M38.9375 90.0781H40.6613V91.8019H38.9375V90.0781Z" fill="#757575"/>
<path d="M42.3867 90.0781H44.1105V91.8019H42.3867V90.0781Z" fill="#757575"/>
<path d="M51.0078 90.0781H52.7316V91.8019H51.0078V90.0781Z" fill="#757575"/>
<path d="M57.8984 90.0781H59.6222V91.8019H57.8984V90.0781Z" fill="#757575"/>
<path d="M61.3477 90.0781H63.0714V91.8019H61.3477V90.0781Z" fill="#757575"/>
<path d="M88.3516 90.0781H90.0753V91.8019H88.3516V90.0781Z" fill="#757575"/>
<path d="M91.8008 90.0781H93.5245V91.8019H91.8008V90.0781Z" fill="#757575"/>
<path d="M96.9727 90.0781H98.6964V91.8019H96.9727V90.0781Z" fill="#757575"/>
<path d="M103.867 90.0781H105.591V91.8019H103.867V90.0781Z" fill="#757575"/>
<path d="M107.312 90.0781H109.036V91.8019H107.312V90.0781Z" fill="#757575"/>
<path d="M45.8359 91.8008H47.5597V93.5245H45.8359V91.8008Z" fill="#757575"/>
<path d="M47.5586 91.8008H49.2824V93.5245H47.5586V91.8008Z" fill="#757575"/>
<path d="M52.7305 91.8008H54.4542V93.5245H52.7305V91.8008Z" fill="#757575"/>
<path d="M56.1758 91.8008H57.8995V93.5245H56.1758V91.8008Z" fill="#757575"/>
<path d="M57.8984 91.8008H59.6222V93.5245H57.8984V91.8008Z" fill="#757575"/>
<path d="M90.0781 91.8008H91.8019V93.5245H90.0781V91.8008Z" fill="#757575"/>
<path d="M93.5234 91.8008H95.2472V93.5245H93.5234V91.8008Z" fill="#757575"/>
<path d="M98.6953 91.8008H100.419V93.5245H98.6953V91.8008Z" fill="#757575"/>
<path d="M102.145 91.8008H103.868V93.5245H102.145V91.8008Z" fill="#757575"/>
<path d="M107.312 91.8008H109.036V93.5245H107.312V91.8008Z" fill="#757575"/>
<path d="M110.762 91.8008H112.485V93.5245H110.762V91.8008Z" fill="#757575"/>
<path d="M112.484 91.8008H114.208V93.5245H112.484V91.8008Z" fill="#757575"/>
<path d="M37.2148 93.5234H38.9386V95.2472H37.2148V93.5234Z" fill="#757575"/>
<path d="M40.6641 93.5234H42.3878V95.2472H40.6641V93.5234Z" fill="#757575"/>
<path d="M49.2812 93.5234H51.005V95.2472H49.2812V93.5234Z" fill="#757575"/>
<path d="M54.4531 93.5234H56.1769V95.2472H54.4531V93.5234Z" fill="#757575"/>
<path d="M59.625 93.5234H61.3488V95.2472H59.625V93.5234Z" fill="#757575"/>
<path d="M61.3477 93.5234H63.0714V95.2472H61.3477V93.5234Z" fill="#757575"/>
<path d="M88.3516 93.5234H90.0753V95.2472H88.3516V93.5234Z" fill="#757575"/>
<path d="M93.5234 93.5234H95.2472V95.2472H93.5234V93.5234Z" fill="#757575"/>
<path d="M95.25 93.5234H96.9738V95.2472H95.25V93.5234Z" fill="#757575"/>
<path d="M98.6953 93.5234H100.419V95.2472H98.6953V93.5234Z" fill="#757575"/>
<path d="M103.867 93.5234H105.591V95.2472H103.867V93.5234Z" fill="#757575"/>
<path d="M107.312 93.5234H109.036V95.2472H107.312V93.5234Z" fill="#757575"/>
<path d="M110.762 93.5234H112.485V95.2472H110.762V93.5234Z" fill="#757575"/>
<path d="M38.9375 95.25H40.6613V96.9738H38.9375V95.25Z" fill="#757575"/>
<path d="M42.3867 95.25H44.1105V96.9738H42.3867V95.25Z" fill="#757575"/>
<path d="M44.1094 95.25H45.8331V96.9738H44.1094V95.25Z" fill="#757575"/>
<path d="M51.0078 95.25H52.7316V96.9738H51.0078V95.25Z" fill="#757575"/>
<path d="M54.4531 95.25H56.1769V96.9738H54.4531V95.25Z" fill="#757575"/>
<path d="M57.8984 95.25H59.6222V96.9738H57.8984V95.25Z" fill="#757575"/>
<path d="M61.3477 95.25H63.0714V96.9738H61.3477V95.25Z" fill="#757575"/>
<path d="M90.0781 95.25H91.8019V96.9738H90.0781V95.25Z" fill="#757575"/>
<path d="M93.5234 95.25H95.2472V96.9738H93.5234V95.25Z" fill="#757575"/>
<path d="M98.6953 95.25H100.419V96.9738H98.6953V95.25Z" fill="#757575"/>
<path d="M102.145 95.25H103.868V96.9738H102.145V95.25Z" fill="#757575"/>
<path d="M109.039 95.25H110.763V96.9738H109.039V95.25Z" fill="#757575"/>
<path d="M114.211 95.25H115.935V96.9738H114.211V95.25Z" fill="#757575"/>
<path d="M37.2148 96.9727H38.9386V98.6964H37.2148V96.9727Z" fill="#757575"/>
<path d="M45.8359 96.9727H47.5597V98.6964H45.8359V96.9727Z" fill="#757575"/>
<path d="M49.2812 96.9727H51.005V98.6964H49.2812V96.9727Z" fill="#757575"/>
<path d="M52.7305 96.9727H54.4542V98.6964H52.7305V96.9727Z" fill="#757575"/>
<path d="M56.1758 96.9727H57.8995V98.6964H56.1758V96.9727Z" fill="#757575"/>
<path d="M90.0781 96.9727H91.8019V98.6964H90.0781V96.9727Z" fill="#757575"/>
<path d="M93.5234 96.9727H95.2472V98.6964H93.5234V96.9727Z" fill="#757575"/>
<path d="M96.9727 96.9727H98.6964V98.6964H96.9727V96.9727Z" fill="#757575"/>
<path d="M100.422 96.9727H102.146V98.6964H100.422V96.9727Z" fill="#757575"/>
<path d="M103.867 96.9727H105.591V98.6964H103.867V96.9727Z" fill="#757575"/>
<path d="M110.762 96.9727H112.485V98.6964H110.762V96.9727Z" fill="#757575"/>
<path d="M112.484 96.9727H114.208V98.6964H112.484V96.9727Z" fill="#757575"/>
<path d="M38.9375 98.6953H40.6613V100.419H38.9375V98.6953Z" fill="#757575"/>
<path d="M42.3867 98.6953H44.1105V100.419H42.3867V98.6953Z" fill="#757575"/>
<path d="M45.8359 98.6953H47.5597V100.419H45.8359V98.6953Z" fill="#757575"/>
<path d="M49.2812 98.6953H51.005V100.419H49.2812V98.6953Z" fill="#757575"/>
<path d="M57.8984 98.6953H59.6222V100.419H57.8984V98.6953Z" fill="#757575"/>
<path d="M61.3477 98.6953H63.0714V100.419H61.3477V98.6953Z" fill="#757575"/>
<path d="M88.3516 98.6953H90.0753V100.419H88.3516V98.6953Z" fill="#757575"/>
<path d="M96.9727 98.6953H98.6964V100.419H96.9727V98.6953Z" fill="#757575"/>
<path d="M102.145 98.6953H103.868V100.419H102.145V98.6953Z" fill="#757575"/>
<path d="M107.312 98.6953H109.036V100.419H107.312V98.6953Z" fill="#757575"/>
<path d="M109.039 98.6953H110.763V100.419H109.039V98.6953Z" fill="#757575"/>
<path d="M38.9375 100.418H40.6613V102.142H38.9375V100.418Z" fill="#757575"/>
<path d="M47.5586 100.418H49.2824V102.142H47.5586V100.418Z" fill="#757575"/>
<path d="M51.0078 100.418H52.7316V102.142H51.0078V100.418Z" fill="#757575"/>
<path d="M54.4531 100.418H56.1769V102.142H54.4531V100.418Z" fill="#757575"/>
<path d="M57.8984 100.418H59.6222V102.142H57.8984V100.418Z" fill="#757575"/>
<path d="M90.0781 100.418H91.8019V102.142H90.0781V100.418Z" fill="#757575"/>
<path d="M91.8008 100.418H93.5245V102.142H91.8008V100.418Z" fill="#757575"/>
<path d="M95.25 100.418H96.9738V102.142H95.25V100.418Z" fill="#757575"/>
<path d="M100.422 100.418H102.146V102.142H100.422V100.418Z" fill="#757575"/>
<path d="M103.867 100.418H105.591V102.142H103.867V100.418Z" fill="#757575"/>
<path d="M107.312 100.418H109.036V102.142H107.312V100.418Z" fill="#757575"/>
<path d="M112.484 100.418H114.208V102.142H112.484V100.418Z" fill="#757575"/>
<path d="M37.2148 102.145H38.9386V103.868H37.2148V102.145Z" fill="#757575"/>
<path d="M40.6641 102.145H42.3878V103.868H40.6641V102.145Z" fill="#757575"/>
<path d="M42.3867 102.145H44.1105V103.868H42.3867V102.145Z" fill="#757575"/>
<path d="M47.5586 102.145H49.2824V103.868H47.5586V102.145Z" fill="#757575"/>
<path d="M54.4531 102.145H56.1769V103.868H54.4531V102.145Z" fill="#757575"/>
<path d="M56.1758 102.145H57.8995V103.868H56.1758V102.145Z" fill="#757575"/>
<path d="M59.625 102.145H61.3488V103.868H59.625V102.145Z" fill="#757575"/>
<path d="M88.3516 102.145H90.0753V103.868H88.3516V102.145Z" fill="#757575"/>
<path d="M93.5234 102.145H95.2472V103.868H93.5234V102.145Z" fill="#757575"/>
<path d="M96.9727 102.145H98.6964V103.868H96.9727V102.145Z" fill="#757575"/>
<path d="M100.422 102.145H102.146V103.868H100.422V102.145Z" fill="#757575"/>
<path d="M109.039 102.145H110.763V103.868H109.039V102.145Z" fill="#757575"/>
<path d="M112.484 102.145H114.208V103.868H112.484V102.145Z" fill="#757575"/>
<path d="M38.9375 103.867H40.6613V105.591H38.9375V103.867Z" fill="#757575"/>
<path d="M45.8359 103.867H47.5597V105.591H45.8359V103.867Z" fill="#757575"/>
<path d="M51.0078 103.867H52.7316V105.591H51.0078V103.867Z" fill="#757575"/>
<path d="M59.625 103.867H61.3488V105.591H59.625V103.867Z" fill="#757575"/>
<path d="M63.0703 103.867H64.7941V105.591H63.0703V103.867Z" fill="#757575"/>
<path d="M90.0781 103.867H91.8019V105.591H90.0781V103.867Z" fill="#757575"/>
<path d="M98.6953 103.867H100.419V105.591H98.6953V103.867Z" fill="#757575"/>
<path d="M102.145 103.867H103.868V105.591H102.145V103.867Z" fill="#757575"/>
<path d="M105.59 103.867H107.314V105.591H105.59V103.867Z" fill="#757575"/>
<path d="M107.312 103.867H109.036V105.591H107.312V103.867Z" fill="#757575"/>
<path d="M40.6641 105.59H42.3878V107.314H40.6641V105.59Z" fill="#757575"/>
<path d="M42.3867 105.59H44.1105V107.314H42.3867V105.59Z" fill="#757575"/>
<path d="M45.8359 105.59H47.5597V107.314H45.8359V105.59Z" fill="#757575"/>
<path d="M49.2812 105.59H51.005V107.314H49.2812V105.59Z" fill="#757575"/>
<path d="M54.4531 105.59H56.1769V107.314H54.4531V105.59Z" fill="#757575"/>
<path d="M56.1758 105.59H57.8995V107.314H56.1758V105.59Z" fill="#757575"/>
<path d="M61.3477 105.59H63.0714V107.314H61.3477V105.59Z" fill="#757575"/>
<path d="M88.3516 105.59H90.0753V107.314H88.3516V105.59Z" fill="#757575"/>
<path d="M91.8008 105.59H93.5245V107.314H91.8008V105.59Z" fill="#757575"/>
<path d="M95.25 105.59H96.9738V107.314H95.25V105.59Z" fill="#757575"/>
<path d="M100.422 105.59H102.146V107.314H100.422V105.59Z" fill="#757575"/>
<path d="M102.145 105.59H103.868V107.314H102.145V105.59Z" fill="#757575"/>
<path d="M112.484 105.59H114.208V107.314H112.484V105.59Z" fill="#757575"/>
<path d="M38.9375 107.316H40.6613V109.04H38.9375V107.316Z" fill="#757575"/>
<path d="M44.1094 107.316H45.8331V109.04H44.1094V107.316Z" fill="#757575"/>
<path d="M52.7305 107.316H54.4542V109.04H52.7305V107.316Z" fill="#757575"/>
<path d="M56.1758 107.316H57.8995V109.04H56.1758V107.316Z" fill="#757575"/>
<path d="M88.3516 107.316H90.0753V109.04H88.3516V107.316Z" fill="#757575"/>
<path d="M93.5234 107.316H95.2472V109.04H93.5234V107.316Z" fill="#757575"/>
<path d="M98.6953 107.316H100.419V109.04H98.6953V107.316Z" fill="#757575"/>
<path d="M103.867 107.316H105.591V109.04H103.867V107.316Z" fill="#757575"/>
<path d="M107.312 107.316H109.036V109.04H107.312V107.316Z" fill="#757575"/>
<path d="M110.762 107.316H112.485V109.04H110.762V107.316Z" fill="#757575"/>
<path d="M40.6641 109.039H42.3878V110.763H40.6641V109.039Z" fill="#757575"/>
<path d="M44.1094 109.039H45.8331V110.763H44.1094V109.039Z" fill="#757575"/>
<path d="M47.5586 109.039H49.2824V110.763H47.5586V109.039Z" fill="#757575"/>
<path d="M51.0078 109.039H52.7316V110.763H51.0078V109.039Z" fill="#757575"/>
<path d="M54.4531 109.039H56.1769V110.763H54.4531V109.039Z" fill="#757575"/>
<path d="M57.8984 109.039H59.6222V110.763H57.8984V109.039Z" fill="#757575"/>
<path d="M61.3477 109.039H63.0714V110.763H61.3477V109.039Z" fill="#757575"/>
<path d="M90.0781 109.039H91.8019V110.763H90.0781V109.039Z" fill="#757575"/>
<path d="M95.25 109.039H96.9738V110.763H95.25V109.039Z" fill="#757575"/>
<path d="M107.312 109.039H109.036V110.763H107.312V109.039Z" fill="#757575"/>
<path d="M112.484 109.039H114.208V110.763H112.484V109.039Z" fill="#757575"/>
<path d="M37.2148 110.762H38.9386V112.485H37.2148V110.762Z" fill="#757575"/>
<path d="M40.6641 110.762H42.3878V112.485H40.6641V110.762Z" fill="#757575"/>
<path d="M44.1094 110.762H45.8331V112.485H44.1094V110.762Z" fill="#757575"/>
<path d="M47.5586 110.762H49.2824V112.485H47.5586V110.762Z" fill="#757575"/>
<path d="M52.7305 110.762H54.4542V112.485H52.7305V110.762Z" fill="#757575"/>
<path d="M56.1758 110.762H57.8995V112.485H56.1758V110.762Z" fill="#757575"/>
<path d="M96.9727 110.762H98.6964V112.485H96.9727V110.762Z" fill="#757575"/>
<path d="M98.6953 110.762H100.419V112.485H98.6953V110.762Z" fill="#757575"/>
<path d="M102.145 110.762H103.868V112.485H102.145V110.762Z" fill="#757575"/>
<path d="M105.59 110.762H107.314V112.485H105.59V110.762Z" fill="#757575"/>
<path d="M109.039 110.762H110.763V112.485H109.039V110.762Z" fill="#757575"/>
<path d="M112.484 110.762H114.208V112.485H112.484V110.762Z" fill="#757575"/>
<path d="M40.6641 112.484H42.3878V114.208H40.6641V112.484Z" fill="#757575"/>
<path d="M51.0078 112.484H52.7316V114.208H51.0078V112.484Z" fill="#757575"/>
<path d="M59.625 112.484H61.3488V114.208H59.625V112.484Z" fill="#757575"/>
<path d="M90.0781 112.484H91.8019V114.208H90.0781V112.484Z" fill="#757575"/>
<path d="M93.5234 112.484H95.2472V114.208H93.5234V112.484Z" fill="#757575"/>
<path d="M102.145 112.484H103.868V114.208H102.145V112.484Z" fill="#757575"/>
</svg>
