<svg width="152" height="129" viewBox="0 0 152 129" fill="none" xmlns="http://www.w3.org/2000/svg">
<path d="M0 0H46.5137L62.1393 12.7186H151.169V128.639H0V0Z" fill="#BABABA"/>
<rect y="22.5303" width="151.169" height="106.109" fill="#D7E8F6"/>
<g clip-path="url(#clip0_63_107719)">
<path d="M71.8945 31.998H73.3365V32.9593H71.8945V31.998Z" fill="#6C6C6C"/>
<path d="M74.7773 31.998H75.7386V32.9593H74.7773V31.998Z" fill="#6C6C6C"/>
<path d="M77.1797 31.998H78.6216V32.9593H77.1797V31.998Z" fill="#6C6C6C"/>
<path d="M70.4531 32.9629H71.8951V34.4048H70.4531V32.9629Z" fill="#6C6C6C"/>
<path d="M73.3359 32.9629H74.7779V34.4048H73.3359V32.9629Z" fill="#6C6C6C"/>
<path d="M75.7422 32.9629H77.1841V34.4048H75.7422V32.9629Z" fill="#6C6C6C"/>
<path d="M74.7773 34.4009H75.7386V35.8428H74.7773V34.4009Z" fill="#6C6C6C"/>
<path d="M78.625 34.4009H80.067V35.8428H78.625V34.4009Z" fill="#6C6C6C"/>
<path d="M70.4531 35.8438H71.8951V37.2857H70.4531V35.8438Z" fill="#6C6C6C"/>
<path d="M71.8945 35.8438H73.3365V37.2857H71.8945V35.8438Z" fill="#6C6C6C"/>
<path d="M75.7422 35.8438H77.1841V37.2857H75.7422V35.8438Z" fill="#6C6C6C"/>
<path d="M78.625 35.8438H80.067V37.2857H78.625V35.8438Z" fill="#6C6C6C"/>
<path d="M69.0117 37.2866H70.4537V38.7286H69.0117V37.2866Z" fill="#6C6C6C"/>
<path d="M73.3359 37.2866H74.7779V38.7286H73.3359V37.2866Z" fill="#6C6C6C"/>
<path d="M74.7773 37.2866H75.7386V38.7286H74.7773V37.2866Z" fill="#6C6C6C"/>
<path d="M81.5078 37.2866H82.9498V38.7286H81.5078V37.2866Z" fill="#6C6C6C"/>
<path d="M71.8945 38.7295H73.3365V40.1714H71.8945V38.7295Z" fill="#6C6C6C"/>
<path d="M75.7422 38.7295H77.1841V40.1714H75.7422V38.7295Z" fill="#6C6C6C"/>
<path d="M78.625 38.7295H80.067V40.1714H78.625V38.7295Z" fill="#6C6C6C"/>
<path d="M80.0664 38.7295H81.5084V40.1714H80.0664V38.7295Z" fill="#6C6C6C"/>
<path d="M70.4531 40.1724H71.8951V41.6143H70.4531V40.1724Z" fill="#6C6C6C"/>
<path d="M73.3359 40.1724H74.7779V41.6143H73.3359V40.1724Z" fill="#6C6C6C"/>
<path d="M75.7422 40.1724H77.1841V41.6143H75.7422V40.1724Z" fill="#6C6C6C"/>
<path d="M81.5078 40.1724H82.9498V41.6143H81.5078V40.1724Z" fill="#6C6C6C"/>
<path d="M70.4531 41.6104H71.8951V43.0523H70.4531V41.6104Z" fill="#6C6C6C"/>
<path d="M71.8945 41.6104H73.3365V43.0523H71.8945V41.6104Z" fill="#6C6C6C"/>
<path d="M75.7422 41.6104H77.1841V43.0523H75.7422V41.6104Z" fill="#6C6C6C"/>
<path d="M78.625 41.6104H80.067V43.0523H78.625V41.6104Z" fill="#6C6C6C"/>
<path d="M80.0664 41.6104H81.5084V43.0523H80.0664V41.6104Z" fill="#6C6C6C"/>
<path d="M84.3906 41.6104H85.8326V43.0523H84.3906V41.6104Z" fill="#6C6C6C"/>
<path d="M73.3359 43.0527H74.7779V44.4947H73.3359V43.0527Z" fill="#6C6C6C"/>
<path d="M77.1797 43.0527H78.6216V44.4947H77.1797V43.0527Z" fill="#6C6C6C"/>
<path d="M80.0664 43.0527H81.5084V44.4947H80.0664V43.0527Z" fill="#6C6C6C"/>
<path d="M84.3906 43.0527H85.8326V44.4947H84.3906V43.0527Z" fill="#6C6C6C"/>
<path d="M69.0117 44.4956H70.4537V45.9376H69.0117V44.4956Z" fill="#6C6C6C"/>
<path d="M71.8945 44.4956H73.3365V45.9376H71.8945V44.4956Z" fill="#6C6C6C"/>
<path d="M74.7773 44.4956H75.7386V45.9376H74.7773V44.4956Z" fill="#6C6C6C"/>
<path d="M81.5078 44.4956H82.9498V45.9376H81.5078V44.4956Z" fill="#6C6C6C"/>
<path d="M87.2773 44.4956H88.7193V45.9376H87.2773V44.4956Z" fill="#6C6C6C"/>
<path d="M70.4531 45.9385H71.8951V47.3804H70.4531V45.9385Z" fill="#6C6C6C"/>
<path d="M77.1797 45.9385H78.6216V47.3804H77.1797V45.9385Z" fill="#6C6C6C"/>
<path d="M78.625 45.9385H80.067V47.3804H78.625V45.9385Z" fill="#6C6C6C"/>
<path d="M81.5078 45.9385H82.9498V47.3804H81.5078V45.9385Z" fill="#6C6C6C"/>
<path d="M84.3906 45.9385H85.8326V47.3804H84.3906V45.9385Z" fill="#6C6C6C"/>
<path d="M85.832 45.9385H87.274V47.3804H85.832V45.9385Z" fill="#6C6C6C"/>
<path d="M88.7188 45.9385H90.1607V47.3804H88.7188V45.9385Z" fill="#6C6C6C"/>
<path d="M90.1602 45.9385H91.6021V47.3804H90.1602V45.9385Z" fill="#6C6C6C"/>
<path d="M69.0117 47.3813H70.4537V48.8233H69.0117V47.3813Z" fill="#6C6C6C"/>
<path d="M71.8945 47.3813H73.3365V48.8233H71.8945V47.3813Z" fill="#6C6C6C"/>
<path d="M74.7773 47.3813H75.7386V48.8233H74.7773V47.3813Z" fill="#6C6C6C"/>
<path d="M75.7422 47.3813H77.1841V48.8233H75.7422V47.3813Z" fill="#6C6C6C"/>
<path d="M80.0664 47.3813H81.5084V48.8233H80.0664V47.3813Z" fill="#6C6C6C"/>
<path d="M85.832 47.3813H87.274V48.8233H85.832V47.3813Z" fill="#6C6C6C"/>
<path d="M91.6016 47.3813H93.0435V48.8233H91.6016V47.3813Z" fill="#6C6C6C"/>
<path d="M69.0117 48.8193H70.4537V50.2613H69.0117V48.8193Z" fill="#6C6C6C"/>
<path d="M71.8945 48.8193H73.3365V50.2613H71.8945V48.8193Z" fill="#6C6C6C"/>
<path d="M75.7422 48.8193H77.1841V50.2613H75.7422V48.8193Z" fill="#6C6C6C"/>
<path d="M78.625 48.8193H80.067V50.2613H78.625V48.8193Z" fill="#6C6C6C"/>
<path d="M81.5078 48.8193H82.9498V50.2613H81.5078V48.8193Z" fill="#6C6C6C"/>
<path d="M84.3906 48.8193H85.8326V50.2613H84.3906V48.8193Z" fill="#6C6C6C"/>
<path d="M87.2773 48.8193H88.7193V50.2613H87.2773V48.8193Z" fill="#6C6C6C"/>
<path d="M88.7188 48.8193H90.1607V50.2613H88.7188V48.8193Z" fill="#6C6C6C"/>
<path d="M91.6016 48.8193H93.0435V50.2613H91.6016V48.8193Z" fill="#6C6C6C"/>
<path d="M73.3359 50.2671H74.7779V51.709H73.3359V50.2671Z" fill="#6C6C6C"/>
<path d="M75.7422 50.2671H77.1841V51.709H75.7422V50.2671Z" fill="#6C6C6C"/>
<path d="M81.5078 50.2671H82.9498V51.709H81.5078V50.2671Z" fill="#6C6C6C"/>
<path d="M84.3906 50.2671H85.8326V51.709H84.3906V50.2671Z" fill="#6C6C6C"/>
<path d="M90.1602 50.2671H91.6021V51.709H90.1602V50.2671Z" fill="#6C6C6C"/>
<path d="M93.043 50.2671H94.4849V51.709H93.043V50.2671Z" fill="#6C6C6C"/>
<path d="M95.9297 50.2671H97.3716V51.709H95.9297V50.2671Z" fill="#6C6C6C"/>
<path d="M71.8945 51.7051H73.3365V53.147H71.8945V51.7051Z" fill="#6C6C6C"/>
<path d="M75.7422 51.7051H77.1841V53.147H75.7422V51.7051Z" fill="#6C6C6C"/>
<path d="M78.625 51.7051H80.067V53.147H78.625V51.7051Z" fill="#6C6C6C"/>
<path d="M81.5078 51.7051H82.9498V53.147H81.5078V51.7051Z" fill="#6C6C6C"/>
<path d="M84.3906 51.7051H85.8326V53.147H84.3906V51.7051Z" fill="#6C6C6C"/>
<path d="M90.1602 51.7051H91.6021V53.147H90.1602V51.7051Z" fill="#6C6C6C"/>
<path d="M94.4844 51.7051H95.9263V53.147H94.4844V51.7051Z" fill="#6C6C6C"/>
<path d="M69.0117 53.1479H70.4537V54.5899H69.0117V53.1479Z" fill="#6C6C6C"/>
<path d="M71.8945 53.1479H73.3365V54.5899H71.8945V53.1479Z" fill="#6C6C6C"/>
<path d="M74.7773 53.1479H75.7386V54.5899H74.7773V53.1479Z" fill="#6C6C6C"/>
<path d="M78.625 53.1479H80.067V54.5899H78.625V53.1479Z" fill="#6C6C6C"/>
<path d="M82.9492 53.1479H84.3912V54.5899H82.9492V53.1479Z" fill="#6C6C6C"/>
<path d="M85.832 53.1479H87.274V54.5899H85.832V53.1479Z" fill="#6C6C6C"/>
<path d="M87.2773 53.1479H88.7193V54.5899H87.2773V53.1479Z" fill="#6C6C6C"/>
<path d="M91.6016 53.1479H93.0435V54.5899H91.6016V53.1479Z" fill="#6C6C6C"/>
<path d="M94.4844 53.1479H95.9263V54.5899H94.4844V53.1479Z" fill="#6C6C6C"/>
<path d="M97.3711 53.1479H98.813V54.5899H97.3711V53.1479Z" fill="#6C6C6C"/>
<path d="M70.4531 54.5903H71.8951V56.0323H70.4531V54.5903Z" fill="#6C6C6C"/>
<path d="M73.3359 54.5903H74.7779V56.0323H73.3359V54.5903Z" fill="#6C6C6C"/>
<path d="M77.1797 54.5903H78.6216V56.0323H77.1797V54.5903Z" fill="#6C6C6C"/>
<path d="M80.0664 54.5903H81.5084V56.0323H80.0664V54.5903Z" fill="#6C6C6C"/>
<path d="M88.7188 54.5903H90.1607V56.0323H88.7188V54.5903Z" fill="#6C6C6C"/>
<path d="M90.1602 54.5903H91.6021V56.0323H90.1602V54.5903Z" fill="#6C6C6C"/>
<path d="M95.9297 54.5903H97.3716V56.0323H95.9297V54.5903Z" fill="#6C6C6C"/>
<path d="M69.0117 56.0332H70.4537V57.4752H69.0117V56.0332Z" fill="#6C6C6C"/>
<path d="M74.7773 56.0332H75.7386V57.4752H74.7773V56.0332Z" fill="#6C6C6C"/>
<path d="M75.7422 56.0332H77.1841V57.4752H75.7422V56.0332Z" fill="#6C6C6C"/>
<path d="M78.625 56.0332H80.067V57.4752H78.625V56.0332Z" fill="#6C6C6C"/>
<path d="M82.9492 56.0332H84.3912V57.4752H82.9492V56.0332Z" fill="#6C6C6C"/>
<path d="M85.832 56.0332H87.274V57.4752H85.832V56.0332Z" fill="#6C6C6C"/>
<path d="M93.043 56.0332H94.4849V57.4752H93.043V56.0332Z" fill="#6C6C6C"/>
<path d="M94.4844 56.0332H95.9263V57.4752H94.4844V56.0332Z" fill="#6C6C6C"/>
<path d="M98.8125 56.0332H100.254V57.4752H98.8125V56.0332Z" fill="#6C6C6C"/>
<path d="M70.4531 57.4761H71.8951V58.918H70.4531V57.4761Z" fill="#6C6C6C"/>
<path d="M73.3359 57.4761H74.7779V58.918H73.3359V57.4761Z" fill="#6C6C6C"/>
<path d="M75.7422 57.4761H77.1841V58.918H75.7422V57.4761Z" fill="#6C6C6C"/>
<path d="M87.2773 57.4761H88.7193V58.918H87.2773V57.4761Z" fill="#6C6C6C"/>
<path d="M90.1602 57.4761H91.6021V58.918H90.1602V57.4761Z" fill="#6C6C6C"/>
<path d="M93.043 57.4761H94.4849V58.918H93.043V57.4761Z" fill="#6C6C6C"/>
<path d="M97.3711 57.4761H98.813V58.918H97.3711V57.4761Z" fill="#6C6C6C"/>
<path d="M69.0117 58.9141H70.4537V60.356H69.0117V58.9141Z" fill="#6C6C6C"/>
<path d="M71.8945 58.9141H73.3365V60.356H71.8945V58.9141Z" fill="#6C6C6C"/>
<path d="M74.7773 58.9141H75.7386V60.356H74.7773V58.9141Z" fill="#6C6C6C"/>
<path d="M78.625 58.9141H80.067V60.356H78.625V58.9141Z" fill="#6C6C6C"/>
<path d="M80.0664 58.9141H81.5084V60.356H80.0664V58.9141Z" fill="#6C6C6C"/>
<path d="M88.7188 58.9141H90.1607V60.356H88.7188V58.9141Z" fill="#6C6C6C"/>
<path d="M94.4844 58.9141H95.9263V60.356H94.4844V58.9141Z" fill="#6C6C6C"/>
<path d="M98.8125 58.9141H100.254V60.356H98.8125V58.9141Z" fill="#6C6C6C"/>
<path d="M100.254 58.9141H101.696V60.356H100.254V58.9141Z" fill="#6C6C6C"/>
<path d="M73.3359 60.3569H74.7779V61.7989H73.3359V60.3569Z" fill="#6C6C6C"/>
<path d="M75.7422 60.3569H77.1841V61.7989H75.7422V60.3569Z" fill="#6C6C6C"/>
<path d="M80.0664 60.3569H81.5084V61.7989H80.0664V60.3569Z" fill="#6C6C6C"/>
<path d="M91.6016 60.3569H93.0435V61.7989H91.6016V60.3569Z" fill="#6C6C6C"/>
<path d="M93.043 60.3569H94.4849V61.7989H93.043V60.3569Z" fill="#6C6C6C"/>
<path d="M97.3711 60.3569H98.813V61.7989H97.3711V60.3569Z" fill="#6C6C6C"/>
<path d="M101.695 60.3569H103.137V61.7989H101.695V60.3569Z" fill="#6C6C6C"/>
<path d="M69.0117 61.7998H70.4537V63.2418H69.0117V61.7998Z" fill="#6C6C6C"/>
<path d="M71.8945 61.7998H73.3365V63.2418H71.8945V61.7998Z" fill="#6C6C6C"/>
<path d="M75.7422 61.7998H77.1841V63.2418H75.7422V61.7998Z" fill="#6C6C6C"/>
<path d="M78.625 61.7998H80.067V63.2418H78.625V61.7998Z" fill="#6C6C6C"/>
<path d="M88.7188 61.7998H90.1607V63.2418H88.7188V61.7998Z" fill="#6C6C6C"/>
<path d="M94.4844 61.7998H95.9263V63.2418H94.4844V61.7998Z" fill="#6C6C6C"/>
<path d="M98.8125 61.7998H100.254V63.2418H98.8125V61.7998Z" fill="#6C6C6C"/>
<path d="M69.0117 63.2427H70.4537V64.6846H69.0117V63.2427Z" fill="#6C6C6C"/>
<path d="M74.7773 63.2427H75.7386V64.6846H74.7773V63.2427Z" fill="#6C6C6C"/>
<path d="M78.625 63.2427H80.067V64.6846H78.625V63.2427Z" fill="#6C6C6C"/>
<path d="M91.6016 63.2427H93.0435V64.6846H91.6016V63.2427Z" fill="#6C6C6C"/>
<path d="M95.9297 63.2427H97.3716V64.6846H95.9297V63.2427Z" fill="#6C6C6C"/>
<path d="M97.3711 63.2427H98.813V64.6846H97.3711V63.2427Z" fill="#6C6C6C"/>
<path d="M101.695 63.2427H103.137V64.6846H101.695V63.2427Z" fill="#6C6C6C"/>
<path d="M71.8945 64.6855H73.3365V66.1275H71.8945V64.6855Z" fill="#6C6C6C"/>
<path d="M74.7773 64.6855H75.7386V66.1275H74.7773V64.6855Z" fill="#6C6C6C"/>
<path d="M75.7422 64.6855H77.1841V66.1275H75.7422V64.6855Z" fill="#6C6C6C"/>
<path d="M80.0664 64.6855H81.5084V66.1275H80.0664V64.6855Z" fill="#6C6C6C"/>
<path d="M90.1602 64.6855H91.6021V66.1275H90.1602V64.6855Z" fill="#6C6C6C"/>
<path d="M93.043 64.6855H94.4849V66.1275H93.043V64.6855Z" fill="#6C6C6C"/>
<path d="M95.9297 64.6855H97.3716V66.1275H95.9297V64.6855Z" fill="#6C6C6C"/>
<path d="M100.254 64.6855H101.696V66.1275H100.254V64.6855Z" fill="#6C6C6C"/>
<path d="M103.137 64.6855H104.579V66.1275H103.137V64.6855Z" fill="#6C6C6C"/>
<path d="M69.0117 66.1235H70.4537V67.5655H69.0117V66.1235Z" fill="#6C6C6C"/>
<path d="M71.8945 66.1235H73.3365V67.5655H71.8945V66.1235Z" fill="#6C6C6C"/>
<path d="M77.1797 66.1235H78.6216V67.5655H77.1797V66.1235Z" fill="#6C6C6C"/>
<path d="M80.0664 66.1235H81.5084V67.5655H80.0664V66.1235Z" fill="#6C6C6C"/>
<path d="M91.6016 66.1235H93.0435V67.5655H91.6016V66.1235Z" fill="#6C6C6C"/>
<path d="M94.4844 66.1235H95.9263V67.5655H94.4844V66.1235Z" fill="#6C6C6C"/>
<path d="M98.8125 66.1235H100.254V67.5655H98.8125V66.1235Z" fill="#6C6C6C"/>
<path d="M70.4531 67.5708H71.8951V69.0128H70.4531V67.5708Z" fill="#6C6C6C"/>
<path d="M73.3359 67.5708H74.7779V69.0128H73.3359V67.5708Z" fill="#6C6C6C"/>
<path d="M75.7422 67.5708H77.1841V69.0128H75.7422V67.5708Z" fill="#6C6C6C"/>
<path d="M78.625 67.5708H80.067V69.0128H78.625V67.5708Z" fill="#6C6C6C"/>
<path d="M90.1602 67.5708H91.6021V69.0128H90.1602V67.5708Z" fill="#6C6C6C"/>
<path d="M94.4844 67.5708H95.9263V69.0128H94.4844V67.5708Z" fill="#6C6C6C"/>
<path d="M97.3711 67.5708H98.813V69.0128H97.3711V67.5708Z" fill="#6C6C6C"/>
<path d="M100.254 67.5708H101.696V69.0128H100.254V67.5708Z" fill="#6C6C6C"/>
<path d="M69.0117 69.0088H70.4537V70.4507H69.0117V69.0088Z" fill="#6C6C6C"/>
<path d="M74.7773 69.0088H75.7386V70.4507H74.7773V69.0088Z" fill="#6C6C6C"/>
<path d="M77.1797 69.0088H78.6216V70.4507H77.1797V69.0088Z" fill="#6C6C6C"/>
<path d="M80.0664 69.0088H81.5084V70.4507H80.0664V69.0088Z" fill="#6C6C6C"/>
<path d="M95.9297 69.0088H97.3716V70.4507H95.9297V69.0088Z" fill="#6C6C6C"/>
<path d="M98.8125 69.0088H100.254V70.4507H98.8125V69.0088Z" fill="#6C6C6C"/>
<path d="M101.695 69.0088H103.137V70.4507H101.695V69.0088Z" fill="#6C6C6C"/>
<path d="M71.8945 70.4517H73.3365V71.8936H71.8945V70.4517Z" fill="#6C6C6C"/>
<path d="M73.3359 70.4517H74.7779V71.8936H73.3359V70.4517Z" fill="#6C6C6C"/>
<path d="M77.1797 70.4517H78.6216V71.8936H77.1797V70.4517Z" fill="#6C6C6C"/>
<path d="M88.7188 70.4517H90.1607V71.8936H88.7188V70.4517Z" fill="#6C6C6C"/>
<path d="M91.6016 70.4517H93.0435V71.8936H91.6016V70.4517Z" fill="#6C6C6C"/>
<path d="M94.4844 70.4517H95.9263V71.8936H94.4844V70.4517Z" fill="#6C6C6C"/>
<path d="M100.254 70.4517H101.696V71.8936H100.254V70.4517Z" fill="#6C6C6C"/>
<path d="M69.0117 71.8945H70.4537V73.3365H69.0117V71.8945Z" fill="#6C6C6C"/>
<path d="M74.7773 71.8945H75.7386V73.3365H74.7773V71.8945Z" fill="#6C6C6C"/>
<path d="M78.625 71.8945H80.067V73.3365H78.625V71.8945Z" fill="#6C6C6C"/>
<path d="M81.5078 71.8945H82.9498V73.3365H81.5078V71.8945Z" fill="#6C6C6C"/>
<path d="M91.6016 71.8945H93.0435V73.3365H91.6016V71.8945Z" fill="#6C6C6C"/>
<path d="M94.4844 71.8945H95.9263V73.3365H94.4844V71.8945Z" fill="#6C6C6C"/>
<path d="M97.3711 71.8945H98.813V73.3365H97.3711V71.8945Z" fill="#6C6C6C"/>
<path d="M98.8125 71.8945H100.254V73.3365H98.8125V71.8945Z" fill="#6C6C6C"/>
<path d="M70.4531 73.3374H71.8951V74.7794H70.4531V73.3374Z" fill="#6C6C6C"/>
<path d="M73.3359 73.3374H74.7779V74.7794H73.3359V73.3374Z" fill="#6C6C6C"/>
<path d="M77.1797 73.3374H78.6216V74.7794H77.1797V73.3374Z" fill="#6C6C6C"/>
<path d="M88.7188 73.3374H90.1607V74.7794H88.7188V73.3374Z" fill="#6C6C6C"/>
<path d="M91.6016 73.3374H93.0435V74.7794H91.6016V73.3374Z" fill="#6C6C6C"/>
<path d="M95.9297 73.3374H97.3716V74.7794H95.9297V73.3374Z" fill="#6C6C6C"/>
<path d="M100.254 73.3374H101.696V74.7794H100.254V73.3374Z" fill="#6C6C6C"/>
<path d="M70.4531 74.7803H71.8951V75.7416H70.4531V74.7803Z" fill="#6C6C6C"/>
<path d="M74.7773 74.7803H75.7386V75.7416H74.7773V74.7803Z" fill="#6C6C6C"/>
<path d="M78.625 74.7803H80.067V75.7416H78.625V74.7803Z" fill="#6C6C6C"/>
<path d="M90.1602 74.7803H91.6021V75.7416H90.1602V74.7803Z" fill="#6C6C6C"/>
<path d="M93.043 74.7803H94.4849V75.7416H93.043V74.7803Z" fill="#6C6C6C"/>
<path d="M95.9297 74.7803H97.3716V75.7416H95.9297V74.7803Z" fill="#6C6C6C"/>
<path d="M101.695 74.7803H103.137V75.7416H101.695V74.7803Z" fill="#6C6C6C"/>
<path d="M69.0117 75.7402H70.4537V77.1822H69.0117V75.7402Z" fill="#6C6C6C"/>
<path d="M74.7773 75.7402H75.7386V77.1822H74.7773V75.7402Z" fill="#6C6C6C"/>
<path d="M75.7422 75.7402H77.1841V77.1822H75.7422V75.7402Z" fill="#6C6C6C"/>
<path d="M77.1797 75.7402H78.6216V77.1822H77.1797V75.7402Z" fill="#6C6C6C"/>
<path d="M80.0664 75.7402H81.5084V77.1822H80.0664V75.7402Z" fill="#6C6C6C"/>
<path d="M87.2773 75.7402H88.7193V77.1822H87.2773V75.7402Z" fill="#6C6C6C"/>
<path d="M90.1602 75.7402H91.6021V77.1822H90.1602V75.7402Z" fill="#6C6C6C"/>
<path d="M98.8125 75.7402H100.254V77.1822H98.8125V75.7402Z" fill="#6C6C6C"/>
<path d="M70.4531 77.1831H71.8951V78.6251H70.4531V77.1831Z" fill="#6C6C6C"/>
<path d="M71.8945 77.1831H73.3365V78.6251H71.8945V77.1831Z" fill="#6C6C6C"/>
<path d="M78.625 77.1831H80.067V78.6251H78.625V77.1831Z" fill="#6C6C6C"/>
<path d="M91.6016 77.1831H93.0435V78.6251H91.6016V77.1831Z" fill="#6C6C6C"/>
<path d="M94.4844 77.1831H95.9263V78.6251H94.4844V77.1831Z" fill="#6C6C6C"/>
<path d="M95.9297 77.1831H97.3716V78.6251H95.9297V77.1831Z" fill="#6C6C6C"/>
<path d="M100.254 77.1831H101.696V78.6251H100.254V77.1831Z" fill="#6C6C6C"/>
<path d="M69.0117 78.626H70.4537V80.0679H69.0117V78.626Z" fill="#6C6C6C"/>
<path d="M73.3359 78.626H74.7779V80.0679H73.3359V78.626Z" fill="#6C6C6C"/>
<path d="M75.7422 78.626H77.1841V80.0679H75.7422V78.626Z" fill="#6C6C6C"/>
<path d="M78.625 78.626H80.067V80.0679H78.625V78.626Z" fill="#6C6C6C"/>
<path d="M85.832 78.626H87.274V80.0679H85.832V78.626Z" fill="#6C6C6C"/>
<path d="M88.7188 78.626H90.1607V80.0679H88.7188V78.626Z" fill="#6C6C6C"/>
<path d="M91.6016 78.626H93.0435V80.0679H91.6016V78.626Z" fill="#6C6C6C"/>
<path d="M93.043 78.626H94.4849V80.0679H93.043V78.626Z" fill="#6C6C6C"/>
<path d="M97.3711 78.626H98.813V80.0679H97.3711V78.626Z" fill="#6C6C6C"/>
<path d="M70.4531 80.064H71.8951V81.5059H70.4531V80.064Z" fill="#6C6C6C"/>
<path d="M73.3359 80.064H74.7779V81.5059H73.3359V80.064Z" fill="#6C6C6C"/>
<path d="M77.1797 80.064H78.6216V81.5059H77.1797V80.064Z" fill="#6C6C6C"/>
<path d="M81.5078 80.064H82.9498V81.5059H81.5078V80.064Z" fill="#6C6C6C"/>
<path d="M85.832 80.064H87.274V81.5059H85.832V80.064Z" fill="#6C6C6C"/>
<path d="M90.1602 80.064H91.6021V81.5059H90.1602V80.064Z" fill="#6C6C6C"/>
<path d="M94.4844 80.064H95.9263V81.5059H94.4844V80.064Z" fill="#6C6C6C"/>
<path d="M98.8125 80.064H100.254V81.5059H98.8125V80.064Z" fill="#6C6C6C"/>
<path d="M70.4531 81.5068H71.8951V82.9488H70.4531V81.5068Z" fill="#6C6C6C"/>
<path d="M74.7773 81.5068H75.7386V82.9488H74.7773V81.5068Z" fill="#6C6C6C"/>
<path d="M75.7422 81.5068H77.1841V82.9488H75.7422V81.5068Z" fill="#6C6C6C"/>
<path d="M78.625 81.5068H80.067V82.9488H78.625V81.5068Z" fill="#6C6C6C"/>
<path d="M87.2773 81.5068H88.7193V82.9488H87.2773V81.5068Z" fill="#6C6C6C"/>
<path d="M91.6016 81.5068H93.0435V82.9488H91.6016V81.5068Z" fill="#6C6C6C"/>
<path d="M94.4844 81.5068H95.9263V82.9488H94.4844V81.5068Z" fill="#6C6C6C"/>
<path d="M69.0117 82.9497H70.4537V84.3917H69.0117V82.9497Z" fill="#6C6C6C"/>
<path d="M71.8945 82.9497H73.3365V84.3917H71.8945V82.9497Z" fill="#6C6C6C"/>
<path d="M73.3359 82.9497H74.7779V84.3917H73.3359V82.9497Z" fill="#6C6C6C"/>
<path d="M75.7422 82.9497H77.1841V84.3917H75.7422V82.9497Z" fill="#6C6C6C"/>
<path d="M80.0664 82.9497H81.5084V84.3917H80.0664V82.9497Z" fill="#6C6C6C"/>
<path d="M88.7188 82.9497H90.1607V84.3917H88.7188V82.9497Z" fill="#6C6C6C"/>
<path d="M91.6016 82.9497H93.0435V84.3917H91.6016V82.9497Z" fill="#6C6C6C"/>
<path d="M95.9297 82.9497H97.3716V84.3917H95.9297V82.9497Z" fill="#6C6C6C"/>
<path d="M70.4531 84.3926H71.8951V85.8345H70.4531V84.3926Z" fill="#6C6C6C"/>
<path d="M77.1797 84.3926H78.6216V85.8345H77.1797V84.3926Z" fill="#6C6C6C"/>
<path d="M81.5078 84.3926H82.9498V85.8345H81.5078V84.3926Z" fill="#6C6C6C"/>
<path d="M94.4844 84.3926H95.9263V85.8345H94.4844V84.3926Z" fill="#6C6C6C"/>
<path d="M61.8008 85.8306H63.2427V87.2725H61.8008V85.8306Z" fill="#6C6C6C"/>
<path d="M64.6836 85.8306H66.1255V87.2725H64.6836V85.8306Z" fill="#6C6C6C"/>
<path d="M67.5664 85.8306H69.0084V87.2725H67.5664V85.8306Z" fill="#6C6C6C"/>
<path d="M70.4531 85.8306H71.8951V87.2725H70.4531V85.8306Z" fill="#6C6C6C"/>
<path d="M73.3359 85.8306H74.7779V87.2725H73.3359V85.8306Z" fill="#6C6C6C"/>
<path d="M75.7422 85.8306H77.1841V87.2725H75.7422V85.8306Z" fill="#6C6C6C"/>
<path d="M78.625 85.8306H80.067V87.2725H78.625V85.8306Z" fill="#6C6C6C"/>
<path d="M90.1602 85.8306H91.6021V87.2725H90.1602V85.8306Z" fill="#6C6C6C"/>
<path d="M57.4766 87.2734H58.9185V88.7154H57.4766V87.2734Z" fill="#6C6C6C"/>
<path d="M60.3594 87.2734H61.8013V88.7154H60.3594V87.2734Z" fill="#6C6C6C"/>
<path d="M63.2422 87.2734H64.6841V88.7154H63.2422V87.2734Z" fill="#6C6C6C"/>
<path d="M66.1289 87.2734H67.5709V88.7154H66.1289V87.2734Z" fill="#6C6C6C"/>
<path d="M71.8945 87.2734H73.3365V88.7154H71.8945V87.2734Z" fill="#6C6C6C"/>
<path d="M74.7773 87.2734H75.7386V88.7154H74.7773V87.2734Z" fill="#6C6C6C"/>
<path d="M77.1797 87.2734H78.6216V88.7154H77.1797V87.2734Z" fill="#6C6C6C"/>
<path d="M80.0664 87.2734H81.5084V88.7154H80.0664V87.2734Z" fill="#6C6C6C"/>
<path d="M53.1484 88.7158H54.5904V90.1578H53.1484V88.7158Z" fill="#6C6C6C"/>
<path d="M56.0312 88.7158H57.4732V90.1578H56.0312V88.7158Z" fill="#6C6C6C"/>
<path d="M58.918 88.7158H60.3599V90.1578H58.918V88.7158Z" fill="#6C6C6C"/>
<path d="M63.2422 88.7158H64.6841V90.1578H63.2422V88.7158Z" fill="#6C6C6C"/>
<path d="M64.6836 88.7158H66.1255V90.1578H64.6836V88.7158Z" fill="#6C6C6C"/>
<path d="M67.5664 88.7158H69.0084V90.1578H67.5664V88.7158Z" fill="#6C6C6C"/>
<path d="M69.0117 88.7158H70.4537V90.1578H69.0117V88.7158Z" fill="#6C6C6C"/>
<path d="M71.8945 88.7158H73.3365V90.1578H71.8945V88.7158Z" fill="#6C6C6C"/>
<path d="M74.7773 88.7158H75.7386V90.1578H74.7773V88.7158Z" fill="#6C6C6C"/>
<path d="M78.625 88.7158H80.067V90.1578H78.625V88.7158Z" fill="#6C6C6C"/>
<path d="M54.5898 90.1587H56.0318V91.6006H54.5898V90.1587Z" fill="#6C6C6C"/>
<path d="M60.3594 90.1587H61.8013V91.6006H60.3594V90.1587Z" fill="#6C6C6C"/>
<path d="M64.6836 90.1587H66.1255V91.6006H64.6836V90.1587Z" fill="#6C6C6C"/>
<path d="M70.4531 90.1587H71.8951V91.6006H70.4531V90.1587Z" fill="#6C6C6C"/>
<path d="M77.1797 90.1587H78.6216V91.6006H77.1797V90.1587Z" fill="#6C6C6C"/>
<path d="M51.707 91.6016H53.149V93.0435H51.707V91.6016Z" fill="#6C6C6C"/>
<path d="M54.5898 91.6016H56.0318V93.0435H54.5898V91.6016Z" fill="#6C6C6C"/>
<path d="M57.4766 91.6016H58.9185V93.0435H57.4766V91.6016Z" fill="#6C6C6C"/>
<path d="M61.8008 91.6016H63.2427V93.0435H61.8008V91.6016Z" fill="#6C6C6C"/>
<path d="M66.1289 91.6016H67.5709V93.0435H66.1289V91.6016Z" fill="#6C6C6C"/>
<path d="M70.4531 91.6016H71.8951V93.0435H70.4531V91.6016Z" fill="#6C6C6C"/>
<path d="M73.3359 91.6016H74.7779V93.0435H73.3359V91.6016Z" fill="#6C6C6C"/>
<path d="M78.625 91.6016H80.067V93.0435H78.625V91.6016Z" fill="#6C6C6C"/>
<path d="M81.5078 91.6016H82.9498V93.0435H81.5078V91.6016Z" fill="#6C6C6C"/>
<path d="M51.707 93.0396H53.149V94.4815H51.707V93.0396Z" fill="#6C6C6C"/>
<path d="M54.5898 93.0396H56.0318V94.4815H54.5898V93.0396Z" fill="#6C6C6C"/>
<path d="M58.918 93.0396H60.3599V94.4815H58.918V93.0396Z" fill="#6C6C6C"/>
<path d="M61.8008 93.0396H63.2427V94.4815H61.8008V93.0396Z" fill="#6C6C6C"/>
<path d="M67.5664 93.0396H69.0084V94.4815H67.5664V93.0396Z" fill="#6C6C6C"/>
<path d="M70.4531 93.0396H71.8951V94.4815H70.4531V93.0396Z" fill="#6C6C6C"/>
<path d="M73.3359 93.0396H74.7779V94.4815H73.3359V93.0396Z" fill="#6C6C6C"/>
<path d="M75.7422 93.0396H77.1841V94.4815H75.7422V93.0396Z" fill="#6C6C6C"/>
<path d="M78.625 93.0396H80.067V94.4815H78.625V93.0396Z" fill="#6C6C6C"/>
<path d="M53.1484 94.4873H54.5904V95.9293H53.1484V94.4873Z" fill="#6C6C6C"/>
<path d="M57.4766 94.4873H58.9185V95.9293H57.4766V94.4873Z" fill="#6C6C6C"/>
<path d="M58.918 94.4873H60.3599V95.9293H58.918V94.4873Z" fill="#6C6C6C"/>
<path d="M63.2422 94.4873H64.6841V95.9293H63.2422V94.4873Z" fill="#6C6C6C"/>
<path d="M66.1289 94.4873H67.5709V95.9293H66.1289V94.4873Z" fill="#6C6C6C"/>
<path d="M69.0117 94.4873H70.4537V95.9293H69.0117V94.4873Z" fill="#6C6C6C"/>
<path d="M70.4531 94.4873H71.8951V95.9293H70.4531V94.4873Z" fill="#6C6C6C"/>
<path d="M75.7422 94.4873H77.1841V95.9293H75.7422V94.4873Z" fill="#6C6C6C"/>
<path d="M77.1797 94.4873H78.6216V95.9293H77.1797V94.4873Z" fill="#6C6C6C"/>
<path d="M48.8242 95.9253H50.2662V97.3672H48.8242V95.9253Z" fill="#6C6C6C"/>
<path d="M51.707 95.9253H53.149V97.3672H51.707V95.9253Z" fill="#6C6C6C"/>
<path d="M54.5898 95.9253H56.0318V97.3672H54.5898V95.9253Z" fill="#6C6C6C"/>
<path d="M57.4766 95.9253H58.9185V97.3672H57.4766V95.9253Z" fill="#6C6C6C"/>
<path d="M60.3594 95.9253H61.8013V97.3672H60.3594V95.9253Z" fill="#6C6C6C"/>
<path d="M64.6836 95.9253H66.1255V97.3672H64.6836V95.9253Z" fill="#6C6C6C"/>
<path d="M67.5664 95.9253H69.0084V97.3672H67.5664V95.9253Z" fill="#6C6C6C"/>
<path d="M71.8945 95.9253H73.3365V97.3672H71.8945V95.9253Z" fill="#6C6C6C"/>
<path d="M73.3359 95.9253H74.7779V97.3672H73.3359V95.9253Z" fill="#6C6C6C"/>
<path d="M80.0664 95.9253H81.5084V97.3672H80.0664V95.9253Z" fill="#6C6C6C"/>
<path d="M48.8242 97.3682H50.2662V98.8101H48.8242V97.3682Z" fill="#6C6C6C"/>
<path d="M54.5898 97.3682H56.0318V98.8101H54.5898V97.3682Z" fill="#6C6C6C"/>
<path d="M60.3594 97.3682H61.8013V98.8101H60.3594V97.3682Z" fill="#6C6C6C"/>
<path d="M67.5664 97.3682H69.0084V98.8101H67.5664V97.3682Z" fill="#6C6C6C"/>
<path d="M71.8945 97.3682H73.3365V98.8101H71.8945V97.3682Z" fill="#6C6C6C"/>
<path d="M75.7422 97.3682H77.1841V98.8101H75.7422V97.3682Z" fill="#6C6C6C"/>
<path d="M77.1797 97.3682H78.6216V98.8101H77.1797V97.3682Z" fill="#6C6C6C"/>
<path d="M50.2656 98.811H51.7076V100.253H50.2656V98.811Z" fill="#6C6C6C"/>
<path d="M51.707 98.811H53.149V100.253H51.707V98.811Z" fill="#6C6C6C"/>
<path d="M56.0312 98.811H57.4732V100.253H56.0312V98.811Z" fill="#6C6C6C"/>
<path d="M58.918 98.811H60.3599V100.253H58.918V98.811Z" fill="#6C6C6C"/>
<path d="M61.8008 98.811H63.2427V100.253H61.8008V98.811Z" fill="#6C6C6C"/>
<path d="M64.6836 98.811H66.1255V100.253H64.6836V98.811Z" fill="#6C6C6C"/>
<path d="M67.5664 98.811H69.0084V100.253H67.5664V98.811Z" fill="#6C6C6C"/>
<path d="M70.4531 98.811H71.8951V100.253H70.4531V98.811Z" fill="#6C6C6C"/>
<path d="M78.625 98.811H80.067V100.253H78.625V98.811Z" fill="#6C6C6C"/>
<path d="M81.5078 98.811H82.9498V100.253H81.5078V98.811Z" fill="#6C6C6C"/>
<path d="M47.3789 100.253H48.8209V101.695H47.3789V100.253Z" fill="#6C6C6C"/>
<path d="M50.2656 100.253H51.7076V101.695H50.2656V100.253Z" fill="#6C6C6C"/>
<path d="M53.1484 100.253H54.5904V101.695H53.1484V100.253Z" fill="#6C6C6C"/>
<path d="M56.0312 100.253H57.4732V101.695H56.0312V100.253Z" fill="#6C6C6C"/>
<path d="M60.3594 100.253H61.8013V101.695H60.3594V100.253Z" fill="#6C6C6C"/>
<path d="M64.6836 100.253H66.1255V101.695H64.6836V100.253Z" fill="#6C6C6C"/>
<path d="M67.5664 100.253H69.0084V101.695H67.5664V100.253Z" fill="#6C6C6C"/>
<path d="M73.3359 100.253H74.7779V101.695H73.3359V100.253Z" fill="#6C6C6C"/>
<path d="M75.7422 100.253H77.1841V101.695H75.7422V100.253Z" fill="#6C6C6C"/>
<path d="M48.8242 101.696H50.2662V103.138H48.8242V101.696Z" fill="#6C6C6C"/>
<path d="M51.707 101.696H53.149V103.138H51.707V101.696Z" fill="#6C6C6C"/>
<path d="M57.4766 101.696H58.9185V103.138H57.4766V101.696Z" fill="#6C6C6C"/>
<path d="M61.8008 101.696H63.2427V103.138H61.8008V101.696Z" fill="#6C6C6C"/>
<path d="M64.6836 101.696H66.1255V103.138H64.6836V101.696Z" fill="#6C6C6C"/>
<path d="M69.0117 101.696H70.4537V103.138H69.0117V101.696Z" fill="#6C6C6C"/>
<path d="M71.8945 101.696H73.3365V103.138H71.8945V101.696Z" fill="#6C6C6C"/>
<path d="M74.7773 101.696H75.7386V103.138H74.7773V101.696Z" fill="#6C6C6C"/>
<path d="M77.1797 101.696H78.6216V103.138H77.1797V101.696Z" fill="#6C6C6C"/>
<path d="M47.3789 103.134H48.8209V104.576H47.3789V103.134Z" fill="#6C6C6C"/>
<path d="M51.707 103.134H53.149V104.576H51.707V103.134Z" fill="#6C6C6C"/>
<path d="M54.5898 103.134H56.0318V104.576H54.5898V103.134Z" fill="#6C6C6C"/>
<path d="M57.4766 103.134H58.9185V104.576H57.4766V103.134Z" fill="#6C6C6C"/>
<path d="M61.8008 103.134H63.2427V104.576H61.8008V103.134Z" fill="#6C6C6C"/>
<path d="M64.6836 103.134H66.1255V104.576H64.6836V103.134Z" fill="#6C6C6C"/>
<path d="M69.0117 103.134H70.4537V104.576H69.0117V103.134Z" fill="#6C6C6C"/>
<path d="M71.8945 103.134H73.3365V104.576H71.8945V103.134Z" fill="#6C6C6C"/>
<path d="M75.7422 103.134H77.1841V104.576H75.7422V103.134Z" fill="#6C6C6C"/>
<path d="M78.625 103.134H80.067V104.576H78.625V103.134Z" fill="#6C6C6C"/>
<path d="M81.5078 103.134H82.9498V104.576H81.5078V103.134Z" fill="#6C6C6C"/>
<path d="M48.8242 104.577H50.2662V106.019H48.8242V104.577Z" fill="#6C6C6C"/>
<path d="M54.5898 104.577H56.0318V106.019H54.5898V104.577Z" fill="#6C6C6C"/>
<path d="M58.918 104.577H60.3599V106.019H58.918V104.577Z" fill="#6C6C6C"/>
<path d="M61.8008 104.577H63.2427V106.019H61.8008V104.577Z" fill="#6C6C6C"/>
<path d="M66.1289 104.577H67.5709V106.019H66.1289V104.577Z" fill="#6C6C6C"/>
<path d="M69.0117 104.577H70.4537V106.019H69.0117V104.577Z" fill="#6C6C6C"/>
<path d="M74.7773 104.577H75.7386V106.019H74.7773V104.577Z" fill="#6C6C6C"/>
<path d="M50.2656 106.02H51.7076V107.462H50.2656V106.02Z" fill="#6C6C6C"/>
<path d="M51.707 106.02H53.149V107.462H51.707V106.02Z" fill="#6C6C6C"/>
<path d="M54.5898 106.02H56.0318V107.462H54.5898V106.02Z" fill="#6C6C6C"/>
<path d="M57.4766 106.02H58.9185V107.462H57.4766V106.02Z" fill="#6C6C6C"/>
<path d="M63.2422 106.02H64.6841V107.462H63.2422V106.02Z" fill="#6C6C6C"/>
<path d="M67.5664 106.02H69.0084V107.462H67.5664V106.02Z" fill="#6C6C6C"/>
<path d="M71.8945 106.02H73.3365V107.462H71.8945V106.02Z" fill="#6C6C6C"/>
<path d="M77.1797 106.02H78.6216V107.462H77.1797V106.02Z" fill="#6C6C6C"/>
<path d="M80.0664 106.02H81.5084V107.462H80.0664V106.02Z" fill="#6C6C6C"/>
<path d="M47.3789 107.463H48.8209V108.905H47.3789V107.463Z" fill="#6C6C6C"/>
<path d="M48.8242 107.463H50.2662V108.905H48.8242V107.463Z" fill="#6C6C6C"/>
<path d="M53.1484 107.463H54.5904V108.905H53.1484V107.463Z" fill="#6C6C6C"/>
<path d="M56.0312 107.463H57.4732V108.905H56.0312V107.463Z" fill="#6C6C6C"/>
<path d="M58.918 107.463H60.3599V108.905H58.918V107.463Z" fill="#6C6C6C"/>
<path d="M61.8008 107.463H63.2427V108.905H61.8008V107.463Z" fill="#6C6C6C"/>
<path d="M64.6836 107.463H66.1255V108.905H64.6836V107.463Z" fill="#6C6C6C"/>
<path d="M69.0117 107.463H70.4537V108.905H69.0117V107.463Z" fill="#6C6C6C"/>
<path d="M74.7773 107.463H75.7386V108.905H74.7773V107.463Z" fill="#6C6C6C"/>
<path d="M77.1797 107.463H78.6216V108.905H77.1797V107.463Z" fill="#6C6C6C"/>
<path d="M51.707 108.906H53.149V110.348H51.707V108.906Z" fill="#6C6C6C"/>
<path d="M56.0312 108.906H57.4732V110.348H56.0312V108.906Z" fill="#6C6C6C"/>
<path d="M58.918 108.906H60.3599V110.348H58.918V108.906Z" fill="#6C6C6C"/>
<path d="M66.1289 108.906H67.5709V110.348H66.1289V108.906Z" fill="#6C6C6C"/>
<path d="M69.0117 108.906H70.4537V110.348H69.0117V108.906Z" fill="#6C6C6C"/>
<path d="M71.8945 108.906H73.3365V110.348H71.8945V108.906Z" fill="#6C6C6C"/>
<path d="M74.7773 108.906H75.7386V110.348H74.7773V108.906Z" fill="#6C6C6C"/>
<path d="M77.1797 108.906H78.6216V110.348H77.1797V108.906Z" fill="#6C6C6C"/>
<path d="M78.625 108.906H80.067V110.348H78.625V108.906Z" fill="#6C6C6C"/>
<path d="M50.2656 110.344H51.7076V111.786H50.2656V110.344Z" fill="#6C6C6C"/>
<path d="M53.1484 110.344H54.5904V111.786H53.1484V110.344Z" fill="#6C6C6C"/>
<path d="M56.0312 110.344H57.4732V111.786H56.0312V110.344Z" fill="#6C6C6C"/>
<path d="M58.918 110.344H60.3599V111.786H58.918V110.344Z" fill="#6C6C6C"/>
<path d="M61.8008 110.344H63.2427V111.786H61.8008V110.344Z" fill="#6C6C6C"/>
<path d="M67.5664 110.344H69.0084V111.786H67.5664V110.344Z" fill="#6C6C6C"/>
<path d="M73.3359 110.344H74.7779V111.786H73.3359V110.344Z" fill="#6C6C6C"/>
<path d="M56.0312 111.791H57.4732V113.233H56.0312V111.791Z" fill="#6C6C6C"/>
<path d="M58.918 111.791H60.3599V113.233H58.918V111.791Z" fill="#6C6C6C"/>
<path d="M61.8008 111.791H63.2427V113.233H61.8008V111.791Z" fill="#6C6C6C"/>
<path d="M64.6836 111.791H66.1255V113.233H64.6836V111.791Z" fill="#6C6C6C"/>
<path d="M70.4531 111.791H71.8951V113.233H70.4531V111.791Z" fill="#6C6C6C"/>
<path d="M73.3359 111.791H74.7779V113.233H73.3359V111.791Z" fill="#6C6C6C"/>
<path d="M75.7422 111.791H77.1841V113.233H75.7422V111.791Z" fill="#6C6C6C"/>
<path d="M50.2656 113.229H51.7076V114.671H50.2656V113.229Z" fill="#6C6C6C"/>
<path d="M53.1484 113.229H54.5904V114.671H53.1484V113.229Z" fill="#6C6C6C"/>
<path d="M57.4766 113.229H58.9185V114.671H57.4766V113.229Z" fill="#6C6C6C"/>
<path d="M63.2422 113.229H64.6841V114.671H63.2422V113.229Z" fill="#6C6C6C"/>
<path d="M67.5664 113.229H69.0084V114.671H67.5664V113.229Z" fill="#6C6C6C"/>
<path d="M71.8945 113.229H73.3365V114.671H71.8945V113.229Z" fill="#6C6C6C"/>
<path d="M78.625 113.229H80.067V114.671H78.625V113.229Z" fill="#6C6C6C"/>
<path d="M53.1484 114.672H54.5904V116.114H53.1484V114.672Z" fill="#6C6C6C"/>
<path d="M56.0312 114.672H57.4732V116.114H56.0312V114.672Z" fill="#6C6C6C"/>
<path d="M58.918 114.672H60.3599V116.114H58.918V114.672Z" fill="#6C6C6C"/>
<path d="M61.8008 114.672H63.2427V116.114H61.8008V114.672Z" fill="#6C6C6C"/>
<path d="M64.6836 114.672H66.1255V116.114H64.6836V114.672Z" fill="#6C6C6C"/>
<path d="M69.0117 114.672H70.4537V116.114H69.0117V114.672Z" fill="#6C6C6C"/>
<path d="M74.7773 114.672H75.7386V116.114H74.7773V114.672Z" fill="#6C6C6C"/>
<path d="M57.4766 116.115H58.9185V117.557H57.4766V116.115Z" fill="#6C6C6C"/>
<path d="M60.3594 116.115H61.8013V117.557H60.3594V116.115Z" fill="#6C6C6C"/>
<path d="M70.4531 116.115H71.8951V117.557H70.4531V116.115Z" fill="#6C6C6C"/>
<path d="M61.8008 117.558H63.2427V119H61.8008V117.558Z" fill="#6C6C6C"/>
<path d="M64.6836 117.558H66.1255V119H64.6836V117.558Z" fill="#6C6C6C"/>
<path d="M66.1289 117.558H67.5709V119H66.1289V117.558Z" fill="#6C6C6C"/>
<path d="M69.0117 117.558H70.4537V119H69.0117V117.558Z" fill="#6C6C6C"/>
</g>
<defs>
<clipPath id="clip0_63_107719">
<rect width="87" height="87" fill="white" transform="translate(32 32)"/>
</clipPath>
</defs>
</svg>
